<svg width="152" height="107" viewBox="0 0 152 107" fill="none" xmlns="http://www.w3.org/2000/svg">
<path d="M83.1356 53.477H82.648V53.5247H83.1356V53.477Z" fill="black"/>
<path d="M83.1356 52.9927H82.648V53.0404H83.1356V52.9927Z" fill="black"/>
<path d="M83.1356 52.5085H82.648V52.5563H83.1356V52.5085Z" fill="black"/>
<path d="M83.1356 52.026H82.648V52.0737H83.1356V52.026Z" fill="black"/>
<path d="M83.1356 51.5417H82.648V51.5895H83.1356V51.5417Z" fill="black"/>
<path d="M83.1356 51.0592H82.648V51.107H83.1356V51.0592Z" fill="black"/>
<path d="M83.1356 50.575H82.648V50.6227H83.1356V50.575Z" fill="black"/>
<path d="M83.1356 50.0924H82.648V50.1402H83.1356V50.0924Z" fill="black"/>
<path d="M83.1356 49.6083H82.648V49.656H83.1356V49.6083Z" fill="black"/>
<path d="M83.1356 49.1257H82.648V49.1735H83.1356V49.1257Z" fill="black"/>
<path d="M83.1356 48.6415H82.648V48.6892H83.1356V48.6415Z" fill="black"/>
<path d="M83.1356 48.159H82.648V48.2067H83.1356V48.159Z" fill="black"/>
<path d="M83.1356 47.6747H82.648V47.7225H83.1356V47.6747Z" fill="black"/>
<path d="M85.577 53.4377H84.1125V53.5639H85.577V53.4377Z" fill="black"/>
<path d="M85.577 51.9851H84.1125V52.1112H85.577V51.9851Z" fill="black"/>
<path d="M85.577 50.5341H84.1125V50.6603H85.577V50.5341Z" fill="black"/>
<path d="M85.577 49.0831H84.1125V49.2092H85.577V49.0831Z" fill="black"/>
<path d="M85.577 47.6321H84.1125V47.7583H85.577V47.6321Z" fill="black"/>
<path d="M85.577 46.1811H84.1125V46.3073H85.577V46.1811Z" fill="black"/>
<path d="M88.0201 53.3986H85.5787V53.6032H88.0201V53.3986Z" fill="black"/>
<path d="M88.0201 50.9825H85.5787V51.1871H88.0201V50.9825Z" fill="black"/>
<path d="M88.0201 48.5682H85.5787V48.7728H88.0201V48.5682Z" fill="black"/>
<path d="M88.0201 46.1522H85.5787V46.3568H88.0201V46.1522Z" fill="black"/>
<path d="M91.9278 53.3354H88.0201V53.6662H91.9278V53.3354Z" fill="black"/>
<path d="M91.9278 49.4616H88.0201V49.7924H91.9278V49.4616Z" fill="black"/>
<path d="M91.9278 45.5894H88.0201V45.9202H91.9278V45.5894Z" fill="black"/>
<path d="M91.9278 41.7156H88.0201V42.0464H91.9278V41.7156Z" fill="black"/>
<path d="M98.2768 53.2332H91.9278V53.7686H98.2768V53.2332Z" fill="black"/>
<path d="M98.2768 46.9381H91.9278V47.4735H98.2768V46.9381Z" fill="black"/>
<path d="M98.2768 40.6448H91.9278V41.1802H98.2768V40.6448Z" fill="black"/>
<path d="M108.534 53.0848H98.2768V53.9152H108.534V53.0848Z" fill="black"/>
<path d="M108.534 42.858H98.2768V43.6883H108.534V42.858Z" fill="black"/>
<path d="M108.534 32.6294H98.2768V33.4598H108.534V32.6294Z" fill="black"/>
<path d="M125.139 52.7983H108.534V54.2016H125.139V52.7983Z" fill="black"/>
<path d="M125.139 36.4351H108.534V37.8384H125.139V36.4351Z" fill="black"/>
<path d="M125.139 20.0701H108.534V21.4733H125.139V20.0701Z" fill="black"/>
<path d="M152 52.3653H125.138V54.6347H152V52.3653Z" fill="black"/>
<path d="M152 26.1826H125.138V28.452H152V26.1826Z" fill="black"/>
<path d="M152 0H125.138V2.26941H152V0Z" fill="black"/>
<path d="M84.1125 53.4599H83.1356V53.5417H84.1125V53.4599Z" fill="black"/>
<path d="M84.1125 52.4932H83.1356V52.575H84.1125V52.4932Z" fill="black"/>
<path d="M84.1125 51.5264H83.1356V51.6083H84.1125V51.5264Z" fill="black"/>
<path d="M84.1125 50.5596H83.1356V50.6415H84.1125V50.5596Z" fill="black"/>
<path d="M84.1125 49.5929H83.1356V49.6747H84.1125V49.5929Z" fill="black"/>
<path d="M84.1125 48.6262H83.1356V48.708H84.1125V48.6262Z" fill="black"/>
<path d="M84.1125 47.6594H83.1356V47.7412H84.1125V47.6594Z" fill="black"/>
<path d="M84.1125 46.6909H83.1356V46.7728H84.1125V46.6909Z" fill="black"/>
<path d="M83.1356 53.9595H82.648V54.0073H83.1356V53.9595Z" fill="black"/>
<path d="M83.1356 54.4438H82.648V54.4915H83.1356V54.4438Z" fill="black"/>
<path d="M83.1356 54.9263H82.648V54.974H83.1356V54.9263Z" fill="black"/>
<path d="M83.1356 55.4105H82.648V55.4583H83.1356V55.4105Z" fill="black"/>
<path d="M83.1356 55.8931H82.648V55.9408H83.1356V55.8931Z" fill="black"/>
<path d="M83.1356 56.3773H82.648V56.4251H83.1356V56.3773Z" fill="black"/>
<path d="M83.1356 56.8598H82.648V56.9075H83.1356V56.8598Z" fill="black"/>
<path d="M83.1356 57.344H82.648V57.3918H83.1356V57.344Z" fill="black"/>
<path d="M83.1356 57.8266H82.648V57.8743H83.1356V57.8266Z" fill="black"/>
<path d="M83.1356 58.3108H82.648V58.3585H83.1356V58.3108Z" fill="black"/>
<path d="M83.1356 58.7933H82.648V58.8411H83.1356V58.7933Z" fill="black"/>
<path d="M83.1356 59.2776H82.648V59.3253H83.1356V59.2776Z" fill="black"/>
<path d="M85.577 54.8888H84.1125V55.015H85.577V54.8888Z" fill="black"/>
<path d="M85.577 56.3398H84.1125V56.466H85.577V56.3398Z" fill="black"/>
<path d="M85.577 57.7907H84.1125V57.9169H85.577V57.7907Z" fill="black"/>
<path d="M85.577 59.2435H84.1125V59.3696H85.577V59.2435Z" fill="black"/>
<path d="M85.577 60.6944H84.1125V60.8206H85.577V60.6944Z" fill="black"/>
<path d="M88.0201 55.8129H85.5787V56.0175H88.0201V55.8129Z" fill="black"/>
<path d="M88.0201 58.2289H85.5787V58.4335H88.0201V58.2289Z" fill="black"/>
<path d="M88.0201 60.645H85.5787V60.8496H88.0201V60.645Z" fill="black"/>
<path d="M91.9278 57.2076H88.0201V57.5384H91.9278V57.2076Z" fill="black"/>
<path d="M91.9278 61.0815H88.0201V61.4123H91.9278V61.0815Z" fill="black"/>
<path d="M91.9278 64.9537H88.0201V65.2845H91.9278V64.9537Z" fill="black"/>
<path d="M98.2768 59.5265H91.9278V60.0619H98.2768V59.5265Z" fill="black"/>
<path d="M98.2768 65.8198H91.9278V66.3552H98.2768V65.8198Z" fill="black"/>
<path d="M108.534 63.3134H98.2768V64.1437H108.534V63.3134Z" fill="black"/>
<path d="M108.534 73.5403H98.2768V74.3706H108.534V73.5403Z" fill="black"/>
<path d="M125.139 69.1634H108.534V70.5666H125.139V69.1634Z" fill="black"/>
<path d="M125.139 85.5267H108.534V86.9299H125.139V85.5267Z" fill="black"/>
<path d="M152 78.548H125.138V80.8174H152V78.548Z" fill="black"/>
<path d="M152 104.731H125.138V107H152V104.731Z" fill="black"/>
<path d="M84.1125 54.4267H83.1356V54.5085H84.1125V54.4267Z" fill="black"/>
<path d="M84.1125 55.3934H83.1356V55.4753H84.1125V55.3934Z" fill="black"/>
<path d="M84.1125 56.3602H83.1356V56.4421H84.1125V56.3602Z" fill="black"/>
<path d="M84.1125 57.327H83.1356V57.4088H84.1125V57.327Z" fill="black"/>
<path d="M84.1125 58.2937H83.1356V58.3755H84.1125V58.2937Z" fill="black"/>
<path d="M84.1125 59.2605H83.1356V59.3424H84.1125V59.2605Z" fill="black"/>
<path d="M84.1125 60.2272H83.1356V60.3091H84.1125V60.2272Z" fill="black"/>
<path d="M69.352 53.477H68.8644V53.5247H69.352V53.477Z" fill="black"/>
<path d="M69.352 53.9595H68.8644V54.0073H69.352V53.9595Z" fill="black"/>
<path d="M69.352 54.4437H68.8644V54.4914H69.352V54.4437Z" fill="black"/>
<path d="M69.352 54.9263H68.8644V54.974H69.352V54.9263Z" fill="black"/>
<path d="M69.352 55.4105H68.8644V55.4583H69.352V55.4105Z" fill="black"/>
<path d="M69.352 55.893H68.8644V55.9407H69.352V55.893Z" fill="black"/>
<path d="M69.352 56.3772H68.8644V56.425H69.352V56.3772Z" fill="black"/>
<path d="M69.352 56.8598H68.8644V56.9076H69.352V56.8598Z" fill="black"/>
<path d="M69.352 57.344H68.8644V57.3917H69.352V57.344Z" fill="black"/>
<path d="M69.352 57.8265H68.8644V57.8743H69.352V57.8265Z" fill="black"/>
<path d="M69.352 58.3108H68.8644V58.3585H69.352V58.3108Z" fill="black"/>
<path d="M69.352 58.7933H68.8644V58.841H69.352V58.7933Z" fill="black"/>
<path d="M69.352 59.2775H68.8644V59.3253H69.352V59.2775Z" fill="black"/>
<path d="M67.8858 53.4377H66.4213V53.5639H67.8858V53.4377Z" fill="black"/>
<path d="M67.8858 54.8887H66.4213V55.0149H67.8858V54.8887Z" fill="black"/>
<path d="M67.8858 56.3398H66.4213V56.466H67.8858V56.3398Z" fill="black"/>
<path d="M67.8858 57.7908H66.4213V57.917H67.8858V57.7908Z" fill="black"/>
<path d="M67.8858 59.2435H66.4213V59.3696H67.8858V59.2435Z" fill="black"/>
<path d="M67.8858 60.6945H66.4213V60.8206H67.8858V60.6945Z" fill="black"/>
<path d="M66.4213 53.3986H63.9799V53.6032H66.4213V53.3986Z" fill="black"/>
<path d="M66.4213 55.8129H63.9799V56.0175H66.4213V55.8129Z" fill="black"/>
<path d="M66.4213 58.2289H63.9799V58.4335H66.4213V58.2289Z" fill="black"/>
<path d="M66.4213 60.645H63.9799V60.8496H66.4213V60.645Z" fill="black"/>
<path d="M63.9798 53.3354H60.0722V53.6662H63.9798V53.3354Z" fill="black"/>
<path d="M63.9798 57.2076H60.0722V57.5384H63.9798V57.2076Z" fill="black"/>
<path d="M63.9798 61.0815H60.0722V61.4123H63.9798V61.0815Z" fill="black"/>
<path d="M63.9798 64.9537H60.0722V65.2845H63.9798V64.9537Z" fill="black"/>
<path d="M60.0722 53.2332H53.7232V53.7686H60.0722V53.2332Z" fill="black"/>
<path d="M60.0722 59.5265H53.7232V60.0619H60.0722V59.5265Z" fill="black"/>
<path d="M60.0722 65.8198H53.7232V66.3552H60.0722V65.8198Z" fill="black"/>
<path d="M53.7232 53.0848H43.4665V53.9152H53.7232V53.0848Z" fill="black"/>
<path d="M53.7232 63.3134H43.4665V64.1438H53.7232V63.3134Z" fill="black"/>
<path d="M53.7232 73.5402H43.4665V74.3705H53.7232V73.5402Z" fill="black"/>
<path d="M43.4682 52.7983H26.8624V54.2016H43.4682V52.7983Z" fill="black"/>
<path d="M43.4682 69.1634H26.8624V70.5666H43.4682V69.1634Z" fill="black"/>
<path d="M43.4682 85.5267H26.8624V86.9299H43.4682V85.5267Z" fill="black"/>
<path d="M26.8624 52.3653H0V54.6347H26.8624V52.3653Z" fill="black"/>
<path d="M26.8624 78.548H0V80.8174H26.8624V78.548Z" fill="black"/>
<path d="M26.8624 104.731H0V107H26.8624V104.731Z" fill="black"/>
<path d="M68.8644 53.4599H67.8875V53.5417H68.8644V53.4599Z" fill="black"/>
<path d="M68.8644 54.4267H67.8875V54.5085H68.8644V54.4267Z" fill="black"/>
<path d="M68.8644 55.3934H67.8875V55.4753H68.8644V55.3934Z" fill="black"/>
<path d="M68.8644 56.3602H67.8875V56.442H68.8644V56.3602Z" fill="black"/>
<path d="M68.8644 57.327H67.8875V57.4088H68.8644V57.327Z" fill="black"/>
<path d="M68.8644 58.2937H67.8875V58.3756H68.8644V58.2937Z" fill="black"/>
<path d="M68.8644 59.2604H67.8875V59.3423H68.8644V59.2604Z" fill="black"/>
<path d="M68.8644 60.2273H67.8875V60.3091H68.8644V60.2273Z" fill="black"/>
<path d="M69.352 52.9927H68.8644V53.0404H69.352V52.9927Z" fill="black"/>
<path d="M69.352 52.5085H68.8644V52.5563H69.352V52.5085Z" fill="black"/>
<path d="M69.352 52.026H68.8644V52.0737H69.352V52.026Z" fill="black"/>
<path d="M69.352 51.5417H68.8644V51.5895H69.352V51.5417Z" fill="black"/>
<path d="M69.352 51.0592H68.8644V51.107H69.352V51.0592Z" fill="black"/>
<path d="M69.352 50.575H68.8644V50.6227H69.352V50.575Z" fill="black"/>
<path d="M69.352 50.0924H68.8644V50.1402H69.352V50.0924Z" fill="black"/>
<path d="M69.352 49.6083H68.8644V49.656H69.352V49.6083Z" fill="black"/>
<path d="M69.352 49.1257H68.8644V49.1735H69.352V49.1257Z" fill="black"/>
<path d="M69.352 48.6415H68.8644V48.6892H69.352V48.6415Z" fill="black"/>
<path d="M69.352 48.159H68.8644V48.2067H69.352V48.159Z" fill="black"/>
<path d="M69.352 47.6747H68.8644V47.7225H69.352V47.6747Z" fill="black"/>
<path d="M67.8858 51.9851H66.4213V52.1112H67.8858V51.9851Z" fill="black"/>
<path d="M67.8858 50.5341H66.4213V50.6603H67.8858V50.5341Z" fill="black"/>
<path d="M67.8858 49.0831H66.4213V49.2092H67.8858V49.0831Z" fill="black"/>
<path d="M67.8858 47.6321H66.4213V47.7583H67.8858V47.6321Z" fill="black"/>
<path d="M67.8858 46.1811H66.4213V46.3073H67.8858V46.1811Z" fill="black"/>
<path d="M66.4213 50.9825H63.9799V51.1871H66.4213V50.9825Z" fill="black"/>
<path d="M66.4213 48.5682H63.9799V48.7728H66.4213V48.5682Z" fill="black"/>
<path d="M66.4213 46.1522H63.9799V46.3568H66.4213V46.1522Z" fill="black"/>
<path d="M63.9798 49.4616H60.0722V49.7924H63.9798V49.4616Z" fill="black"/>
<path d="M63.9798 45.5894H60.0722V45.9202H63.9798V45.5894Z" fill="black"/>
<path d="M63.9798 41.7156H60.0722V42.0464H63.9798V41.7156Z" fill="black"/>
<path d="M60.0722 46.9381H53.7232V47.4735H60.0722V46.9381Z" fill="black"/>
<path d="M60.0722 40.6448H53.7232V41.1802H60.0722V40.6448Z" fill="black"/>
<path d="M53.7232 42.858H43.4665V43.6883H53.7232V42.858Z" fill="black"/>
<path d="M53.7232 32.6294H43.4665V33.4598H53.7232V32.6294Z" fill="black"/>
<path d="M43.4682 36.4351H26.8624V37.8384H43.4682V36.4351Z" fill="black"/>
<path d="M43.4682 20.0701H26.8624V21.4733H43.4682V20.0701Z" fill="black"/>
<path d="M26.8624 26.1826H0V28.452H26.8624V26.1826Z" fill="black"/>
<path d="M26.8624 0H0V2.26941H26.8624V0Z" fill="black"/>
<path d="M68.8644 52.4932H67.8875V52.575H68.8644V52.4932Z" fill="black"/>
<path d="M68.8644 51.5264H67.8875V51.6083H68.8644V51.5264Z" fill="black"/>
<path d="M68.8644 50.5596H67.8875V50.6415H68.8644V50.5596Z" fill="black"/>
<path d="M68.8644 49.5929H67.8875V49.6747H68.8644V49.5929Z" fill="black"/>
<path d="M68.8644 48.6262H67.8875V48.708H68.8644V48.6262Z" fill="black"/>
<path d="M68.8644 47.6594H67.8875V47.7412H68.8644V47.6594Z" fill="black"/>
<path d="M68.8644 46.6909H67.8875V46.7728H68.8644V46.6909Z" fill="black"/>
</svg>
