<svg width="152" height="107" viewBox="0 0 152 107" fill="none" xmlns="http://www.w3.org/2000/svg">
<path d="M76.0236 0H75.9781V0.466486H76.0236V0Z" fill="black"/>
<path d="M76.4838 0H76.4383V0.466486H76.4838V0Z" fill="black"/>
<path d="M76.9456 0H76.9001V0.466486H76.9456V0Z" fill="black"/>
<path d="M77.4059 0H77.3604V0.466486H77.4059V0Z" fill="black"/>
<path d="M77.8677 0H77.8222V0.466486H77.8677V0Z" fill="black"/>
<path d="M78.328 0H78.2824V0.466486H78.328V0Z" fill="black"/>
<path d="M78.7898 0H78.7443V0.466486H78.7898V0Z" fill="black"/>
<path d="M79.25 0H79.2045V0.466486H79.25V0Z" fill="black"/>
<path d="M79.7119 0H79.6664V0.466486H79.7119V0Z" fill="black"/>
<path d="M80.1721 0H80.1266V0.466486H80.1721V0Z" fill="black"/>
<path d="M80.634 0H80.5884V0.466486H80.634V0Z" fill="black"/>
<path d="M81.0942 0H81.0487V0.466486H81.0942V0Z" fill="black"/>
<path d="M76.061 1.40111H75.9406V2.80221H76.061V1.40111Z" fill="black"/>
<path d="M77.4449 1.40111H77.3246V2.80221H77.4449V1.40111Z" fill="black"/>
<path d="M78.8288 1.40111H78.7085V2.80221H78.8288V1.40111Z" fill="black"/>
<path d="M80.2128 1.40111H80.0924V2.80221H80.2128V1.40111Z" fill="black"/>
<path d="M81.5967 1.40111H81.4764V2.80221H81.5967V1.40111Z" fill="black"/>
<path d="M82.9823 1.40111H82.8619V2.80221H82.9823V1.40111Z" fill="black"/>
<path d="M84.3662 1.40111H84.2459V2.80221H84.3662V1.40111Z" fill="black"/>
<path d="M85.7501 1.40111H85.6298V2.80221H85.7501V1.40111Z" fill="black"/>
<path d="M87.1341 1.40111H87.0137V2.80221H87.1341V1.40111Z" fill="black"/>
<path d="M88.5196 1.40111H88.3993V2.80221H88.5196V1.40111Z" fill="black"/>
<path d="M89.9036 1.40111H89.7832V2.80221H89.9036V1.40111Z" fill="black"/>
<path d="M91.2875 1.40111H91.1671V2.80221H91.2875V1.40111Z" fill="black"/>
<path d="M92.6714 1.40111H92.5511V2.80221H92.6714V1.40111Z" fill="black"/>
<path d="M94.0554 1.40111H93.935V2.80221H94.0554V1.40111Z" fill="black"/>
<path d="M95.4409 1.40111H95.3206V2.80221H95.4409V1.40111Z" fill="black"/>
<path d="M96.8249 1.40111H96.7045V2.80221H96.8249V1.40111Z" fill="black"/>
<path d="M76.0984 2.80386H75.9032V5.13959H76.0984V2.80386Z" fill="black"/>
<path d="M78.4011 2.80386H78.206V5.13959H78.4011V2.80386Z" fill="black"/>
<path d="M80.7055 2.80386H80.5104V5.13959H80.7055V2.80386Z" fill="black"/>
<path d="M83.0099 2.80386H82.8148V5.13959H83.0099V2.80386Z" fill="black"/>
<path d="M85.3127 2.80386H85.1175V5.13959H85.3127V2.80386Z" fill="black"/>
<path d="M87.6171 2.80386H87.4219V5.13959H87.6171V2.80386Z" fill="black"/>
<path d="M89.9198 2.80386H89.7247V5.13959H89.9198V2.80386Z" fill="black"/>
<path d="M92.2242 2.80386H92.0291V5.13959H92.2242V2.80386Z" fill="black"/>
<path d="M94.5286 2.80386H94.3334V5.13959H94.5286V2.80386Z" fill="black"/>
<path d="M96.8313 2.80386H96.6362V5.13959H96.8313V2.80386Z" fill="black"/>
<path d="M99.1357 2.80386H98.9406V5.13959H99.1357V2.80386Z" fill="black"/>
<path d="M101.438 2.80386H101.243V5.13959H101.438V2.80386Z" fill="black"/>
<path d="M103.743 2.80386H103.548V5.13959H103.743V2.80386Z" fill="black"/>
<path d="M76.1586 5.13959H75.8431V8.87807H76.1586V5.13959Z" fill="black"/>
<path d="M79.8518 5.13959H79.5363V8.87807H79.8518V5.13959Z" fill="black"/>
<path d="M83.5466 5.13959H83.2311V8.87807H83.5466V5.13959Z" fill="black"/>
<path d="M87.2398 5.13959H86.9243V8.87807H87.2398V5.13959Z" fill="black"/>
<path d="M90.9346 5.13959H90.6191V8.87807H90.9346V5.13959Z" fill="black"/>
<path d="M94.6294 5.13959H94.3139V8.87807H94.6294V5.13959Z" fill="black"/>
<path d="M98.3226 5.13959H98.0071V8.87807H98.3226V5.13959Z" fill="black"/>
<path d="M102.017 5.13959H101.702V8.87807H102.017V5.13959Z" fill="black"/>
<path d="M105.711 5.13959H105.395V8.87807H105.711V5.13959Z" fill="black"/>
<path d="M109.405 5.13959H109.09V8.87807H109.405V5.13959Z" fill="black"/>
<path d="M113.1 5.13959H112.785V8.87807H113.1V5.13959Z" fill="black"/>
<path d="M76.2561 8.87807H75.7455V14.9523H76.2561V8.87807Z" fill="black"/>
<path d="M82.2586 8.87807H81.7479V14.9523H82.2586V8.87807Z" fill="black"/>
<path d="M88.261 8.87807H87.7504V14.9523H88.261V8.87807Z" fill="black"/>
<path d="M94.2651 8.87807H93.7545V14.9523H94.2651V8.87807Z" fill="black"/>
<path d="M100.268 8.87807H99.757V14.9523H100.268V8.87807Z" fill="black"/>
<path d="M106.27 8.87807H105.759V14.9523H106.27V8.87807Z" fill="black"/>
<path d="M112.274 8.87807H111.764V14.9523H112.274V8.87807Z" fill="black"/>
<path d="M118.277 8.87807H117.766V14.9523H118.277V8.87807Z" fill="black"/>
<path d="M76.396 14.9523H75.604V24.765H76.396V14.9523Z" fill="black"/>
<path d="M86.1518 14.9523H85.3598V24.765H86.1518V14.9523Z" fill="black"/>
<path d="M95.906 14.9523H95.114V24.765H95.906V14.9523Z" fill="black"/>
<path d="M105.66 14.9523H104.868V24.765H105.66V14.9523Z" fill="black"/>
<path d="M115.416 14.9523H114.624V24.765H115.416V14.9523Z" fill="black"/>
<path d="M125.17 14.9523H124.378V24.765H125.17V14.9523Z" fill="black"/>
<path d="M76.6692 24.765H75.3308V40.6519H76.6692V24.765Z" fill="black"/>
<path d="M92.2779 24.765H90.9395V40.6519H92.2779V24.765Z" fill="black"/>
<path d="M107.885 24.765H106.547V40.6519H107.885V24.765Z" fill="black"/>
<path d="M123.494 24.765H122.155V40.6519H123.494V24.765Z" fill="black"/>
<path d="M139.101 24.765H137.762V40.6519H139.101V24.765Z" fill="black"/>
<path d="M77.0823 40.6502H74.9177V66.3498H77.0823V40.6502Z" fill="black"/>
<path d="M102.055 40.6502H99.8903V66.3498H102.055V40.6502Z" fill="black"/>
<path d="M127.027 40.6502H124.863V66.3498H127.027V40.6502Z" fill="black"/>
<path d="M152 40.6502H149.835V66.3498H152V40.6502Z" fill="black"/>
<path d="M76.0398 0.466482H75.9618V1.4011H76.0398V0.466482Z" fill="black"/>
<path d="M76.9619 0.466482H76.8839V1.4011H76.9619V0.466482Z" fill="black"/>
<path d="M77.884 0.466482H77.8059V1.4011H77.884V0.466482Z" fill="black"/>
<path d="M78.8061 0.466482H78.728V1.4011H78.8061V0.466482Z" fill="black"/>
<path d="M79.7282 0.466482H79.6501V1.4011H79.7282V0.466482Z" fill="black"/>
<path d="M80.6502 0.466482H80.5722V1.4011H80.6502V0.466482Z" fill="black"/>
<path d="M81.5723 0.466482H81.4943V1.4011H81.5723V0.466482Z" fill="black"/>
<path d="M82.4944 0.466482H82.4163V1.4011H82.4944V0.466482Z" fill="black"/>
<path d="M83.4165 0.466482H83.3384V1.4011H83.4165V0.466482Z" fill="black"/>
<path d="M84.3386 0.466482H84.2605V1.4011H84.3386V0.466482Z" fill="black"/>
<path d="M85.2623 0.466482H85.1842V1.4011H85.2623V0.466482Z" fill="black"/>
<path d="M86.1843 0.466482H86.1063V1.4011H86.1843V0.466482Z" fill="black"/>
<path d="M87.1064 0.466482H87.0284V1.4011H87.1064V0.466482Z" fill="black"/>
<path d="M88.0285 0.466482H87.9504V1.4011H88.0285V0.466482Z" fill="black"/>
<path d="M88.9506 0.466482H88.8725V1.4011H88.9506V0.466482Z" fill="black"/>
<path d="M75.5617 0H75.5162V0.466486H75.5617V0Z" fill="black"/>
<path d="M75.0999 0H75.0543V0.466486H75.0999V0Z" fill="black"/>
<path d="M74.6396 0H74.5941V0.466486H74.6396V0Z" fill="black"/>
<path d="M74.1778 0H74.1323V0.466486H74.1778V0Z" fill="black"/>
<path d="M73.7176 0H73.672V0.466486H73.7176V0Z" fill="black"/>
<path d="M73.2557 0H73.2102V0.466486H73.2557V0Z" fill="black"/>
<path d="M72.7955 0H72.75V0.466486H72.7955V0Z" fill="black"/>
<path d="M72.3336 0H72.2881V0.466486H72.3336V0Z" fill="black"/>
<path d="M71.8734 0H71.8279V0.466486H71.8734V0Z" fill="black"/>
<path d="M71.4116 0H71.366V0.466486H71.4116V0Z" fill="black"/>
<path d="M70.9513 0H70.9058V0.466486H70.9513V0Z" fill="black"/>
<path d="M74.6754 1.40111H74.5551V2.80221H74.6754V1.40111Z" fill="black"/>
<path d="M73.2915 1.40111H73.1712V2.80221H73.2915V1.40111Z" fill="black"/>
<path d="M71.9076 1.40111H71.7872V2.80221H71.9076V1.40111Z" fill="black"/>
<path d="M70.5236 1.40111H70.4033V2.80221H70.5236V1.40111Z" fill="black"/>
<path d="M69.1381 1.40111H69.0177V2.80221H69.1381V1.40111Z" fill="black"/>
<path d="M67.7541 1.40111H67.6338V2.80221H67.7541V1.40111Z" fill="black"/>
<path d="M66.3702 1.40111H66.2499V2.80221H66.3702V1.40111Z" fill="black"/>
<path d="M64.9863 1.40111H64.8659V2.80221H64.9863V1.40111Z" fill="black"/>
<path d="M63.6023 1.40111H63.482V2.80221H63.6023V1.40111Z" fill="black"/>
<path d="M62.2168 1.40111H62.0964V2.80221H62.2168V1.40111Z" fill="black"/>
<path d="M60.8329 1.40111H60.7125V2.80221H60.8329V1.40111Z" fill="black"/>
<path d="M59.4489 1.40111H59.3286V2.80221H59.4489V1.40111Z" fill="black"/>
<path d="M58.065 1.40111H57.9446V2.80221H58.065V1.40111Z" fill="black"/>
<path d="M56.6794 1.40111H56.5591V2.80221H56.6794V1.40111Z" fill="black"/>
<path d="M55.2955 1.40111H55.1752V2.80221H55.2955V1.40111Z" fill="black"/>
<path d="M73.794 2.80386H73.5989V5.13959H73.794V2.80386Z" fill="black"/>
<path d="M71.4912 2.80386H71.2961V5.13959H71.4912V2.80386Z" fill="black"/>
<path d="M69.1869 2.80386H68.9917V5.13959H69.1869V2.80386Z" fill="black"/>
<path d="M66.8825 2.80386H66.6873V5.13959H66.8825V2.80386Z" fill="black"/>
<path d="M64.5797 2.80386H64.3846V5.13959H64.5797V2.80386Z" fill="black"/>
<path d="M62.2753 2.80386H62.0802V5.13959H62.2753V2.80386Z" fill="black"/>
<path d="M59.9726 2.80386H59.7774V5.13959H59.9726V2.80386Z" fill="black"/>
<path d="M57.6682 2.80386H57.473V5.13959H57.6682V2.80386Z" fill="black"/>
<path d="M55.3638 2.80386H55.1686V5.13959H55.3638V2.80386Z" fill="black"/>
<path d="M53.061 2.80386H52.8659V5.13959H53.061V2.80386Z" fill="black"/>
<path d="M50.7566 2.80386H50.5615V5.13959H50.7566V2.80386Z" fill="black"/>
<path d="M48.4539 2.80386H48.2587V5.13959H48.4539V2.80386Z" fill="black"/>
<path d="M72.4637 5.13959H72.1482V8.87807H72.4637V5.13959Z" fill="black"/>
<path d="M68.7689 5.13959H68.4534V8.87807H68.7689V5.13959Z" fill="black"/>
<path d="M65.0757 5.13959H64.7602V8.87807H65.0757V5.13959Z" fill="black"/>
<path d="M61.3809 5.13959H61.0654V8.87807H61.3809V5.13959Z" fill="black"/>
<path d="M57.6877 5.13959H57.3722V8.87807H57.6877V5.13959Z" fill="black"/>
<path d="M53.9929 5.13959H53.6774V8.87807H53.9929V5.13959Z" fill="black"/>
<path d="M50.298 5.13959H49.9826V8.87807H50.298V5.13959Z" fill="black"/>
<path d="M46.6049 5.13959H46.2894V8.87807H46.6049V5.13959Z" fill="black"/>
<path d="M42.91 5.13959H42.5945V8.87807H42.91V5.13959Z" fill="black"/>
<path d="M39.2168 5.13959H38.9013V8.87807H39.2168V5.13959Z" fill="black"/>
<path d="M70.252 8.87807H69.7414V14.9523H70.252V8.87807Z" fill="black"/>
<path d="M64.2496 8.87807H63.7389V14.9523H64.2496V8.87807Z" fill="black"/>
<path d="M58.2455 8.87807H57.7349V14.9523H58.2455V8.87807Z" fill="black"/>
<path d="M52.243 8.87807H51.7324V14.9523H52.243V8.87807Z" fill="black"/>
<path d="M46.2406 8.87807H45.7299V14.9523H46.2406V8.87807Z" fill="black"/>
<path d="M40.2365 8.87807H39.7259V14.9523H40.2365V8.87807Z" fill="black"/>
<path d="M34.234 8.87807H33.7234V14.9523H34.234V8.87807Z" fill="black"/>
<path d="M66.6418 14.9523H65.8498V24.765H66.6418V14.9523Z" fill="black"/>
<path d="M56.886 14.9523H56.094V24.765H56.886V14.9523Z" fill="black"/>
<path d="M47.1318 14.9523H46.3398V24.765H47.1318V14.9523Z" fill="black"/>
<path d="M37.3759 14.9523H36.5839V24.765H37.3759V14.9523Z" fill="black"/>
<path d="M27.6217 14.9523H26.8298V24.765H27.6217V14.9523Z" fill="black"/>
<path d="M61.0622 24.765H59.7238V40.6519H61.0622V24.765Z" fill="black"/>
<path d="M45.4535 24.765H44.1151V40.6519H45.4535V24.765Z" fill="black"/>
<path d="M29.8464 24.765H28.508V40.6519H29.8464V24.765Z" fill="black"/>
<path d="M14.2378 24.765H12.8994V40.6519H14.2378V24.765Z" fill="black"/>
<path d="M52.1097 40.6502H49.9452V66.3498H52.1097V40.6502Z" fill="black"/>
<path d="M27.1371 40.6502H24.9726V66.3498H27.1371V40.6502Z" fill="black"/>
<path d="M2.16453 40.6502H0V66.3498H2.16453V40.6502Z" fill="black"/>
<path d="M75.1178 0.466482H75.0397V1.4011H75.1178V0.466482Z" fill="black"/>
<path d="M74.1957 0.466482H74.1176V1.4011H74.1957V0.466482Z" fill="black"/>
<path d="M73.2736 0.466482H73.1955V1.4011H73.2736V0.466482Z" fill="black"/>
<path d="M72.3515 0.466482H72.2735V1.4011H72.3515V0.466482Z" fill="black"/>
<path d="M71.4294 0.466482H71.3514V1.4011H71.4294V0.466482Z" fill="black"/>
<path d="M70.5074 0.466482H70.4293V1.4011H70.5074V0.466482Z" fill="black"/>
<path d="M69.5837 0.466482H69.5056V1.4011H69.5837V0.466482Z" fill="black"/>
<path d="M68.6616 0.466482H68.5835V1.4011H68.6616V0.466482Z" fill="black"/>
<path d="M67.7395 0.466482H67.6614V1.4011H67.7395V0.466482Z" fill="black"/>
<path d="M66.8174 0.466482H66.7394V1.4011H66.8174V0.466482Z" fill="black"/>
<path d="M65.8953 0.466482H65.8173V1.4011H65.8953V0.466482Z" fill="black"/>
<path d="M64.9733 0.466482H64.8952V1.4011H64.9733V0.466482Z" fill="black"/>
<path d="M64.0512 0.466482H63.9731V1.4011H64.0512V0.466482Z" fill="black"/>
<path d="M63.1291 0.466482H63.051V1.4011H63.1291V0.466482Z" fill="black"/>
<path d="M76.0236 106.534H75.978V107H76.0236V106.534Z" fill="black"/>
<path d="M76.4838 106.534H76.4383V107H76.4838V106.534Z" fill="black"/>
<path d="M76.9456 106.534H76.9001V107H76.9456V106.534Z" fill="black"/>
<path d="M77.4059 106.534H77.3604V107H77.4059V106.534Z" fill="black"/>
<path d="M77.8677 106.534H77.8222V107H77.8677V106.534Z" fill="black"/>
<path d="M78.328 106.534H78.2824V107H78.328V106.534Z" fill="black"/>
<path d="M78.7898 106.534H78.7443V107H78.7898V106.534Z" fill="black"/>
<path d="M79.25 106.534H79.2045V107H79.25V106.534Z" fill="black"/>
<path d="M79.7119 106.534H79.6664V107H79.7119V106.534Z" fill="black"/>
<path d="M80.1721 106.534H80.1266V107H80.1721V106.534Z" fill="black"/>
<path d="M80.634 106.534H80.5884V107H80.634V106.534Z" fill="black"/>
<path d="M81.0942 106.534H81.0487V107H81.0942V106.534Z" fill="black"/>
<path d="M76.061 104.198H75.9406V105.599H76.061V104.198Z" fill="black"/>
<path d="M77.4449 104.198H77.3246V105.599H77.4449V104.198Z" fill="black"/>
<path d="M78.8288 104.198H78.7085V105.599H78.8288V104.198Z" fill="black"/>
<path d="M80.2128 104.198H80.0924V105.599H80.2128V104.198Z" fill="black"/>
<path d="M81.5967 104.198H81.4764V105.599H81.5967V104.198Z" fill="black"/>
<path d="M82.9823 104.198H82.8619V105.599H82.9823V104.198Z" fill="black"/>
<path d="M84.3662 104.198H84.2459V105.599H84.3662V104.198Z" fill="black"/>
<path d="M85.7501 104.198H85.6298V105.599H85.7501V104.198Z" fill="black"/>
<path d="M87.1341 104.198H87.0137V105.599H87.1341V104.198Z" fill="black"/>
<path d="M88.5196 104.198H88.3993V105.599H88.5196V104.198Z" fill="black"/>
<path d="M89.9036 104.198H89.7832V105.599H89.9036V104.198Z" fill="black"/>
<path d="M91.2875 104.198H91.1671V105.599H91.2875V104.198Z" fill="black"/>
<path d="M92.6714 104.198H92.5511V105.599H92.6714V104.198Z" fill="black"/>
<path d="M94.0554 104.198H93.935V105.599H94.0554V104.198Z" fill="black"/>
<path d="M95.4409 104.198H95.3206V105.599H95.4409V104.198Z" fill="black"/>
<path d="M96.8249 104.198H96.7045V105.599H96.8249V104.198Z" fill="black"/>
<path d="M76.0984 101.86H75.9032V104.196H76.0984V101.86Z" fill="black"/>
<path d="M78.4011 101.86H78.206V104.196H78.4011V101.86Z" fill="black"/>
<path d="M80.7055 101.86H80.5104V104.196H80.7055V101.86Z" fill="black"/>
<path d="M83.0099 101.86H82.8148V104.196H83.0099V101.86Z" fill="black"/>
<path d="M85.3127 101.86H85.1175V104.196H85.3127V101.86Z" fill="black"/>
<path d="M87.6171 101.86H87.4219V104.196H87.6171V101.86Z" fill="black"/>
<path d="M89.9198 101.86H89.7247V104.196H89.9198V101.86Z" fill="black"/>
<path d="M92.2242 101.86H92.0291V104.196H92.2242V101.86Z" fill="black"/>
<path d="M94.5286 101.86H94.3334V104.196H94.5286V101.86Z" fill="black"/>
<path d="M96.8313 101.86H96.6362V104.196H96.8313V101.86Z" fill="black"/>
<path d="M99.1357 101.86H98.9406V104.196H99.1357V101.86Z" fill="black"/>
<path d="M101.438 101.86H101.243V104.196H101.438V101.86Z" fill="black"/>
<path d="M103.743 101.86H103.548V104.196H103.743V101.86Z" fill="black"/>
<path d="M76.1585 98.1236H75.8431V101.862H76.1585V98.1236Z" fill="black"/>
<path d="M79.8518 98.1236H79.5363V101.862H79.8518V98.1236Z" fill="black"/>
<path d="M83.5466 98.1236H83.2311V101.862H83.5466V98.1236Z" fill="black"/>
<path d="M87.2398 98.1236H86.9243V101.862H87.2398V98.1236Z" fill="black"/>
<path d="M90.9346 98.1236H90.6191V101.862H90.9346V98.1236Z" fill="black"/>
<path d="M94.6294 98.1236H94.3139V101.862H94.6294V98.1236Z" fill="black"/>
<path d="M98.3226 98.1236H98.0071V101.862H98.3226V98.1236Z" fill="black"/>
<path d="M102.017 98.1236H101.702V101.862H102.017V98.1236Z" fill="black"/>
<path d="M105.711 98.1236H105.395V101.862H105.711V98.1236Z" fill="black"/>
<path d="M109.405 98.1236H109.09V101.862H109.405V98.1236Z" fill="black"/>
<path d="M113.1 98.1236H112.785V101.862H113.1V98.1236Z" fill="black"/>
<path d="M76.2561 92.0494H75.7455V98.1236H76.2561V92.0494Z" fill="black"/>
<path d="M82.2586 92.0494H81.7479V98.1236H82.2586V92.0494Z" fill="black"/>
<path d="M88.261 92.0494H87.7504V98.1236H88.261V92.0494Z" fill="black"/>
<path d="M94.2651 92.0494H93.7545V98.1236H94.2651V92.0494Z" fill="black"/>
<path d="M100.268 92.0494H99.757V98.1236H100.268V92.0494Z" fill="black"/>
<path d="M106.27 92.0494H105.759V98.1236H106.27V92.0494Z" fill="black"/>
<path d="M112.274 92.0494H111.764V98.1236H112.274V92.0494Z" fill="black"/>
<path d="M118.277 92.0494H117.766V98.1236H118.277V92.0494Z" fill="black"/>
<path d="M76.396 82.2367H75.604V92.0494H76.396V82.2367Z" fill="black"/>
<path d="M86.1518 82.2367H85.3598V92.0494H86.1518V82.2367Z" fill="black"/>
<path d="M95.906 82.2367H95.114V92.0494H95.906V82.2367Z" fill="black"/>
<path d="M105.66 82.2367H104.868V92.0494H105.66V82.2367Z" fill="black"/>
<path d="M115.416 82.2367H114.624V92.0494H115.416V82.2367Z" fill="black"/>
<path d="M125.17 82.2367H124.378V92.0494H125.17V82.2367Z" fill="black"/>
<path d="M76.6692 66.3498H75.3308V82.2367H76.6692V66.3498Z" fill="black"/>
<path d="M92.2779 66.3498H90.9395V82.2367H92.2779V66.3498Z" fill="black"/>
<path d="M107.885 66.3498H106.547V82.2367H107.885V66.3498Z" fill="black"/>
<path d="M123.494 66.3498H122.155V82.2367H123.494V66.3498Z" fill="black"/>
<path d="M139.101 66.3498H137.762V82.2367H139.101V66.3498Z" fill="black"/>
<path d="M76.0398 105.599H75.9618V106.534H76.0398V105.599Z" fill="black"/>
<path d="M76.9619 105.599H76.8839V106.534H76.9619V105.599Z" fill="black"/>
<path d="M77.884 105.599H77.8059V106.534H77.884V105.599Z" fill="black"/>
<path d="M78.8061 105.599H78.728V106.534H78.8061V105.599Z" fill="black"/>
<path d="M79.7282 105.599H79.6501V106.534H79.7282V105.599Z" fill="black"/>
<path d="M80.6502 105.599H80.5722V106.534H80.6502V105.599Z" fill="black"/>
<path d="M81.5723 105.599H81.4943V106.534H81.5723V105.599Z" fill="black"/>
<path d="M82.4944 105.599H82.4163V106.534H82.4944V105.599Z" fill="black"/>
<path d="M83.4165 105.599H83.3384V106.534H83.4165V105.599Z" fill="black"/>
<path d="M84.3386 105.599H84.2605V106.534H84.3386V105.599Z" fill="black"/>
<path d="M85.2623 105.599H85.1842V106.534H85.2623V105.599Z" fill="black"/>
<path d="M86.1843 105.599H86.1063V106.534H86.1843V105.599Z" fill="black"/>
<path d="M87.1064 105.599H87.0284V106.534H87.1064V105.599Z" fill="black"/>
<path d="M88.0285 105.599H87.9504V106.534H88.0285V105.599Z" fill="black"/>
<path d="M88.9506 105.599H88.8725V106.534H88.9506V105.599Z" fill="black"/>
<path d="M75.5617 106.534H75.5162V107H75.5617V106.534Z" fill="black"/>
<path d="M75.0999 106.534H75.0543V107H75.0999V106.534Z" fill="black"/>
<path d="M74.6396 106.534H74.5941V107H74.6396V106.534Z" fill="black"/>
<path d="M74.1778 106.534H74.1323V107H74.1778V106.534Z" fill="black"/>
<path d="M73.7176 106.534H73.672V107H73.7176V106.534Z" fill="black"/>
<path d="M73.2557 106.534H73.2102V107H73.2557V106.534Z" fill="black"/>
<path d="M72.7955 106.534H72.7499V107H72.7955V106.534Z" fill="black"/>
<path d="M72.3336 106.534H72.2881V107H72.3336V106.534Z" fill="black"/>
<path d="M71.8734 106.534H71.8279V107H71.8734V106.534Z" fill="black"/>
<path d="M71.4116 106.534H71.366V107H71.4116V106.534Z" fill="black"/>
<path d="M70.9513 106.534H70.9058V107H70.9513V106.534Z" fill="black"/>
<path d="M74.6754 104.198H74.5551V105.599H74.6754V104.198Z" fill="black"/>
<path d="M73.2915 104.198H73.1712V105.599H73.2915V104.198Z" fill="black"/>
<path d="M71.9076 104.198H71.7872V105.599H71.9076V104.198Z" fill="black"/>
<path d="M70.5236 104.198H70.4033V105.599H70.5236V104.198Z" fill="black"/>
<path d="M69.1381 104.198H69.0177V105.599H69.1381V104.198Z" fill="black"/>
<path d="M67.7541 104.198H67.6338V105.599H67.7541V104.198Z" fill="black"/>
<path d="M66.3702 104.198H66.2499V105.599H66.3702V104.198Z" fill="black"/>
<path d="M64.9863 104.198H64.8659V105.599H64.9863V104.198Z" fill="black"/>
<path d="M63.6023 104.198H63.482V105.599H63.6023V104.198Z" fill="black"/>
<path d="M62.2168 104.198H62.0964V105.599H62.2168V104.198Z" fill="black"/>
<path d="M60.8328 104.198H60.7125V105.599H60.8328V104.198Z" fill="black"/>
<path d="M59.4489 104.198H59.3286V105.599H59.4489V104.198Z" fill="black"/>
<path d="M58.065 104.198H57.9446V105.599H58.065V104.198Z" fill="black"/>
<path d="M56.6794 104.198H56.5591V105.599H56.6794V104.198Z" fill="black"/>
<path d="M55.2955 104.198H55.1751V105.599H55.2955V104.198Z" fill="black"/>
<path d="M73.794 101.86H73.5988V104.196H73.794V101.86Z" fill="black"/>
<path d="M71.4912 101.86H71.2961V104.196H71.4912V101.86Z" fill="black"/>
<path d="M69.1869 101.86H68.9917V104.196H69.1869V101.86Z" fill="black"/>
<path d="M66.8825 101.86H66.6873V104.196H66.8825V101.86Z" fill="black"/>
<path d="M64.5797 101.86H64.3846V104.196H64.5797V101.86Z" fill="black"/>
<path d="M62.2753 101.86H62.0802V104.196H62.2753V101.86Z" fill="black"/>
<path d="M59.9726 101.86H59.7774V104.196H59.9726V101.86Z" fill="black"/>
<path d="M57.6682 101.86H57.473V104.196H57.6682V101.86Z" fill="black"/>
<path d="M55.3638 101.86H55.1686V104.196H55.3638V101.86Z" fill="black"/>
<path d="M53.061 101.86H52.8659V104.196H53.061V101.86Z" fill="black"/>
<path d="M50.7566 101.86H50.5615V104.196H50.7566V101.86Z" fill="black"/>
<path d="M48.4539 101.86H48.2587V104.196H48.4539V101.86Z" fill="black"/>
<path d="M72.4637 98.1236H72.1482V101.862H72.4637V98.1236Z" fill="black"/>
<path d="M68.7689 98.1236H68.4534V101.862H68.7689V98.1236Z" fill="black"/>
<path d="M65.0757 98.1236H64.7602V101.862H65.0757V98.1236Z" fill="black"/>
<path d="M61.3809 98.1236H61.0654V101.862H61.3809V98.1236Z" fill="black"/>
<path d="M57.6877 98.1236H57.3722V101.862H57.6877V98.1236Z" fill="black"/>
<path d="M53.9929 98.1236H53.6774V101.862H53.9929V98.1236Z" fill="black"/>
<path d="M50.298 98.1236H49.9826V101.862H50.298V98.1236Z" fill="black"/>
<path d="M46.6049 98.1236H46.2894V101.862H46.6049V98.1236Z" fill="black"/>
<path d="M42.91 98.1236H42.5945V101.862H42.91V98.1236Z" fill="black"/>
<path d="M39.2168 98.1236H38.9014V101.862H39.2168V98.1236Z" fill="black"/>
<path d="M70.252 92.0494H69.7414V98.1236H70.252V92.0494Z" fill="black"/>
<path d="M64.2496 92.0494H63.7389V98.1236H64.2496V92.0494Z" fill="black"/>
<path d="M58.2455 92.0494H57.7349V98.1236H58.2455V92.0494Z" fill="black"/>
<path d="M52.243 92.0494H51.7324V98.1236H52.243V92.0494Z" fill="black"/>
<path d="M46.2406 92.0494H45.7299V98.1236H46.2406V92.0494Z" fill="black"/>
<path d="M40.2365 92.0494H39.7259V98.1236H40.2365V92.0494Z" fill="black"/>
<path d="M34.234 92.0494H33.7234V98.1236H34.234V92.0494Z" fill="black"/>
<path d="M66.6418 82.2367H65.8498V92.0494H66.6418V82.2367Z" fill="black"/>
<path d="M56.886 82.2367H56.094V92.0494H56.886V82.2367Z" fill="black"/>
<path d="M47.1318 82.2367H46.3398V92.0494H47.1318V82.2367Z" fill="black"/>
<path d="M37.3759 82.2367H36.584V92.0494H37.3759V82.2367Z" fill="black"/>
<path d="M27.6217 82.2367H26.8297V92.0494H27.6217V82.2367Z" fill="black"/>
<path d="M61.0621 66.3498H59.7237V82.2367H61.0621V66.3498Z" fill="black"/>
<path d="M45.4535 66.3498H44.1151V82.2367H45.4535V66.3498Z" fill="black"/>
<path d="M29.8464 66.3498H28.508V82.2367H29.8464V66.3498Z" fill="black"/>
<path d="M14.2378 66.3498H12.8994V82.2367H14.2378V66.3498Z" fill="black"/>
<path d="M75.1178 105.599H75.0397V106.534H75.1178V105.599Z" fill="black"/>
<path d="M74.1957 105.599H74.1176V106.534H74.1957V105.599Z" fill="black"/>
<path d="M73.2736 105.599H73.1955V106.534H73.2736V105.599Z" fill="black"/>
<path d="M72.3515 105.599H72.2735V106.534H72.3515V105.599Z" fill="black"/>
<path d="M71.4294 105.599H71.3514V106.534H71.4294V105.599Z" fill="black"/>
<path d="M70.5074 105.599H70.4293V106.534H70.5074V105.599Z" fill="black"/>
<path d="M69.5837 105.599H69.5056V106.534H69.5837V105.599Z" fill="black"/>
<path d="M68.6616 105.599H68.5835V106.534H68.6616V105.599Z" fill="black"/>
<path d="M67.7395 105.599H67.6614V106.534H67.7395V105.599Z" fill="black"/>
<path d="M66.8174 105.599H66.7394V106.534H66.8174V105.599Z" fill="black"/>
<path d="M65.8953 105.599H65.8173V106.534H65.8953V105.599Z" fill="black"/>
<path d="M64.9733 105.599H64.8952V106.534H64.9733V105.599Z" fill="black"/>
<path d="M64.0512 105.599H63.9731V106.534H64.0512V105.599Z" fill="black"/>
<path d="M63.1291 105.599H63.051V106.534H63.1291V105.599Z" fill="black"/>
</svg>
