<svg width="152" height="107" viewBox="0 0 152 107" fill="none" xmlns="http://www.w3.org/2000/svg">
<path d="M76.1697 59.9357H76.1214V60.4182H76.1697V59.9357Z" fill="black"/>
<path d="M76.6573 59.9357H76.6091V60.4182H76.6573V59.9357Z" fill="black"/>
<path d="M77.1466 59.9357H77.0983V60.4182H77.1466V59.9357Z" fill="black"/>
<path d="M77.6341 59.9357H77.5859V60.4182H77.6341V59.9357Z" fill="black"/>
<path d="M78.1235 59.9357H78.0753V60.4182H78.1235V59.9357Z" fill="black"/>
<path d="M78.6111 59.9357H78.5629V60.4182H78.6111V59.9357Z" fill="black"/>
<path d="M79.1004 59.9357H79.0522V60.4182H79.1004V59.9357Z" fill="black"/>
<path d="M79.5897 59.9357H79.5415V60.4182H79.5897V59.9357Z" fill="black"/>
<path d="M80.0773 59.9357H80.0291V60.4182H80.0773V59.9357Z" fill="black"/>
<path d="M80.5666 59.9357H80.5184V60.4182H80.5666V59.9357Z" fill="black"/>
<path d="M81.0542 59.9357H81.006V60.4182H81.0542V59.9357Z" fill="black"/>
<path d="M81.5435 59.9357H81.4953V60.4182H81.5435V59.9357Z" fill="black"/>
<path d="M82.0311 59.9357H81.9829V60.4182H82.0311V59.9357Z" fill="black"/>
<path d="M76.2093 61.3849H76.0818V62.8342H76.2093V61.3849Z" fill="black"/>
<path d="M77.6755 61.3849H77.5481V62.8342H77.6755V61.3849Z" fill="black"/>
<path d="M79.1418 61.3849H79.0143V62.8342H79.1418V61.3849Z" fill="black"/>
<path d="M80.608 61.3849H80.4805V62.8342H80.608V61.3849Z" fill="black"/>
<path d="M82.0759 61.3849H81.9485V62.8342H82.0759V61.3849Z" fill="black"/>
<path d="M83.5422 61.3849H83.4147V62.8342H83.5422V61.3849Z" fill="black"/>
<path d="M76.2489 62.8359H76.0422V65.252H76.2489V62.8359Z" fill="black"/>
<path d="M78.6904 62.8359H78.4836V65.252H78.6904V62.8359Z" fill="black"/>
<path d="M81.1301 62.8359H80.9233V65.252H81.1301V62.8359Z" fill="black"/>
<path d="M83.5714 62.8359H83.3647V65.252H83.5714V62.8359Z" fill="black"/>
<path d="M76.3127 65.252H75.9784V69.119H76.3127V65.252Z" fill="black"/>
<path d="M80.2255 65.252H79.8912V69.119H80.2255V65.252Z" fill="black"/>
<path d="M84.14 65.252H83.8058V69.119H84.14V65.252Z" fill="black"/>
<path d="M88.0546 65.252H87.7203V69.119H88.0546V65.252Z" fill="black"/>
<path d="M76.4161 69.119H75.8751V75.4021H76.4161V69.119Z" fill="black"/>
<path d="M82.7755 69.119H82.2345V75.4021H82.7755V69.119Z" fill="black"/>
<path d="M89.1365 69.119H88.5956V75.4021H89.1365V69.119Z" fill="black"/>
<path d="M76.5643 75.4022H75.7252V85.5523H76.5643V75.4022Z" fill="black"/>
<path d="M86.9002 75.4022H86.0611V85.5523H86.9002V75.4022Z" fill="black"/>
<path d="M97.2344 75.4022H96.3953V85.5523H97.2344V75.4022Z" fill="black"/>
<path d="M76.8554 85.5506H75.4374V101.984H76.8554V85.5506Z" fill="black"/>
<path d="M93.3905 85.5506H91.9726V101.984H93.3905V85.5506Z" fill="black"/>
<path d="M109.927 85.5506H108.509V101.984H109.927V85.5506Z" fill="black"/>
<path d="M76.1869 60.4182H76.1042V61.3849H76.1869V60.4182Z" fill="black"/>
<path d="M77.1638 60.4182H77.0811V61.3849H77.1638V60.4182Z" fill="black"/>
<path d="M78.1407 60.4182H78.058V61.3849H78.1407V60.4182Z" fill="black"/>
<path d="M79.1176 60.4182H79.035V61.3849H79.1176V60.4182Z" fill="black"/>
<path d="M80.0946 60.4182H80.0119V61.3849H80.0946V60.4182Z" fill="black"/>
<path d="M81.0714 60.4182H80.9888V61.3849H81.0714V60.4182Z" fill="black"/>
<path d="M82.0501 60.4182H81.9674V61.3849H82.0501V60.4182Z" fill="black"/>
<path d="M83.027 60.4182H82.9443V61.3849H83.027V60.4182Z" fill="black"/>
<path d="M75.6804 59.9357H75.6321V60.4182H75.6804V59.9357Z" fill="black"/>
<path d="M75.1928 59.9357H75.1446V60.4182H75.1928V59.9357Z" fill="black"/>
<path d="M74.7035 59.9357H74.6552V60.4182H74.7035V59.9357Z" fill="black"/>
<path d="M74.2159 59.9357H74.1676V60.4182H74.2159V59.9357Z" fill="black"/>
<path d="M73.7266 59.9357H73.6783V60.4182H73.7266V59.9357Z" fill="black"/>
<path d="M73.239 59.9357H73.1907V60.4182H73.239V59.9357Z" fill="black"/>
<path d="M72.7496 59.9357H72.7014V60.4182H72.7496V59.9357Z" fill="black"/>
<path d="M72.2621 59.9357H72.2138V60.4182H72.2621V59.9357Z" fill="black"/>
<path d="M71.7727 59.9357H71.7245V60.4182H71.7727V59.9357Z" fill="black"/>
<path d="M71.2851 59.9357H71.2369V60.4182H71.2851V59.9357Z" fill="black"/>
<path d="M70.7958 59.9357H70.7476V60.4182H70.7958V59.9357Z" fill="black"/>
<path d="M70.3065 59.9357H70.2583V60.4182H70.3065V59.9357Z" fill="black"/>
<path d="M74.7431 61.3849H74.6156V62.8342H74.7431V61.3849Z" fill="black"/>
<path d="M73.2752 61.3849H73.1477V62.8342H73.2752V61.3849Z" fill="black"/>
<path d="M71.8089 61.3849H71.6814V62.8342H71.8089V61.3849Z" fill="black"/>
<path d="M70.3427 61.3849H70.2152V62.8342H70.3427V61.3849Z" fill="black"/>
<path d="M68.8765 61.3849H68.749V62.8342H68.8765V61.3849Z" fill="black"/>
<path d="M73.8075 62.8359H73.6008V65.252H73.8075V62.8359Z" fill="black"/>
<path d="M71.3678 62.8359H71.1611V65.252H71.3678V62.8359Z" fill="black"/>
<path d="M68.9264 62.8359H68.7197V65.252H68.9264V62.8359Z" fill="black"/>
<path d="M72.3982 65.252H72.0639V69.119H72.3982V65.252Z" fill="black"/>
<path d="M68.4854 65.252H68.1511V69.119H68.4854V65.252Z" fill="black"/>
<path d="M64.5708 65.252H64.2366V69.119H64.5708V65.252Z" fill="black"/>
<path d="M70.0549 69.119H69.5139V75.4021H70.0549V69.119Z" fill="black"/>
<path d="M63.6956 69.119H63.1546V75.4021H63.6956V69.119Z" fill="black"/>
<path d="M66.23 75.4022H65.3909V85.5523H66.23V75.4022Z" fill="black"/>
<path d="M55.8941 75.4022H55.055V85.5523H55.8941V75.4022Z" fill="black"/>
<path d="M60.3186 85.5506H58.9006V101.984H60.3186V85.5506Z" fill="black"/>
<path d="M43.7835 85.5506H42.3655V101.984H43.7835V85.5506Z" fill="black"/>
<path d="M75.21 60.4182H75.1273V61.3849H75.21V60.4182Z" fill="black"/>
<path d="M74.2331 60.4182H74.1504V61.3849H74.2331V60.4182Z" fill="black"/>
<path d="M73.2562 60.4182H73.1735V61.3849H73.2562V60.4182Z" fill="black"/>
<path d="M72.2793 60.4182H72.1966V61.3849H72.2793V60.4182Z" fill="black"/>
<path d="M71.3024 60.4182H71.2197V61.3849H71.3024V60.4182Z" fill="black"/>
<path d="M70.3255 60.4182H70.2428V61.3849H70.3255V60.4182Z" fill="black"/>
<path d="M69.3485 60.4182H69.2658V61.3849H69.3485V60.4182Z" fill="black"/>
<path d="M83.1356 53.477H82.648V53.5247H83.1356V53.477Z" fill="black"/>
<path d="M83.1356 52.9927H82.648V53.0404H83.1356V52.9927Z" fill="black"/>
<path d="M83.1356 52.5085H82.648V52.5563H83.1356V52.5085Z" fill="black"/>
<path d="M83.1356 52.026H82.648V52.0737H83.1356V52.026Z" fill="black"/>
<path d="M83.1356 51.5417H82.648V51.5895H83.1356V51.5417Z" fill="black"/>
<path d="M83.1356 51.0592H82.648V51.107H83.1356V51.0592Z" fill="black"/>
<path d="M83.1356 50.575H82.648V50.6227H83.1356V50.575Z" fill="black"/>
<path d="M83.1356 50.0925H82.648V50.1402H83.1356V50.0925Z" fill="black"/>
<path d="M83.1356 49.6083H82.648V49.656H83.1356V49.6083Z" fill="black"/>
<path d="M83.1356 49.1257H82.648V49.1735H83.1356V49.1257Z" fill="black"/>
<path d="M83.1356 48.6415H82.648V48.6892H83.1356V48.6415Z" fill="black"/>
<path d="M83.1356 48.159H82.648V48.2067H83.1356V48.159Z" fill="black"/>
<path d="M83.1356 47.6747H82.648V47.7225H83.1356V47.6747Z" fill="black"/>
<path d="M85.577 53.4377H84.1125V53.5639H85.577V53.4377Z" fill="black"/>
<path d="M85.577 51.9851H84.1125V52.1112H85.577V51.9851Z" fill="black"/>
<path d="M85.577 50.5341H84.1125V50.6603H85.577V50.5341Z" fill="black"/>
<path d="M85.577 49.0831H84.1125V49.2093H85.577V49.0831Z" fill="black"/>
<path d="M85.577 47.6321H84.1125V47.7583H85.577V47.6321Z" fill="black"/>
<path d="M85.577 46.1794H84.1125V46.3056H85.577V46.1794Z" fill="black"/>
<path d="M88.0201 53.3986H85.5787V53.6032H88.0201V53.3986Z" fill="black"/>
<path d="M88.0201 50.9825H85.5787V51.1871H88.0201V50.9825Z" fill="black"/>
<path d="M88.0201 48.5682H85.5787V48.7728H88.0201V48.5682Z" fill="black"/>
<path d="M88.0201 46.1522H85.5787V46.3568H88.0201V46.1522Z" fill="black"/>
<path d="M91.9278 53.3354H88.0201V53.6662H91.9278V53.3354Z" fill="black"/>
<path d="M91.9278 49.4616H88.0201V49.7924H91.9278V49.4616Z" fill="black"/>
<path d="M91.9278 45.5877H88.0201V45.9185H91.9278V45.5877Z" fill="black"/>
<path d="M91.9278 41.7156H88.0201V42.0464H91.9278V41.7156Z" fill="black"/>
<path d="M98.2768 53.2332H91.9278V53.7686H98.2768V53.2332Z" fill="black"/>
<path d="M98.2768 46.9381H91.9278V47.4735H98.2768V46.9381Z" fill="black"/>
<path d="M98.2768 40.6448H91.9278V41.1802H98.2768V40.6448Z" fill="black"/>
<path d="M108.534 53.0848H98.2768V53.9152H108.534V53.0848Z" fill="black"/>
<path d="M108.534 42.858H98.2768V43.6884H108.534V42.858Z" fill="black"/>
<path d="M108.534 32.6294H98.2768V33.4598H108.534V32.6294Z" fill="black"/>
<path d="M125.139 52.7984H108.534V54.2016H125.139V52.7984Z" fill="black"/>
<path d="M125.139 36.4351H108.534V37.8384H125.139V36.4351Z" fill="black"/>
<path d="M125.139 20.0701H108.534V21.4733H125.139V20.0701Z" fill="black"/>
<path d="M152 52.3653H125.138V54.6347H152V52.3653Z" fill="black"/>
<path d="M152 26.1826H125.138V28.452H152V26.1826Z" fill="black"/>
<path d="M152 0H125.138V2.26941H152V0Z" fill="black"/>
<path d="M84.1125 53.4599H83.1356V53.5418H84.1125V53.4599Z" fill="black"/>
<path d="M84.1125 52.4932H83.1356V52.575H84.1125V52.4932Z" fill="black"/>
<path d="M84.1125 51.5265H83.1356V51.6083H84.1125V51.5265Z" fill="black"/>
<path d="M84.1125 50.5596H83.1356V50.6415H84.1125V50.5596Z" fill="black"/>
<path d="M84.1125 49.5929H83.1356V49.6747H84.1125V49.5929Z" fill="black"/>
<path d="M84.1125 48.6262H83.1356V48.708H84.1125V48.6262Z" fill="black"/>
<path d="M84.1125 47.6594H83.1356V47.7412H84.1125V47.6594Z" fill="black"/>
<path d="M84.1125 46.6909H83.1356V46.7728H84.1125V46.6909Z" fill="black"/>
<path d="M83.1356 53.9595H82.648V54.0073H83.1356V53.9595Z" fill="black"/>
<path d="M83.1356 54.4438H82.648V54.4915H83.1356V54.4438Z" fill="black"/>
<path d="M83.1356 54.9263H82.648V54.974H83.1356V54.9263Z" fill="black"/>
<path d="M83.1356 55.4105H82.648V55.4583H83.1356V55.4105Z" fill="black"/>
<path d="M83.1356 55.8931H82.648V55.9408H83.1356V55.8931Z" fill="black"/>
<path d="M83.1356 56.3773H82.648V56.4251H83.1356V56.3773Z" fill="black"/>
<path d="M83.1356 56.8598H82.648V56.9076H83.1356V56.8598Z" fill="black"/>
<path d="M83.1356 57.3441H82.648V57.3918H83.1356V57.3441Z" fill="black"/>
<path d="M83.1356 57.8266H82.648V57.8744H83.1356V57.8266Z" fill="black"/>
<path d="M83.1356 58.3108H82.648V58.3585H83.1356V58.3108Z" fill="black"/>
<path d="M83.1356 58.7933H82.648V58.8411H83.1356V58.7933Z" fill="black"/>
<path d="M83.1356 59.2776H82.648V59.3253H83.1356V59.2776Z" fill="black"/>
<path d="M85.577 54.8888H84.1125V55.015H85.577V54.8888Z" fill="black"/>
<path d="M85.577 56.3398H84.1125V56.466H85.577V56.3398Z" fill="black"/>
<path d="M85.577 57.7908H84.1125V57.917H85.577V57.7908Z" fill="black"/>
<path d="M85.577 59.2418H84.1125V59.368H85.577V59.2418Z" fill="black"/>
<path d="M85.577 60.6945H84.1125V60.8206H85.577V60.6945Z" fill="black"/>
<path d="M88.0201 55.8129H85.5787V56.0175H88.0201V55.8129Z" fill="black"/>
<path d="M88.0201 58.2289H85.5787V58.4335H88.0201V58.2289Z" fill="black"/>
<path d="M88.0201 60.645H85.5787V60.8496H88.0201V60.645Z" fill="black"/>
<path d="M91.9278 57.2076H88.0201V57.5384H91.9278V57.2076Z" fill="black"/>
<path d="M91.9278 61.0815H88.0201V61.4123H91.9278V61.0815Z" fill="black"/>
<path d="M91.9278 64.9537H88.0201V65.2845H91.9278V64.9537Z" fill="black"/>
<path d="M98.2768 59.5265H91.9278V60.0619H98.2768V59.5265Z" fill="black"/>
<path d="M98.2768 65.8198H91.9278V66.3552H98.2768V65.8198Z" fill="black"/>
<path d="M108.534 63.3134H98.2768V64.1438H108.534V63.3134Z" fill="black"/>
<path d="M108.534 73.5403H98.2768V74.3706H108.534V73.5403Z" fill="black"/>
<path d="M125.139 69.1634H108.534V70.5666H125.139V69.1634Z" fill="black"/>
<path d="M125.139 85.5267H108.534V86.9299H125.139V85.5267Z" fill="black"/>
<path d="M152 78.548H125.138V80.8174H152V78.548Z" fill="black"/>
<path d="M152 104.731H125.138V107H152V104.731Z" fill="black"/>
<path d="M84.1125 54.4267H83.1356V54.5086H84.1125V54.4267Z" fill="black"/>
<path d="M84.1125 55.3934H83.1356V55.4753H84.1125V55.3934Z" fill="black"/>
<path d="M84.1125 56.3603H83.1356V56.4421H84.1125V56.3603Z" fill="black"/>
<path d="M84.1125 57.327H83.1356V57.4088H84.1125V57.327Z" fill="black"/>
<path d="M84.1125 58.2937H83.1356V58.3756H84.1125V58.2937Z" fill="black"/>
<path d="M84.1125 59.2605H83.1356V59.3424H84.1125V59.2605Z" fill="black"/>
<path d="M84.1125 60.2273H83.1356V60.3091H84.1125V60.2273Z" fill="black"/>
<path d="M75.8785 46.5818H75.8303V47.0643H75.8785V46.5818Z" fill="black"/>
<path d="M75.3892 46.5818H75.341V47.0643H75.3892V46.5818Z" fill="black"/>
<path d="M74.9016 46.5818H74.8534V47.0643H74.9016V46.5818Z" fill="black"/>
<path d="M74.4123 46.5818H74.3641V47.0643H74.4123V46.5818Z" fill="black"/>
<path d="M73.9247 46.5818H73.8764V47.0643H73.9247V46.5818Z" fill="black"/>
<path d="M73.4354 46.5818H73.3871V47.0643H73.4354V46.5818Z" fill="black"/>
<path d="M72.9478 46.5818H72.8996V47.0643H72.9478V46.5818Z" fill="black"/>
<path d="M72.4585 46.5818H72.4102V47.0643H72.4585V46.5818Z" fill="black"/>
<path d="M71.9709 46.5818H71.9226V47.0643H71.9709V46.5818Z" fill="black"/>
<path d="M71.4816 46.5818H71.4333V47.0643H71.4816V46.5818Z" fill="black"/>
<path d="M70.9939 46.5818H70.9457V47.0643H70.9939V46.5818Z" fill="black"/>
<path d="M70.5047 46.5818H70.4564V47.0643H70.5047V46.5818Z" fill="black"/>
<path d="M70.0153 46.5818H69.9671V47.0643H70.0153V46.5818Z" fill="black"/>
<path d="M75.9182 44.1657H75.7907V45.615H75.9182V44.1657Z" fill="black"/>
<path d="M74.4519 44.1657H74.3244V45.615H74.4519V44.1657Z" fill="black"/>
<path d="M72.984 44.1657H72.8565V45.615H72.984V44.1657Z" fill="black"/>
<path d="M71.5177 44.1657H71.3902V45.615H71.5177V44.1657Z" fill="black"/>
<path d="M70.0515 44.1657H69.924V45.615H70.0515V44.1657Z" fill="black"/>
<path d="M68.5853 44.1657H68.4578V45.615H68.5853V44.1657Z" fill="black"/>
<path d="M75.9578 41.7496H75.751V44.1657H75.9578V41.7496Z" fill="black"/>
<path d="M73.5164 41.7496H73.3096V44.1657H73.5164V41.7496Z" fill="black"/>
<path d="M71.0767 41.7496H70.8699V44.1657H71.0767V41.7496Z" fill="black"/>
<path d="M68.6352 41.7496H68.4285V44.1657H68.6352V41.7496Z" fill="black"/>
<path d="M76.0215 37.8826H75.6873V41.7497H76.0215V37.8826Z" fill="black"/>
<path d="M72.107 37.8826H71.7728V41.7497H72.107V37.8826Z" fill="black"/>
<path d="M68.1942 37.8826H67.8599V41.7497H68.1942V37.8826Z" fill="black"/>
<path d="M64.2797 37.8826H63.9454V41.7497H64.2797V37.8826Z" fill="black"/>
<path d="M76.1249 31.5995H75.5839V37.8826H76.1249V31.5995Z" fill="black"/>
<path d="M69.7638 31.5995H69.2228V37.8826H69.7638V31.5995Z" fill="black"/>
<path d="M63.4044 31.5995H62.8634V37.8826H63.4044V31.5995Z" fill="black"/>
<path d="M76.2731 21.4494H75.434V31.5995H76.2731V21.4494Z" fill="black"/>
<path d="M65.9388 21.4494H65.0998V31.5995H65.9388V21.4494Z" fill="black"/>
<path d="M55.6029 21.4494H54.7638V31.5995H55.6029V21.4494Z" fill="black"/>
<path d="M76.5642 5.01621H75.1462V21.4494H76.5642V5.01621Z" fill="black"/>
<path d="M60.0274 5.01621H58.6094V21.4494H60.0274V5.01621Z" fill="black"/>
<path d="M43.4923 5.01621H42.0743V21.4494H43.4923V5.01621Z" fill="black"/>
<path d="M75.8957 45.615H75.813V46.5818H75.8957V45.615Z" fill="black"/>
<path d="M74.9188 45.615H74.8361V46.5818H74.9188V45.615Z" fill="black"/>
<path d="M73.9419 45.615H73.8592V46.5818H73.9419V45.615Z" fill="black"/>
<path d="M72.965 45.615H72.8823V46.5818H72.965V45.615Z" fill="black"/>
<path d="M71.9881 45.615H71.9054V46.5818H71.9881V45.615Z" fill="black"/>
<path d="M71.0112 45.615H70.9285V46.5818H71.0112V45.615Z" fill="black"/>
<path d="M70.0343 45.615H69.9516V46.5818H70.0343V45.615Z" fill="black"/>
<path d="M69.0574 45.615H68.9747V46.5818H69.0574V45.615Z" fill="black"/>
<path d="M76.3661 46.5818H76.3179V47.0643H76.3661V46.5818Z" fill="black"/>
<path d="M76.8554 46.5818H76.8072V47.0643H76.8554V46.5818Z" fill="black"/>
<path d="M77.343 46.5818H77.2948V47.0643H77.343V46.5818Z" fill="black"/>
<path d="M77.8323 46.5818H77.7841V47.0643H77.8323V46.5818Z" fill="black"/>
<path d="M78.3199 46.5818H78.2717V47.0643H78.3199V46.5818Z" fill="black"/>
<path d="M78.8093 46.5818H78.761V47.0643H78.8093V46.5818Z" fill="black"/>
<path d="M79.2986 46.5818H79.2504V47.0643H79.2986V46.5818Z" fill="black"/>
<path d="M79.7862 46.5818H79.7379V47.0643H79.7862V46.5818Z" fill="black"/>
<path d="M80.2755 46.5818H80.2272V47.0643H80.2755V46.5818Z" fill="black"/>
<path d="M80.7631 46.5818H80.7148V47.0643H80.7631V46.5818Z" fill="black"/>
<path d="M81.2524 46.5818H81.2041V47.0643H81.2524V46.5818Z" fill="black"/>
<path d="M81.74 46.5818H81.6917V47.0643H81.74V46.5818Z" fill="black"/>
<path d="M77.3844 44.1657H77.2569V45.615H77.3844V44.1657Z" fill="black"/>
<path d="M78.8506 44.1657H78.7231V45.615H78.8506V44.1657Z" fill="black"/>
<path d="M80.3168 44.1657H80.1893V45.615H80.3168V44.1657Z" fill="black"/>
<path d="M81.7848 44.1657H81.6573V45.615H81.7848V44.1657Z" fill="black"/>
<path d="M83.251 44.1657H83.1235V45.615H83.251V44.1657Z" fill="black"/>
<path d="M78.3992 41.7496H78.1924V44.1657H78.3992V41.7496Z" fill="black"/>
<path d="M80.8389 41.7496H80.6321V44.1657H80.8389V41.7496Z" fill="black"/>
<path d="M83.2803 41.7496H83.0736V44.1657H83.2803V41.7496Z" fill="black"/>
<path d="M79.9343 37.8826H79.6001V41.7497H79.9343V37.8826Z" fill="black"/>
<path d="M83.8489 37.8826H83.5146V41.7497H83.8489V37.8826Z" fill="black"/>
<path d="M87.7634 37.8826H87.4291V41.7497H87.7634V37.8826Z" fill="black"/>
<path d="M82.4843 31.5995H81.9433V37.8826H82.4843V31.5995Z" fill="black"/>
<path d="M88.8437 31.5995H88.3027V37.8826H88.8437V31.5995Z" fill="black"/>
<path d="M86.6091 21.4494H85.77V31.5995H86.6091V21.4494Z" fill="black"/>
<path d="M96.9433 21.4494H96.1042V31.5995H96.9433V21.4494Z" fill="black"/>
<path d="M93.0994 5.01621H91.6814V21.4494H93.0994V5.01621Z" fill="black"/>
<path d="M109.636 5.01621H108.218V21.4494H109.636V5.01621Z" fill="black"/>
<path d="M76.8727 45.615H76.79V46.5818H76.8727V45.615Z" fill="black"/>
<path d="M77.8496 45.615H77.7669V46.5818H77.8496V45.615Z" fill="black"/>
<path d="M78.8264 45.615H78.7438V46.5818H78.8264V45.615Z" fill="black"/>
<path d="M79.8034 45.615H79.7207V46.5818H79.8034V45.615Z" fill="black"/>
<path d="M80.7803 45.615H80.6976V46.5818H80.7803V45.615Z" fill="black"/>
<path d="M81.7572 45.615H81.6745V46.5818H81.7572V45.615Z" fill="black"/>
<path d="M82.7359 45.615H82.6532V46.5818H82.7359V45.615Z" fill="black"/>
<path d="M69.3503 53.477H68.8627V53.5247H69.3503V53.477Z" fill="black"/>
<path d="M69.3503 53.9595H68.8627V54.0073H69.3503V53.9595Z" fill="black"/>
<path d="M69.3503 54.4437H68.8627V54.4914H69.3503V54.4437Z" fill="black"/>
<path d="M69.3503 54.9263H68.8627V54.974H69.3503V54.9263Z" fill="black"/>
<path d="M69.3503 55.4105H68.8627V55.4583H69.3503V55.4105Z" fill="black"/>
<path d="M69.3503 55.893H68.8627V55.9407H69.3503V55.893Z" fill="black"/>
<path d="M69.3503 56.3772H68.8627V56.425H69.3503V56.3772Z" fill="black"/>
<path d="M69.3503 56.8598H68.8627V56.9076H69.3503V56.8598Z" fill="black"/>
<path d="M69.3503 57.344H68.8627V57.3917H69.3503V57.344Z" fill="black"/>
<path d="M69.3503 57.8265H68.8627V57.8743H69.3503V57.8265Z" fill="black"/>
<path d="M69.3503 58.3108H68.8627V58.3585H69.3503V58.3108Z" fill="black"/>
<path d="M69.3503 58.7933H68.8627V58.841H69.3503V58.7933Z" fill="black"/>
<path d="M69.3503 59.2775H68.8627V59.3253H69.3503V59.2775Z" fill="black"/>
<path d="M67.8858 53.4377H66.4213V53.5639H67.8858V53.4377Z" fill="black"/>
<path d="M67.8858 54.8887H66.4213V55.0149H67.8858V54.8887Z" fill="black"/>
<path d="M67.8858 56.3398H66.4213V56.466H67.8858V56.3398Z" fill="black"/>
<path d="M67.8858 57.7908H66.4213V57.917H67.8858V57.7908Z" fill="black"/>
<path d="M67.8858 59.2418H66.4213V59.368H67.8858V59.2418Z" fill="black"/>
<path d="M67.8858 60.6945H66.4213V60.8206H67.8858V60.6945Z" fill="black"/>
<path d="M66.4213 53.3986H63.9799V53.6032H66.4213V53.3986Z" fill="black"/>
<path d="M66.4213 55.8129H63.9799V56.0175H66.4213V55.8129Z" fill="black"/>
<path d="M66.4213 58.2289H63.9799V58.4335H66.4213V58.2289Z" fill="black"/>
<path d="M66.4213 60.645H63.9799V60.8496H66.4213V60.645Z" fill="black"/>
<path d="M63.9798 53.3354H60.0722V53.6662H63.9798V53.3354Z" fill="black"/>
<path d="M63.9798 57.2076H60.0722V57.5384H63.9798V57.2076Z" fill="black"/>
<path d="M63.9798 61.0815H60.0722V61.4123H63.9798V61.0815Z" fill="black"/>
<path d="M63.9798 64.9537H60.0722V65.2845H63.9798V64.9537Z" fill="black"/>
<path d="M60.0722 53.2332H53.7232V53.7686H60.0722V53.2332Z" fill="black"/>
<path d="M60.0722 59.5265H53.7232V60.0619H60.0722V59.5265Z" fill="black"/>
<path d="M60.0722 65.8198H53.7232V66.3552H60.0722V65.8198Z" fill="black"/>
<path d="M53.7231 53.0848H43.4664V53.9152H53.7231V53.0848Z" fill="black"/>
<path d="M53.7231 63.3134H43.4664V64.1438H53.7231V63.3134Z" fill="black"/>
<path d="M53.7231 73.5402H43.4664V74.3705H53.7231V73.5402Z" fill="black"/>
<path d="M43.4682 52.7984H26.8624V54.2016H43.4682V52.7984Z" fill="black"/>
<path d="M43.4682 69.1634H26.8624V70.5666H43.4682V69.1634Z" fill="black"/>
<path d="M43.4682 85.5267H26.8624V86.9299H43.4682V85.5267Z" fill="black"/>
<path d="M26.8624 52.3653H0V54.6347H26.8624V52.3653Z" fill="black"/>
<path d="M26.8624 78.548H0V80.8174H26.8624V78.548Z" fill="black"/>
<path d="M26.8624 104.731H0V107H26.8624V104.731Z" fill="black"/>
<path d="M68.8644 53.4599H67.8875V53.5418H68.8644V53.4599Z" fill="black"/>
<path d="M68.8644 54.4267H67.8875V54.5086H68.8644V54.4267Z" fill="black"/>
<path d="M68.8644 55.3934H67.8875V55.4753H68.8644V55.3934Z" fill="black"/>
<path d="M68.8644 56.3602H67.8875V56.442H68.8644V56.3602Z" fill="black"/>
<path d="M68.8644 57.327H67.8875V57.4088H68.8644V57.327Z" fill="black"/>
<path d="M68.8644 58.2937H67.8875V58.3756H68.8644V58.2937Z" fill="black"/>
<path d="M68.8644 59.2604H67.8875V59.3423H68.8644V59.2604Z" fill="black"/>
<path d="M68.8644 60.2273H67.8875V60.3091H68.8644V60.2273Z" fill="black"/>
<path d="M69.3503 52.9927H68.8627V53.0404H69.3503V52.9927Z" fill="black"/>
<path d="M69.3503 52.5085H68.8627V52.5563H69.3503V52.5085Z" fill="black"/>
<path d="M69.3503 52.026H68.8627V52.0737H69.3503V52.026Z" fill="black"/>
<path d="M69.3503 51.5417H68.8627V51.5895H69.3503V51.5417Z" fill="black"/>
<path d="M69.3503 51.0592H68.8627V51.107H69.3503V51.0592Z" fill="black"/>
<path d="M69.3503 50.575H68.8627V50.6227H69.3503V50.575Z" fill="black"/>
<path d="M69.3503 50.0925H68.8627V50.1402H69.3503V50.0925Z" fill="black"/>
<path d="M69.3503 49.6083H68.8627V49.656H69.3503V49.6083Z" fill="black"/>
<path d="M69.3503 49.1257H68.8627V49.1735H69.3503V49.1257Z" fill="black"/>
<path d="M69.3503 48.6415H68.8627V48.6892H69.3503V48.6415Z" fill="black"/>
<path d="M69.3503 48.159H68.8627V48.2067H69.3503V48.159Z" fill="black"/>
<path d="M69.3503 47.6747H68.8627V47.7225H69.3503V47.6747Z" fill="black"/>
<path d="M67.8858 51.9851H66.4213V52.1112H67.8858V51.9851Z" fill="black"/>
<path d="M67.8858 50.5341H66.4213V50.6603H67.8858V50.5341Z" fill="black"/>
<path d="M67.8858 49.0831H66.4213V49.2093H67.8858V49.0831Z" fill="black"/>
<path d="M67.8858 47.6321H66.4213V47.7583H67.8858V47.6321Z" fill="black"/>
<path d="M67.8858 46.1794H66.4213V46.3056H67.8858V46.1794Z" fill="black"/>
<path d="M66.4213 50.9825H63.9799V51.1871H66.4213V50.9825Z" fill="black"/>
<path d="M66.4213 48.5682H63.9799V48.7728H66.4213V48.5682Z" fill="black"/>
<path d="M66.4213 46.1522H63.9799V46.3568H66.4213V46.1522Z" fill="black"/>
<path d="M63.9798 49.4616H60.0722V49.7924H63.9798V49.4616Z" fill="black"/>
<path d="M63.9798 45.5877H60.0722V45.9185H63.9798V45.5877Z" fill="black"/>
<path d="M63.9798 41.7156H60.0722V42.0464H63.9798V41.7156Z" fill="black"/>
<path d="M60.0722 46.9381H53.7232V47.4735H60.0722V46.9381Z" fill="black"/>
<path d="M60.0722 40.6448H53.7232V41.1802H60.0722V40.6448Z" fill="black"/>
<path d="M53.7231 42.858H43.4664V43.6884H53.7231V42.858Z" fill="black"/>
<path d="M53.7231 32.6294H43.4664V33.4598H53.7231V32.6294Z" fill="black"/>
<path d="M43.4682 36.4351H26.8624V37.8384H43.4682V36.4351Z" fill="black"/>
<path d="M43.4682 20.0701H26.8624V21.4733H43.4682V20.0701Z" fill="black"/>
<path d="M26.8624 26.1826H0V28.452H26.8624V26.1826Z" fill="black"/>
<path d="M26.8624 0H0V2.26941H26.8624V0Z" fill="black"/>
<path d="M68.8644 52.4932H67.8875V52.575H68.8644V52.4932Z" fill="black"/>
<path d="M68.8644 51.5265H67.8875V51.6083H68.8644V51.5265Z" fill="black"/>
<path d="M68.8644 50.5596H67.8875V50.6415H68.8644V50.5596Z" fill="black"/>
<path d="M68.8644 49.5929H67.8875V49.6747H68.8644V49.5929Z" fill="black"/>
<path d="M68.8644 48.6262H67.8875V48.708H68.8644V48.6262Z" fill="black"/>
<path d="M68.8644 47.6594H67.8875V47.7412H68.8644V47.6594Z" fill="black"/>
<path d="M68.8644 46.6909H67.8875V46.7728H68.8644V46.6909Z" fill="black"/>
</svg>
