<svg width="152" height="107" viewBox="0 0 152 107" fill="none" xmlns="http://www.w3.org/2000/svg">
<path d="M0.83231 0H0.777476V0.762957H0.83231V0Z" fill="black"/>
<path d="M1.38846 0H1.33363V0.762957H1.38846V0Z" fill="black"/>
<path d="M1.94266 0H1.88783V0.762957H1.94266V0Z" fill="black"/>
<path d="M2.49885 0H2.44401V0.762957H2.49885V0Z" fill="black"/>
<path d="M3.05304 0H2.99821V0.762957H3.05304V0Z" fill="black"/>
<path d="M3.60919 0H3.55436V0.762957H3.60919V0Z" fill="black"/>
<path d="M4.16343 0H4.1086V0.762957H4.16343V0Z" fill="black"/>
<path d="M4.71958 0H4.66475V0.762957H4.71958V0Z" fill="black"/>
<path d="M5.27577 0H5.22093V0.762957H5.27577V0Z" fill="black"/>
<path d="M0.877339 2.29157H0.732423V4.58314H0.877339V2.29157Z" fill="black"/>
<path d="M2.54388 2.29157H2.39896V4.58314H2.54388V2.29157Z" fill="black"/>
<path d="M4.21237 2.29157H4.06745V4.58314H4.21237V2.29157Z" fill="black"/>
<path d="M5.8789 2.29157H5.73398V4.58314H5.8789V2.29157Z" fill="black"/>
<path d="M7.54547 2.29157H7.40056V4.58314H7.54547V2.29157Z" fill="black"/>
<path d="M9.21201 2.29157H9.06709V4.58314H9.21201V2.29157Z" fill="black"/>
<path d="M10.8805 2.29157H10.7356V4.58314H10.8805V2.29157Z" fill="black"/>
<path d="M12.547 2.29157H12.4021V4.58314H12.547V2.29157Z" fill="black"/>
<path d="M14.2136 2.29157H14.0687V4.58314H14.2136V2.29157Z" fill="black"/>
<path d="M0.922369 4.58582H0.687369V8.406H0.922369V4.58582Z" fill="black"/>
<path d="M3.69734 4.58582H3.46234V8.406H3.69734V4.58582Z" fill="black"/>
<path d="M6.47231 4.58582H6.23731V8.406H6.47231V4.58582Z" fill="black"/>
<path d="M9.24529 4.58582H9.01029V8.406H9.24529V4.58582Z" fill="black"/>
<path d="M12.0203 4.58582H11.7853V8.406H12.0203V4.58582Z" fill="black"/>
<path d="M14.7933 4.58582H14.5583V8.406H14.7933V4.58582Z" fill="black"/>
<path d="M17.5682 4.58582H17.3332V8.406H17.5682V4.58582Z" fill="black"/>
<path d="M5.44418 8.40597H5.06426V14.5204H5.44418V8.40597Z" fill="black"/>
<path d="M9.89349 8.40597H9.51358V14.5204H9.89349V8.40597Z" fill="black"/>
<path d="M14.3409 8.40597H13.961V14.5204H14.3409V8.40597Z" fill="black"/>
<path d="M18.7902 8.40597H18.4103V14.5204H18.7902V8.40597Z" fill="black"/>
<path d="M23.2376 8.40597H22.8577V14.5204H23.2376V8.40597Z" fill="black"/>
<path d="M1.11235 14.5205H0.49743V24.4551H1.11235V14.5205Z" fill="black"/>
<path d="M8.34249 14.5205H7.72757V24.4551H8.34249V14.5205Z" fill="black"/>
<path d="M15.5707 14.5205H14.9558V24.4551H15.5707V14.5205Z" fill="black"/>
<path d="M22.7989 14.5205H22.184V24.4551H22.7989V14.5205Z" fill="black"/>
<path d="M30.0291 14.5205H29.4142V24.4551H30.0291V14.5205Z" fill="black"/>
<path d="M13.0288 24.4551H12.0751V40.5042H13.0288V24.4551Z" fill="black"/>
<path d="M24.7768 24.4551H23.8231V40.5042H24.7768V24.4551Z" fill="black"/>
<path d="M36.5229 24.4551H35.5692V40.5042H36.5229V24.4551Z" fill="black"/>
<path d="M1.61171 40.5042H0V66.4878H1.61171V40.5042Z" fill="black"/>
<path d="M20.4078 40.5042H18.7961V66.4878H20.4078V40.5042Z" fill="black"/>
<path d="M39.2019 40.5042H37.5902V66.4878H39.2019V40.5042Z" fill="black"/>
<path d="M0.853831 0.762994H0.759831V2.2916H0.853831V0.762994Z" fill="black"/>
<path d="M1.96422 0.762994H1.87022V2.2916H1.96422V0.762994Z" fill="black"/>
<path d="M3.0746 0.762994H2.9806V2.2916H3.0746V0.762994Z" fill="black"/>
<path d="M4.18495 0.762994H4.09095V2.2916H4.18495V0.762994Z" fill="black"/>
<path d="M5.29534 0.762994H5.20134V2.2916H5.29534V0.762994Z" fill="black"/>
<path d="M6.40572 0.762994H6.31172V2.2916H6.40572V0.762994Z" fill="black"/>
<path d="M7.51607 0.762994H7.42207V2.2916H7.51607V0.762994Z" fill="black"/>
<path d="M8.62646 0.762994H8.53246V2.2916H8.62646V0.762994Z" fill="black"/>
<path d="M9.73684 0.762994H9.64284V2.2916H9.73684V0.762994Z" fill="black"/>
<path d="M0.83231 106.237H0.777476V107H0.83231V106.237Z" fill="black"/>
<path d="M1.38846 106.237H1.33363V107H1.38846V106.237Z" fill="black"/>
<path d="M1.9427 106.237H1.88786V107H1.9427V106.237Z" fill="black"/>
<path d="M2.49885 106.237H2.44401V107H2.49885V106.237Z" fill="black"/>
<path d="M3.05304 106.237H2.99821V107H3.05304V106.237Z" fill="black"/>
<path d="M3.60923 106.237H3.5544V107H3.60923V106.237Z" fill="black"/>
<path d="M4.16343 106.237H4.1086V107H4.16343V106.237Z" fill="black"/>
<path d="M4.71962 106.237H4.66478V107H4.71962V106.237Z" fill="black"/>
<path d="M5.27577 106.237H5.22093V107H5.27577V106.237Z" fill="black"/>
<path d="M2.54388 102.417H2.39896V104.708H2.54388V102.417Z" fill="black"/>
<path d="M4.2124 102.417H4.06748V104.708H4.2124V102.417Z" fill="black"/>
<path d="M5.87894 102.417H5.73402V104.708H5.87894V102.417Z" fill="black"/>
<path d="M7.54547 102.417H7.40056V104.708H7.54547V102.417Z" fill="black"/>
<path d="M9.21201 102.417H9.06709V104.708H9.21201V102.417Z" fill="black"/>
<path d="M10.8805 102.417H10.7356V104.708H10.8805V102.417Z" fill="black"/>
<path d="M12.5471 102.417H12.4022V104.708H12.5471V102.417Z" fill="black"/>
<path d="M14.2136 102.417H14.0687V104.708H14.2136V102.417Z" fill="black"/>
<path d="M0.922406 98.5941H0.687406V102.414H0.922406V98.5941Z" fill="black"/>
<path d="M3.69734 98.5941H3.46234V102.414H3.69734V98.5941Z" fill="black"/>
<path d="M6.47231 98.5941H6.23731V102.414H6.47231V98.5941Z" fill="black"/>
<path d="M9.24532 98.5941H9.01032V102.414H9.24532V98.5941Z" fill="black"/>
<path d="M12.0203 98.5941H11.7853V102.414H12.0203V98.5941Z" fill="black"/>
<path d="M14.7933 98.5941H14.5583V102.414H14.7933V98.5941Z" fill="black"/>
<path d="M17.5682 98.5941H17.3332V102.414H17.5682V98.5941Z" fill="black"/>
<path d="M5.44418 92.4823H5.06426V98.5967H5.44418V92.4823Z" fill="black"/>
<path d="M9.89353 92.4823H9.51361V98.5967H9.89353V92.4823Z" fill="black"/>
<path d="M14.3409 92.4823H13.961V98.5967H14.3409V92.4823Z" fill="black"/>
<path d="M18.7902 92.4823H18.4103V98.5967H18.7902V92.4823Z" fill="black"/>
<path d="M23.2376 92.4823H22.8577V98.5967H23.2376V92.4823Z" fill="black"/>
<path d="M1.11235 82.5476H0.49743V92.4822H1.11235V82.5476Z" fill="black"/>
<path d="M8.34252 82.5476H7.72761V92.4822H8.34252V82.5476Z" fill="black"/>
<path d="M15.5707 82.5476H14.9558V92.4822H15.5707V82.5476Z" fill="black"/>
<path d="M22.7989 82.5476H22.184V92.4822H22.7989V82.5476Z" fill="black"/>
<path d="M30.0291 82.5476H29.4142V92.4822H30.0291V82.5476Z" fill="black"/>
<path d="M13.0288 66.4986H12.0751V82.5476H13.0288V66.4986Z" fill="black"/>
<path d="M24.7769 66.4986H23.8232V82.5476H24.7769V66.4986Z" fill="black"/>
<path d="M36.5229 66.4986H35.5692V82.5476H36.5229V66.4986Z" fill="black"/>
<path d="M0.853831 104.708H0.759831V106.237H0.853831V104.708Z" fill="black"/>
<path d="M1.96422 104.708H1.87022V106.237H1.96422V104.708Z" fill="black"/>
<path d="M3.0746 104.708H2.9806V106.237H3.0746V104.708Z" fill="black"/>
<path d="M4.18499 104.708H4.09099V106.237H4.18499V104.708Z" fill="black"/>
<path d="M5.29534 104.708H5.20134V106.237H5.29534V104.708Z" fill="black"/>
<path d="M6.40572 104.708H6.31172V106.237H6.40572V104.708Z" fill="black"/>
<path d="M7.51611 104.708H7.42211V106.237H7.51611V104.708Z" fill="black"/>
<path d="M8.62649 104.708H8.53249V106.237H8.62649V104.708Z" fill="black"/>
<path d="M9.73684 104.708H9.64284V106.237H9.73684V104.708Z" fill="black"/>
<path d="M151.221 0H151.166V0.762957H151.221V0Z" fill="black"/>
<path d="M150.666 0H150.612V0.762957H150.666V0Z" fill="black"/>
<path d="M150.11 0H150.055V0.762957H150.11V0Z" fill="black"/>
<path d="M149.556 0H149.501V0.762957H149.556V0Z" fill="black"/>
<path d="M149 0H148.945V0.762957H149V0Z" fill="black"/>
<path d="M148.444 0H148.389V0.762957H148.444V0Z" fill="black"/>
<path d="M147.889 0H147.835V0.762957H147.889V0Z" fill="black"/>
<path d="M147.333 0H147.278V0.762957H147.333V0Z" fill="black"/>
<path d="M146.779 0H146.724V0.762957H146.779V0Z" fill="black"/>
<path d="M151.266 2.29157H151.121V4.58314H151.266V2.29157Z" fill="black"/>
<path d="M149.599 2.29157H149.454V4.58314H149.599V2.29157Z" fill="black"/>
<path d="M147.933 2.29157H147.788V4.58314H147.933V2.29157Z" fill="black"/>
<path d="M146.264 2.29157H146.119V4.58314H146.264V2.29157Z" fill="black"/>
<path d="M144.598 2.29157H144.453V4.58314H144.598V2.29157Z" fill="black"/>
<path d="M142.931 2.29157H142.786V4.58314H142.931V2.29157Z" fill="black"/>
<path d="M141.264 2.29157H141.119V4.58314H141.264V2.29157Z" fill="black"/>
<path d="M139.598 2.29157H139.453V4.58314H139.598V2.29157Z" fill="black"/>
<path d="M137.929 2.29157H137.784V4.58314H137.929V2.29157Z" fill="black"/>
<path d="M151.311 4.58582H151.076V8.406H151.311V4.58582Z" fill="black"/>
<path d="M148.538 4.58582H148.303V8.406H148.538V4.58582Z" fill="black"/>
<path d="M145.763 4.58582H145.528V8.406H145.763V4.58582Z" fill="black"/>
<path d="M142.99 4.58582H142.755V8.406H142.99V4.58582Z" fill="black"/>
<path d="M140.215 4.58582H139.98V8.406H140.215V4.58582Z" fill="black"/>
<path d="M137.44 4.58582H137.205V8.406H137.44V4.58582Z" fill="black"/>
<path d="M134.667 4.58582H134.432V8.406H134.667V4.58582Z" fill="black"/>
<path d="M146.936 8.40597H146.556V14.5204H146.936V8.40597Z" fill="black"/>
<path d="M142.486 8.40597H142.107V14.5204H142.486V8.40597Z" fill="black"/>
<path d="M138.037 8.40597H137.657V14.5204H138.037V8.40597Z" fill="black"/>
<path d="M133.59 8.40597H133.21V14.5204H133.59V8.40597Z" fill="black"/>
<path d="M129.14 8.40597H128.76V14.5204H129.14V8.40597Z" fill="black"/>
<path d="M151.501 14.5205H150.886V24.4551H151.501V14.5205Z" fill="black"/>
<path d="M144.272 14.5205H143.658V24.4551H144.272V14.5205Z" fill="black"/>
<path d="M137.042 14.5205H136.427V24.4551H137.042V14.5205Z" fill="black"/>
<path d="M129.814 14.5205H129.199V24.4551H129.814V14.5205Z" fill="black"/>
<path d="M122.586 14.5205H121.971V24.4551H122.586V14.5205Z" fill="black"/>
<path d="M139.923 24.4551H138.969V40.5042H139.923V24.4551Z" fill="black"/>
<path d="M128.177 24.4551H127.223V40.5042H128.177V24.4551Z" fill="black"/>
<path d="M116.429 24.4551H115.475V40.5042H116.429V24.4551Z" fill="black"/>
<path d="M152 40.5042H150.388V66.4878H152V40.5042Z" fill="black"/>
<path d="M133.204 40.5042H131.592V66.4878H133.204V40.5042Z" fill="black"/>
<path d="M114.41 40.5042H112.798V66.4878H114.41V40.5042Z" fill="black"/>
<path d="M151.24 0.762994H151.146V2.2916H151.24V0.762994Z" fill="black"/>
<path d="M150.13 0.762994H150.036V2.2916H150.13V0.762994Z" fill="black"/>
<path d="M149.019 0.762994H148.925V2.2916H149.019V0.762994Z" fill="black"/>
<path d="M147.909 0.762994H147.815V2.2916H147.909V0.762994Z" fill="black"/>
<path d="M146.799 0.762994H146.705V2.2916H146.799V0.762994Z" fill="black"/>
<path d="M145.688 0.762994H145.594V2.2916H145.688V0.762994Z" fill="black"/>
<path d="M144.578 0.762994H144.484V2.2916H144.578V0.762994Z" fill="black"/>
<path d="M143.468 0.762994H143.374V2.2916H143.468V0.762994Z" fill="black"/>
<path d="M142.357 0.762994H142.263V2.2916H142.357V0.762994Z" fill="black"/>
<path d="M151.221 106.237H151.166V107H151.221V106.237Z" fill="black"/>
<path d="M150.666 106.237H150.612V107H150.666V106.237Z" fill="black"/>
<path d="M150.11 106.237H150.055V107H150.11V106.237Z" fill="black"/>
<path d="M149.556 106.237H149.501V107H149.556V106.237Z" fill="black"/>
<path d="M149 106.237H148.945V107H149V106.237Z" fill="black"/>
<path d="M148.444 106.237H148.389V107H148.444V106.237Z" fill="black"/>
<path d="M147.889 106.237H147.835V107H147.889V106.237Z" fill="black"/>
<path d="M147.333 106.237H147.278V107H147.333V106.237Z" fill="black"/>
<path d="M146.779 106.237H146.724V107H146.779V106.237Z" fill="black"/>
<path d="M149.599 102.417H149.454V104.708H149.599V102.417Z" fill="black"/>
<path d="M147.933 102.417H147.788V104.708H147.933V102.417Z" fill="black"/>
<path d="M146.264 102.417H146.119V104.708H146.264V102.417Z" fill="black"/>
<path d="M144.598 102.417H144.453V104.708H144.598V102.417Z" fill="black"/>
<path d="M142.931 102.417H142.786V104.708H142.931V102.417Z" fill="black"/>
<path d="M141.264 102.417H141.119V104.708H141.264V102.417Z" fill="black"/>
<path d="M139.598 102.417H139.453V104.708H139.598V102.417Z" fill="black"/>
<path d="M137.929 102.417H137.784V104.708H137.929V102.417Z" fill="black"/>
<path d="M151.311 98.5941H151.076V102.414H151.311V98.5941Z" fill="black"/>
<path d="M148.538 98.5941H148.303V102.414H148.538V98.5941Z" fill="black"/>
<path d="M145.763 98.5941H145.528V102.414H145.763V98.5941Z" fill="black"/>
<path d="M142.99 98.5941H142.755V102.414H142.99V98.5941Z" fill="black"/>
<path d="M140.215 98.5941H139.98V102.414H140.215V98.5941Z" fill="black"/>
<path d="M137.44 98.5941H137.205V102.414H137.44V98.5941Z" fill="black"/>
<path d="M134.667 98.5941H134.432V102.414H134.667V98.5941Z" fill="black"/>
<path d="M146.936 92.4823H146.556V98.5967H146.936V92.4823Z" fill="black"/>
<path d="M142.486 92.4823H142.107V98.5967H142.486V92.4823Z" fill="black"/>
<path d="M138.037 92.4823H137.657V98.5967H138.037V92.4823Z" fill="black"/>
<path d="M133.59 92.4823H133.21V98.5967H133.59V92.4823Z" fill="black"/>
<path d="M129.14 92.4823H128.76V98.5967H129.14V92.4823Z" fill="black"/>
<path d="M151.501 82.5476H150.886V92.4822H151.501V82.5476Z" fill="black"/>
<path d="M144.272 82.5476H143.658V92.4822H144.272V82.5476Z" fill="black"/>
<path d="M137.042 82.5476H136.427V92.4822H137.042V82.5476Z" fill="black"/>
<path d="M129.814 82.5476H129.199V92.4822H129.814V82.5476Z" fill="black"/>
<path d="M122.586 82.5476H121.971V92.4822H122.586V82.5476Z" fill="black"/>
<path d="M139.923 66.4986H138.969V82.5476H139.923V66.4986Z" fill="black"/>
<path d="M128.177 66.4986H127.223V82.5476H128.177V66.4986Z" fill="black"/>
<path d="M116.429 66.4986H115.475V82.5476H116.429V66.4986Z" fill="black"/>
<path d="M151.24 104.708H151.146V106.237H151.24V104.708Z" fill="black"/>
<path d="M150.13 104.708H150.036V106.237H150.13V104.708Z" fill="black"/>
<path d="M149.019 104.708H148.925V106.237H149.019V104.708Z" fill="black"/>
<path d="M147.909 104.708H147.815V106.237H147.909V104.708Z" fill="black"/>
<path d="M146.799 104.708H146.705V106.237H146.799V104.708Z" fill="black"/>
<path d="M145.688 104.708H145.594V106.237H145.688V104.708Z" fill="black"/>
<path d="M144.578 104.708H144.484V106.237H144.578V104.708Z" fill="black"/>
<path d="M143.468 104.708H143.374V106.237H143.468V104.708Z" fill="black"/>
<path d="M142.357 104.708H142.263V106.237H142.357V104.708Z" fill="black"/>
<path d="M1.11235 82.5476H0.49743V92.4822H1.11235V82.5476Z" fill="black"/>
<path d="M76.0401 0H75.9853V0.762957H76.0401V0Z" fill="black"/>
<path d="M76.5963 0H76.5414V0.762957H76.5963V0Z" fill="black"/>
<path d="M77.1505 0H77.0957V0.762957H77.1505V0Z" fill="black"/>
<path d="M77.7067 0H77.6519V0.762957H77.7067V0Z" fill="black"/>
<path d="M78.2609 0H78.2061V0.762957H78.2609V0Z" fill="black"/>
<path d="M78.817 0H78.7622V0.762957H78.817V0Z" fill="black"/>
<path d="M79.3713 0H79.3164V0.762957H79.3713V0Z" fill="black"/>
<path d="M79.9274 0H79.8726V0.762957H79.9274V0Z" fill="black"/>
<path d="M80.4816 0H80.4268V0.762957H80.4816V0Z" fill="black"/>
<path d="M76.0852 2.29157H75.9403V4.58314H76.0852V2.29157Z" fill="black"/>
<path d="M77.7517 2.29157H77.6068V4.58314H77.7517V2.29157Z" fill="black"/>
<path d="M79.4202 2.29157H79.2753V4.58314H79.4202V2.29157Z" fill="black"/>
<path d="M81.0867 2.29157H80.9419V4.58314H81.0867V2.29157Z" fill="black"/>
<path d="M82.7533 2.29157H82.6084V4.58314H82.7533V2.29157Z" fill="black"/>
<path d="M84.4198 2.29157H84.2749V4.58314H84.4198V2.29157Z" fill="black"/>
<path d="M86.0864 2.29157H85.9415V4.58314H86.0864V2.29157Z" fill="black"/>
<path d="M87.7549 2.29157H87.61V4.58314H87.7549V2.29157Z" fill="black"/>
<path d="M89.4214 2.29157H89.2765V4.58314H89.4214V2.29157Z" fill="black"/>
<path d="M76.1302 4.58582H75.8952V8.406H76.1302V4.58582Z" fill="black"/>
<path d="M78.9052 4.58582H78.6702V8.406H78.9052V4.58582Z" fill="black"/>
<path d="M81.6801 4.58582H81.4451V8.406H81.6801V4.58582Z" fill="black"/>
<path d="M84.4531 4.58582H84.2182V8.406H84.4531V4.58582Z" fill="black"/>
<path d="M87.2281 4.58582H86.9931V8.406H87.2281V4.58582Z" fill="black"/>
<path d="M90.0011 4.58582H89.7661V8.406H90.0011V4.58582Z" fill="black"/>
<path d="M92.7761 4.58582H92.5411V8.406H92.7761V4.58582Z" fill="black"/>
<path d="M76.2026 8.40597H75.8227V14.5204H76.2026V8.40597Z" fill="black"/>
<path d="M80.652 8.40597H80.2721V14.5204H80.652V8.40597Z" fill="black"/>
<path d="M85.0994 8.40597H84.7195V14.5204H85.0994V8.40597Z" fill="black"/>
<path d="M89.5487 8.40597H89.1688V14.5204H89.5487V8.40597Z" fill="black"/>
<path d="M93.998 8.40597H93.6181V14.5204H93.998V8.40597Z" fill="black"/>
<path d="M98.4454 8.40597H98.0655V14.5204H98.4454V8.40597Z" fill="black"/>
<path d="M76.3202 14.5205H75.7053V24.4551H76.3202V14.5205Z" fill="black"/>
<path d="M83.5484 14.5205H82.9335V24.4551H83.5484V14.5205Z" fill="black"/>
<path d="M90.7785 14.5205H90.1636V24.4551H90.7785V14.5205Z" fill="black"/>
<path d="M98.0068 14.5205H97.3918V24.4551H98.0068V14.5205Z" fill="black"/>
<path d="M105.235 14.5205H104.62V24.4551H105.235V14.5205Z" fill="black"/>
<path d="M76.4905 24.4551H75.5368V40.5042H76.4905V24.4551Z" fill="black"/>
<path d="M88.2366 24.4551H87.2829V40.5042H88.2366V24.4551Z" fill="black"/>
<path d="M99.9846 24.4551H99.031V40.5042H99.9846V24.4551Z" fill="black"/>
<path d="M111.731 24.4551H110.777V40.5042H111.731V24.4551Z" fill="black"/>
<path d="M76.8195 40.5042H75.2078V66.4878H76.8195V40.5042Z" fill="black"/>
<path d="M95.6137 40.5042H94.002V66.4878H95.6137V40.5042Z" fill="black"/>
<path d="M76.0597 0.762994H75.9657V2.2916H76.0597V0.762994Z" fill="black"/>
<path d="M77.1701 0.762994H77.0761V2.2916H77.1701V0.762994Z" fill="black"/>
<path d="M78.2825 0.762994H78.1885V2.2916H78.2825V0.762994Z" fill="black"/>
<path d="M79.3928 0.762994H79.2988V2.2916H79.3928V0.762994Z" fill="black"/>
<path d="M80.5032 0.762994H80.4092V2.2916H80.5032V0.762994Z" fill="black"/>
<path d="M81.6135 0.762994H81.5196V2.2916H81.6135V0.762994Z" fill="black"/>
<path d="M82.7239 0.762994H82.6299V2.2916H82.7239V0.762994Z" fill="black"/>
<path d="M83.8343 0.762994H83.7403V2.2916H83.8343V0.762994Z" fill="black"/>
<path d="M84.9447 0.762994H84.8507V2.2916H84.9447V0.762994Z" fill="black"/>
<path d="M76.0401 106.237H75.9853V107H76.0401V106.237Z" fill="black"/>
<path d="M76.5964 106.237H76.5415V107H76.5964V106.237Z" fill="black"/>
<path d="M77.1506 106.237H77.0957V107H77.1506V106.237Z" fill="black"/>
<path d="M77.7067 106.237H77.6519V107H77.7067V106.237Z" fill="black"/>
<path d="M78.2609 106.237H78.2061V107H78.2609V106.237Z" fill="black"/>
<path d="M78.8171 106.237H78.7623V107H78.8171V106.237Z" fill="black"/>
<path d="M79.3713 106.237H79.3165V107H79.3713V106.237Z" fill="black"/>
<path d="M79.9275 106.237H79.8726V107H79.9275V106.237Z" fill="black"/>
<path d="M80.4817 106.237H80.4268V107H80.4817V106.237Z" fill="black"/>
<path d="M76.0852 102.417H75.9403V104.708H76.0852V102.417Z" fill="black"/>
<path d="M77.7517 102.417H77.6068V104.708H77.7517V102.417Z" fill="black"/>
<path d="M79.4203 102.417H79.2753V104.708H79.4203V102.417Z" fill="black"/>
<path d="M81.0868 102.417H80.9419V104.708H81.0868V102.417Z" fill="black"/>
<path d="M82.7533 102.417H82.6084V104.708H82.7533V102.417Z" fill="black"/>
<path d="M84.4199 102.417H84.275V104.708H84.4199V102.417Z" fill="black"/>
<path d="M86.0864 102.417H85.9415V104.708H86.0864V102.417Z" fill="black"/>
<path d="M87.7549 102.417H87.61V104.708H87.7549V102.417Z" fill="black"/>
<path d="M89.4215 102.417H89.2765V104.708H89.4215V102.417Z" fill="black"/>
<path d="M76.1303 98.5941H75.8953V102.414H76.1303V98.5941Z" fill="black"/>
<path d="M78.9052 98.5941H78.6702V102.414H78.9052V98.5941Z" fill="black"/>
<path d="M81.6802 98.5941H81.4452V102.414H81.6802V98.5941Z" fill="black"/>
<path d="M84.4532 98.5941H84.2182V102.414H84.4532V98.5941Z" fill="black"/>
<path d="M87.2281 98.5941H86.9931V102.414H87.2281V98.5941Z" fill="black"/>
<path d="M90.0011 98.5941H89.7662V102.414H90.0011V98.5941Z" fill="black"/>
<path d="M92.7761 98.5941H92.5411V102.414H92.7761V98.5941Z" fill="black"/>
<path d="M76.2027 92.4823H75.8228V98.5967H76.2027V92.4823Z" fill="black"/>
<path d="M80.652 92.4823H80.2721V98.5967H80.652V92.4823Z" fill="black"/>
<path d="M85.0994 92.4823H84.7195V98.5967H85.0994V92.4823Z" fill="black"/>
<path d="M89.5487 92.4823H89.1688V98.5967H89.5487V92.4823Z" fill="black"/>
<path d="M93.9981 92.4823H93.6182V98.5967H93.9981V92.4823Z" fill="black"/>
<path d="M98.4454 92.4823H98.0656V98.5967H98.4454V92.4823Z" fill="black"/>
<path d="M76.3202 82.5476H75.7053V92.4822H76.3202V82.5476Z" fill="black"/>
<path d="M83.5484 82.5476H82.9335V92.4822H83.5484V82.5476Z" fill="black"/>
<path d="M90.7786 82.5476H90.1637V92.4822H90.7786V82.5476Z" fill="black"/>
<path d="M98.0068 82.5476H97.3919V92.4822H98.0068V82.5476Z" fill="black"/>
<path d="M105.235 82.5476H104.62V92.4822H105.235V82.5476Z" fill="black"/>
<path d="M76.4906 66.4986H75.5369V82.5476H76.4906V66.4986Z" fill="black"/>
<path d="M88.2367 66.4986H87.283V82.5476H88.2367V66.4986Z" fill="black"/>
<path d="M99.9847 66.4986H99.031V82.5476H99.9847V66.4986Z" fill="black"/>
<path d="M111.731 66.4986H110.777V82.5476H111.731V66.4986Z" fill="black"/>
<path d="M76.0597 104.708H75.9658V106.237H76.0597V104.708Z" fill="black"/>
<path d="M77.1702 104.708H77.0761V106.237H77.1702V104.708Z" fill="black"/>
<path d="M78.2825 104.708H78.1885V106.237H78.2825V104.708Z" fill="black"/>
<path d="M79.3928 104.708H79.2989V106.237H79.3928V104.708Z" fill="black"/>
<path d="M80.5032 104.708H80.4092V106.237H80.5032V104.708Z" fill="black"/>
<path d="M81.6136 104.708H81.5196V106.237H81.6136V104.708Z" fill="black"/>
<path d="M82.724 104.708H82.6299V106.237H82.724V104.708Z" fill="black"/>
<path d="M83.8343 104.708H83.7403V106.237H83.8343V104.708Z" fill="black"/>
<path d="M84.9447 104.708H84.8507V106.237H84.9447V104.708Z" fill="black"/>
<path d="M75.4859 0H75.4311V0.762957H75.4859V0Z" fill="black"/>
<path d="M74.9297 0H74.8749V0.762957H74.9297V0Z" fill="black"/>
<path d="M74.3756 0H74.3207V0.762957H74.3756V0Z" fill="black"/>
<path d="M73.8194 0H73.7645V0.762957H73.8194V0Z" fill="black"/>
<path d="M73.2632 0H73.2084V0.762957H73.2632V0Z" fill="black"/>
<path d="M72.709 0H72.6542V0.762957H72.709V0Z" fill="black"/>
<path d="M72.1528 0H72.098V0.762957H72.1528V0Z" fill="black"/>
<path d="M71.5986 0H71.5438V0.762957H71.5986V0Z" fill="black"/>
<path d="M74.4186 2.29157H74.2737V4.58314H74.4186V2.29157Z" fill="black"/>
<path d="M72.7521 2.29157H72.6072V4.58314H72.7521V2.29157Z" fill="black"/>
<path d="M71.0836 2.29157H70.9387V4.58314H71.0836V2.29157Z" fill="black"/>
<path d="M69.417 2.29157H69.2721V4.58314H69.417V2.29157Z" fill="black"/>
<path d="M67.7505 2.29157H67.6056V4.58314H67.7505V2.29157Z" fill="black"/>
<path d="M66.084 2.29157H65.939V4.58314H66.084V2.29157Z" fill="black"/>
<path d="M64.4174 2.29157H64.2725V4.58314H64.4174V2.29157Z" fill="black"/>
<path d="M62.7489 2.29157H62.604V4.58314H62.7489V2.29157Z" fill="black"/>
<path d="M73.3572 4.58582H73.1222V8.406H73.3572V4.58582Z" fill="black"/>
<path d="M70.5823 4.58582H70.3473V8.406H70.5823V4.58582Z" fill="black"/>
<path d="M67.8073 4.58582H67.5723V8.406H67.8073V4.58582Z" fill="black"/>
<path d="M65.0343 4.58582H64.7993V8.406H65.0343V4.58582Z" fill="black"/>
<path d="M62.2593 4.58582H62.0243V8.406H62.2593V4.58582Z" fill="black"/>
<path d="M59.4864 4.58582H59.2514V8.406H59.4864V4.58582Z" fill="black"/>
<path d="M71.7553 8.40597H71.3754V14.5204H71.7553V8.40597Z" fill="black"/>
<path d="M67.306 8.40597H66.9261V14.5204H67.306V8.40597Z" fill="black"/>
<path d="M62.8566 8.40597H62.4767V14.5204H62.8566V8.40597Z" fill="black"/>
<path d="M58.4093 8.40597H58.0294V14.5204H58.4093V8.40597Z" fill="black"/>
<path d="M53.9599 8.40597H53.58V14.5204H53.9599V8.40597Z" fill="black"/>
<path d="M69.092 14.5205H68.477V24.4551H69.092V14.5205Z" fill="black"/>
<path d="M61.8618 14.5205H61.2469V24.4551H61.8618V14.5205Z" fill="black"/>
<path d="M54.6336 14.5205H54.0187V24.4551H54.6336V14.5205Z" fill="black"/>
<path d="M47.4054 14.5205H46.7905V24.4551H47.4054V14.5205Z" fill="black"/>
<path d="M64.7425 24.4551H63.7888V40.5042H64.7425V24.4551Z" fill="black"/>
<path d="M52.9964 24.4551H52.0427V40.5042H52.9964V24.4551Z" fill="black"/>
<path d="M41.2484 24.4551H40.2947V40.5042H41.2484V24.4551Z" fill="black"/>
<path d="M58.0235 40.5042H56.4118V66.4878H58.0235V40.5042Z" fill="black"/>
<path d="M74.9493 0.762994H74.8553V2.2916H74.9493V0.762994Z" fill="black"/>
<path d="M73.839 0.762994H73.745V2.2916H73.839V0.762994Z" fill="black"/>
<path d="M72.7286 0.762994H72.6346V2.2916H72.7286V0.762994Z" fill="black"/>
<path d="M71.6182 0.762994H71.5242V2.2916H71.6182V0.762994Z" fill="black"/>
<path d="M70.5079 0.762994H70.4139V2.2916H70.5079V0.762994Z" fill="black"/>
<path d="M69.3975 0.762994H69.3035V2.2916H69.3975V0.762994Z" fill="black"/>
<path d="M68.2871 0.762994H68.1931V2.2916H68.2871V0.762994Z" fill="black"/>
<path d="M67.1767 0.762994H67.0827V2.2916H67.1767V0.762994Z" fill="black"/>
<path d="M76.0401 106.237H75.9853V107H76.0401V106.237Z" fill="black"/>
<path d="M75.4859 106.237H75.4311V107H75.4859V106.237Z" fill="black"/>
<path d="M74.9297 106.237H74.8749V107H74.9297V106.237Z" fill="black"/>
<path d="M74.3756 106.237H74.3207V107H74.3756V106.237Z" fill="black"/>
<path d="M73.8194 106.237H73.7645V107H73.8194V106.237Z" fill="black"/>
<path d="M73.2632 106.237H73.2084V107H73.2632V106.237Z" fill="black"/>
<path d="M72.709 106.237H72.6542V107H72.709V106.237Z" fill="black"/>
<path d="M72.1528 106.237H72.098V107H72.1528V106.237Z" fill="black"/>
<path d="M71.5986 106.237H71.5438V107H71.5986V106.237Z" fill="black"/>
<path d="M76.0852 102.417H75.9403V104.708H76.0852V102.417Z" fill="black"/>
<path d="M74.4186 102.417H74.2737V104.708H74.4186V102.417Z" fill="black"/>
<path d="M72.7521 102.417H72.6072V104.708H72.7521V102.417Z" fill="black"/>
<path d="M71.0836 102.417H70.9387V104.708H71.0836V102.417Z" fill="black"/>
<path d="M69.417 102.417H69.2721V104.708H69.417V102.417Z" fill="black"/>
<path d="M67.7505 102.417H67.6056V104.708H67.7505V102.417Z" fill="black"/>
<path d="M66.084 102.417H65.939V104.708H66.084V102.417Z" fill="black"/>
<path d="M64.4174 102.417H64.2725V104.708H64.4174V102.417Z" fill="black"/>
<path d="M62.7489 102.417H62.604V104.708H62.7489V102.417Z" fill="black"/>
<path d="M76.1303 98.5941H75.8953V102.414H76.1303V98.5941Z" fill="black"/>
<path d="M73.3572 98.5941H73.1222V102.414H73.3572V98.5941Z" fill="black"/>
<path d="M70.5823 98.5941H70.3473V102.414H70.5823V98.5941Z" fill="black"/>
<path d="M67.8073 98.5941H67.5723V102.414H67.8073V98.5941Z" fill="black"/>
<path d="M65.0343 98.5941H64.7993V102.414H65.0343V98.5941Z" fill="black"/>
<path d="M62.2593 98.5941H62.0243V102.414H62.2593V98.5941Z" fill="black"/>
<path d="M59.4864 98.5941H59.2514V102.414H59.4864V98.5941Z" fill="black"/>
<path d="M76.2027 92.4823H75.8228V98.5967H76.2027V92.4823Z" fill="black"/>
<path d="M71.7553 92.4823H71.3754V98.5967H71.7553V92.4823Z" fill="black"/>
<path d="M67.306 92.4823H66.9261V98.5967H67.306V92.4823Z" fill="black"/>
<path d="M62.8566 92.4823H62.4767V98.5967H62.8566V92.4823Z" fill="black"/>
<path d="M58.4093 92.4823H58.0294V98.5967H58.4093V92.4823Z" fill="black"/>
<path d="M53.9599 92.4823H53.58V98.5967H53.9599V92.4823Z" fill="black"/>
<path d="M76.3202 82.5476H75.7053V92.4822H76.3202V82.5476Z" fill="black"/>
<path d="M69.092 82.5476H68.477V92.4822H69.092V82.5476Z" fill="black"/>
<path d="M61.8618 82.5476H61.2469V92.4822H61.8618V82.5476Z" fill="black"/>
<path d="M54.6336 82.5476H54.0187V92.4822H54.6336V82.5476Z" fill="black"/>
<path d="M47.4054 82.5476H46.7905V92.4822H47.4054V82.5476Z" fill="black"/>
<path d="M76.4906 66.4986H75.5369V82.5476H76.4906V66.4986Z" fill="black"/>
<path d="M64.7425 66.4986H63.7888V82.5476H64.7425V66.4986Z" fill="black"/>
<path d="M52.9964 66.4986H52.0427V82.5476H52.9964V66.4986Z" fill="black"/>
<path d="M41.2484 66.4986H40.2947V82.5476H41.2484V66.4986Z" fill="black"/>
<path d="M76.0597 104.708H75.9658V106.237H76.0597V104.708Z" fill="black"/>
<path d="M74.9493 104.708H74.8553V106.237H74.9493V104.708Z" fill="black"/>
<path d="M73.839 104.708H73.745V106.237H73.839V104.708Z" fill="black"/>
<path d="M72.7286 104.708H72.6346V106.237H72.7286V104.708Z" fill="black"/>
<path d="M71.6182 104.708H71.5242V106.237H71.6182V104.708Z" fill="black"/>
<path d="M70.5079 104.708H70.4139V106.237H70.5079V104.708Z" fill="black"/>
<path d="M69.3975 104.708H69.3035V106.237H69.3975V104.708Z" fill="black"/>
<path d="M68.2871 104.708H68.1931V106.237H68.2871V104.708Z" fill="black"/>
<path d="M67.1767 104.708H67.0827V106.237H67.1767V104.708Z" fill="black"/>
</svg>
