<svg width="65" height="63" viewBox="0 0 65 63" fill="none" xmlns="http://www.w3.org/2000/svg">
<path d="M40.1281 29.7711H39.7393V28.3697C39.7393 27.7056 40.0359 27.0838 40.5531 26.6642C41.5152 25.8837 42.0671 24.7279 42.0671 23.4933V10.4886C42.0671 9.00197 40.8506 7.79247 39.3555 7.79247C39.0733 7.79247 38.8015 7.83586 38.5456 7.91525V4.22018C38.5456 2.73358 37.3292 1.52408 35.834 1.52408C35.4814 1.52408 35.1457 1.59311 34.8362 1.71539C34.4405 0.712979 33.4601 0 32.313 0C31.166 0 30.1851 0.712979 29.7898 1.71539C29.4804 1.59311 29.1442 1.52408 28.7916 1.52408C27.464 1.52408 26.3581 2.47866 26.1266 3.73303C25.8573 3.64378 25.5696 3.593 25.2706 3.593C23.7754 3.593 22.559 4.8025 22.559 6.2891V16.3926C22.559 16.9148 22.9845 17.3383 23.5096 17.3383C24.0348 17.3383 24.4608 16.9152 24.4608 16.3926V6.2891C24.4608 5.84534 24.8238 5.48441 25.2706 5.48441C25.7169 5.48441 26.0799 5.84534 26.0799 6.2891V13.8059C26.0799 14.3281 26.5059 14.7517 27.0311 14.7517C27.5563 14.7517 27.9823 14.3286 27.9823 13.8059V4.22018C27.9823 3.77593 28.3453 3.415 28.7916 3.415C29.2384 3.415 29.6014 3.77593 29.6014 4.22018V13.8059C29.6014 14.3281 30.0274 14.7517 30.5526 14.7517C31.0777 14.7517 31.5032 14.3286 31.5032 13.8059V2.6961C31.5032 2.25185 31.8667 1.89092 32.313 1.89092C32.7594 1.89092 33.1229 2.25185 33.1229 2.6961V13.8059C33.1229 14.3281 33.5484 14.7517 34.0735 14.7517C34.5987 14.7517 35.0247 14.3286 35.0247 13.8059V4.22018C35.0247 3.77593 35.3877 3.415 35.8345 3.415C36.2808 3.415 36.6438 3.77593 36.6438 4.22018V16.8304C36.6438 17.3797 36.3131 17.8679 35.8013 18.0749L33.5102 19.0004C32.4142 19.4427 31.706 20.4885 31.706 21.6645V22.5116C31.706 23.0342 32.132 23.4573 32.6572 23.4573C33.1824 23.4573 33.6084 23.0342 33.6084 22.5116V21.6645C33.6084 21.2617 33.8509 20.9037 34.2258 20.7523L36.5174 19.8268C37.7497 19.3293 38.5461 18.1529 38.5461 16.8304V10.4886C38.5461 10.0448 38.9091 9.68339 39.3555 9.68339C39.8023 9.68339 40.1653 10.0448 40.1653 10.4886V23.4933C40.1653 24.1575 39.8687 24.7792 39.351 25.1988C38.3889 25.9793 37.8375 27.1351 37.8375 28.3697V29.7711H26.6671V28.319C26.6671 27.1262 26.1459 25.9961 25.2304 25.2121C24.7415 24.7935 24.4613 24.1856 24.4613 23.5441V20.595C24.4613 20.0729 24.0353 19.6493 23.5101 19.6493C22.985 19.6493 22.559 20.0729 22.559 20.595V23.5441C22.559 24.7368 23.0807 25.8669 23.9961 26.6509C24.4851 27.0695 24.7653 27.6775 24.7653 28.319V29.7765C23.5399 29.8327 22.559 30.8385 22.559 32.0707V62.0543C22.559 62.5765 22.985 63 23.5101 63C24.0353 63 24.4613 62.5765 24.4613 62.0543V39.1566H40.5397V62.0543C40.5397 62.5765 40.9657 63 41.4909 63C42.016 63 42.442 62.5765 42.442 62.0543V32.0707C42.4415 30.8026 41.4036 29.7711 40.1281 29.7711ZM24.4608 37.2652V32.0712C24.4608 31.8454 24.6453 31.662 24.8719 31.662H40.1286C40.3552 31.662 40.5397 31.8454 40.5397 32.0712V37.2652H24.4608Z" fill="#50C0FF"/>
<path d="M62.6866 45.6385H62.2978V44.2372C62.2978 43.5731 62.5943 42.9513 63.1121 42.5317C64.0736 41.7512 64.6256 40.5954 64.6256 39.3608V26.3561C64.6256 24.8694 63.4091 23.6599 61.9139 23.6599C61.6318 23.6599 61.36 23.7033 61.1041 23.7827V20.0872C61.1041 18.6011 59.8877 17.3916 58.3925 17.3916C58.0399 17.3916 57.7037 17.4606 57.3947 17.5829C56.999 16.5805 56.0186 15.8675 54.8715 15.8675C53.7245 15.8675 52.7436 16.5805 52.3478 17.5829C52.0389 17.4606 51.7027 17.3916 51.3501 17.3916C50.022 17.3916 48.9166 18.3456 48.685 19.6005C48.4153 19.5108 48.1281 19.4605 47.8286 19.4605C46.3334 19.4605 45.117 20.67 45.117 22.1566V39.4116C45.117 40.6043 45.6387 41.7344 46.5412 42.507C46.5432 42.509 46.5521 42.5164 46.5541 42.5184C47.0431 42.937 47.3233 43.545 47.3233 44.1864V45.6435C46.0974 45.6997 45.117 46.706 45.117 47.9382V62.0543C45.117 62.5765 45.5429 63 46.0681 63C46.5933 63 47.0193 62.5765 47.0193 62.0543V55.0236H63.0977V62.0543C63.0977 62.5765 63.5237 63 64.0488 63C64.574 63 65 62.5765 65 62.0543V47.9382C65 46.67 63.9621 45.6385 62.6866 45.6385ZM47.0193 53.1327V47.9387C47.0193 47.7129 47.2038 47.5294 47.4304 47.5294H55.0585C55.5837 47.5294 56.0096 47.1064 56.0096 46.5837C56.0096 46.0616 55.5837 45.6385 55.0585 45.6385H49.2256V44.1864C49.2256 42.9937 48.7044 41.8636 47.8013 41.0909C47.7993 41.089 47.7909 41.0816 47.7889 41.0796C47.2995 40.661 47.0193 40.053 47.0193 39.4116V22.1566C47.0193 21.7128 47.3828 21.3514 47.8291 21.3514C48.2754 21.3514 48.6384 21.7128 48.6384 22.1566V29.6734C48.6384 30.1956 49.0644 30.6191 49.5896 30.6191C50.1147 30.6191 50.5407 30.1961 50.5407 29.6734V20.0872C50.5407 19.6434 50.9037 19.2825 51.3506 19.2825C51.7969 19.2825 52.1599 19.6434 52.1599 20.0872V29.6734C52.1599 30.1956 52.5859 30.6191 53.111 30.6191C53.6362 30.6191 54.0622 30.1961 54.0622 29.6734V18.5636C54.0622 18.1193 54.4252 17.7584 54.8715 17.7584C55.3183 17.7584 55.6813 18.1193 55.6813 18.5636V29.6734C55.6813 30.1956 56.1068 30.6191 56.6325 30.6191C57.1577 30.6191 57.5832 30.1961 57.5832 29.6734V20.0872C57.5832 19.6434 57.9467 19.2825 58.393 19.2825C58.8393 19.2825 59.2028 19.6434 59.2028 20.0872V32.6979C59.2028 33.2472 58.872 33.7353 58.3598 33.9424L56.0686 34.8679C54.9727 35.3102 54.2645 36.356 54.2645 37.532V38.3791C54.2645 38.9012 54.6905 39.3248 55.2157 39.3248C55.7409 39.3248 56.1668 38.9017 56.1668 38.3791V37.532C56.1668 37.1291 56.4093 36.7712 56.7842 36.6198L59.0759 35.6943C60.3082 35.1968 61.1046 34.0203 61.1046 32.6979V26.3561C61.1046 25.9123 61.4676 25.5509 61.9144 25.5509C62.3608 25.5509 62.7238 25.9123 62.7238 26.3561V39.3613C62.7238 40.0249 62.4272 40.6467 61.9095 41.0668C60.9474 41.8473 60.396 43.0026 60.396 44.2372V45.6385H59.0858C58.5606 45.6385 58.1351 46.0616 58.1351 46.5842C58.1351 47.1064 58.5606 47.5294 59.0858 47.5294H62.6871C62.9137 47.5294 63.0982 47.7129 63.0982 47.9387V53.1327H47.0193Z" fill="#50C0FF"/>
<path d="M17.5696 45.6385H17.1803V44.2372C17.1803 43.5731 17.4769 42.9513 17.9946 42.5317C18.9567 41.7512 19.5081 40.5954 19.5081 39.3608V26.3561C19.5081 24.8694 18.2922 23.6599 16.7965 23.6599C16.5148 23.6599 16.2426 23.7033 15.9872 23.7827V20.0872C15.9872 18.6011 14.7707 17.3916 13.2755 17.3916C12.9229 17.3916 12.5867 17.4606 12.2773 17.5829C11.882 16.5805 10.9011 15.8675 9.75407 15.8675C8.60703 15.8675 7.62611 16.5805 7.23087 17.5829C6.92143 17.4606 6.5852 17.3916 6.23261 17.3916C4.90505 17.3916 3.79917 18.3456 3.56758 19.6005C3.2983 19.5108 3.01117 19.4605 2.71164 19.4605C1.21647 19.4605 0 20.67 0 22.1566V39.4116C0 40.6043 0.521202 41.7344 1.42426 42.507C1.42624 42.509 1.43467 42.5164 1.43665 42.5184C1.92562 42.937 2.20631 43.545 2.20631 44.1864V45.6435C0.980415 45.6997 0 46.706 0 47.9382V62.0543C0 62.5765 0.425987 63 0.951157 63C1.47633 63 1.90182 62.5765 1.90182 62.0543V55.0236H3.33748C3.86265 55.0236 4.28864 54.6006 4.28864 54.0784C4.28864 53.5562 3.86265 53.1327 3.33748 53.1327H1.90182V47.9382C1.90182 47.7129 2.0863 47.5294 2.31293 47.5294H17.5696C17.7963 47.5294 17.9807 47.7129 17.9807 47.9382V53.1327H7.05681C6.53164 53.1327 6.10565 53.5557 6.10565 54.0784C6.10565 54.6006 6.53164 55.0236 7.05681 55.0236H17.9807V62.0543C17.9807 62.5765 18.4067 63 18.9319 63C19.4571 63 19.8825 62.5765 19.8825 62.0543V47.9382C19.8825 46.67 18.8451 45.6385 17.5696 45.6385ZM4.10812 45.6385V44.1864C4.10812 42.9937 3.58692 41.8636 2.68387 41.0909C2.68189 41.089 2.67345 41.0816 2.67147 41.0796C2.1825 40.661 1.90182 40.053 1.90182 39.4116V22.1566C1.90182 21.7128 2.26532 21.3514 2.71164 21.3514C3.15846 21.3514 3.52146 21.7128 3.52146 22.1566V29.6734C3.52146 30.1956 3.94695 30.6191 4.47212 30.6191C4.99729 30.6191 5.42328 30.1961 5.42328 29.6734V20.0872C5.42328 19.6434 5.78629 19.2825 6.2331 19.2825C6.67942 19.2825 7.04243 19.6434 7.04243 20.0872V29.6734C7.04243 30.1956 7.46841 30.6191 7.99358 30.6191C8.51875 30.6191 8.94474 30.1961 8.94474 29.6734V18.5636C8.94474 18.1193 9.30775 17.7584 9.75456 17.7584C10.2009 17.7584 10.5639 18.1193 10.5639 18.5636V29.6734C10.5639 30.1956 10.9899 30.6191 11.515 30.6191C12.0402 30.6191 12.4657 30.1961 12.4657 29.6734V20.0872C12.4657 19.6434 12.8292 19.2825 13.2755 19.2825C13.7223 19.2825 14.0854 19.6434 14.0854 20.0872V32.6979C14.0854 33.2472 13.7546 33.7353 13.2428 33.9424L10.9512 34.8679C9.85573 35.3102 9.14757 36.356 9.14757 37.532V38.3791C9.14757 38.9012 9.57306 39.3248 10.0982 39.3248C10.6234 39.3248 11.0494 38.9017 11.0494 38.3791V37.532C11.0494 37.1291 11.2919 36.7712 11.6668 36.6198L13.9584 35.6943C15.1907 35.1968 15.9872 34.0203 15.9872 32.6979V26.3561C15.9872 25.9123 16.3502 25.5509 16.797 25.5509C17.2433 25.5509 17.6063 25.9123 17.6063 26.3561V39.3613C17.6063 40.0249 17.3098 40.6467 16.7925 41.0668C15.8305 41.8473 15.2785 43.0026 15.2785 44.2372V45.6385H4.10812Z" fill="#50C0FF"/>
</svg>
