<svg width="288" height="762" viewBox="0 0 288 762" fill="none" xmlns="http://www.w3.org/2000/svg">
<path d="M498.429 218.527C498.429 218.527 468.907 245.701 411.715 331.06C411.715 331.06 224.526 628.657 13.6682 678.462" stroke="#95C11F" stroke-miterlimit="10"/>
<path d="M501.282 216.205C501.282 216.205 479.345 250.825 405.768 334.085C405.768 334.085 218.348 618.288 13.6768 668.668" stroke="#9AC32E" stroke-miterlimit="10"/>
<path d="M504.136 213.891C504.136 213.891 489.791 255.958 399.813 337.119C399.813 337.119 212.169 607.928 13.6768 658.881" stroke="#A2C73B" stroke-miterlimit="10"/>
<path d="M506.981 211.569C506.981 211.569 500.228 261.083 393.857 340.135C393.857 340.135 205.982 597.551 13.6767 649.07" stroke="#A7C944" stroke-miterlimit="10"/>
<path d="M509.835 209.255C509.835 209.255 510.666 266.216 387.901 343.169C387.901 343.169 199.803 587.19 13.6682 639.283" stroke="#AECC50" stroke-miterlimit="10"/>
<path d="M512.688 206.933C512.688 206.933 521.112 271.34 381.945 346.194C381.945 346.194 193.616 576.821 13.6682 629.489" stroke="#B3CF5D" stroke-miterlimit="10"/>
<path d="M515.533 204.619C515.533 204.619 531.549 276.473 375.99 349.219C375.99 349.219 187.438 566.452 13.6683 619.694" stroke="#B7D269" stroke-miterlimit="10"/>
<path d="M518.387 202.297C518.387 202.297 541.987 281.598 370.034 352.244C370.034 352.244 181.259 556.083 13.6682 609.89" stroke="#BED573" stroke-miterlimit="10"/>
<path d="M521.232 199.975C521.232 199.975 552.424 286.722 364.078 355.269C364.078 355.269 175.072 545.714 13.6681 600.096" stroke="#C2D87F" stroke-miterlimit="10"/>
<path d="M524.085 197.661C524.085 197.661 562.87 291.855 358.123 358.294C358.123 358.294 168.894 535.337 13.6682 590.301" stroke="#C7DB8B" stroke-miterlimit="10"/>
<path d="M526.939 195.339C526.939 195.339 573.308 296.98 352.175 361.319C352.175 361.319 162.715 524.976 13.6767 580.506" stroke="#CDDF96" stroke-miterlimit="10"/>
<path d="M529.784 193.025C529.784 193.025 583.745 302.113 346.211 364.352C346.211 364.352 156.528 514.608 13.6682 570.711" stroke="#D1E19F" stroke-miterlimit="10"/>
<path d="M532.638 190.703C532.638 190.703 594.191 307.238 340.255 367.369C340.255 367.369 150.341 504.23 13.6682 560.908" stroke="#D7E5AA" stroke-miterlimit="10"/>
<path d="M535.491 188.389C535.491 188.389 604.629 312.37 334.308 370.402C334.308 370.402 144.171 493.87 13.6767 551.122" stroke="#DBE7B5" stroke-miterlimit="10"/>
<path d="M538.336 186.067C538.336 186.067 615.067 317.495 328.344 373.427C328.344 373.427 137.976 483.501 13.6598 541.327" stroke="#DFEAC0" stroke-miterlimit="10"/>
<path d="M541.19 183.744C541.19 183.744 625.512 322.62 322.397 376.444C322.397 376.444 131.805 473.123 13.6682 531.515" stroke="#E5EEC8" stroke-miterlimit="10"/>
<path d="M544.044 181.431C544.044 181.431 635.959 327.752 316.441 379.477C316.441 379.477 125.627 462.763 13.6683 521.729" stroke="#E8F0D2" stroke-miterlimit="10"/>
<path d="M546.889 179.108C546.889 179.108 646.387 332.877 310.485 382.502C310.485 382.502 119.44 452.394 13.6682 511.934" stroke="#ECF3DC" stroke-miterlimit="10"/>
<path d="M549.742 176.795C549.742 176.795 656.833 338.01 304.53 385.536C304.53 385.536 113.261 442.034 13.6683 502.148" stroke="#F2F7E6" stroke-miterlimit="10"/>
<path d="M552.596 174.472C552.596 174.472 667.279 343.135 298.582 388.552C298.582 388.552 107.083 431.656 13.6767 492.344" stroke="#F6F9ED" stroke-miterlimit="10"/>
<path d="M555.441 172.159C555.441 172.159 677.708 348.268 292.618 391.586C292.618 391.586 100.896 421.296 13.6682 482.55" stroke="#FCFDF6" stroke-miterlimit="10"/>
<path d="M558.294 169.836C558.294 169.836 688.154 353.392 286.663 394.611C286.663 394.611 94.7087 410.927 13.6682 472.755" stroke="white" stroke-miterlimit="10"/>
</svg>
