<svg width="779" height="825" viewBox="0 0 779 825" fill="none" xmlns="http://www.w3.org/2000/svg">
<path d="M486.783 236.658C486.783 236.658 454.812 266.086 392.875 358.528C392.875 358.528 190.155 680.816 -38.1977 734.753" stroke="#95C11F" stroke-miterlimit="10"/>
<path d="M489.873 234.143C489.873 234.143 466.115 271.636 386.434 361.804C386.434 361.804 183.463 669.587 -38.1885 724.146" stroke="#9AC32E" stroke-miterlimit="10"/>
<path d="M492.963 231.638C492.963 231.638 477.428 277.195 379.984 365.089C379.984 365.089 176.772 658.367 -38.1884 713.548" stroke="#A2C73B" stroke-miterlimit="10"/>
<path d="M496.044 229.123C496.044 229.123 488.731 282.745 373.534 368.356C373.534 368.356 170.072 647.128 -38.1885 702.922" stroke="#A7C944" stroke-miterlimit="10"/>
<path d="M499.135 226.617C499.135 226.617 500.035 288.303 367.085 371.641C367.085 371.641 163.381 635.908 -38.1977 692.323" stroke="#AECC50" stroke-miterlimit="10"/>
<path d="M502.225 224.102C502.225 224.102 511.348 293.853 360.635 374.917C360.635 374.917 156.68 624.679 -38.1978 681.716" stroke="#B3CF5D" stroke-miterlimit="10"/>
<path d="M505.306 221.596C505.306 221.596 522.651 299.412 354.185 378.193C354.185 378.193 149.989 613.45 -38.1977 671.109" stroke="#B7D269" stroke-miterlimit="10"/>
<path d="M508.397 219.081C508.397 219.081 533.955 304.962 347.735 381.469C347.735 381.469 143.298 602.221 -38.1977 660.492" stroke="#BED573" stroke-miterlimit="10"/>
<path d="M511.478 216.566C511.478 216.566 545.258 310.511 341.285 384.745C341.285 384.745 136.598 590.992 -38.1978 649.885" stroke="#C2D87F" stroke-miterlimit="10"/>
<path d="M514.568 214.061C514.568 214.061 556.571 316.07 334.835 388.021C334.835 388.021 129.906 579.753 -38.1979 639.277" stroke="#C7DB8B" stroke-miterlimit="10"/>
<path d="M517.658 211.546C517.658 211.546 567.874 321.62 328.395 391.297C328.395 391.297 123.215 568.533 -38.1885 628.669" stroke="#CDDF96" stroke-miterlimit="10"/>
<path d="M520.739 209.04C520.739 209.04 579.178 327.179 321.936 394.582C321.936 394.582 116.515 557.304 -38.1977 618.062" stroke="#D1E19F" stroke-miterlimit="10"/>
<path d="M523.83 206.525C523.83 206.525 590.491 332.728 315.486 397.849C315.486 397.849 109.815 546.065 -38.1977 607.445" stroke="#D7E5AA" stroke-miterlimit="10"/>
<path d="M526.92 204.019C526.92 204.019 601.794 338.287 309.045 401.134C309.045 401.134 103.133 534.845 -38.1885 596.847" stroke="#DBE7B5" stroke-miterlimit="10"/>
<path d="M530.001 201.504C530.001 201.504 613.097 343.837 302.586 404.41C302.586 404.41 96.4231 523.616 -38.207 586.24" stroke="#DFEAC0" stroke-miterlimit="10"/>
<path d="M533.091 198.989C533.091 198.989 624.41 349.387 296.145 407.677C296.145 407.677 89.7411 512.378 -38.1978 575.614" stroke="#E5EEC8" stroke-miterlimit="10"/>
<path d="M536.182 196.484C536.182 196.484 635.723 354.946 289.696 410.962C289.696 410.962 83.0501 501.157 -38.1977 565.016" stroke="#E8F0D2" stroke-miterlimit="10"/>
<path d="M539.263 193.969C539.263 193.969 647.017 360.495 283.246 414.238C283.246 414.238 76.3496 489.928 -38.1978 554.408" stroke="#ECF3DC" stroke-miterlimit="10"/>
<path d="M542.353 191.463C542.353 191.463 658.33 366.054 276.796 417.523C276.796 417.523 69.6585 478.709 -38.1978 543.81" stroke="#F2F7E6" stroke-miterlimit="10"/>
<path d="M545.444 188.948C545.444 188.948 669.643 371.604 270.355 420.79C270.355 420.79 62.9674 467.47 -38.1885 533.193" stroke="#F6F9ED" stroke-miterlimit="10"/>
<path d="M548.525 186.442C548.525 186.442 680.937 377.163 263.896 424.075C263.896 424.075 56.267 456.25 -38.1978 522.586" stroke="#FCFDF6" stroke-miterlimit="10"/>
<path d="M551.615 183.927C551.615 183.927 692.25 382.712 257.446 427.351C257.446 427.351 49.5665 445.021 -38.1978 511.978" stroke="white" stroke-miterlimit="10"/>
<path d="M778 56.0068C778 56.0068 588.003 142.815 486.718 236.732" stroke="white"/>
</svg>
