<svg width="101" height="45" viewBox="0 0 101 45" fill="none" xmlns="http://www.w3.org/2000/svg">
<path d="M70.3216 5.89001V0H43.4543L34.0148 9.21972V15.2557H43.3051V24.1172H51.863C52.0529 23.9315 56.5828 19.4742 56.5828 19.4742V15.2557H60.7465L70.3216 5.89001Z" fill="#C7C7C7"/>
<path d="M9.72432 0L0.298375 9.16666V24.1703H6.293L11.3518 19.4079H21.7271L31.1938 10.3208V0H9.72432Z" fill="#C7C7C7"/>
<path d="M100.824 4.29812V0L79.5984 0.066329L70.4165 9.16666V15.2159H75.3397L70.4165 19.9783V24.1172H91.5876L100.932 15.1628L101 9.14013L95.8462 9.1534L100.824 4.29812Z" fill="#C7C7C7"/>
<path d="M2.33275 35.6476C0.922251 35.6476 0.0949376 34.6129 0.0949376 33.1404C0.0949376 31.6414 0.990063 30.6597 2.387 30.6597C3.40419 30.6597 4.2315 31.2566 4.43494 32.2781H3.75681C3.60763 31.6811 3.13294 31.2301 2.34631 31.2301C1.47831 31.2301 0.800188 31.8934 0.800188 33.1404C0.800188 34.3608 1.45119 35.0772 2.37344 35.0772C3.16006 35.0772 3.63475 34.6394 3.7975 34.0292H4.47563C4.24507 35.0905 3.39063 35.6476 2.33275 35.6476Z" fill="#C7C7C7"/>
<path d="M6.87619 35.6476C6.02175 35.6476 5.12663 35.0772 5.12663 33.7904C5.12663 32.4904 6.03532 31.9332 6.87619 31.9332C7.73063 31.9332 8.62576 32.4904 8.62576 33.7904C8.62576 35.0772 7.73063 35.6476 6.87619 35.6476ZM7.97476 33.7771C7.97476 32.822 7.43226 32.4506 6.87619 32.4506C6.32013 32.4506 5.77763 32.7955 5.77763 33.7771C5.77763 34.719 6.32013 35.1037 6.87619 35.1037C7.43226 35.117 7.97476 34.7057 7.97476 33.7771Z" fill="#C7C7C7"/>
<path d="M9.50732 35.5548V31.9863H10.1312V32.5302C10.3482 32.1852 10.6873 31.9332 11.2298 31.9332C11.7858 31.9332 12.1249 32.172 12.2876 32.57C12.586 32.1322 13.0064 31.9332 13.5218 31.9332C14.3763 31.9332 14.7018 32.4904 14.7018 33.3128V35.568H14.0779V33.4853C14.0779 32.9281 13.9694 32.4506 13.2913 32.4506C12.7623 32.4506 12.4097 32.8485 12.4097 33.618V35.5548H11.7858V33.472C11.7858 32.9149 11.6773 32.4373 10.9992 32.4373C10.4703 32.4373 10.1176 32.8353 10.1176 33.6047V35.5415H9.50732V35.5548Z" fill="#C7C7C7"/>
<path d="M16.3564 32.5434C16.5869 32.1587 16.9667 31.9199 17.5499 31.9199C18.3908 31.9199 19.1096 32.5965 19.1096 33.7771C19.1096 34.9578 18.3772 35.6343 17.5499 35.6343C16.9667 35.6343 16.5734 35.3823 16.3564 35.0109V36.7089H15.7325V31.973H16.3564V32.5434ZM18.4314 33.7771C18.4314 32.9281 18.011 32.4373 17.3871 32.4373C16.8311 32.4373 16.3157 32.8353 16.3157 33.7771C16.3157 34.719 16.8311 35.117 17.3871 35.117C18.0246 35.1302 18.4314 34.6394 18.4314 33.7771Z" fill="#C7C7C7"/>
<path d="M19.964 35.5548V30.7393H20.5879V35.5548H19.964Z" fill="#C7C7C7"/>
<path d="M23.2326 35.117C23.7751 35.117 24.0735 34.8782 24.2362 34.52H24.8736C24.7109 35.1435 24.1277 35.6476 23.2326 35.6476C22.0798 35.6476 21.4423 34.8384 21.4423 33.7771C21.4423 32.6495 22.2154 31.9199 23.219 31.9199C24.3311 31.9199 25.0093 32.8353 24.9279 33.9629H22.1069C22.134 34.7455 22.6901 35.117 23.2326 35.117ZM24.2633 33.4455C24.2498 32.9414 23.8565 32.4373 23.2055 32.4373C22.6494 32.4373 22.1611 32.7291 22.1069 33.4455H24.2633Z" fill="#C7C7C7"/>
<path d="M28.6711 35.5548H27.9388L26.9487 34.1884L25.9586 35.5548H25.2534L26.5961 33.7108L25.3348 31.973H26.0807L26.9758 33.2067L27.871 31.973H28.5626L27.3149 33.6843L28.6711 35.5548Z" fill="#C7C7C7"/>
<path d="M35.2083 33.1404C35.2083 34.9843 34.0826 35.5548 32.5229 35.5548H31.1938V30.7393H32.5365C34.0961 30.7393 35.2083 31.3097 35.2083 33.1404ZM31.8855 31.3097V34.9843H32.5229C33.5401 34.9843 34.5166 34.7853 34.5166 33.1404C34.5166 31.5087 33.5401 31.3097 32.5229 31.3097H31.8855Z" fill="#C7C7C7"/>
<path d="M37.7173 35.117C38.2598 35.117 38.5582 34.8782 38.721 34.52H39.3584C39.1957 35.1435 38.6125 35.6476 37.7173 35.6476C36.5645 35.6476 35.9271 34.8384 35.9271 33.7771C35.9271 32.6495 36.7001 31.9199 37.7038 31.9199C38.8159 31.9199 39.494 32.8353 39.4126 33.9629H36.6052C36.6188 34.7455 37.1748 35.117 37.7173 35.117ZM38.7481 33.4455C38.7345 32.9414 38.3412 32.4373 37.6902 32.4373C37.1341 32.4373 36.6459 32.7291 36.5916 33.4455H38.7481Z" fill="#C7C7C7"/>
<path d="M40.2535 35.5548V30.7393H40.8774V35.5548H40.2535Z" fill="#C7C7C7"/>
<path d="M42.5998 31.4689H41.976V30.7393H42.5998V31.4689ZM42.5998 35.5548H41.976V31.9863H42.5998V35.5548Z" fill="#C7C7C7"/>
<path d="M45.8955 31.9863H46.533L45.1496 35.5548H44.5935L43.2102 31.9863H43.9018L44.8919 34.719L45.8955 31.9863Z" fill="#C7C7C7"/>
<path d="M48.6216 35.117C49.1641 35.117 49.4625 34.8782 49.6252 34.52H50.2627C50.0999 35.1435 49.5167 35.6476 48.6216 35.6476C47.4688 35.6476 46.8313 34.8384 46.8313 33.7771C46.8313 32.6495 47.6044 31.9199 48.608 31.9199C49.7202 31.9199 50.3983 32.8353 50.3169 33.9629H47.5095C47.523 34.7455 48.0791 35.117 48.6216 35.117ZM49.6523 33.4455C49.6388 32.9414 49.2455 32.4373 48.5945 32.4373C48.0384 32.4373 47.5502 32.7291 47.4959 33.4455H49.6523Z" fill="#C7C7C7"/>
<path d="M52.6361 32.5832C52.0665 32.5832 51.7817 32.9016 51.7817 33.6843V35.5548H51.1578V31.9863H51.7681V32.6098C51.958 32.2118 52.3242 31.9863 52.7988 31.9597C52.8531 31.9597 52.9073 31.9597 52.9887 31.9597V32.6098C52.8531 32.5965 52.731 32.5832 52.6361 32.5832Z" fill="#C7C7C7"/>
<path d="M54.3178 31.4689H53.694V30.7393H54.3178V31.4689ZM54.3178 35.5548H53.694V31.9863H54.3178V35.5548Z" fill="#C7C7C7"/>
<path d="M56.9761 35.117C57.5186 35.117 57.817 34.8782 57.9797 34.52H58.6172C58.4544 35.1435 57.8712 35.6476 56.9761 35.6476C55.8233 35.6476 55.1858 34.8384 55.1858 33.7771C55.1858 32.6495 55.9589 31.9199 56.9625 31.9199C58.0747 31.9199 58.7528 32.8353 58.6714 33.9629H55.864C55.864 34.7455 56.4336 35.117 56.9761 35.117ZM58.0069 33.4455C57.9933 32.9414 57.6 32.4373 56.949 32.4373C56.3929 32.4373 55.9047 32.7291 55.8504 33.4455H58.0069Z" fill="#C7C7C7"/>
<path d="M60.7465 32.4373C60.3803 32.4373 59.9734 32.57 59.9734 32.8883C59.9734 33.1669 60.1769 33.3128 60.5295 33.3792L61.0448 33.4853C61.7094 33.6047 62.2926 33.8567 62.2926 34.5466C62.2926 35.2496 61.6416 35.6609 60.8007 35.6609C59.8378 35.6609 59.2953 35.0374 59.2275 34.4139H59.8785C59.9734 34.8782 60.2718 35.1435 60.8143 35.1435C61.289 35.1435 61.6687 34.9445 61.6687 34.6129C61.6687 34.2547 61.3161 34.0955 60.9228 34.0159L60.3803 33.9098C59.8785 33.8037 59.336 33.5782 59.336 32.9149C59.336 32.2781 59.987 31.9199 60.8007 31.9199C61.5874 31.9199 62.1299 32.3577 62.2383 33.021H61.5873C61.5195 32.5965 61.1805 32.4373 60.7465 32.4373Z" fill="#C7C7C7"/>
<path d="M1.74956 43.9255C0.895126 43.9255 0 43.355 0 42.0683C0 40.7682 0.908688 40.211 1.74956 40.211C2.59044 40.211 3.49913 40.7682 3.49913 42.0683C3.49913 43.355 2.604 43.9255 1.74956 43.9255ZM2.84813 42.0683C2.84813 41.1131 2.30563 40.7417 1.74956 40.7417C1.1935 40.7417 0.651 41.0866 0.651 42.0683C0.651 43.0101 1.1935 43.3948 1.74956 43.3948C2.30563 43.3948 2.84813 42.9836 2.84813 42.0683Z" fill="#C7C7C7"/>
<path d="M5.54707 39.0171H5.87257V39.5212H5.56063C5.23513 39.5212 5.18088 39.5876 5.18088 39.959V40.2509H5.87257V40.7417H5.18088V43.8326H4.57057V40.7417H4.05519V40.2509H4.57057V39.9855C4.57057 39.2559 4.71975 39.0171 5.54707 39.0171Z" fill="#C7C7C7"/>
<path d="M8.50369 43.8326V39.0171H9.19538V43.8326H8.50369Z" fill="#C7C7C7"/>
<path d="M12.2063 40.211C13.0878 40.211 13.4133 40.7682 13.4133 41.5907V43.8459H12.7894V41.7631C12.7894 41.206 12.6945 40.7284 11.9893 40.7284C11.3925 40.7284 11.0263 41.1264 11.0263 41.8958V43.8326H10.4024V40.2641H11.0263V40.808C11.2298 40.4631 11.5824 40.211 12.2063 40.211Z" fill="#C7C7C7"/>
<path d="M16.2614 40.211C17.143 40.211 17.4685 40.7682 17.4685 41.5907V43.8459H16.8446V41.7631C16.8446 41.206 16.7497 40.7284 16.0444 40.7284C15.4477 40.7284 15.0815 41.1264 15.0815 41.8958V43.8326H14.4576V40.2641H15.0815V40.808C15.2849 40.4631 15.6376 40.211 16.2614 40.211Z" fill="#C7C7C7"/>
<path d="M20.0318 43.9255C19.1774 43.9255 18.2823 43.355 18.2823 42.0683C18.2823 40.7682 19.191 40.211 20.0318 40.211C20.8727 40.211 21.7814 40.7682 21.7814 42.0683C21.7814 43.355 20.8727 43.9255 20.0318 43.9255ZM21.1168 42.0683C21.1168 41.1131 20.5743 40.7417 20.0183 40.7417C19.4622 40.7417 18.9197 41.0866 18.9197 42.0683C18.9197 43.0101 19.4622 43.3948 20.0183 43.3948C20.5879 43.3948 21.1168 42.9836 21.1168 42.0683Z" fill="#C7C7C7"/>
<path d="M24.7651 40.2641H25.4026L24.0192 43.8326H23.4631L22.0798 40.2641H22.7715L23.7615 42.9969L24.7651 40.2641Z" fill="#C7C7C7"/>
<path d="M28.1422 41.6438V41.5509C28.1422 40.9009 27.7625 40.6754 27.3149 40.6754C26.7995 40.6754 26.5011 40.9539 26.474 41.3917H25.8366C25.8908 40.6223 26.5961 40.1845 27.3013 40.1845C28.305 40.1845 28.7661 40.6621 28.7525 41.657V42.4795C28.739 43.0765 28.7796 43.4877 28.8475 43.8326H28.2236C28.1965 43.7 28.1829 43.554 28.1693 43.3418C27.9388 43.7132 27.559 43.9255 26.9216 43.9255C26.2299 43.9255 25.6603 43.554 25.6603 42.8907C25.6603 42.055 26.6368 41.8029 28.1422 41.6438ZM26.352 42.8775C26.352 43.2091 26.6232 43.4479 27.0572 43.4479C27.6404 43.4479 28.1829 43.1826 28.1829 42.3468V42.1213C27.0708 42.2275 26.352 42.3866 26.352 42.8775Z" fill="#C7C7C7"/>
<path d="M30.6106 39.362V40.2641H31.3023V40.7549H30.6106V42.8775C30.6106 43.2489 30.6377 43.3418 30.9903 43.3418H31.3023V43.8459H30.8547C30.1495 43.8459 29.9867 43.6867 29.9867 42.9438V40.7549H29.4035V40.2641H29.9867V39.362H30.6106Z" fill="#C7C7C7"/>
<path d="M32.8348 39.7467H32.211V39.0171H32.8348V39.7467ZM32.8348 43.8326H32.211V40.2641H32.8348V43.8326Z" fill="#C7C7C7"/>
<path d="M36.1305 40.2641H36.768L35.3846 43.8326H34.8285L33.4451 40.2641H34.1368L35.1269 42.9969L36.1305 40.2641Z" fill="#C7C7C7"/>
<path d="M38.8566 43.3948C39.3991 43.3948 39.6975 43.1561 39.8602 42.7979H40.4977C40.3349 43.4214 39.7517 43.9255 38.8566 43.9255C37.7038 43.9255 37.0663 43.1163 37.0663 42.055C37.0663 40.9274 37.8394 40.1978 38.843 40.1978C39.9551 40.1978 40.6333 41.1131 40.5519 42.2407H37.7445C37.758 43.0234 38.3141 43.3948 38.8566 43.3948ZM39.8873 41.7366C39.8738 41.2325 39.4805 40.7284 38.8295 40.7284C38.2734 40.7284 37.7851 41.0203 37.7309 41.7366H39.8873Z" fill="#C7C7C7"/>
<path d="M46.5737 39.0171V39.6008H43.929V41.0601H46.4245V41.6438H43.929V43.2489H46.5737V43.8326H43.2373V39.0171H46.5737Z" fill="#C7C7C7"/>
<path d="M50.6831 40.2641V45H50.0592V43.302C49.8287 43.6867 49.4489 43.9255 48.8657 43.9255C48.0248 43.9255 47.306 43.2489 47.306 42.0683C47.306 40.8876 48.0384 40.211 48.8657 40.211C49.4489 40.211 49.8422 40.4498 50.0592 40.8345V40.2774H50.6831V40.2641ZM47.9842 42.0683C47.9842 42.9173 48.4046 43.4081 49.0285 43.4081C49.5845 43.4081 50.0999 43.0101 50.0999 42.0683C50.0999 41.1264 49.5845 40.7284 49.0285 40.7284C48.4046 40.7284 47.9842 41.2193 47.9842 42.0683Z" fill="#C7C7C7"/>
<path d="M52.9073 43.9255C52.0529 43.9255 51.741 43.3683 51.741 42.5458V40.2641H52.3648V42.3734C52.3648 42.9305 52.4598 43.4081 53.1379 43.4081C53.7211 43.4081 54.0737 42.9969 54.0737 42.2407V40.2774H54.6976V43.8459H54.0737V43.3285C53.8432 43.6602 53.5177 43.9255 52.9073 43.9255Z" fill="#C7C7C7"/>
<path d="M56.4065 39.7467H55.7826V39.0171H56.4065V39.7467ZM56.4065 43.8326H55.7826V40.2641H56.4065V43.8326Z" fill="#C7C7C7"/>
<path d="M58.1289 40.8345C58.3595 40.4498 58.7392 40.211 59.3224 40.211C60.1633 40.211 60.8821 40.8876 60.8821 42.0683C60.8821 43.2489 60.1497 43.9255 59.3224 43.9255C58.7392 43.9255 58.3459 43.6734 58.1289 43.302V45H57.505V40.2641H58.1289V40.8345ZM60.2175 42.0683C60.2175 41.2193 59.7971 40.7284 59.1732 40.7284C58.6172 40.7284 58.1018 41.1264 58.1018 42.0683C58.1018 43.0101 58.6172 43.4081 59.1732 43.4081C59.7971 43.4081 60.2175 42.9173 60.2175 42.0683Z" fill="#C7C7C7"/>
<path d="M61.7365 43.8326V40.2641H62.3604V40.808C62.5639 40.4631 62.9165 40.211 63.459 40.211C64.015 40.211 64.3541 40.4498 64.5169 40.8478C64.8152 40.41 65.2357 40.211 65.751 40.211C66.6055 40.211 66.931 40.7682 66.931 41.5907V43.8459H66.3071V41.7631C66.3071 41.206 66.1986 40.7284 65.5205 40.7284C64.9915 40.7284 64.6389 41.1264 64.6389 41.8958V43.8326H64.015V41.7499C64.015 41.1927 63.9065 40.7151 63.2284 40.7151C62.6995 40.7151 62.3469 41.1131 62.3469 41.8825V43.8193H61.7365V43.8326Z" fill="#C7C7C7"/>
<path d="M69.5214 43.3948C70.0639 43.3948 70.3623 43.1561 70.525 42.7979H71.1625C70.9997 43.4214 70.4165 43.9255 69.5214 43.9255C68.3686 43.9255 67.7312 43.1163 67.7312 42.055C67.7312 40.9274 68.5042 40.1978 69.5079 40.1978C70.62 40.1978 71.2981 41.1131 71.2167 42.2407H68.4093C68.4093 43.0234 68.9789 43.3948 69.5214 43.3948ZM70.5522 41.7366C70.5386 41.2325 70.1453 40.7284 69.4943 40.7284C68.9382 40.7284 68.45 41.0203 68.3957 41.7366H70.5522Z" fill="#C7C7C7"/>
<path d="M73.8479 40.211C74.7294 40.211 75.0549 40.7682 75.0549 41.5907V43.8459H74.431V41.7631C74.431 41.206 74.3361 40.7284 73.6309 40.7284C73.0341 40.7284 72.6679 41.1264 72.6679 41.8958V43.8326H72.044V40.2641H72.6679V40.808C72.8849 40.4631 73.2375 40.211 73.8479 40.211Z" fill="#C7C7C7"/>
<path d="M76.8994 39.362V40.2641H77.5911V40.7549H76.8994V42.8775C76.8994 43.2489 76.9266 43.3418 77.2792 43.3418H77.5911V43.8459H77.1435C76.4383 43.8459 76.2756 43.6867 76.2756 42.9438V40.7549H75.6924V40.2641H76.2756V39.362H76.8994Z" fill="#C7C7C7"/>
</svg>
