<svg width="218" height="28" viewBox="0 0 218 28" fill="none" xmlns="http://www.w3.org/2000/svg">
<path d="M80.1792 6.73991V0H49.4151L38.6065 10.5501V17.457H49.2443V27.5972H59.0435C59.2609 27.3847 64.4478 22.2842 64.4478 22.2842V17.457H69.2154L80.1792 6.73991Z" fill="#F7FFEF"/>
<path d="M10.7931 0L0 10.4894V27.6579H6.86408L12.6566 22.2083H24.5367L35.3764 11.81V0H10.7931Z" fill="#F7FFEF"/>
<path d="M115.105 4.91831V0L90.8015 0.0758999L80.288 10.4894V17.4114H85.9252L80.288 22.861V27.5972H104.53L115.23 17.3507L115.307 10.459L109.406 10.4742L115.105 4.91831Z" fill="#F7FFEF"/>
<path d="M131.826 11.2461C130.211 11.2461 129.264 10.0621 129.264 8.37711C129.264 6.66177 130.289 5.53845 131.888 5.53845C133.053 5.53845 134 6.22155 134.233 7.39041H133.457C133.286 6.70731 132.743 6.19119 131.842 6.19119C130.848 6.19119 130.071 6.95019 130.071 8.37711C130.071 9.77367 130.817 10.5934 131.873 10.5934C132.774 10.5934 133.317 10.0924 133.504 9.39416H134.28C134.016 10.6086 133.038 11.2461 131.826 11.2461Z" fill="#F7FFEF"/>
<path d="M137.029 11.2461C136.05 11.2461 135.025 10.5934 135.025 9.12093C135.025 7.63329 136.066 6.99573 137.029 6.99573C138.007 6.99573 139.032 7.63329 139.032 9.12093C139.032 10.5934 138.007 11.2461 137.029 11.2461ZM138.287 9.10575C138.287 8.01279 137.665 7.58775 137.029 7.58775C136.392 7.58775 135.771 7.98243 135.771 9.10575C135.771 10.1835 136.392 10.6237 137.029 10.6237C137.665 10.6389 138.287 10.1683 138.287 9.10575Z" fill="#F7FFEF"/>
<path d="M140.041 11.1399V7.05645H140.756V7.67882C141.004 7.28415 141.393 6.99573 142.014 6.99573C142.65 6.99573 143.039 7.26897 143.225 7.72437C143.567 7.22343 144.048 6.99573 144.638 6.99573C145.617 6.99573 145.989 7.63329 145.989 8.57445V11.155H145.275V8.77178C145.275 8.13423 145.151 7.58775 144.374 7.58775C143.769 7.58775 143.365 8.04315 143.365 8.92359V11.1399H142.65V8.75661C142.65 8.11905 142.526 7.57257 141.75 7.57257C141.144 7.57257 140.74 8.02797 140.74 8.9084V11.1247H140.041V11.1399Z" fill="#F7FFEF"/>
<path d="M147.884 7.69401C148.148 7.25379 148.583 6.98055 149.251 6.98055C150.213 6.98055 151.036 7.75473 151.036 9.10575C151.036 10.4568 150.198 11.2309 149.251 11.2309C148.583 11.2309 148.132 10.9425 147.884 10.5175V12.4605H147.17V7.04127H147.884V7.69401ZM150.26 9.10575C150.26 8.13423 149.779 7.57257 149.064 7.57257C148.427 7.57257 147.837 8.02797 147.837 9.10575C147.837 10.1835 148.427 10.6389 149.064 10.6389C149.794 10.6541 150.26 10.0924 150.26 9.10575Z" fill="#F7FFEF"/>
<path d="M152.015 11.1399V5.62953H152.729V11.1399H152.015Z" fill="#F7FFEF"/>
<path d="M155.757 10.6389C156.379 10.6389 156.72 10.3657 156.907 9.95582H157.637C157.45 10.6693 156.782 11.2461 155.757 11.2461C154.437 11.2461 153.708 10.3201 153.708 9.10575C153.708 7.81545 154.593 6.98055 155.742 6.98055C157.015 6.98055 157.792 8.02797 157.699 9.31827H154.468C154.5 10.2139 155.136 10.6389 155.757 10.6389ZM156.938 8.72624C156.922 8.14941 156.472 7.57257 155.726 7.57257C155.09 7.57257 154.531 7.90653 154.468 8.72624H156.938Z" fill="#F7FFEF"/>
<path d="M161.985 11.1399H161.146L160.013 9.57632L158.879 11.1399H158.071L159.609 9.02985L158.165 7.04127H159.019L160.044 8.45301L161.069 7.04127H161.861L160.432 8.99949L161.985 11.1399Z" fill="#F7FFEF"/>
<path d="M169.47 8.37711C169.47 10.4871 168.181 11.1399 166.395 11.1399H164.873V5.62953H166.411C168.197 5.62953 169.47 6.28227 169.47 8.37711ZM165.665 6.28227V10.4871H166.395C167.56 10.4871 168.678 10.2594 168.678 8.37711C168.678 6.50997 167.56 6.28227 166.395 6.28227H165.665Z" fill="#F7FFEF"/>
<path d="M172.343 10.6389C172.964 10.6389 173.306 10.3657 173.492 9.95582H174.222C174.036 10.6693 173.368 11.2461 172.343 11.2461C171.023 11.2461 170.293 10.3201 170.293 9.10575C170.293 7.81545 171.178 6.98055 172.327 6.98055C173.601 6.98055 174.377 8.02797 174.284 9.31827H171.07C171.085 10.2139 171.722 10.6389 172.343 10.6389ZM173.523 8.72624C173.508 8.14941 173.057 7.57257 172.312 7.57257C171.675 7.57257 171.116 7.90653 171.054 8.72624H173.523Z" fill="#F7FFEF"/>
<path d="M175.247 11.1399V5.62953H175.961V11.1399H175.247Z" fill="#F7FFEF"/>
<path d="M177.934 6.46443H177.219V5.62953H177.934V6.46443ZM177.934 11.1399H177.219V7.05645H177.934V11.1399Z" fill="#F7FFEF"/>
<path d="M181.707 7.05645H182.437L180.853 11.1399H180.217L178.632 7.05645H179.425L180.558 10.1835L181.707 7.05645Z" fill="#F7FFEF"/>
<path d="M184.829 10.6389C185.45 10.6389 185.792 10.3657 185.978 9.95582H186.708C186.522 10.6693 185.854 11.2461 184.829 11.2461C183.509 11.2461 182.779 10.3201 182.779 9.10575C182.779 7.81545 183.664 6.98055 184.813 6.98055C186.087 6.98055 186.863 8.02797 186.77 9.31827H183.555C183.571 10.2139 184.208 10.6389 184.829 10.6389ZM186.009 8.72624C185.994 8.14941 185.543 7.57257 184.798 7.57257C184.161 7.57257 183.602 7.90653 183.54 8.72624H186.009Z" fill="#F7FFEF"/>
<path d="M189.426 7.73955C188.773 7.73955 188.447 8.10387 188.447 8.99949V11.1399H187.733V7.05645H188.432V7.76991C188.649 7.31451 189.068 7.05645 189.612 7.02609C189.674 7.02609 189.736 7.02609 189.829 7.02609V7.76991C189.674 7.75473 189.534 7.73955 189.426 7.73955Z" fill="#F7FFEF"/>
<path d="M191.351 6.46443H190.637V5.62953H191.351V6.46443ZM191.351 11.1399H190.637V7.05645H191.351V11.1399Z" fill="#F7FFEF"/>
<path d="M194.395 10.6389C195.016 10.6389 195.358 10.3657 195.544 9.95582H196.274C196.088 10.6693 195.42 11.2461 194.395 11.2461C193.075 11.2461 192.345 10.3201 192.345 9.10575C192.345 7.81545 193.23 6.98055 194.379 6.98055C195.653 6.98055 196.429 8.02797 196.336 9.31827H193.122C193.122 10.2139 193.774 10.6389 194.395 10.6389ZM195.575 8.72624C195.56 8.14941 195.109 7.57257 194.364 7.57257C193.727 7.57257 193.168 7.90653 193.106 8.72624H195.575Z" fill="#F7FFEF"/>
<path d="M198.712 7.57257C198.293 7.57257 197.827 7.72437 197.827 8.08869C197.827 8.40747 198.06 8.57445 198.464 8.65035L199.054 8.77178C199.815 8.9084 200.483 9.19682 200.483 9.98618C200.483 10.7907 199.737 11.2613 198.774 11.2613C197.672 11.2613 197.051 10.5478 196.973 9.83439H197.718C197.827 10.3657 198.169 10.6693 198.79 10.6693C199.333 10.6693 199.768 10.4416 199.768 10.0621C199.768 9.65223 199.364 9.47007 198.914 9.37899L198.293 9.25754C197.718 9.1361 197.097 8.87804 197.097 8.11904C197.097 7.3904 197.843 6.98055 198.774 6.98055C199.675 6.98055 200.296 7.48149 200.421 8.24049H199.675C199.597 7.75473 199.209 7.57257 198.712 7.57257Z" fill="#F7FFEF"/>
<path d="M131.159 20.7184C130.18 20.7184 129.155 20.0657 129.155 18.5932C129.155 17.1056 130.196 16.468 131.159 16.468C132.121 16.468 133.162 17.1056 133.162 18.5932C133.162 20.0657 132.137 20.7184 131.159 20.7184ZM132.416 18.5932C132.416 17.5003 131.795 17.0752 131.159 17.0752C130.522 17.0752 129.901 17.4699 129.901 18.5932C129.901 19.671 130.522 20.1112 131.159 20.1112C131.795 20.1112 132.416 19.6407 132.416 18.5932Z" fill="#F7FFEF"/>
<path d="M135.507 15.1018H135.88V15.6787H135.522C135.15 15.6787 135.088 15.7546 135.088 16.1796V16.5136H135.88V17.0752H135.088V20.6122H134.389V17.0752H133.799V16.5136H134.389V16.21C134.389 15.3751 134.56 15.1018 135.507 15.1018Z" fill="#F7FFEF"/>
<path d="M138.892 20.6122V15.1018H139.684V20.6122H138.892Z" fill="#F7FFEF"/>
<path d="M143.132 16.468C144.141 16.468 144.514 17.1056 144.514 18.0468V20.6273H143.8V18.2441C143.8 17.6065 143.691 17.06 142.883 17.06C142.2 17.06 141.781 17.5155 141.781 18.3959V20.6122H141.066V16.5288H141.781V17.1511C142.014 16.7565 142.418 16.468 143.132 16.468Z" fill="#F7FFEF"/>
<path d="M147.775 16.468C148.785 16.468 149.157 17.1056 149.157 18.0468V20.6273H148.443V18.2441C148.443 17.6065 148.334 17.06 147.527 17.06C146.843 17.06 146.424 17.5155 146.424 18.3959V20.6122H145.71V16.5288H146.424V17.1511C146.657 16.7565 147.061 16.468 147.775 16.468Z" fill="#F7FFEF"/>
<path d="M152.092 20.7184C151.114 20.7184 150.089 20.0657 150.089 18.5932C150.089 17.1056 151.13 16.468 152.092 16.468C153.055 16.468 154.096 17.1056 154.096 18.5932C154.096 20.0657 153.055 20.7184 152.092 20.7184ZM153.335 18.5932C153.335 17.5003 152.714 17.0752 152.077 17.0752C151.44 17.0752 150.819 17.4699 150.819 18.5932C150.819 19.671 151.44 20.1112 152.077 20.1112C152.729 20.1112 153.335 19.6407 153.335 18.5932Z" fill="#F7FFEF"/>
<path d="M157.512 16.5288H158.242L156.658 20.6122H156.021L154.437 16.5288H155.229L156.363 19.6558L157.512 16.5288Z" fill="#F7FFEF"/>
<path d="M161.379 18.1075V18.0012C161.379 17.2574 160.944 16.9993 160.432 16.9993C159.842 16.9993 159.5 17.3181 159.469 17.819H158.739C158.801 16.9386 159.609 16.4377 160.416 16.4377C161.565 16.4377 162.093 16.9842 162.078 18.1227V19.0638C162.062 19.7469 162.109 20.2175 162.187 20.6122H161.472C161.441 20.4604 161.426 20.2934 161.41 20.0505C161.146 20.4755 160.711 20.7184 159.981 20.7184C159.189 20.7184 158.537 20.2934 158.537 19.5344C158.537 18.578 159.655 18.2896 161.379 18.1075ZM159.329 19.5192C159.329 19.8987 159.64 20.172 160.137 20.172C160.805 20.172 161.426 19.8683 161.426 18.912V18.654C160.152 18.7754 159.329 18.9576 159.329 19.5192Z" fill="#F7FFEF"/>
<path d="M164.206 15.4965V16.5288H164.998V17.0904H164.206V19.5192C164.206 19.9443 164.237 20.0505 164.64 20.0505H164.998V20.6273H164.485C163.678 20.6273 163.491 20.4452 163.491 19.5951V17.0904H162.823V16.5288H163.491V15.4965H164.206Z" fill="#F7FFEF"/>
<path d="M166.752 15.9367H166.038V15.1018H166.752V15.9367ZM166.752 20.6122H166.038V16.5288H166.752V20.6122Z" fill="#F7FFEF"/>
<path d="M170.526 16.5288H171.256L169.672 20.6122H169.035L167.451 16.5288H168.243L169.377 19.6558L170.526 16.5288Z" fill="#F7FFEF"/>
<path d="M173.648 20.1112C174.269 20.1112 174.61 19.838 174.797 19.4281H175.527C175.34 20.1416 174.672 20.7184 173.648 20.7184C172.327 20.7184 171.598 19.7924 171.598 18.578C171.598 17.2877 172.483 16.4529 173.632 16.4529C174.905 16.4529 175.682 17.5003 175.589 18.7906H172.374C172.39 19.6862 173.026 20.1112 173.648 20.1112ZM174.828 18.2137C174.812 17.6369 174.362 17.06 173.616 17.06C172.98 17.06 172.421 17.394 172.359 18.2137H174.828Z" fill="#F7FFEF"/>
<path d="M182.484 15.1018V15.7698H179.456V17.4395H182.313V18.1075H179.456V19.9442H182.484V20.6122H178.664V15.1018H182.484Z" fill="#F7FFEF"/>
<path d="M187.189 16.5288V21.948H186.475V20.005C186.211 20.4452 185.776 20.7184 185.108 20.7184C184.146 20.7184 183.322 19.9443 183.322 18.5932C183.322 17.2422 184.161 16.468 185.108 16.468C185.776 16.468 186.226 16.7413 186.475 17.1815V16.5439H187.189V16.5288ZM184.099 18.5932C184.099 19.5648 184.58 20.1264 185.295 20.1264C185.931 20.1264 186.522 19.671 186.522 18.5932C186.522 17.5155 185.931 17.06 185.295 17.06C184.58 17.06 184.099 17.6217 184.099 18.5932Z" fill="#F7FFEF"/>
<path d="M189.736 20.7184C188.758 20.7184 188.401 20.0809 188.401 19.1397V16.5288H189.115V18.9424C189.115 19.5799 189.224 20.1264 190 20.1264C190.668 20.1264 191.072 19.6558 191.072 18.7906V16.5439H191.786V20.6273H191.072V20.0353C190.808 20.4148 190.435 20.7184 189.736 20.7184Z" fill="#F7FFEF"/>
<path d="M193.743 15.9367H193.028V15.1018H193.743V15.9367ZM193.743 20.6122H193.028V16.5288H193.743V20.6122Z" fill="#F7FFEF"/>
<path d="M195.715 17.1815C195.979 16.7413 196.414 16.468 197.082 16.468C198.044 16.468 198.868 17.2422 198.868 18.5932C198.868 19.9443 198.029 20.7184 197.082 20.7184C196.414 20.7184 195.964 20.43 195.715 20.005V21.948H195.001V16.5288H195.715V17.1815ZM198.107 18.5932C198.107 17.6217 197.625 17.06 196.911 17.06C196.274 17.06 195.684 17.5155 195.684 18.5932C195.684 19.671 196.274 20.1264 196.911 20.1264C197.625 20.1264 198.107 19.5648 198.107 18.5932Z" fill="#F7FFEF"/>
<path d="M199.846 20.6122V16.5288H200.56V17.1511C200.793 16.7565 201.197 16.468 201.818 16.468C202.455 16.468 202.843 16.7413 203.029 17.1967C203.371 16.6957 203.853 16.468 204.443 16.468C205.421 16.468 205.794 17.1056 205.794 18.0468V20.6273H205.079V18.2441C205.079 17.6065 204.955 17.06 204.179 17.06C203.573 17.06 203.169 17.5155 203.169 18.3959V20.6122H202.455V18.2289C202.455 17.5913 202.331 17.0449 201.554 17.0449C200.949 17.0449 200.545 17.5003 200.545 18.3807V20.597H199.846V20.6122Z" fill="#F7FFEF"/>
<path d="M208.76 20.1112C209.381 20.1112 209.723 19.838 209.909 19.4281H210.639C210.453 20.1416 209.785 20.7184 208.76 20.7184C207.44 20.7184 206.71 19.7924 206.71 18.578C206.71 17.2877 207.595 16.4529 208.744 16.4529C210.018 16.4529 210.794 17.5003 210.701 18.7906H207.486C207.486 19.6862 208.139 20.1112 208.76 20.1112ZM209.94 18.2137C209.925 17.6369 209.474 17.06 208.729 17.06C208.092 17.06 207.533 17.394 207.471 18.2137H209.94Z" fill="#F7FFEF"/>
<path d="M213.714 16.468C214.723 16.468 215.096 17.1056 215.096 18.0468V20.6273H214.382V18.2441C214.382 17.6065 214.273 17.06 213.465 17.06C212.782 17.06 212.363 17.5155 212.363 18.3959V20.6122H211.648V16.5288H212.363V17.1511C212.611 16.7565 213.015 16.468 213.714 16.468Z" fill="#F7FFEF"/>
<path d="M217.208 15.4965V16.5288H218V17.0904H217.208V19.5192C217.208 19.9443 217.239 20.0505 217.643 20.0505H218V20.6273H217.488C216.68 20.6273 216.494 20.4452 216.494 19.5951V17.0904H215.826V16.5288H216.494V15.4965H217.208Z" fill="#F7FFEF"/>
</svg>
