<svg width="203" height="45" viewBox="0 0 203 45" fill="none" xmlns="http://www.w3.org/2000/svg">
<path d="M109.947 21.633L110.44 16.4157H105.175L104.698 21.633H100.594L101.819 8.58957H105.907L105.461 13.4729H110.71L111.172 8.58957H115.276L114.051 21.633H109.947Z" fill="#6D6968"/>
<path d="M124.502 16.877L124.056 21.633H119.968L120.414 16.877L116.389 8.58957H120.843L122.752 13.8229L125.647 8.58957H130.069L124.502 16.877Z" fill="#6D6968"/>
<path d="M140.663 20.4719C139.343 21.4899 137.704 21.8876 135.97 21.8876C134.252 21.8876 132.646 21.4899 131.516 20.5037C130.164 19.3107 130.133 18.1177 130.276 16.4952L131.023 8.60549H135.127L134.38 16.4952C134.268 17.72 134.412 18.9607 136.257 18.9607C138.165 18.9607 138.42 17.7677 138.531 16.4952L139.263 8.60549H143.367L142.635 16.4952C142.492 18.0382 142.158 19.3425 140.663 20.4719Z" fill="#6D6968"/>
<path d="M154.724 21.633L149.236 13.7115L148.664 21.633H144.735L145.96 8.58957H149.475L154.979 16.7974L155.583 8.58957H159.512L158.287 21.633H154.724Z" fill="#6D6968"/>
<path d="M167.37 21.6331H161.055L162.28 8.60549H167.688C169.565 8.60549 171.124 8.70093 172.667 9.54399C174.942 10.7688 175.785 12.8526 175.578 15.0795C175.196 18.7858 172.158 21.6331 167.37 21.6331ZM167.879 11.5323H166.098L165.429 18.7062H167.195C169.947 18.7062 171.251 17.2746 171.458 15.175C171.633 13.0912 170.647 11.5323 167.879 11.5323Z" fill="#6D6968"/>
<path d="M186.554 21.6331L185.965 19.7402H180.366L179.348 21.6331H174.926L182.593 8.60549H185.854L191.023 21.6331H186.554ZM183.865 12.6299L181.766 17.0838H185.122L183.865 12.6299Z" fill="#6D6968"/>
<path d="M192.312 21.633L193.521 8.58957H202.46L202.174 11.5323H197.179L196.988 13.5365H201.84L201.57 16.4634H196.718L196.511 18.6903H201.506L201.235 21.633H192.312Z" fill="#6D6968"/>
<path d="M99.21 35.3605L100.626 25.403H106.957L106.638 27.6458H103.107L102.884 29.1728H106.32L106.002 31.4157H102.566L102.328 33.1177H105.859L105.541 35.3605H99.21Z" fill="#3B3735"/>
<path d="M107.243 35.3605L108.659 25.403H111.569L110.472 33.1177H113.844L113.526 35.3605H107.243Z" fill="#3B3735"/>
<path d="M114.719 35.3605L116.135 25.403H122.466L122.147 27.6458H118.616L118.393 29.1728H121.829L121.511 31.4157H118.075L117.837 33.1177H121.384L121.066 35.3605H114.719Z" fill="#3B3735"/>
<path d="M128.256 35.5514C124.915 35.5514 122.561 33.2768 122.975 30.3499C123.388 27.439 126.363 25.1962 129.671 25.1962C131.771 25.1962 133.489 26.0392 134.396 27.5981C134.746 28.1866 134.889 28.4889 134.905 29.1887H131.866C131.564 28.1548 130.626 27.439 129.337 27.439C127.492 27.439 126.092 28.807 125.87 30.3499C125.647 31.8929 126.649 33.3086 128.51 33.3086C129.814 33.3086 130.817 32.6246 131.501 31.6384H134.539C133.6 34.0085 131.039 35.5514 128.256 35.5514Z" fill="#3B3735"/>
<path d="M140.758 27.6458L139.677 35.3605H136.766L137.847 27.6458H135.589L135.907 25.403H143.335L143.017 27.6458H140.758Z" fill="#3B3735"/>
<path d="M148.457 35.3605L146.262 32.1315L145.801 35.3605H143.001L144.417 25.387H148.028C149.237 25.387 150.557 25.387 151.432 26.1028C152.259 26.7868 152.593 27.7889 152.45 28.8388C152.227 30.3976 151.018 31.702 149.173 31.9724L151.782 35.3605H148.457ZM147.948 27.6458H146.898L146.501 30.4136H147.519C148.568 30.4136 149.475 30.0159 149.618 29.0138C149.777 27.9957 148.982 27.6458 147.948 27.6458Z" fill="#3B3735"/>
<path d="M153.038 35.3605L154.454 25.403H157.365L155.949 35.3605H153.038Z" fill="#3B3735"/>
<path d="M163.393 35.5514C160.053 35.5514 157.715 33.2768 158.112 30.3499C158.526 27.439 161.501 25.1962 164.809 25.1962C166.909 25.1962 168.627 26.0392 169.533 27.5981C169.883 28.1866 170.027 28.4889 170.042 29.1887H167.02C166.718 28.1548 165.779 27.439 164.491 27.439C162.646 27.439 161.246 28.807 161.023 30.3499C160.801 31.8929 161.803 33.3086 163.664 33.3086C164.968 33.3086 165.97 32.6246 166.654 31.6384H169.708C168.722 34.0085 166.161 35.5514 163.393 35.5514Z" fill="#3B3735"/>
<path d="M43.807 14.3478C43.5684 14.6978 41.4369 17.4655 36.5217 17.9109C34.1835 18.1336 32.1474 17.7996 30.1909 17.4655C28.6161 17.1951 27.105 16.9247 25.5143 16.9406C18.1813 17.0201 15.5408 24.3849 15.5408 24.3849L19.9152 0H19.6607H19.2153H18.7699H18.3245H17.8791H17.4337H16.9883H16.5429H16.0976H15.6363H15.1909H14.7455H14.3001H13.8547H13.4093H12.9639H12.5186H12.0732H11.6278H11.1824H10.737H10.2916H9.84624H9.40085H8.95546H8.51007H8.06469H7.71474L0 44.9523H0.445387H0.890774H1.33616H1.78155H2.22694H2.67232H3.11771H3.5631H4.00848H4.45387H4.89926H5.34465H5.79003H6.23542H6.68081H7.12619H7.57158H8.01697H8.46235H8.90774H9.35313H9.79852H10.2439H10.6893H11.1347H11.5801H12.0255H12.1368L15.2704 26.7709C15.2704 26.7709 16.193 22.6829 22.3648 24.5122C23.9555 24.9735 25.8961 26.3574 29.5228 26.3574L26.3256 44.9523H26.7232H27.1686H27.614H28.0594H28.5048H28.9502H29.3955H29.8409H30.2863H30.7317H31.1771H31.6225H32.0679H32.5133H32.9586H33.404H33.8494H34.2948H34.7402H35.1856H35.631H36.0764H36.5217H36.9671H37.4125H37.8579H38.3033H38.5101L43.807 14.3478Z" fill="url(#paint0_linear)"/>
<path d="M43.7593 12.1368L45.8271 0H33.6267L31.0339 15.3977C32.72 15.6681 34.4857 15.8908 36.474 15.6999C41.3892 15.2545 43.5048 12.4867 43.7593 12.1368Z" fill="url(#paint1_linear)"/>
<path d="M87.0254 22.492C89.1569 10.0689 80.8218 0 68.3828 0L66.4262 11.5005C72.1049 11.5005 75.7953 16.8134 74.825 22.492C73.8547 28.1707 68.4146 33.0064 62.7359 33.0064H59.7932L64.4538 6.04454C61.0975 6.61718 58.3297 7.69883 56.2619 8.76458C54.0349 9.90986 52.3329 11.1665 51.2354 12.0732L45.6044 44.9523H50.4718H57.7412H60.6998V45C73.1071 45 84.9098 34.9152 87.0254 22.492Z" fill="url(#paint2_linear)"/>
<path d="M53.3033 0L51.7126 9.25769C52.683 8.5737 53.876 7.82609 55.2598 7.11029C57.8367 5.77412 60.5727 4.83563 63.3881 4.2789C63.8653 4.18346 64.3266 4.10392 64.8038 4.0403L65.5037 0H53.3033Z" fill="url(#paint3_linear)"/>
<defs>
<linearGradient id="paint0_linear" x1="0" y1="22.4785" x2="43.815" y2="22.4785" gradientUnits="userSpaceOnUse">
<stop stop-color="#194593"/>
<stop offset="1" stop-color="#39AAE1"/>
</linearGradient>
<linearGradient id="paint1_linear" x1="31.0387" y1="7.88971" x2="45.8335" y2="7.88971" gradientUnits="userSpaceOnUse">
<stop stop-color="#1966B7"/>
<stop offset="1" stop-color="#3995E1"/>
</linearGradient>
<linearGradient id="paint2_linear" x1="45.5917" y1="22.4992" x2="87.3647" y2="22.4992" gradientUnits="userSpaceOnUse">
<stop stop-color="#C0CF00"/>
<stop offset="1" stop-color="#009B3C"/>
</linearGradient>
<linearGradient id="paint3_linear" x1="51.7174" y1="4.62805" x2="65.5053" y2="4.62805" gradientUnits="userSpaceOnUse">
<stop stop-color="#1977D3"/>
<stop offset="1" stop-color="#39AAE1"/>
</linearGradient>
</defs>
</svg>
