<svg width="38" height="27" viewBox="0 0 38 27" fill="none" xmlns="http://www.w3.org/2000/svg">
<path d="M32.875 0H5.125C2.57084 0 0.5 2.01487 0.5 4.5V22.5C0.5 24.9851 2.57084 27 5.125 27H32.875C35.4292 27 37.5 24.9851 37.5 22.5V4.5C37.5 2.01487 35.4292 0 32.875 0ZM25.2623 12.008L35.052 3.84518C35.1198 4.05612 35.1875 4.26706 35.1875 4.5V22.5C35.1875 22.656 35.1265 22.7945 35.0949 22.9416L25.2623 12.008ZM32.875 2.25C33.0286 2.25 33.1641 2.30716 33.3086 2.33571L19 14.2691L4.69141 2.33571C4.83594 2.30716 4.97144 2.25 5.125 2.25H32.875ZM2.90399 22.9395C2.87234 22.7922 2.8125 22.656 2.8125 22.5V4.5C2.8125 4.26706 2.88137 4.05612 2.94915 3.84518L12.7355 12.0059L2.90399 22.9395ZM5.125 24.75C4.89129 24.75 4.67898 24.684 4.46558 24.6203L14.4924 13.4714L18.248 16.6025C18.4636 16.7849 18.7324 16.875 19 16.875C19.2676 16.875 19.5364 16.7849 19.752 16.6025L23.5076 13.4715L33.5344 24.6204C33.3222 24.684 33.1099 24.75 32.875 24.75H5.125Z" fill="#9AC32E"/>
</svg>
