<svg width="14" height="14" viewBox="0 0 14 14" fill="none" xmlns="http://www.w3.org/2000/svg">
<path fill-rule="evenodd" clip-rule="evenodd" d="M12.8594 12.1522C13.0547 12.3475 13.0547 12.6641 12.8594 12.8593C12.6642 13.0546 12.3476 13.0546 12.1523 12.8594L6.50296 7.21006L0.853487 12.8595C0.658224 13.0547 0.341642 13.0547 0.146381 12.8595C-0.0488802 12.6642 -0.0488783 12.3476 0.146385 12.1524L5.79585 6.50296L0.146386 0.853555C-0.0488768 0.658294 -0.0488787 0.341711 0.146382 0.146448C0.341643 -0.0488157 0.658226 -0.0488166 0.853489 0.146444L6.50296 5.79586L12.1523 0.146572C12.3476 -0.0486889 12.6642 -0.0486872 12.8594 0.146576C13.0547 0.341839 13.0547 0.658422 12.8594 0.853683L7.21007 6.50296L12.8594 12.1522Z" fill="#9597A9"/>
</svg>
