<svg width="50" height="50" viewBox="0 0 50 50" fill="none" xmlns="http://www.w3.org/2000/svg">
<rect x="2.0625" y="2.0625" width="45.875" height="41.1875" rx="1.5" stroke="#9597A9"/>
<path d="M6.25 48.4375C5.38706 48.4375 4.6875 47.7379 4.6875 46.875L4.6875 43.75C4.6875 42.8871 5.38706 42.1875 6.25 42.1875C7.11295 42.1875 7.8125 42.8871 7.8125 43.75L7.8125 46.875C7.8125 47.7379 7.11295 48.4375 6.25 48.4375Z" fill="#9597A9"/>
<path d="M43.75 48.4375C42.8871 48.4375 42.1875 47.7379 42.1875 46.875V43.75C42.1875 42.8871 42.8871 42.1875 43.75 42.1875C44.6129 42.1875 45.3125 42.8871 45.3125 43.75V46.875C45.3125 47.7379 44.6129 48.4375 43.75 48.4375Z" fill="#9597A9"/>
<path d="M42.1875 6.25V5.75V6.25ZM43.75 7.8125H44.25H43.75ZM6.25 7.8125H5.75H6.25ZM7.8125 6.25V6.75V6.25ZM7.8125 39.0625V39.5625V39.0625ZM6.25 37.5H6.75H6.25ZM42.1875 39.0625V38.5625V39.0625ZM43.75 37.5H43.25H43.75ZM31.5698 25.8603C31.3745 25.665 31.0579 25.665 30.8627 25.8603C30.6674 26.0555 30.6674 26.3721 30.8627 26.5674L31.5698 25.8603ZM29.4982 27.9319C29.3029 27.7366 28.9863 27.7366 28.7911 27.9319C28.5958 28.1272 28.5958 28.4437 28.7911 28.639L29.4982 27.9319ZM30.8611 17.6777C30.6659 17.8729 30.6659 18.1895 30.8611 18.3848C31.0564 18.58 31.373 18.58 31.5682 18.3848L30.8611 17.6777ZM32.2505 12.8522L32.604 13.2058V13.2058L32.2505 12.8522ZM28.7895 15.6061C28.5943 15.8013 28.5943 16.1179 28.7895 16.3132C28.9848 16.5084 29.3014 16.5084 29.4966 16.3132L28.7895 15.6061ZM21.3158 28.639C21.511 28.4437 21.511 28.1272 21.3158 27.9319C21.1205 27.7366 20.8039 27.7366 20.6087 27.9319L21.3158 28.639ZM19.2442 26.5674C19.4394 26.3721 19.4394 26.0555 19.2442 25.8603C19.0489 25.665 18.7323 25.665 18.5371 25.8603L19.2442 26.5674ZM18.5359 18.3848C18.7312 18.58 19.0478 18.58 19.243 18.3848C19.4383 18.1895 19.4383 17.8729 19.243 17.6777L18.5359 18.3848ZM17.8537 12.8522L17.5001 13.2058V13.2058L17.8537 12.8522ZM20.6075 16.3132C20.8028 16.5084 21.1194 16.5084 21.3146 16.3132C21.5099 16.1179 21.5099 15.8013 21.3146 15.6061L20.6075 16.3132ZM42.1875 38.5625L7.8125 38.5625L7.8125 39.5625L42.1875 39.5625L42.1875 38.5625ZM6.75 37.5L6.75 7.8125H5.75L5.75 37.5H6.75ZM7.8125 6.75L42.1875 6.75V5.75L7.8125 5.75L7.8125 6.75ZM43.25 7.8125V37.5H44.25V7.8125L43.25 7.8125ZM42.1875 6.75C42.7743 6.75 43.25 7.2257 43.25 7.8125L44.25 7.8125C44.25 6.67342 43.3266 5.75 42.1875 5.75V6.75ZM6.75 7.8125C6.75 7.2257 7.2257 6.75 7.8125 6.75L7.8125 5.75C6.67342 5.75 5.75 6.67341 5.75 7.8125H6.75ZM7.8125 38.5625C7.2257 38.5625 6.75 38.0868 6.75 37.5H5.75C5.75 38.6391 6.67341 39.5625 7.8125 39.5625L7.8125 38.5625ZM42.1875 39.5625C43.3266 39.5625 44.25 38.6391 44.25 37.5H43.25C43.25 38.0868 42.7743 38.5625 42.1875 38.5625L42.1875 39.5625ZM30.8627 26.5674L33.9701 29.6748L34.6772 28.9677L31.5698 25.8603L30.8627 26.5674ZM32.6056 31.0393L29.4982 27.9319L28.7911 28.639L31.8985 31.7464L32.6056 31.0393ZM34.6772 31.7464C35.4445 30.9791 35.4445 29.735 34.6772 28.9677L33.9701 29.6748C34.3469 30.0516 34.3469 30.6625 33.9701 31.0393L34.6772 31.7464ZM33.9701 31.0393C33.5933 31.4161 32.9824 31.4161 32.6056 31.0393L31.8985 31.7464C32.6658 32.5137 33.9099 32.5137 34.6772 31.7464L33.9701 31.0393ZM31.5682 18.3848L34.6756 15.2774L33.9685 14.5703L30.8611 17.6777L31.5682 18.3848ZM31.8969 12.4987L28.7895 15.6061L29.4966 16.3132L32.604 13.2058L31.8969 12.4987ZM33.9685 13.2058C34.3453 13.5826 34.3453 14.1935 33.9685 14.5703L34.6756 15.2774C35.443 14.51 35.443 13.266 34.6756 12.4987L33.9685 13.2058ZM34.6756 12.4987C33.9083 11.7313 32.6643 11.7313 31.8969 12.4987L32.604 13.2058C32.9808 12.829 33.5917 12.829 33.9685 13.2058L34.6756 12.4987ZM18.2084 31.7464L21.3158 28.639L20.6087 27.9319L17.5013 31.0393L18.2084 31.7464ZM18.5371 25.8603L15.4296 28.9677L16.1368 29.6748L19.2442 26.5674L18.5371 25.8603ZM16.1368 31.0393C15.76 30.6625 15.76 30.0516 16.1368 29.6748L15.4296 28.9677C14.6623 29.735 14.6623 30.9791 15.4296 31.7464L16.1368 31.0393ZM15.4296 31.7464C16.197 32.5137 17.441 32.5137 18.2084 31.7464L17.5013 31.0393C17.1245 31.4161 16.5136 31.4161 16.1368 31.0393L15.4296 31.7464ZM19.243 17.6777L16.1356 14.5703L15.4285 15.2774L18.5359 18.3848L19.243 17.6777ZM17.5001 13.2058L20.6075 16.3132L21.3146 15.6061L18.2072 12.4987L17.5001 13.2058ZM15.4285 12.4987C14.6612 13.266 14.6612 14.51 15.4285 15.2774L16.1356 14.5703C15.7588 14.1935 15.7588 13.5826 16.1356 13.2058L15.4285 12.4987ZM16.1356 13.2058C16.5124 12.829 17.1233 12.829 17.5001 13.2058L18.2072 12.4987C17.4399 11.7313 16.1958 11.7313 15.4285 12.4987L16.1356 13.2058Z" fill="#9597A9"/>
<path d="M29.6875 21.875C29.6875 24.4638 27.5888 26.5625 25 26.5625C22.4112 26.5625 20.3125 24.4638 20.3125 21.875C20.3125 19.2862 22.4112 17.1875 25 17.1875C27.5888 17.1875 29.6875 19.2862 29.6875 21.875Z" fill="#50C0FF"/>
<path d="M45.5078 30.8594C45.5078 31.6684 44.852 32.3242 44.043 32.3242H42.5781C41.7691 32.3242 41.1133 31.6684 41.1133 30.8594C41.1133 30.0504 41.7691 29.3945 42.5781 29.3945H44.043C44.852 29.3945 45.5078 30.0504 45.5078 30.8594Z" fill="#50C0FF"/>
<path d="M45.5078 14.7461C45.5078 15.5551 44.852 16.2109 44.043 16.2109H42.5781C41.7691 16.2109 41.1133 15.5551 41.1133 14.7461C41.1133 13.9371 41.7691 13.2812 42.5781 13.2812L44.043 13.2813C44.852 13.2813 45.5078 13.9371 45.5078 14.7461Z" fill="#50C0FF"/>
</svg>
