<svg width="50" height="50" viewBox="0 0 50 50" fill="none" xmlns="http://www.w3.org/2000/svg">
<path d="M6.26873 11.4248C6.97969 11.9952 7.77947 12.54 8.66807 13.053C17.5586 18.1855 31.973 18.1855 40.8635 13.053C41.7521 12.54 42.5519 11.9952 43.2629 11.4248M42.1629 39.3901C41.7533 39.1106 41.3201 38.8386 40.8635 38.575C31.973 33.4425 17.5586 33.4425 8.66807 38.575C8.16846 38.8634 7.69692 39.1619 7.25346 39.4693M2 25.4771H47.5312M47.5312 24.7656C47.5312 37.3387 37.3387 47.5312 24.7656 47.5312C12.1925 47.5312 2 37.3387 2 24.7656C2 12.1925 12.1925 2 24.7656 2C37.3387 2 47.5312 12.1925 47.5312 24.7656ZM34.059 40.8634C28.9265 49.7539 20.605 49.7539 15.4725 40.8634C10.34 31.9728 10.34 17.5584 15.4725 8.6679C20.605 -0.222629 28.9265 -0.222629 34.059 8.6679C39.1915 17.5584 39.1915 31.9728 34.059 40.8634Z" stroke="#9597A9" stroke-width="0.90625"/>
<path d="M34.5938 25.5C34.5938 30.9279 30.1935 35.3281 24.7656 35.3281C19.3377 35.3281 14.9375 30.9279 14.9375 25.5C14.9375 20.0721 19.3377 15.6719 24.7656 15.6719C30.1935 15.6719 34.5938 20.0721 34.5938 25.5Z" fill="#50C0FF" stroke="#50C0FF" stroke-width="0.90625"/>
<path d="M30.6406 25.5C30.6406 28.7447 28.0103 31.375 24.7656 31.375C21.521 31.375 18.8906 28.7447 18.8906 25.5C18.8906 22.2553 21.521 19.625 24.7656 19.625C28.0103 19.625 30.6406 22.2553 30.6406 25.5Z" stroke="white" stroke-width="0.90625"/>
</svg>
