<svg width="50" height="50" viewBox="0 0 50 50" fill="none" xmlns="http://www.w3.org/2000/svg">
<path d="M36.25 24.5H48M1 24.5H12.75M24.5 36.25V48M24.5 1V12.75M43.5938 24.5C43.5938 35.0452 35.0452 43.5938 24.5 43.5938C13.9548 43.5938 5.40625 35.0452 5.40625 24.5C5.40625 13.9548 13.9548 5.40625 24.5 5.40625C35.0452 5.40625 43.5938 13.9548 43.5938 24.5ZM39.1875 24.5C39.1875 32.6117 32.6117 39.1875 24.5 39.1875C16.3883 39.1875 9.8125 32.6117 9.8125 24.5C9.8125 16.3883 16.3883 9.8125 24.5 9.8125C32.6117 9.8125 39.1875 16.3883 39.1875 24.5Z" stroke="#9597A9" stroke-linecap="round" stroke-linejoin="round"/>
<circle cx="24.3438" cy="24.3438" r="6.84375" fill="#50C0FF" stroke="#50C0FF"/>
</svg>
