<svg width="41" height="41" viewBox="0 0 41 41" fill="none" xmlns="http://www.w3.org/2000/svg">
<path d="M32.5991 30.5487C32.1467 30.0634 31.6779 29.6029 31.2174 29.1588C30.9871 28.9367 30.7568 28.7064 30.5266 28.4762L28.5198 26.4694C27.6645 25.6141 26.6612 25.1618 25.6331 25.1618C24.5969 25.1618 23.6017 25.6141 22.7464 26.4694C22.5408 26.675 22.327 26.8807 22.1214 27.0863C21.6444 27.555 21.1509 28.0403 20.6739 28.5502C19.8268 28.139 18.9633 27.5715 17.9599 26.782C16.6523 25.7128 15.5338 24.6437 14.5386 23.5087C14.004 22.8919 13.0665 22.8261 12.4497 23.3689C11.8328 23.9035 11.7671 24.841 12.3099 25.4579C13.4119 26.7244 14.6538 27.9169 16.1012 29.093C16.1095 29.093 16.1095 29.1012 16.1177 29.1012C17.5734 30.2526 18.7988 31.0092 20.1064 31.5438C20.1393 31.5602 20.1722 31.5685 20.2051 31.5767C20.5176 31.6836 21.4552 31.9961 22.3763 31.0832C22.3928 31.0668 22.4174 31.0421 22.4339 31.0257C22.9931 30.3924 23.5853 29.8167 24.2103 29.1999C24.4242 28.9943 24.638 28.7805 24.8518 28.5666C25.0492 28.3692 25.3535 28.1225 25.6496 28.1225C25.9456 28.1225 26.2417 28.361 26.4473 28.5666L28.454 30.5733C28.6925 30.8118 28.9393 31.0503 29.1696 31.2806C29.6301 31.7247 30.0578 32.1524 30.469 32.5883C30.4772 32.6047 30.4937 32.6129 30.5019 32.6212C30.8144 32.9337 31.1516 33.4272 30.4854 34.1344L27.977 36.6428C27.4425 37.1774 26.8503 37.457 26.1019 37.5228C24.8272 37.6297 23.4702 37.383 21.7019 36.7251C18.7577 35.6395 16.0108 33.9864 13.0418 31.5191C9.45604 28.5173 6.63513 24.9151 4.64486 20.8112C3.93757 19.3226 3.10692 17.3488 2.96711 15.2516C2.89309 14.0837 3.20562 13.2449 3.96225 12.5376C4.51327 12.077 4.9985 11.5753 5.45906 11.0983C5.75513 10.7858 6.03476 10.498 6.33083 10.2266L6.33905 10.2183C6.92297 9.65909 7.4082 9.65086 7.951 10.1937L12.0056 14.2482C12.0138 14.2564 12.022 14.2647 12.0302 14.2729C12.2029 14.4374 12.4085 14.6923 12.4168 14.9719C12.4168 15.268 12.1947 15.5559 12.0138 15.745L9.49716 18.2616C8.92146 18.8373 8.92146 19.7749 9.49716 20.3588C10.0729 20.9345 11.0104 20.9345 11.5943 20.3588L14.111 17.8422C14.9581 16.9951 15.3939 16 15.3857 14.9473C15.3775 13.9192 14.9334 12.9488 14.1027 12.151L10.0564 8.1047C8.36222 6.41051 6.05943 6.40228 4.30766 8.08003C3.96225 8.40078 3.64972 8.72974 3.3372 9.05049C2.90132 9.50282 2.49011 9.93049 2.046 10.3006C2.02955 10.317 2.0131 10.3335 1.98843 10.3499C0.549185 11.6576 -0.108755 13.3682 0.0146089 15.4407C0.187318 18.0396 1.14955 20.3588 1.97198 22.0859V22.0941C4.1514 26.5846 7.22727 30.5158 11.1338 33.789C14.3659 36.4701 17.3924 38.2877 20.6575 39.4966C21.8582 39.9408 23.61 40.5 25.5509 40.5C25.8058 40.5 26.069 40.4918 26.3322 40.4671H26.3404C27.7797 40.3437 29.0297 39.7598 30.0578 38.7318L32.5744 36.2152C32.5826 36.2069 32.5908 36.1987 32.5991 36.1905C34.2192 34.5045 34.211 32.1853 32.5991 30.5487Z" fill="#9AC32E"/>
<path d="M32.0151 20.4904C31.5052 17.4968 30.0907 14.7663 27.9277 12.5951C25.7812 10.4404 23.0507 9.02582 20.0489 8.51591C19.2429 8.3761 18.478 8.9189 18.3382 9.72488C18.1984 10.5309 18.7412 11.2957 19.5472 11.4355C21.9322 11.8385 24.1116 12.9735 25.8387 14.7005C27.5658 16.4276 28.7008 18.6071 29.1038 20.9921C29.2271 21.7158 29.8522 22.2257 30.5595 22.2257C30.6417 22.2257 30.7239 22.2175 30.8062 22.2011C31.6122 22.0612 32.155 21.2964 32.0151 20.4904Z" fill="#9AC32E"/>
<path d="M40.0256 20.1285C39.1949 15.2269 36.8757 10.7611 33.331 7.21649C29.7864 3.67184 25.3206 1.3526 20.419 0.52195C19.613 0.382138 18.8481 0.924938 18.7083 1.73091C18.5685 2.53689 19.1113 3.30174 19.9173 3.44156C24.2103 4.17351 28.1251 6.19668 31.2338 9.30544C34.3426 12.4142 36.374 16.3289 37.0977 20.622C37.2211 21.3457 37.8461 21.8556 38.5534 21.8556C38.6357 21.8556 38.7179 21.8474 38.8001 21.831C39.6226 21.6994 40.1654 20.9345 40.0256 20.1285Z" fill="#9AC32E"/>
</svg>
