<svg width="50" height="50" viewBox="0 0 50 50" fill="none" xmlns="http://www.w3.org/2000/svg">
<path d="M19.3125 32.9062V34.2656C19.3125 35.7671 20.5297 36.9844 22.0312 36.9844H24.75M19.3125 32.9062V31.5469C19.3125 30.0454 20.5297 28.8281 22.0312 28.8281H24.75M19.3125 32.9062H11.1562C9.65473 32.9062 8.4375 31.689 8.4375 30.1875V28.8281M19.3125 16.5938V17.9531C19.3125 19.4546 20.5297 20.6719 22.0312 20.6719H24.75M19.3125 16.5938V15.2344C19.3125 13.7329 20.5297 12.5156 22.0312 12.5156H24.75M19.3125 16.5938H11.1562C9.65473 16.5938 8.4375 17.811 8.4375 19.3125V20.6719M35.625 42.4219V43.7812C35.625 45.2828 36.8422 46.5 38.3438 46.5H43.7812C45.2828 46.5 46.5 45.2828 46.5 43.7812V41.0625C46.5 39.561 45.2828 38.3438 43.7812 38.3438H38.3438C36.8422 38.3438 35.625 39.561 35.625 41.0625V42.4219ZM35.625 42.4219H27.4688C25.9672 42.4219 24.75 41.2046 24.75 39.7031V36.9844M35.625 24.75V26.1094C35.625 27.6109 36.8422 28.8281 38.3438 28.8281H43.7812C45.2828 28.8281 46.5 27.6109 46.5 26.1094V23.3906C46.5 21.8891 45.2828 20.6719 43.7812 20.6719H38.3438C36.8422 20.6719 35.625 21.8891 35.625 23.3906V24.75ZM35.625 24.75H24.75M35.625 7.07812V8.4375C35.625 9.93902 36.8422 11.1562 38.3438 11.1562H43.7812C45.2828 11.1562 46.5 9.93902 46.5 8.4375V5.71875C46.5 4.21723 45.2828 3 43.7812 3H38.3438C36.8422 3 35.625 4.21723 35.625 5.71875V7.07812ZM35.625 7.07812H27.4688C25.9672 7.07812 24.75 8.29535 24.75 9.79688V12.5156M8.4375 20.6719H5.71875C4.21723 20.6719 3 21.8891 3 23.3906V26.1094C3 27.6109 4.21723 28.8281 5.71875 28.8281H8.4375M8.4375 20.6719H11.1562C12.6578 20.6719 13.875 21.8891 13.875 23.3906V26.1094C13.875 27.6109 12.6578 28.8281 11.1562 28.8281H8.4375M24.75 20.6719H27.4688C28.9703 20.6719 30.1875 19.4546 30.1875 17.9531V15.2344C30.1875 13.7329 28.9703 12.5156 27.4688 12.5156H24.75M24.75 20.6719V24.75M24.75 28.8281H27.4688C28.9703 28.8281 30.1875 30.0454 30.1875 31.5469V34.2656C30.1875 35.7671 28.9703 36.9844 27.4688 36.9844H24.75M24.75 28.8281V24.75" stroke="#9597A9" stroke-linecap="round" stroke-linejoin="round"/>
<path d="M3 23.3906C3 21.8891 4.21723 20.6719 5.71875 20.6719H11.1562C12.6578 20.6719 13.875 21.8891 13.875 23.3906V26.1094C13.875 27.6109 12.6578 28.8281 11.1562 28.8281H5.71875C4.21723 28.8281 3 27.6109 3 26.1094V23.3906Z" fill="#50C0FF"/>
<path d="M19.3125 15.2344C19.3125 13.7329 20.5297 12.5156 22.0312 12.5156H27.4688C28.9703 12.5156 30.1875 13.7329 30.1875 15.2344V17.9531C30.1875 19.4546 28.9703 20.6719 27.4688 20.6719H22.0312C20.5297 20.6719 19.3125 19.4546 19.3125 17.9531V15.2344Z" fill="#50C0FF"/>
<path d="M35.625 5.71875C35.625 4.21723 36.8422 3 38.3438 3H43.7812C45.2828 3 46.5 4.21723 46.5 5.71875V8.4375C46.5 9.93902 45.2828 11.1562 43.7812 11.1562H38.3438C36.8422 11.1562 35.625 9.93902 35.625 8.4375V5.71875Z" fill="#50C0FF"/>
<path d="M35.625 23.3906C35.625 21.8891 36.8422 20.6719 38.3438 20.6719H43.7812C45.2828 20.6719 46.5 21.8891 46.5 23.3906V26.1094C46.5 27.6109 45.2828 28.8281 43.7812 28.8281H38.3438C36.8422 28.8281 35.625 27.6109 35.625 26.1094V23.3906Z" fill="#50C0FF"/>
<path d="M19.3125 31.5469C19.3125 30.0454 20.5297 28.8281 22.0312 28.8281H27.4688C28.9703 28.8281 30.1875 30.0454 30.1875 31.5469V34.2656C30.1875 35.7672 28.9703 36.9844 27.4688 36.9844H22.0312C20.5297 36.9844 19.3125 35.7672 19.3125 34.2656V31.5469Z" fill="#50C0FF"/>
<path d="M35.625 41.0625C35.625 39.561 36.8422 38.3438 38.3438 38.3438H43.7812C45.2828 38.3438 46.5 39.561 46.5 41.0625V43.7812C46.5 45.2828 45.2828 46.5 43.7812 46.5H38.3438C36.8422 46.5 35.625 45.2828 35.625 43.7812V41.0625Z" fill="#50C0FF"/>
<path d="M3 23.3906C3 21.8891 4.21723 20.6719 5.71875 20.6719H11.1562C12.6578 20.6719 13.875 21.8891 13.875 23.3906V26.1094C13.875 27.6109 12.6578 28.8281 11.1562 28.8281H5.71875C4.21723 28.8281 3 27.6109 3 26.1094V23.3906Z" stroke="#50C0FF" stroke-linecap="round" stroke-linejoin="round"/>
<path d="M19.3125 15.2344C19.3125 13.7329 20.5297 12.5156 22.0312 12.5156H27.4688C28.9703 12.5156 30.1875 13.7329 30.1875 15.2344V17.9531C30.1875 19.4546 28.9703 20.6719 27.4688 20.6719H22.0312C20.5297 20.6719 19.3125 19.4546 19.3125 17.9531V15.2344Z" stroke="#50C0FF" stroke-linecap="round" stroke-linejoin="round"/>
<path d="M35.625 5.71875C35.625 4.21723 36.8422 3 38.3438 3H43.7812C45.2828 3 46.5 4.21723 46.5 5.71875V8.4375C46.5 9.93902 45.2828 11.1562 43.7812 11.1562H38.3438C36.8422 11.1562 35.625 9.93902 35.625 8.4375V5.71875Z" stroke="#50C0FF" stroke-linecap="round" stroke-linejoin="round"/>
<path d="M35.625 23.3906C35.625 21.8891 36.8422 20.6719 38.3438 20.6719H43.7812C45.2828 20.6719 46.5 21.8891 46.5 23.3906V26.1094C46.5 27.6109 45.2828 28.8281 43.7812 28.8281H38.3438C36.8422 28.8281 35.625 27.6109 35.625 26.1094V23.3906Z" stroke="#50C0FF" stroke-linecap="round" stroke-linejoin="round"/>
<path d="M19.3125 31.5469C19.3125 30.0454 20.5297 28.8281 22.0312 28.8281H27.4688C28.9703 28.8281 30.1875 30.0454 30.1875 31.5469V34.2656C30.1875 35.7672 28.9703 36.9844 27.4688 36.9844H22.0312C20.5297 36.9844 19.3125 35.7672 19.3125 34.2656V31.5469Z" stroke="#50C0FF" stroke-linecap="round" stroke-linejoin="round"/>
<path d="M35.625 41.0625C35.625 39.561 36.8422 38.3438 38.3438 38.3438H43.7812C45.2828 38.3438 46.5 39.561 46.5 41.0625V43.7812C46.5 45.2828 45.2828 46.5 43.7812 46.5H38.3438C36.8422 46.5 35.625 45.2828 35.625 43.7812V41.0625Z" stroke="#50C0FF" stroke-linecap="round" stroke-linejoin="round"/>
</svg>
