<?xml version="1.0" standalone="no"?>
<!DOCTYPE svg PUBLIC "-//W3C//DTD SVG 1.1//EN" "http://www.w3.org/Graphics/SVG/1.1/DTD/svg11.dtd" >
<svg xmlns="http://www.w3.org/2000/svg" xmlns:xlink="http://www.w3.org/1999/xlink" version="1.1">
<metadata>
Created by FontForge 20170924 at Wed Jun 22 12:24:59 2016
 By www-data
Copyright \(c\) 2015 Swiss Typefaces S_rl. All rights reserved.
</metadata>
<defs>
<font id="SuisseIntl-Book" horiz-adv-x="678" >
  <font-face 
    font-family="Suisse Int'l Book"
    font-weight="450"
    font-stretch="normal"
    units-per-em="1000"
    panose-1="2 11 5 4 0 0 0 0 0 0"
    ascent="774"
    descent="-226"
    x-height="538"
    cap-height="725"
    bbox="-385 -238 1384 935"
    underline-thickness="50"
    underline-position="-85"
    stemh="59"
    stemv="104"
    unicode-range="U+000D-FB02"
  />
<missing-glyph horiz-adv-x="500" 
d="M0 725h500v-725h-500v725zM250 378l216 328h-433zM19 696v-667l220 333zM481 29v667l-221 -334zM33 19h433l-216 327z" />
    <glyph glyph-name="uni04070407" unicode="&#x407;&#x407;" horiz-adv-x="548" 
d="M115 882v-103h-106v103h106zM311 882v-103h-106v103h106zM507 882v-103h-106v103h106zM194 0h-114v725h114v-725zM468 0h-114v725h114v-725z" />
    <glyph glyph-name="uni04570457" unicode="&#x457;&#x457;" horiz-adv-x="488" 
d="M76 725v-105h-98v105h98zM275 725v-105h-98v105h98zM475 725v-105h-98v105h98zM174 538v-538h-104v538h104zM418 538v-538h-104v538h104z" />
    <glyph glyph-name=".notdef" horiz-adv-x="500" 
d="M0 725h500v-725h-500v725zM250 378l216 328h-433zM19 696v-667l220 333zM481 29v667l-221 -334zM33 19h433l-216 327z" />
    <glyph glyph-name=".null" horiz-adv-x="0" 
 />
    <glyph glyph-name="CR" unicode="&#xd;" horiz-adv-x="234" 
 />
    <glyph glyph-name="space" unicode=" " horiz-adv-x="234" 
 />
    <glyph glyph-name="exclam" unicode="!" horiz-adv-x="243" 
d="M88 212l-21 304v209h108v-209l-20 -304h-67zM59 0v125h125v-125h-125z" />
    <glyph glyph-name="quotedbl" unicode="&#x22;" horiz-adv-x="328" 
d="M137 725l-20 -248h-74l-20 248h114zM305 725l-20 -248h-74l-20 248h114z" />
    <glyph glyph-name="numbersign" unicode="#" horiz-adv-x="683" 
d="M204 544l25 181h89l-26 -181h150l25 181h89l-25 -181h135l-11 -82h-136l-23 -170h135l-10 -81h-137l-28 -211h-89l28 211h-149l-28 -211h-89l29 211h-140l11 81h140l24 170h-140l10 82h141zM258 292h149l23 170h-149z" />
    <glyph glyph-name="dollar" unicode="$" horiz-adv-x="598" 
d="M324 811v-73c138 -11 227 -100 225 -232h-105c-2 97 -57 140 -120 149v-238l13 -3c109 -28 227 -72 227 -213c0 -136 -111 -205 -240 -213v-85h-56v85c-140 12 -237 109 -235 245h106c1 -102 63 -153 129 -162v259l-27 7c-106 28 -191 90 -191 207c0 120 108 184 218 194
v73h56zM264 432l4 -1v225c-58 -3 -114 -39 -114 -110c0 -58 39 -94 110 -114zM324 315v-245c73 4 136 43 136 119c0 78 -52 103 -136 126z" />
    <glyph glyph-name="percent" unicode="%" horiz-adv-x="1016" 
d="M35 521c0 126 56 211 166 211c111 0 168 -85 168 -211c0 -125 -57 -211 -168 -211c-110 0 -166 86 -166 211zM201 0l500 725h113l-500 -725h-113zM287 521c0 100 -31 152 -86 152c-53 0 -84 -52 -84 -152c0 -99 31 -152 84 -152c55 0 86 53 86 152zM649 204
c0 126 56 211 167 211s167 -85 167 -211c0 -125 -56 -211 -167 -211s-167 86 -167 211zM901 204c0 100 -31 152 -85 152s-85 -52 -85 -152c0 -99 31 -152 85 -152s85 53 85 152z" />
    <glyph glyph-name="ampersand" unicode="&#x26;" horiz-adv-x="700" 
d="M23 200c0 110 77 183 179 218c-47 55 -78 108 -78 165c0 95 84 156 198 156c90 0 190 -41 190 -158c0 -88 -61 -151 -145 -188l132 -141c17 43 28 92 32 145h106c-7 -77 -29 -154 -67 -221l164 -176h-146l-83 89c-61 -62 -142 -102 -241 -102c-147 0 -241 93 -241 213z
M308 457l1 -2c66 26 104 71 104 123c0 54 -41 78 -89 78c-47 0 -90 -23 -90 -68c0 -44 36 -92 74 -131zM443 156l-183 198c-80 -29 -127 -77 -127 -149c0 -80 60 -130 141 -130c66 0 124 30 169 81z" />
    <glyph glyph-name="quotesingle" unicode="'" horiz-adv-x="160" 
d="M137 725l-20 -248h-74l-20 248h114z" />
    <glyph glyph-name="parenleft" unicode="(" horiz-adv-x="251" 
d="M166 725h90c-66 -107 -120 -263 -120 -450s54 -342 120 -450h-90c-60 87 -138 249 -138 450s78 363 138 450z" />
    <glyph glyph-name="parenright" unicode=")" horiz-adv-x="251" 
d="M85 -175h-90c66 108 120 263 120 450s-54 343 -120 450h90c61 -87 138 -249 138 -450s-77 -363 -138 -450z" />
    <glyph glyph-name="asterisk" unicode="*" horiz-adv-x="357" 
d="M210 610l108 41l26 -64l-110 -39l66 -93l-53 -41l-72 97l-65 -97l-60 40l67 94l-109 39l23 64l109 -41v115h70v-115z" />
    <glyph glyph-name="plus" unicode="+" 
d="M290 0v220h-224v96h224v218h100v-218h223v-96h-223v-220h-100z" />
    <glyph glyph-name="comma" unicode="," horiz-adv-x="243" 
d="M59 125h125v-134l-65 -139h-65l60 148h-55v125z" />
    <glyph glyph-name="hyphen" unicode="-" horiz-adv-x="413" 
d="M45 224v96h322v-96h-322z" />
    <glyph glyph-name="period" unicode="." horiz-adv-x="243" 
d="M59 0v125h125v-125h-125z" />
    <glyph glyph-name="slash" unicode="/" horiz-adv-x="381" 
d="M-2 0l283 725h103l-284 -725h-102z" />
    <glyph glyph-name="zero" unicode="0" horiz-adv-x="659" 
d="M44 363c0 226 92 375 285 375c194 0 285 -149 285 -375c0 -227 -91 -376 -285 -376c-193 0 -285 149 -285 376zM504 363c0 192 -65 292 -175 292c-109 0 -175 -100 -175 -292c0 -193 66 -292 175 -292c110 0 175 99 175 292z" />
    <glyph glyph-name="one" unicode="1" horiz-adv-x="362" 
d="M171 0v560h-165v71c105 4 157 15 195 94h75v-725h-105z" />
    <glyph glyph-name="two" unicode="2" horiz-adv-x="583" 
d="M533 547c0 -159 -160 -304 -371 -453h390v-94h-525v90c249 189 397 321 397 446c0 73 -49 119 -127 119c-74 0 -145 -42 -146 -159h-106c-2 145 99 242 255 242c134 0 233 -68 233 -191z" />
    <glyph glyph-name="three" unicode="3" horiz-adv-x="594" 
d="M443 203c0 99 -84 132 -196 132h-25v91h21c120 0 181 36 181 116c0 76 -61 113 -134 113c-92 0 -143 -56 -153 -140h-104c11 133 105 223 262 223c123 0 238 -52 238 -187c0 -73 -42 -135 -113 -166c98 -33 132 -105 132 -180c0 -147 -125 -218 -267 -218
c-169 0 -253 108 -262 232h104c11 -84 61 -148 160 -148c90 0 156 48 156 132z" />
    <glyph glyph-name="four" unicode="4" horiz-adv-x="622" 
d="M607 175h-130v-175h-105v175h-359v92l359 458h105v-456h130v-94zM128 269h244v317z" />
    <glyph glyph-name="five" unicode="5" horiz-adv-x="606" 
d="M453 236c0 114 -79 165 -155 165c-71 0 -120 -39 -136 -78l-101 6l48 396h424v-95h-339l-24 -194c37 33 91 50 153 50c126 0 239 -87 239 -249c0 -164 -124 -250 -263 -250c-168 0 -249 108 -261 229h104c12 -88 60 -145 158 -145c84 0 153 60 153 165z" />
    <glyph glyph-name="six" unicode="6" horiz-adv-x="616" 
d="M151 390c33 52 93 93 183 93c134 0 237 -99 237 -247c0 -140 -104 -249 -259 -249c-184 0 -268 134 -268 352c0 207 75 399 286 399c146 0 216 -93 228 -188h-109c-10 68 -60 105 -129 105c-106 0 -165 -106 -169 -265zM311 71c88 0 151 64 151 161
c0 98 -62 164 -150 164c-89 0 -151 -66 -151 -164s61 -161 150 -161z" />
    <glyph glyph-name="seven" unicode="7" horiz-adv-x="506" 
d="M4 725h511v-95c-181 -159 -287 -361 -303 -630h-122c14 258 135 475 310 630h-396v95z" />
    <glyph glyph-name="eight" unicode="8" horiz-adv-x="630" 
d="M559 553c0 -61 -27 -128 -96 -167c90 -40 118 -114 118 -181c0 -140 -116 -218 -267 -218s-267 78 -267 218c0 67 29 141 119 181c-68 38 -96 106 -96 167c0 107 94 185 244 185s245 -78 245 -185zM314 655c-84 0 -141 -45 -141 -115c0 -71 57 -122 141 -122
c85 0 141 51 141 122c0 70 -56 115 -141 115zM157 207c0 -84 61 -136 157 -136s158 52 158 136c0 83 -62 138 -158 138s-157 -55 -157 -138z" />
    <glyph glyph-name="nine" unicode="9" horiz-adv-x="610" 
d="M458 335c-33 -52 -94 -93 -183 -93c-134 0 -237 99 -237 248c0 139 104 248 259 248c184 0 268 -134 268 -352c0 -207 -76 -399 -286 -399c-146 0 -216 93 -228 188h109c10 -68 59 -104 129 -104c105 0 165 105 169 264zM298 655c-89 0 -151 -64 -151 -162
s62 -164 150 -164s150 66 150 164s-60 162 -149 162z" />
    <glyph glyph-name="colon" unicode=":" horiz-adv-x="243" 
d="M59 413v125h125v-125h-125zM59 0v125h125v-125h-125z" />
    <glyph glyph-name="semicolon" unicode=";" horiz-adv-x="245" 
d="M59 413v125h125v-125h-125zM59 125h125v-134l-65 -139h-65l60 148h-55v125z" />
    <glyph glyph-name="less" unicode="&#x3c;" 
d="M591 537v-109l-388 -160l388 -159v-108l-513 222v89z" />
    <glyph glyph-name="equal" unicode="=" 
d="M88 325v97h503v-97h-503zM88 121v96h503v-96h-503z" />
    <glyph glyph-name="greater" unicode="&#x3e;" 
d="M601 223l-514 -222v108l389 159l-389 160v109l514 -225v-89z" />
    <glyph glyph-name="question" unicode="?" horiz-adv-x="506" 
d="M494 561c0 -94 -66 -160 -131 -201c-62 -39 -87 -58 -87 -118v-31h-105v34c0 88 40 128 118 177c55 34 97 72 97 134c0 60 -54 96 -125 96c-101 0 -142 -66 -146 -137h-104c1 136 106 223 252 223c116 0 231 -55 231 -177zM162 0v125h125v-125h-125z" />
    <glyph glyph-name="at" unicode="@" horiz-adv-x="838" 
d="M505 245c-31 -58 -80 -89 -149 -89c-81 0 -152 55 -152 180c0 116 78 231 206 231c55 0 97 -30 115 -76c2 9 6 50 8 59h71l-29 -218c-2 -16 -5 -37 -3 -54c3 -33 15 -53 45 -53c51 0 95 66 95 177c0 166 -114 253 -278 253c-185 0 -311 -133 -311 -309
c0 -166 106 -284 274 -284c65 0 133 13 192 43l28 -69c-69 -33 -149 -49 -220 -49c-210 0 -354 152 -354 362c0 214 170 376 393 376c193 0 353 -100 353 -319c0 -163 -88 -253 -178 -253c-53 0 -98 32 -106 92zM292 334c0 -70 30 -104 83 -104c79 0 123 76 123 164
c0 62 -32 97 -87 97c-74 0 -119 -74 -119 -157z" />
    <glyph glyph-name="A" unicode="A" horiz-adv-x="668" 
d="M269 725h126l273 -725h-124l-57 159h-315l-56 -159h-116zM206 255h246l-124 346z" />
    <glyph glyph-name="B" unicode="B" horiz-adv-x="670" 
d="M80 725h267c133 0 257 -35 257 -182c0 -68 -33 -130 -80 -157c65 -29 109 -79 109 -172c0 -154 -118 -214 -265 -214h-288v725zM194 418h167c78 0 128 33 128 111c0 69 -52 102 -128 102h-167v-213zM194 94h177c97 0 145 43 145 120c0 80 -48 116 -151 116h-171v-236z
" />
    <glyph glyph-name="C" unicode="C" horiz-adv-x="726" 
d="M693 236c-31 -161 -152 -249 -313 -249c-210 0 -332 154 -332 377c0 227 131 374 339 374c155 0 273 -90 303 -249h-110c-22 94 -92 154 -198 154c-122 0 -217 -97 -217 -279c0 -179 92 -282 218 -282c107 0 178 58 200 154h110z" />
    <glyph glyph-name="D" unicode="D" horiz-adv-x="725" 
d="M278 725c230 0 400 -83 400 -362c0 -280 -170 -363 -400 -363h-198v725h198zM273 631h-79v-537h79c145 0 287 30 287 269c0 238 -142 268 -287 268z" />
    <glyph glyph-name="E" unicode="E" horiz-adv-x="614" 
d="M80 725h502v-97h-388v-207h366v-96h-366v-228h388v-97h-502v725z" />
    <glyph glyph-name="F" unicode="F" horiz-adv-x="570" 
d="M80 725h488v-97h-374v-207h352v-96h-352v-325h-114v725z" />
    <glyph glyph-name="G" unicode="G" horiz-adv-x="767" 
d="M693 505h-110c-24 85 -91 138 -197 138c-126 0 -221 -95 -221 -279c0 -179 89 -282 220 -282c92 0 205 39 205 179v16h-189v97h295v-374h-89l-5 89c-45 -69 -127 -102 -225 -102c-208 0 -329 154 -329 377c0 225 133 374 342 374c156 0 273 -86 303 -233z" />
    <glyph glyph-name="H" unicode="H" horiz-adv-x="752" 
d="M672 725v-725h-114v325h-364v-325h-114v725h114v-304h364v304h114z" />
    <glyph glyph-name="I" unicode="I" horiz-adv-x="274" 
d="M194 0h-114v725h114v-725z" />
    <glyph glyph-name="J" unicode="J" horiz-adv-x="566" 
d="M11 234h110c0 -101 53 -154 128 -154c67 0 123 41 123 158v487h114v-488c0 -157 -87 -250 -237 -250c-151 0 -238 90 -238 247z" />
    <glyph glyph-name="K" unicode="K" horiz-adv-x="670" 
d="M194 370l318 355h138l-270 -296l298 -429h-135l-239 346l-110 -121v-225h-114v725h114v-355z" />
    <glyph glyph-name="L" unicode="L" horiz-adv-x="568" 
d="M194 97h374v-97h-488v725h114v-628z" />
    <glyph glyph-name="M" unicode="M" horiz-adv-x="887" 
d="M385 0l-193 610v-610h-112v725h183l181 -592l181 592h183v-725h-112v610l-193 -610h-118z" />
    <glyph glyph-name="N" unicode="N" horiz-adv-x="751" 
d="M512 0l-320 600v-600h-112v725h159l320 -599v599h112v-725h-159z" />
    <glyph glyph-name="O" unicode="O" horiz-adv-x="781" 
d="M391 -13c-211 0 -343 155 -343 376s132 375 343 375c210 0 342 -154 342 -375s-132 -376 -342 -376zM391 82c126 0 225 99 225 281s-99 280 -225 280c-127 0 -226 -98 -226 -280s99 -281 226 -281z" />
    <glyph glyph-name="P" unicode="P" horiz-adv-x="634" 
d="M313 725c168 0 304 -33 304 -223c0 -182 -129 -221 -304 -221h-119v-281h-114v725h233zM194 631v-254h126c101 0 179 12 179 124c0 118 -84 130 -182 130h-123z" />
    <glyph glyph-name="Q" unicode="Q" horiz-adv-x="781" 
d="M637 88l85 -93l-69 -64l-90 98c-49 -27 -107 -42 -172 -42c-211 0 -343 155 -343 376s132 375 343 375c210 0 342 -154 342 -375c0 -113 -35 -209 -96 -275zM391 82c36 0 71 8 101 25l-63 69l69 64l64 -71c34 47 54 112 54 194c0 182 -99 280 -225 280
c-127 0 -226 -98 -226 -280s99 -281 226 -281z" />
    <glyph glyph-name="R" unicode="R" horiz-adv-x="679" 
d="M366 306c-15 -1 -31 -1 -47 -1h-125v-305h-114v725h230c195 0 312 -41 312 -209c0 -104 -50 -163 -140 -191l167 -325h-128zM194 631v-233h131c107 0 180 16 180 116c0 104 -79 117 -182 117h-129z" />
    <glyph glyph-name="S" unicode="S" horiz-adv-x="644" 
d="M255 336c-103 21 -201 79 -201 201c0 137 143 201 265 201c133 0 248 -61 276 -207h-110c-23 86 -102 112 -171 112c-53 0 -144 -25 -144 -101c0 -60 48 -91 110 -104l86 -18c116 -24 243 -68 243 -214c0 -144 -138 -219 -279 -219c-168 0 -281 93 -298 245h112
c21 -99 88 -150 190 -150c94 0 160 45 160 115c0 75 -72 105 -150 121z" />
    <glyph glyph-name="T" unicode="T" horiz-adv-x="583" 
d="M235 628h-233v97h579v-97h-232v-628h-114v628z" />
    <glyph glyph-name="U" unicode="U" horiz-adv-x="724" 
d="M183 725v-435c0 -137 43 -207 179 -207s180 77 180 215v427h114v-421c0 -220 -83 -317 -294 -317c-205 0 -293 82 -293 311v427h114z" />
    <glyph glyph-name="V" unicode="V" horiz-adv-x="638" 
d="M131 725l193 -598l188 598h120l-247 -725h-129l-250 725h125z" />
    <glyph glyph-name="W" unicode="W" horiz-adv-x="910" 
d="M656 139l122 586h120l-175 -725h-137l-131 577l-129 -577h-137l-178 725h125l128 -586l125 586h133z" />
    <glyph glyph-name="X" unicode="X" horiz-adv-x="659" 
d="M263 372l-250 353h136l182 -258l186 258h129l-250 -348l268 -377h-136l-201 282l-203 -282h-129z" />
    <glyph glyph-name="Y" unicode="Y" horiz-adv-x="633" 
d="M125 725l190 -340l194 340h126l-266 -444v-281h-114v283l-257 442h127z" />
    <glyph glyph-name="Z" unicode="Z" horiz-adv-x="630" 
d="M588 630l-416 -531h430v-99h-567v95l417 531h-385v99h521v-95z" />
    <glyph glyph-name="bracketleft" unicode="[" horiz-adv-x="322" 
d="M310 725v-84h-136v-732h136v-84h-234v900h234z" />
    <glyph glyph-name="backslash" unicode="\" horiz-adv-x="381" 
d="M384 0h-103l-283 725h102z" />
    <glyph glyph-name="bracketright" unicode="]" horiz-adv-x="322" 
d="M246 725v-900h-234v84h137v732h-137v84h234z" />
    <glyph glyph-name="asciicircum" unicode="^" horiz-adv-x="474" 
d="M483 338h-109l-139 266l-137 -266h-108l201 387h88z" />
    <glyph glyph-name="underscore" unicode="_" horiz-adv-x="468" 
d="M29 -96v96h409v-96h-409z" />
    <glyph glyph-name="grave" unicode="`" horiz-adv-x="264" 
d="M22 725h128l92 -116h-84z" />
    <glyph glyph-name="a" unicode="a" horiz-adv-x="564" 
d="M38 145c0 131 154 166 363 188v11c0 95 -50 127 -116 127c-72 0 -113 -37 -117 -103h-105c9 114 103 183 226 183c139 0 219 -67 217 -228c0 -13 -2 -106 -2 -129c0 -80 5 -146 15 -194h-100c-4 21 -7 37 -9 71c-32 -54 -93 -84 -180 -84c-109 0 -192 60 -192 158z
M406 256c-167 -16 -255 -39 -255 -109c0 -49 39 -80 102 -80c86 0 153 43 153 150v39z" />
    <glyph glyph-name="b" unicode="b" horiz-adv-x="607" 
d="M174 725v-266c33 55 89 89 168 89c125 0 232 -105 232 -280c0 -176 -107 -281 -232 -281c-79 0 -135 34 -168 89v-76h-104v725h104zM318 74c86 0 145 73 145 194s-59 193 -145 193c-80 0 -148 -60 -148 -193s68 -194 148 -194z" />
    <glyph glyph-name="c" unicode="c" horiz-adv-x="559" 
d="M526 356h-104c-11 61 -66 103 -134 103c-75 0 -144 -59 -144 -190c0 -133 70 -193 144 -193c66 0 124 39 138 103h105c-21 -113 -126 -192 -245 -192c-155 0 -253 119 -253 281c0 160 101 280 260 280c123 0 217 -87 233 -192z" />
    <glyph glyph-name="d" unicode="d" horiz-adv-x="607" 
d="M433 725h104v-725h-104v76c-33 -55 -89 -89 -168 -89c-125 0 -232 105 -232 281c0 175 107 280 232 280c79 0 135 -34 168 -89v266zM289 461c-86 0 -145 -72 -145 -193s59 -194 145 -194c80 0 148 61 148 194s-68 193 -148 193z" />
    <glyph glyph-name="e" unicode="e" horiz-adv-x="582" 
d="M438 158h105c-25 -89 -105 -171 -242 -171c-174 0 -268 127 -268 283c0 167 112 278 265 278c166 0 263 -136 252 -311h-410c10 -99 73 -161 157 -161c75 0 119 31 141 82zM142 319h300c-3 80 -59 144 -145 144c-81 0 -141 -42 -155 -144z" />
    <glyph glyph-name="f" unicode="f" horiz-adv-x="318" 
d="M89 574c0 119 35 151 161 151h47v-83h-40c-53 0 -64 -11 -64 -67v-37h104v-79h-104v-459h-104v459h-75v79h75v36z" />
    <glyph glyph-name="g" unicode="g" horiz-adv-x="601" 
d="M428 538h104v-475c0 -99 -21 -152 -58 -189c-41 -43 -106 -65 -188 -65c-120 0 -208 52 -225 165h107c11 -49 42 -78 120 -78c51 0 86 14 108 39c21 23 32 51 32 106v57c-33 -55 -87 -89 -166 -89c-125 0 -229 99 -229 270c0 170 104 269 229 269c79 0 133 -34 166 -89
v79zM286 462c-86 0 -142 -68 -142 -183c0 -117 56 -185 142 -185c80 0 146 56 146 185c0 128 -66 183 -146 183z" />
    <glyph glyph-name="h" unicode="h" horiz-adv-x="583" 
d="M174 460c31 53 85 88 169 88c130 0 180 -84 180 -209v-339h-104v311c0 78 -13 150 -111 150c-90 0 -134 -65 -134 -172v-289h-104v725h104v-265z" />
    <glyph glyph-name="i" unicode="i" horiz-adv-x="244" 
d="M174 725v-115h-104v115h104zM174 538v-538h-104v538h104z" />
    <glyph glyph-name="j" unicode="j" horiz-adv-x="244" 
d="M174 725v-115h-104v115h104zM70 538h104v-556c0 -123 -28 -157 -141 -157h-43v84h24c48 0 56 13 56 70v559z" />
    <glyph glyph-name="k" unicode="k" horiz-adv-x="519" 
d="M174 725v-417l214 230h127l-209 -222l224 -316h-124l-171 241l-61 -65v-176h-104v725h104z" />
    <glyph glyph-name="l" unicode="l" horiz-adv-x="244" 
d="M174 0h-104v725h104v-725z" />
    <glyph glyph-name="m" unicode="m" horiz-adv-x="903" 
d="M174 0h-104v538h104v-78c31 53 82 88 159 88c83 0 132 -35 156 -95c45 67 108 95 178 95c126 0 175 -84 175 -209v-339h-104v311c0 78 -12 150 -106 150c-82 0 -124 -65 -124 -172v-289h-104v311c0 78 -12 150 -106 150c-83 0 -124 -65 -124 -172v-289z" />
    <glyph glyph-name="n" unicode="n" horiz-adv-x="583" 
d="M174 460c31 53 85 88 169 88c130 0 180 -84 180 -209v-339h-104v311c0 78 -13 150 -111 150c-90 0 -134 -65 -134 -172v-289h-104v538h104v-78z" />
    <glyph glyph-name="o" unicode="o" horiz-adv-x="591" 
d="M557 267c0 -194 -134 -280 -262 -280c-127 0 -261 86 -261 280c0 195 134 281 261 281c128 0 262 -86 262 -281zM295 75c79 0 152 61 152 192c0 134 -73 193 -152 193c-78 0 -151 -57 -151 -193c0 -133 73 -192 151 -192z" />
    <glyph glyph-name="p" unicode="p" horiz-adv-x="607" 
d="M174 538v-79c33 55 89 89 168 89c125 0 232 -105 232 -280c0 -176 -107 -281 -232 -281c-79 0 -135 34 -168 89v-251h-104v713h104zM318 74c86 0 145 73 145 194s-59 193 -145 193c-80 0 -148 -60 -148 -193s68 -194 148 -194z" />
    <glyph glyph-name="q" unicode="q" horiz-adv-x="607" 
d="M433 538h104v-713h-104v251c-33 -55 -89 -89 -168 -89c-125 0 -232 105 -232 281c0 175 107 280 232 280c79 0 135 -34 168 -89v79zM289 461c-86 0 -145 -72 -145 -193s59 -194 145 -194c80 0 148 61 148 194s-68 193 -148 193z" />
    <glyph glyph-name="r" unicode="r" horiz-adv-x="362" 
d="M350 431c-19 2 -37 3 -54 3c-80 0 -122 -39 -122 -152v-282h-104v538h102v-95c28 61 82 96 149 97c9 0 20 0 29 -1v-108z" />
    <glyph glyph-name="s" unicode="s" horiz-adv-x="525" 
d="M376 388c-15 55 -61 77 -122 77c-51 0 -106 -21 -106 -65c0 -40 26 -57 75 -67l77 -15c102 -20 191 -55 191 -160c0 -109 -102 -171 -226 -171c-136 0 -219 79 -232 180h106c14 -61 54 -97 129 -97c67 0 119 28 119 76c0 50 -47 70 -103 81l-81 16
c-81 16 -157 52 -157 153c0 95 100 153 218 153c108 0 195 -57 215 -161h-103z" />
    <glyph glyph-name="t" unicode="t" horiz-adv-x="332" 
d="M91 676h104v-138h106v-79h-106v-307c0 -55 9 -69 61 -69h44v-83h-76c-109 0 -133 27 -133 138v321h-82v79h82v138z" />
    <glyph glyph-name="u" unicode="u" horiz-adv-x="576" 
d="M402 76c-31 -54 -83 -89 -164 -89c-127 0 -176 79 -176 209v342h104v-314c0 -78 13 -149 107 -149c87 0 130 65 130 171v292h104v-538h-105v76z" />
    <glyph glyph-name="v" unicode="v" horiz-adv-x="494" 
d="M251 139l135 399h108l-199 -538h-95l-200 538h115z" />
    <glyph glyph-name="w" unicode="w" horiz-adv-x="727" 
d="M309 538h108l100 -390l92 390h113l-150 -538h-97l-113 416l-110 -416h-98l-149 538h113l91 -390z" />
    <glyph glyph-name="x" unicode="x" horiz-adv-x="527" 
d="M322 281l199 -281h-124l-137 194l-137 -194h-117l197 275l-185 263h123l124 -176l126 176h115z" />
    <glyph glyph-name="y" unicode="y" horiz-adv-x="480" 
d="M43 -175v83h41c56 0 80 4 106 81l4 12l-194 537h115l130 -401l127 401h108l-190 -550c-44 -127 -76 -163 -197 -163h-50z" />
    <glyph glyph-name="z" unicode="z" horiz-adv-x="491" 
d="M30 85l300 368h-280v85h406v-85l-300 -368h306v-85h-432v85z" />
    <glyph glyph-name="braceleft" unicode="{" horiz-adv-x="301" 
d="M84 -20v151c0 62 -9 103 -76 103v83c67 0 76 41 76 103v150c0 119 35 155 161 155h44v-87h-37c-54 0 -65 -15 -65 -70v-155c0 -92 -32 -122 -85 -136v-3c53 -14 85 -44 85 -136v-156c0 -55 11 -71 65 -71h37v-86h-44c-126 0 -161 36 -161 155z" />
    <glyph glyph-name="bar" unicode="|" horiz-adv-x="252" 
d="M172 725v-815h-92v815h92z" />
    <glyph glyph-name="braceright" unicode="}" horiz-adv-x="301" 
d="M12 -89h37c54 0 66 16 66 71v156c0 92 32 122 84 136v3c-52 14 -84 44 -84 136v155c0 55 -12 70 -66 70h-37v87h44c126 0 161 -36 161 -155v-150c0 -62 10 -103 77 -103v-83c-67 0 -77 -41 -77 -103v-151c0 -119 -35 -155 -161 -155h-44v86z" />
    <glyph glyph-name="asciitilde" unicode="~" 
d="M511 356h89c-5 -95 -59 -159 -153 -159c-79 0 -148 68 -214 68c-37 0 -63 -21 -66 -68h-89c5 96 59 159 153 159c92 0 156 -69 215 -69c35 0 62 23 65 69z" />
    <glyph glyph-name="uni00A0" unicode="&#xa0;" horiz-adv-x="234" 
 />
    <glyph glyph-name="exclamdown" unicode="&#xa1;" horiz-adv-x="243" 
d="M59 413v125h125v-125h-125zM175 -175h-108v198l21 303h67l20 -303v-198z" />
    <glyph glyph-name="cent" unicode="&#xa2;" horiz-adv-x="551" 
d="M307 626v-78c119 -7 199 -91 215 -192h-104c-10 55 -51 95 -111 102v-381c60 7 103 44 115 102h105c-20 -106 -107 -181 -220 -191v-83h-47v83c-143 12 -227 126 -227 280c0 149 84 264 227 278v80h47zM260 78v378c-67 -12 -116 -71 -116 -187c0 -117 50 -178 116 -191z
" />
    <glyph glyph-name="sterling" unicode="&#xa3;" horiz-adv-x="575" 
d="M169 551c0 -52 27 -103 53 -155h185v-67h-155c7 -23 13 -46 13 -68c0 -74 -50 -130 -101 -163l1 -2c23 9 44 14 67 14c55 0 99 -35 167 -35c41 0 83 12 123 28l31 -83c-32 -18 -93 -36 -147 -36c-73 0 -131 41 -208 41c-41 0 -94 -14 -142 -41l-36 80
c55 25 138 82 138 185c0 27 -7 54 -17 80h-123v67h91c-25 50 -50 100 -50 159c0 132 126 183 245 183c159 0 251 -96 249 -239h-106c-1 116 -65 155 -146 155c-63 0 -132 -29 -132 -103z" />
    <glyph glyph-name="currency" unicode="&#xa4;" horiz-adv-x="636" 
d="M123 485l-69 70l49 49l68 -68c40 31 90 49 144 49c56 0 107 -19 147 -51l71 70l49 -49l-72 -72c27 -39 44 -86 44 -137s-16 -98 -44 -137l72 -71l-49 -49l-71 70c-41 -31 -92 -49 -147 -49c-54 0 -103 18 -143 48l-69 -69l-49 49l69 70c-28 39 -44 86 -44 138
s16 100 44 139zM314 193c89 0 151 68 151 153c0 88 -62 157 -151 157c-84 0 -144 -69 -144 -157c0 -85 60 -153 144 -153z" />
    <glyph glyph-name="yen" unicode="&#xa5;" horiz-adv-x="623" 
d="M360 104v-104h-106v104h-168v71h168v77h-168v71h139l-229 402h123l192 -361l194 361h122l-236 -402h145v-71h-176v-77h176v-71h-176z" />
    <glyph glyph-name="brokenbar" unicode="&#xa6;" horiz-adv-x="231" 
d="M162 725v-305h-92v305h92zM162 215v-305h-92v305h92z" />
    <glyph glyph-name="section" unicode="&#xa7;" horiz-adv-x="589" 
d="M395 -33c0 41 -20 66 -95 106l-128 68c-82 42 -136 97 -136 174c0 68 53 119 121 145c-40 29 -72 73 -72 132c0 97 101 146 201 146c122 0 202 -66 217 -168h-104c-11 58 -57 85 -116 85c-57 0 -94 -23 -94 -58s22 -58 79 -88l137 -73c89 -47 150 -92 150 -173
c0 -70 -50 -126 -122 -157c40 -33 67 -71 67 -125c0 -109 -96 -170 -210 -170c-128 0 -215 75 -223 195h103c10 -70 46 -112 123 -112c59 0 102 26 102 73zM234 415c-48 -15 -97 -46 -97 -91c0 -40 24 -66 78 -94l136 -72l10 -6c46 19 90 51 90 94s-32 72 -101 108z" />
    <glyph glyph-name="dieresis" unicode="&#xa8;" horiz-adv-x="375" 
d="M22 725h98v-105h-98v105zM353 725v-105h-99v105h99z" />
    <glyph glyph-name="copyright" unicode="&#xa9;" horiz-adv-x="825" 
d="M413 738c207 0 374 -153 374 -377c0 -222 -167 -374 -374 -374c-208 0 -375 152 -375 374c0 224 167 377 375 377zM413 56c171 0 298 124 298 305c0 184 -127 307 -298 307c-168 0 -298 -123 -298 -307c0 -181 130 -305 298 -305zM512 307l84 -21
c-22 -69 -85 -125 -184 -125c-123 0 -192 81 -192 208c0 126 76 205 195 205c96 0 159 -57 178 -133l-83 -23c-12 54 -49 85 -98 85c-58 0 -102 -44 -102 -134c0 -91 43 -137 102 -137c45 0 86 20 100 75z" />
    <glyph glyph-name="ordfeminine" unicode="&#xaa;" horiz-adv-x="348" 
d="M28 519c0 78 90 99 201 108v11c0 43 -24 56 -59 56c-30 0 -55 -15 -58 -49h-75c4 60 56 106 139 106c77 0 133 -31 132 -130c0 -13 -1 -55 -1 -80c0 -45 2 -80 6 -103h-75c0 13 -1 26 -1 40c-20 -34 -61 -47 -101 -47c-64 0 -108 35 -108 88zM230 575
c-84 -9 -120 -19 -120 -52c0 -22 20 -35 45 -35c51 0 75 29 75 76v11z" />
    <glyph glyph-name="guillemotleft" unicode="&#xab;" horiz-adv-x="529" 
d="M13 273l159 228h106l-143 -228l143 -229h-106zM237 273l159 228h106l-143 -228l143 -229h-106z" />
    <glyph glyph-name="logicalnot" unicode="&#xac;" 
d="M63 333v97h531v-333h-101v236h-430z" />
    <glyph glyph-name="uni00AD" unicode="&#xad;" horiz-adv-x="413" 
d="M45 224v96h322v-96h-322z" />
    <glyph glyph-name="registered" unicode="&#xae;" horiz-adv-x="825" 
d="M413 738c207 0 374 -153 374 -377c0 -222 -167 -374 -374 -374c-208 0 -375 152 -375 374c0 224 167 377 375 377zM413 56c171 0 298 124 298 305c0 184 -127 307 -298 307c-168 0 -298 -123 -298 -307c0 -181 130 -305 298 -305zM420 325h-71v-149h-89v399h133
c114 0 186 -22 186 -126c0 -49 -24 -86 -72 -107l94 -166h-99zM410 504h-61v-110h64c55 0 77 19 77 54c0 40 -31 56 -80 56z" />
    <glyph glyph-name="macron" unicode="&#xaf;" horiz-adv-x="348" 
d="M22 632v81h304v-81h-304z" />
    <glyph glyph-name="degree" unicode="&#xb0;" horiz-adv-x="337" 
d="M168 738c84 0 152 -67 152 -151c0 -83 -68 -151 -152 -151c-82 0 -150 68 -150 151c0 84 68 151 150 151zM168 508c44 0 76 36 76 79c0 44 -32 79 -76 79c-43 0 -73 -35 -73 -79c0 -43 30 -79 73 -79z" />
    <glyph glyph-name="plusminus" unicode="&#xb1;" 
d="M288 531h102v-146h215v-97h-215v-148h-102v148h-215v97h215v146zM73 0v96h532v-96h-532z" />
    <glyph glyph-name="uni00B2" unicode="&#xb2;" horiz-adv-x="351" 
d="M318 743c0 -82 -75 -157 -200 -238h206v-67h-303v65c126 98 215 168 215 235c0 37 -25 56 -60 56c-36 0 -70 -21 -69 -84h-79c-2 87 59 143 151 143c80 0 139 -40 139 -110z" />
    <glyph glyph-name="uni00B3" unicode="&#xb3;" horiz-adv-x="366" 
d="M257 554c0 45 -38 63 -95 63h-24v64h20c59 0 90 20 90 59c0 36 -32 54 -65 54c-44 0 -72 -24 -78 -70h-77c7 83 70 129 160 129c69 0 141 -32 141 -109c0 -40 -26 -73 -57 -90c43 -18 66 -58 66 -99c0 -84 -74 -124 -158 -124c-90 0 -150 55 -157 136h77
c7 -44 35 -77 82 -77c43 0 75 24 75 64z" />
    <glyph glyph-name="acute" unicode="&#xb4;" horiz-adv-x="263" 
d="M105 609h-83l91 116h128z" />
    <glyph glyph-name="paragraph" unicode="&#xb6;" horiz-adv-x="516" 
d="M237 725h210v-814h-78v742h-118v-742h-78v456c-84 9 -173 59 -173 175c0 114 83 183 237 183z" />
    <glyph glyph-name="periodcentered" unicode="&#xb7;" horiz-adv-x="243" 
d="M59 207v125h125v-125h-125z" />
    <glyph glyph-name="cedilla" unicode="&#xb8;" horiz-adv-x="248" 
d="M38 -135c17 -8 39 -14 58 -14c29 0 60 8 60 31c0 20 -19 30 -43 30c-11 0 -28 -2 -38 -9l-30 17l51 83h53l-32 -51c11 2 21 3 32 3c47 0 77 -27 77 -68c0 -53 -57 -82 -110 -82c-28 0 -61 3 -94 19z" />
    <glyph glyph-name="uni00B9" unicode="&#xb9;" horiz-adv-x="236" 
d="M102 438v297h-90v56c61 2 90 11 109 55h61v-408h-80z" />
    <glyph glyph-name="ordmasculine" unicode="&#xba;" horiz-adv-x="359" 
d="M28 589c0 109 73 159 152 159c80 0 153 -50 153 -159s-73 -158 -153 -158c-79 0 -152 49 -152 158zM180 493c43 0 72 31 72 96c0 66 -29 97 -72 97c-41 0 -71 -32 -71 -97c0 -64 29 -96 71 -96z" />
    <glyph glyph-name="guillemotright" unicode="&#xbb;" horiz-adv-x="528" 
d="M132 44h-105l143 229l-143 228h105l159 -228zM356 44h-105l143 229l-143 228h105l159 -228z" />
    <glyph glyph-name="onequarter" unicode="&#xbc;" horiz-adv-x="828" 
d="M102 317v297h-90v56c61 2 90 11 109 55h61v-408h-80zM36 0l500 725h113l-500 -725h-113zM812 93h-66v-93h-80v93h-201v62l203 253h78v-248h66v-67zM552 160h114v145z" />
    <glyph glyph-name="onehalf" unicode="&#xbd;" horiz-adv-x="800" 
d="M102 317v297h-90v56c61 2 90 11 109 55h61v-408h-80zM36 0l500 725h113l-500 -725h-113zM767 305c0 -82 -75 -157 -200 -238h206v-67h-303v65c126 98 215 168 215 235c0 37 -25 56 -60 56c-36 0 -70 -21 -69 -84h-79c-2 87 59 143 151 143c80 0 139 -40 139 -110z" />
    <glyph glyph-name="threequarters" unicode="&#xbe;" horiz-adv-x="958" 
d="M257 433c0 45 -38 63 -95 63h-24v64h20c59 0 90 20 90 59c0 36 -32 54 -65 54c-44 0 -72 -24 -78 -70h-77c7 83 70 129 160 129c69 0 141 -32 141 -109c0 -40 -26 -73 -57 -90c43 -18 66 -58 66 -99c0 -84 -74 -124 -158 -124c-90 0 -150 55 -157 136h77
c7 -44 35 -77 82 -77c43 0 75 24 75 64zM166 0l500 725h113l-500 -725h-113zM942 93h-66v-93h-80v93h-201v62l203 253h78v-248h66v-67zM682 160h114v145z" />
    <glyph glyph-name="questiondown" unicode="&#xbf;" horiz-adv-x="506" 
d="M217 413v125h125v-125h-125zM12 -12c0 94 68 148 128 191c50 34 88 55 88 117v31h105v-34c0 -95 -57 -130 -118 -173c-51 -34 -95 -65 -95 -128c0 -59 55 -94 127 -94c98 0 139 68 142 136h103c0 -134 -107 -223 -250 -223c-115 0 -230 54 -230 177z" />
    <glyph glyph-name="Agrave" unicode="&#xc0;" horiz-adv-x="668" 
d="M134 886h140l109 -113h-93zM269 725h126l273 -725h-124l-57 159h-315l-56 -159h-116zM206 255h246l-124 346z" />
    <glyph glyph-name="Aacute" unicode="&#xc1;" horiz-adv-x="668" 
d="M382 773h-97l108 113h141zM269 725h126l273 -725h-124l-57 159h-315l-56 -159h-116zM206 255h246l-124 346z" />
    <glyph glyph-name="Acircumflex" unicode="&#xc2;" horiz-adv-x="668" 
d="M515 773h-114l-67 54l-68 -54h-114l136 113h94zM269 725h126l273 -725h-124l-57 159h-315l-56 -159h-116zM206 255h246l-124 346z" />
    <glyph glyph-name="Atilde" unicode="&#xc3;" horiz-adv-x="668" 
d="M446 885h77c-15 -90 -73 -113 -122 -113c-61 0 -91 44 -132 44c-27 0 -43 -14 -46 -42h-78c14 86 69 113 121 113c62 0 87 -44 131 -44c27 0 44 14 49 42zM269 725h126l273 -725h-124l-57 159h-315l-56 -159h-116zM206 255h246l-124 346z" />
    <glyph glyph-name="Adieresis" unicode="&#xc4;" horiz-adv-x="668" 
d="M267 881v-103h-98v103h98zM500 881v-103h-99v103h99zM269 725h126l273 -725h-124l-57 159h-315l-56 -159h-116zM206 255h246l-124 346z" />
    <glyph glyph-name="Aring" unicode="&#xc5;" horiz-adv-x="668" 
d="M425 850c0 -49 -40 -85 -91 -85c-50 0 -90 36 -90 85c0 50 41 85 90 85c50 0 91 -35 91 -85zM291 850c0 -25 21 -42 43 -42c23 0 43 17 43 42s-20 43 -43 43c-22 0 -43 -18 -43 -43zM269 725h126l273 -725h-124l-57 159h-315l-56 -159h-116zM206 255h246l-124 346z" />
    <glyph glyph-name="AE" unicode="&#xc6;" horiz-adv-x="1033" 
d="M1004 725v-97h-388v-207h366v-96h-366v-228h388v-97h-502v153h-285l-106 -153h-123l514 725h502zM284 250h218v311z" />
    <glyph glyph-name="Ccedilla" unicode="&#xc7;" horiz-adv-x="726" 
d="M285 -135c17 -8 39 -14 58 -14c29 0 60 8 60 31c0 20 -19 30 -43 30c-11 0 -28 -2 -38 -9l-30 17l42 70c-182 20 -286 167 -286 374c0 227 131 374 339 374c155 0 273 -90 303 -249h-110c-22 94 -92 154 -198 154c-122 0 -217 -97 -217 -279c0 -179 92 -282 218 -282
c107 0 178 58 200 154h110c-31 -159 -149 -247 -307 -249l-22 -35c11 2 21 3 32 3c47 0 77 -27 77 -68c0 -53 -57 -82 -110 -82c-28 0 -61 3 -94 19z" />
    <glyph glyph-name="Egrave" unicode="&#xc8;" horiz-adv-x="614" 
d="M156 886h140l109 -113h-93zM80 725h502v-97h-388v-207h366v-96h-366v-228h388v-97h-502v725z" />
    <glyph glyph-name="Eacute" unicode="&#xc9;" horiz-adv-x="614" 
d="M374 773h-97l108 113h141zM80 725h502v-97h-388v-207h366v-96h-366v-228h388v-97h-502v725z" />
    <glyph glyph-name="Ecircumflex" unicode="&#xca;" horiz-adv-x="614" 
d="M520 773h-114l-67 54l-68 -54h-114l136 113h94zM80 725h502v-97h-388v-207h366v-96h-366v-228h388v-97h-502v725z" />
    <glyph glyph-name="Edieresis" unicode="&#xcb;" horiz-adv-x="614" 
d="M269 881v-103h-98v103h98zM502 881v-103h-99v103h99zM80 725h502v-97h-388v-207h366v-96h-366v-228h388v-97h-502v725z" />
    <glyph glyph-name="Igrave" unicode="&#xcc;" horiz-adv-x="274" 
d="M-63 886h140l109 -113h-93zM194 0h-114v725h114v-725z" />
    <glyph glyph-name="Iacute" unicode="&#xcd;" horiz-adv-x="274" 
d="M185 773h-97l108 113h141zM194 0h-114v725h114v-725z" />
    <glyph glyph-name="Icircumflex" unicode="&#xce;" horiz-adv-x="274" 
d="M318 773h-114l-67 54l-68 -54h-114l136 113h94zM194 0h-114v725h114v-725z" />
    <glyph glyph-name="Idieresis" unicode="&#xcf;" horiz-adv-x="274" 
d="M70 881v-103h-98v103h98zM303 881v-103h-99v103h99zM194 0h-114v725h114v-725z" />
    <glyph glyph-name="Eth" unicode="&#xd0;" horiz-adv-x="734" 
d="M287 725c230 0 400 -83 400 -362c0 -280 -170 -363 -400 -363h-198v319h-73v97h73v309h198zM283 631h-80v-215h147v-97h-147v-225h80c145 0 287 30 287 269c0 238 -142 268 -287 268z" />
    <glyph glyph-name="Ntilde" unicode="&#xd1;" horiz-adv-x="751" 
d="M507 885h77c-15 -90 -73 -113 -122 -113c-61 0 -91 44 -132 44c-27 0 -43 -14 -46 -42h-78c14 86 69 113 121 113c62 0 87 -44 131 -44c27 0 44 14 49 42zM512 0l-320 600v-600h-112v725h159l320 -599v599h112v-725h-159z" />
    <glyph glyph-name="Ograve" unicode="&#xd2;" horiz-adv-x="781" 
d="M191 886h140l109 -113h-93zM391 -13c-211 0 -343 155 -343 376s132 375 343 375c210 0 342 -154 342 -375s-132 -376 -342 -376zM391 82c126 0 225 99 225 281s-99 280 -225 280c-127 0 -226 -98 -226 -280s99 -281 226 -281z" />
    <glyph glyph-name="Oacute" unicode="&#xd3;" horiz-adv-x="781" 
d="M439 773h-97l108 113h141zM391 -13c-211 0 -343 155 -343 376s132 375 343 375c210 0 342 -154 342 -375s-132 -376 -342 -376zM391 82c126 0 225 99 225 281s-99 280 -225 280c-127 0 -226 -98 -226 -280s99 -281 226 -281z" />
    <glyph glyph-name="Ocircumflex" unicode="&#xd4;" horiz-adv-x="781" 
d="M572 773h-114l-67 54l-68 -54h-114l136 113h94zM391 -13c-211 0 -343 155 -343 376s132 375 343 375c210 0 342 -154 342 -375s-132 -376 -342 -376zM391 82c126 0 225 99 225 281s-99 280 -225 280c-127 0 -226 -98 -226 -280s99 -281 226 -281z" />
    <glyph glyph-name="Otilde" unicode="&#xd5;" horiz-adv-x="781" 
d="M503 885h77c-15 -90 -73 -113 -122 -113c-61 0 -91 44 -132 44c-27 0 -43 -14 -46 -42h-78c14 86 69 113 121 113c62 0 87 -44 131 -44c27 0 44 14 49 42zM391 -13c-211 0 -343 155 -343 376s132 375 343 375c210 0 342 -154 342 -375s-132 -376 -342 -376zM391 82
c126 0 225 99 225 281s-99 280 -225 280c-127 0 -226 -98 -226 -280s99 -281 226 -281z" />
    <glyph glyph-name="Odieresis" unicode="&#xd6;" horiz-adv-x="781" 
d="M324 881v-103h-98v103h98zM557 881v-103h-99v103h99zM391 -13c-211 0 -343 155 -343 376s132 375 343 375c210 0 342 -154 342 -375s-132 -376 -342 -376zM391 82c126 0 225 99 225 281s-99 280 -225 280c-127 0 -226 -98 -226 -280s99 -281 226 -281z" />
    <glyph glyph-name="multiply" unicode="&#xd7;" 
d="M506 30l-170 170l-165 -165l-67 66l165 166l-165 165l69 69l165 -164l166 164l66 -66l-165 -166l169 -170z" />
    <glyph glyph-name="Oslash" unicode="&#xd8;" horiz-adv-x="781" 
d="M391 -13c-89 0 -163 27 -219 74l-66 -77l-44 39l68 80c-53 66 -82 156 -82 260c0 221 132 375 343 375c87 0 161 -27 218 -74l57 67l44 -38l-60 -71c53 -65 83 -155 83 -259c0 -221 -132 -376 -342 -376zM204 191l336 392c-40 39 -92 60 -149 60
c-127 0 -226 -98 -226 -280c0 -70 14 -128 39 -172zM576 535l-335 -393c39 -40 92 -60 150 -60c126 0 225 99 225 281c0 70 -15 128 -40 172z" />
    <glyph glyph-name="Ugrave" unicode="&#xd9;" horiz-adv-x="724" 
d="M176 886h140l109 -113h-93zM183 725v-435c0 -137 43 -207 179 -207s180 77 180 215v427h114v-421c0 -220 -83 -317 -294 -317c-205 0 -293 82 -293 311v427h114z" />
    <glyph glyph-name="Uacute" unicode="&#xda;" horiz-adv-x="724" 
d="M396 773h-97l108 113h141zM183 725v-435c0 -137 43 -207 179 -207s180 77 180 215v427h114v-421c0 -220 -83 -317 -294 -317c-205 0 -293 82 -293 311v427h114z" />
    <glyph glyph-name="Ucircumflex" unicode="&#xdb;" horiz-adv-x="724" 
d="M543 773h-114l-67 54l-68 -54h-114l136 113h94zM183 725v-435c0 -137 43 -207 179 -207s180 77 180 215v427h114v-421c0 -220 -83 -317 -294 -317c-205 0 -293 82 -293 311v427h114z" />
    <glyph glyph-name="Udieresis" unicode="&#xdc;" horiz-adv-x="724" 
d="M295 881v-103h-98v103h98zM528 881v-103h-99v103h99zM183 725v-435c0 -137 43 -207 179 -207s180 77 180 215v427h114v-421c0 -220 -83 -317 -294 -317c-205 0 -293 82 -293 311v427h114z" />
    <glyph glyph-name="Yacute" unicode="&#xdd;" horiz-adv-x="633" 
d="M354 773h-97l108 113h141zM125 725l190 -340l194 340h126l-266 -444v-281h-114v283l-257 442h127z" />
    <glyph glyph-name="Thorn" unicode="&#xde;" horiz-adv-x="620" 
d="M299 602c168 0 304 -38 304 -229c0 -181 -130 -226 -303 -226h-105v-147h-115v725h115v-123h104zM195 504v-260h111c101 0 180 17 180 128c0 119 -85 132 -183 132h-108z" />
    <glyph glyph-name="germandbls" unicode="&#xdf;" horiz-adv-x="639" 
d="M70 0v485c0 94 21 148 56 184c48 51 121 68 203 68c131 0 231 -62 231 -175c0 -74 -36 -125 -100 -153c80 -22 143 -80 143 -195c0 -162 -124 -227 -266 -227c-37 0 -75 4 -111 11l19 94c27 -9 63 -15 94 -15c81 0 154 37 154 136c0 106 -80 141 -196 141h-7v91h5
c103 0 160 37 160 108c0 62 -50 102 -128 102c-51 0 -96 -11 -123 -46c-18 -23 -30 -59 -30 -123v-486h-104z" />
    <glyph glyph-name="agrave" unicode="&#xe0;" horiz-adv-x="564" 
d="M114 725h128l92 -116h-84zM38 145c0 131 154 166 363 188v11c0 95 -50 127 -116 127c-72 0 -113 -37 -117 -103h-105c9 114 103 183 226 183c139 0 219 -67 217 -228c0 -13 -2 -106 -2 -129c0 -80 5 -146 15 -194h-100c-4 21 -7 37 -9 71c-32 -54 -93 -84 -180 -84
c-109 0 -192 60 -192 158zM406 256c-167 -16 -255 -39 -255 -109c0 -49 39 -80 102 -80c86 0 153 43 153 150v39z" />
    <glyph glyph-name="aacute" unicode="&#xe1;" horiz-adv-x="564" 
d="M318 609h-83l91 116h128zM38 145c0 131 154 166 363 188v11c0 95 -50 127 -116 127c-72 0 -113 -37 -117 -103h-105c9 114 103 183 226 183c139 0 219 -67 217 -228c0 -13 -2 -106 -2 -129c0 -80 5 -146 15 -194h-100c-4 21 -7 37 -9 71c-32 -54 -93 -84 -180 -84
c-109 0 -192 60 -192 158zM406 256c-167 -16 -255 -39 -255 -109c0 -49 39 -80 102 -80c86 0 153 43 153 150v39z" />
    <glyph glyph-name="acircumflex" unicode="&#xe2;" horiz-adv-x="564" 
d="M469 609h-102l-79 51l-80 -51h-102l137 116h92zM38 145c0 131 154 166 363 188v11c0 95 -50 127 -116 127c-72 0 -113 -37 -117 -103h-105c9 114 103 183 226 183c139 0 219 -67 217 -228c0 -13 -2 -106 -2 -129c0 -80 5 -146 15 -194h-100c-4 21 -7 37 -9 71
c-32 -54 -93 -84 -180 -84c-109 0 -192 60 -192 158zM406 256c-167 -16 -255 -39 -255 -109c0 -49 39 -80 102 -80c86 0 153 43 153 150v39z" />
    <glyph glyph-name="atilde" unicode="&#xe3;" horiz-adv-x="564" 
d="M396 730h77c-14 -93 -72 -120 -122 -120c-61 0 -91 47 -133 47c-27 0 -42 -16 -46 -44h-78c14 89 69 119 122 119c62 0 86 -47 131 -47c27 0 44 15 49 45zM38 145c0 131 154 166 363 188v11c0 95 -50 127 -116 127c-72 0 -113 -37 -117 -103h-105c9 114 103 183 226 183
c139 0 219 -67 217 -228c0 -13 -2 -106 -2 -129c0 -80 5 -146 15 -194h-100c-4 21 -7 37 -9 71c-32 -54 -93 -84 -180 -84c-109 0 -192 60 -192 158zM406 256c-167 -16 -255 -39 -255 -109c0 -49 39 -80 102 -80c86 0 153 43 153 150v39z" />
    <glyph glyph-name="adieresis" unicode="&#xe4;" horiz-adv-x="564" 
d="M117 725h98v-105h-98v105zM448 725v-105h-99v105h99zM38 145c0 131 154 166 363 188v11c0 95 -50 127 -116 127c-72 0 -113 -37 -117 -103h-105c9 114 103 183 226 183c139 0 219 -67 217 -228c0 -13 -2 -106 -2 -129c0 -80 5 -146 15 -194h-100c-4 21 -7 37 -9 71
c-32 -54 -93 -84 -180 -84c-109 0 -192 60 -192 158zM406 256c-167 -16 -255 -39 -255 -109c0 -49 39 -80 102 -80c86 0 153 43 153 150v39z" />
    <glyph glyph-name="aring" unicode="&#xe5;" horiz-adv-x="564" 
d="M379 688c0 -50 -40 -86 -92 -86c-51 0 -91 36 -91 86s41 86 91 86c51 0 92 -36 92 -86zM245 688c0 -24 20 -41 42 -41c23 0 43 17 43 41c0 25 -20 43 -43 43c-22 0 -42 -18 -42 -43zM38 145c0 131 154 166 363 188v11c0 95 -50 127 -116 127c-72 0 -113 -37 -117 -103
h-105c9 114 103 183 226 183c139 0 219 -67 217 -228c0 -13 -2 -106 -2 -129c0 -80 5 -146 15 -194h-100c-4 21 -7 37 -9 71c-32 -54 -93 -84 -180 -84c-109 0 -192 60 -192 158zM406 256c-167 -16 -255 -39 -255 -109c0 -49 39 -80 102 -80c86 0 153 43 153 150v39z" />
    <glyph glyph-name="ae" unicode="&#xe6;" horiz-adv-x="937" 
d="M656 -13c-102 0 -167 44 -204 111c-35 -58 -94 -111 -222 -111c-109 0 -192 60 -192 158c0 131 154 166 363 188v11c0 95 -50 127 -116 127c-72 0 -113 -37 -117 -103h-105c9 114 103 183 226 183c91 0 148 -29 176 -95c40 58 104 92 188 92c166 0 263 -136 252 -311
h-410c11 -99 73 -161 157 -161c75 0 119 31 141 82h105c-25 -89 -105 -171 -242 -171zM497 319h300c-3 80 -59 144 -145 144c-80 0 -140 -42 -155 -144zM406 256c-167 -16 -255 -39 -255 -109c0 -49 39 -80 102 -80c86 0 153 43 153 150v39z" />
    <glyph glyph-name="ccedilla" unicode="&#xe7;" horiz-adv-x="559" 
d="M194 -135c17 -8 39 -14 58 -14c29 0 60 8 60 31c0 20 -19 30 -43 30c-11 0 -28 -2 -38 -9l-30 17l43 70c-131 19 -211 131 -211 278c0 160 101 280 260 280c123 0 217 -87 233 -192h-104c-11 61 -66 103 -134 103c-75 0 -144 -59 -144 -190c0 -133 70 -193 144 -193
c66 0 124 39 138 103h105c-21 -110 -121 -188 -236 -192l-22 -35c11 2 21 3 32 3c47 0 77 -27 77 -68c0 -53 -57 -82 -110 -82c-28 0 -61 3 -94 19z" />
    <glyph glyph-name="egrave" unicode="&#xe8;" horiz-adv-x="582" 
d="M111 725h128l92 -116h-84zM438 158h105c-25 -89 -105 -171 -242 -171c-174 0 -268 127 -268 283c0 167 112 278 265 278c166 0 263 -136 252 -311h-410c10 -99 73 -161 157 -161c75 0 119 31 141 82zM142 319h300c-3 80 -59 144 -145 144c-81 0 -141 -42 -155 -144z" />
    <glyph glyph-name="eacute" unicode="&#xe9;" horiz-adv-x="582" 
d="M325 609h-83l91 116h128zM438 158h105c-25 -89 -105 -171 -242 -171c-174 0 -268 127 -268 283c0 167 112 278 265 278c166 0 263 -136 252 -311h-410c10 -99 73 -161 157 -161c75 0 119 31 141 82zM142 319h300c-3 80 -59 144 -145 144c-81 0 -141 -42 -155 -144z" />
    <glyph glyph-name="ecircumflex" unicode="&#xea;" horiz-adv-x="582" 
d="M473 609h-102l-79 51l-80 -51h-102l137 116h92zM438 158h105c-25 -89 -105 -171 -242 -171c-174 0 -268 127 -268 283c0 167 112 278 265 278c166 0 263 -136 252 -311h-410c10 -99 73 -161 157 -161c75 0 119 31 141 82zM142 319h300c-3 80 -59 144 -145 144
c-81 0 -141 -42 -155 -144z" />
    <glyph glyph-name="edieresis" unicode="&#xeb;" horiz-adv-x="582" 
d="M124 725h98v-105h-98v105zM455 725v-105h-99v105h99zM438 158h105c-25 -89 -105 -171 -242 -171c-174 0 -268 127 -268 283c0 167 112 278 265 278c166 0 263 -136 252 -311h-410c10 -99 73 -161 157 -161c75 0 119 31 141 82zM142 319h300c-3 80 -59 144 -145 144
c-81 0 -141 -42 -155 -144z" />
    <glyph glyph-name="igrave" unicode="&#xec;" horiz-adv-x="244" 
d="M-56 725h128l92 -116h-84zM174 538v-538h-104v538h104z" />
    <glyph glyph-name="iacute" unicode="&#xed;" horiz-adv-x="244" 
d="M162 609h-83l91 116h128zM174 538v-538h-104v538h104z" />
    <glyph glyph-name="icircumflex" unicode="&#xee;" horiz-adv-x="244" 
d="M303 609h-102l-79 51l-80 -51h-102l137 116h92zM174 538v-538h-104v538h104z" />
    <glyph glyph-name="idieresis" unicode="&#xef;" horiz-adv-x="244" 
d="M-43 725h98v-105h-98v105zM288 725v-105h-99v105h99zM174 538v-538h-104v538h104z" />
    <glyph glyph-name="eth" unicode="&#xf0;" horiz-adv-x="575" 
d="M388 744l50 -26l-74 -46c99 -78 172 -194 172 -358c0 -220 -106 -327 -256 -327s-248 106 -248 280c0 175 99 281 232 281c68 0 123 -32 156 -82l1 1c-29 68 -78 118 -136 157l-73 -44l-49 24l78 48c-27 15 -54 27 -80 39l75 60c29 -14 58 -30 86 -48zM289 461
c-86 0 -145 -72 -145 -193s59 -194 145 -194c80 0 148 61 148 194s-68 193 -148 193z" />
    <glyph glyph-name="ntilde" unicode="&#xf1;" horiz-adv-x="583" 
d="M419 730h77c-14 -93 -72 -120 -122 -120c-61 0 -91 47 -133 47c-27 0 -42 -16 -46 -44h-78c14 89 69 119 122 119c62 0 86 -47 131 -47c27 0 44 15 49 45zM174 460c31 53 85 88 169 88c130 0 180 -84 180 -209v-339h-104v311c0 78 -13 150 -111 150
c-90 0 -134 -65 -134 -172v-289h-104v538h104v-78z" />
    <glyph glyph-name="ograve" unicode="&#xf2;" horiz-adv-x="591" 
d="M115 725h128l92 -116h-84zM557 267c0 -194 -134 -280 -262 -280c-127 0 -261 86 -261 280c0 195 134 281 261 281c128 0 262 -86 262 -281zM295 75c79 0 152 61 152 192c0 134 -73 193 -152 193c-78 0 -151 -57 -151 -193c0 -133 73 -192 151 -192z" />
    <glyph glyph-name="oacute" unicode="&#xf3;" horiz-adv-x="591" 
d="M334 609h-83l91 116h128zM557 267c0 -194 -134 -280 -262 -280c-127 0 -261 86 -261 280c0 195 134 281 261 281c128 0 262 -86 262 -281zM295 75c79 0 152 61 152 192c0 134 -73 193 -152 193c-78 0 -151 -57 -151 -193c0 -133 73 -192 151 -192z" />
    <glyph glyph-name="ocircumflex" unicode="&#xf4;" horiz-adv-x="591" 
d="M474 609h-102l-79 51l-80 -51h-102l137 116h92zM557 267c0 -194 -134 -280 -262 -280c-127 0 -261 86 -261 280c0 195 134 281 261 281c128 0 262 -86 262 -281zM295 75c79 0 152 61 152 192c0 134 -73 193 -152 193c-78 0 -151 -57 -151 -193c0 -133 73 -192 151 -192z
" />
    <glyph glyph-name="otilde" unicode="&#xf5;" horiz-adv-x="591" 
d="M405 730h77c-14 -93 -72 -120 -122 -120c-61 0 -91 47 -133 47c-27 0 -42 -16 -46 -44h-78c14 89 69 119 122 119c62 0 86 -47 131 -47c27 0 44 15 49 45zM557 267c0 -194 -134 -280 -262 -280c-127 0 -261 86 -261 280c0 195 134 281 261 281c128 0 262 -86 262 -281z
M295 75c79 0 152 61 152 192c0 134 -73 193 -152 193c-78 0 -151 -57 -151 -193c0 -133 73 -192 151 -192z" />
    <glyph glyph-name="odieresis" unicode="&#xf6;" horiz-adv-x="591" 
d="M128 725h98v-105h-98v105zM459 725v-105h-99v105h99zM557 267c0 -194 -134 -280 -262 -280c-127 0 -261 86 -261 280c0 195 134 281 261 281c128 0 262 -86 262 -281zM295 75c79 0 152 61 152 192c0 134 -73 193 -152 193c-78 0 -151 -57 -151 -193
c0 -133 73 -192 151 -192z" />
    <glyph glyph-name="divide" unicode="&#xf7;" 
d="M278 498h125v-122h-125v122zM77 213v96h525v-96h-525zM278 151h125v-122h-125v122z" />
    <glyph glyph-name="oslash" unicode="&#xf8;" horiz-adv-x="585" 
d="M292 548c58 0 116 -17 161 -53l42 49l43 -38l-44 -51c34 -45 57 -107 57 -188c0 -194 -127 -280 -259 -280c-58 0 -115 17 -160 52l-51 -59l-42 39l52 60c-35 45 -57 107 -57 188c0 195 127 281 258 281zM162 161l228 261c-26 26 -60 38 -98 38c-82 0 -148 -57 -148 -193
c0 -43 6 -78 18 -106zM441 267c0 43 -7 78 -19 106l-227 -261c26 -25 60 -37 97 -37c83 0 149 61 149 192z" />
    <glyph glyph-name="ugrave" unicode="&#xf9;" horiz-adv-x="576" 
d="M124 725h128l92 -116h-84zM402 76c-31 -54 -83 -89 -164 -89c-127 0 -176 79 -176 209v342h104v-314c0 -78 13 -149 107 -149c87 0 130 65 130 171v292h104v-538h-105v76z" />
    <glyph glyph-name="uacute" unicode="&#xfa;" horiz-adv-x="576" 
d="M322 609h-83l91 116h128zM402 76c-31 -54 -83 -89 -164 -89c-127 0 -176 79 -176 209v342h104v-314c0 -78 13 -149 107 -149c87 0 130 65 130 171v292h104v-538h-105v76z" />
    <glyph glyph-name="ucircumflex" unicode="&#xfb;" horiz-adv-x="576" 
d="M467 609h-102l-79 51l-80 -51h-102l137 116h92zM402 76c-31 -54 -83 -89 -164 -89c-127 0 -176 79 -176 209v342h104v-314c0 -78 13 -149 107 -149c87 0 130 65 130 171v292h104v-538h-105v76z" />
    <glyph glyph-name="udieresis" unicode="&#xfc;" horiz-adv-x="576" 
d="M123 725h98v-105h-98v105zM454 725v-105h-99v105h99zM402 76c-31 -54 -83 -89 -164 -89c-127 0 -176 79 -176 209v342h104v-314c0 -78 13 -149 107 -149c87 0 130 65 130 171v292h104v-538h-105v76z" />
    <glyph glyph-name="yacute" unicode="&#xfd;" horiz-adv-x="480" 
d="M280 609h-83l91 116h128zM43 -175v83h41c56 0 80 4 106 81l4 12l-194 537h115l130 -401l127 401h108l-190 -550c-44 -127 -76 -163 -197 -163h-50z" />
    <glyph glyph-name="thorn" unicode="&#xfe;" horiz-adv-x="606" 
d="M174 459c33 55 89 89 168 89c126 0 231 -105 231 -280c0 -176 -105 -281 -231 -281c-79 0 -135 34 -168 89v-251h-104v900h104v-266zM318 74c86 0 146 73 146 194s-60 193 -146 193c-80 0 -148 -60 -148 -193s68 -194 148 -194z" />
    <glyph glyph-name="ydieresis" unicode="&#xff;" horiz-adv-x="480" 
d="M75 725h98v-105h-98v105zM406 725v-105h-99v105h99zM43 -175v83h41c56 0 80 4 106 81l4 12l-194 537h115l130 -401l127 401h108l-190 -550c-44 -127 -76 -163 -197 -163h-50z" />
    <glyph glyph-name="Abreve" unicode="&#x102;" horiz-adv-x="668" 
d="M495 886c-8 -73 -60 -118 -162 -118c-100 0 -151 45 -160 118h83c5 -37 30 -55 78 -55c47 0 72 19 78 55h83zM269 725h126l273 -725h-124l-57 159h-315l-56 -159h-116zM206 255h246l-124 346z" />
    <glyph glyph-name="Amacron" unicode="&#x100;" horiz-adv-x="668" 
d="M182 789v80h304v-80h-304zM269 725h126l273 -725h-124l-57 159h-315l-56 -159h-116zM206 255h246l-124 346z" />
    <glyph glyph-name="Aogonek" unicode="&#x104;" horiz-adv-x="668" 
d="M269 725h126l273 -725c-51 -25 -90 -50 -90 -79c0 -30 22 -40 46 -40c16 0 33 4 44 8v-67c-18 -6 -42 -10 -67 -10c-52 0 -117 22 -117 93c0 40 23 71 60 95l-57 159h-315l-56 -159h-116zM206 255h246l-124 346z" />
    <glyph glyph-name="Cacute" unicode="&#x106;" horiz-adv-x="726" 
d="M419 773h-97l108 113h141zM693 236c-31 -161 -152 -249 -313 -249c-210 0 -332 154 -332 377c0 227 131 374 339 374c155 0 273 -90 303 -249h-110c-22 94 -92 154 -198 154c-122 0 -217 -97 -217 -279c0 -179 92 -282 218 -282c107 0 178 58 200 154h110z" />
    <glyph glyph-name="Ccaron" unicode="&#x10c;" horiz-adv-x="726" 
d="M205 886h114l67 -54l69 54h113l-136 -113h-94zM693 236c-31 -161 -152 -249 -313 -249c-210 0 -332 154 -332 377c0 227 131 374 339 374c155 0 273 -90 303 -249h-110c-22 94 -92 154 -198 154c-122 0 -217 -97 -217 -279c0 -179 92 -282 218 -282c107 0 178 58 200 154
h110z" />
    <glyph glyph-name="Ccircumflex" unicode="&#x108;" horiz-adv-x="726" 
d="M566 773h-114l-67 54l-68 -54h-114l136 113h94zM693 236c-31 -161 -152 -249 -313 -249c-210 0 -332 154 -332 377c0 227 131 374 339 374c155 0 273 -90 303 -249h-110c-22 94 -92 154 -198 154c-122 0 -217 -97 -217 -279c0 -179 92 -282 218 -282
c107 0 178 58 200 154h110z" />
    <glyph glyph-name="Cdotaccent" unicode="&#x10a;" horiz-adv-x="726" 
d="M439 882v-103h-106v103h106zM693 236c-31 -161 -152 -249 -313 -249c-210 0 -332 154 -332 377c0 227 131 374 339 374c155 0 273 -90 303 -249h-110c-22 94 -92 154 -198 154c-122 0 -217 -97 -217 -279c0 -179 92 -282 218 -282c107 0 178 58 200 154h110z" />
    <glyph glyph-name="Dcaron" unicode="&#x10e;" horiz-adv-x="725" 
d="M176 886h114l67 -54l69 54h113l-136 -113h-94zM278 725c230 0 400 -83 400 -362c0 -280 -170 -363 -400 -363h-198v725h198zM273 631h-79v-537h79c145 0 287 30 287 269c0 238 -142 268 -287 268z" />
    <glyph glyph-name="Dcroat" unicode="&#x110;" horiz-adv-x="734" 
d="M287 725c230 0 400 -83 400 -362c0 -280 -170 -363 -400 -363h-198v319h-73v97h73v309h198zM283 631h-80v-215h147v-97h-147v-225h80c145 0 287 30 287 269c0 238 -142 268 -287 268z" />
    <glyph glyph-name="Ebreve" unicode="&#x114;" horiz-adv-x="614" 
d="M497 886c-8 -73 -60 -118 -162 -118c-100 0 -151 45 -160 118h83c5 -37 30 -55 78 -55c47 0 72 19 78 55h83zM80 725h502v-97h-388v-207h366v-96h-366v-228h388v-97h-502v725z" />
    <glyph glyph-name="Ecaron" unicode="&#x11a;" horiz-adv-x="614" 
d="M159 886h114l67 -54l69 54h113l-136 -113h-94zM80 725h502v-97h-388v-207h366v-96h-366v-228h388v-97h-502v725z" />
    <glyph glyph-name="Emacron" unicode="&#x112;" horiz-adv-x="614" 
d="M184 789v80h304v-80h-304zM80 725h502v-97h-388v-207h366v-96h-366v-228h388v-97h-502v725z" />
    <glyph glyph-name="Eogonek" unicode="&#x118;" horiz-adv-x="614" 
d="M80 725h502v-97h-388v-207h366v-96h-366v-228h388v-97c-51 -25 -90 -52 -90 -79c0 -30 22 -40 46 -40c16 0 33 4 44 8v-67c-18 -6 -41 -10 -66 -10c-52 0 -117 22 -117 93c0 37 21 69 69 95h-388v725z" />
    <glyph glyph-name="Edotaccent" unicode="&#x116;" horiz-adv-x="614" 
d="M384 882v-103h-106v103h106zM80 725h502v-97h-388v-207h366v-96h-366v-228h388v-97h-502v725z" />
    <glyph glyph-name="Gbreve" unicode="&#x11e;" horiz-adv-x="767" 
d="M551 886c-8 -73 -60 -118 -162 -118c-100 0 -151 45 -160 118h83c5 -37 30 -55 78 -55c47 0 72 19 78 55h83zM693 505h-110c-24 85 -91 138 -197 138c-126 0 -221 -95 -221 -279c0 -179 89 -282 220 -282c92 0 205 39 205 179v16h-189v97h295v-374h-89l-5 89
c-45 -69 -127 -102 -225 -102c-208 0 -329 154 -329 377c0 225 133 374 342 374c156 0 273 -86 303 -233z" />
    <glyph glyph-name="Gcircumflex" unicode="&#x11c;" horiz-adv-x="767" 
d="M571 773h-114l-67 54l-68 -54h-114l136 113h94zM693 505h-110c-24 85 -91 138 -197 138c-126 0 -221 -95 -221 -279c0 -179 89 -282 220 -282c92 0 205 39 205 179v16h-189v97h295v-374h-89l-5 89c-45 -69 -127 -102 -225 -102c-208 0 -329 154 -329 377
c0 225 133 374 342 374c156 0 273 -86 303 -233z" />
    <glyph glyph-name="Gcommaaccent" unicode="&#x122;" horiz-adv-x="767" 
d="M693 505h-110c-24 85 -91 138 -197 138c-126 0 -221 -95 -221 -279c0 -179 89 -282 220 -282c92 0 205 39 205 179v16h-189v97h295v-374h-89l-5 89c-45 -69 -127 -102 -225 -102c-208 0 -329 154 -329 377c0 225 133 374 342 374c156 0 273 -86 303 -233zM325 -36h98v-98
l-44 -90h-57l39 96h-36v92z" />
    <glyph glyph-name="Gdotaccent" unicode="&#x120;" horiz-adv-x="767" 
d="M443 882v-103h-106v103h106zM693 505h-110c-24 85 -91 138 -197 138c-126 0 -221 -95 -221 -279c0 -179 89 -282 220 -282c92 0 205 39 205 179v16h-189v97h295v-374h-89l-5 89c-45 -69 -127 -102 -225 -102c-208 0 -329 154 -329 377c0 225 133 374 342 374
c156 0 273 -86 303 -233z" />
    <glyph glyph-name="Hbar" unicode="&#x126;" horiz-adv-x="753" 
d="M672 725v-122h66v-87h-66v-516h-114v325h-364v-325h-114v516h-65v87h65v122h114v-122h364v122h114zM558 421v95h-364v-95h364z" />
    <glyph glyph-name="Hcircumflex" unicode="&#x124;" horiz-adv-x="752" 
d="M557 773h-114l-67 54l-68 -54h-114l136 113h94zM672 725v-725h-114v325h-364v-325h-114v725h114v-304h364v304h114z" />
    <glyph glyph-name="Ibreve" unicode="&#x12c;" horiz-adv-x="274" 
d="M298 886c-8 -73 -60 -118 -162 -118c-100 0 -151 45 -160 118h83c5 -37 30 -55 78 -55c47 0 72 19 78 55h83zM194 0h-114v725h114v-725z" />
    <glyph glyph-name="Idotaccent" unicode="&#x130;" horiz-adv-x="274" 
d="M190 882v-103h-106v103h106zM194 0h-114v725h114v-725z" />
    <glyph glyph-name="Imacron" unicode="&#x12a;" horiz-adv-x="274" 
d="M-15 789v80h304v-80h-304zM194 0h-114v725h114v-725z" />
    <glyph glyph-name="Iogonek" unicode="&#x12e;" horiz-adv-x="274" 
d="M80 725h114v-725c-51 -25 -89 -52 -89 -79c0 -30 22 -40 46 -40c15 0 32 4 43 8v-67c-18 -6 -41 -10 -66 -10c-52 0 -117 22 -117 93c0 37 21 69 69 95v725z" />
    <glyph glyph-name="Itilde" unicode="&#x128;" horiz-adv-x="274" 
d="M249 885h77c-15 -90 -73 -113 -122 -113c-61 0 -91 44 -132 44c-27 0 -43 -14 -46 -42h-78c14 86 69 113 121 113c62 0 87 -44 131 -44c27 0 44 14 49 42zM194 0h-114v725h114v-725z" />
    <glyph glyph-name="uni1ECA" unicode="&#x1eca;" horiz-adv-x="274" 
d="M194 0h-114v725h114v-725zM186 -71v-104h-98v104h98z" />
    <glyph glyph-name="Jcircumflex" unicode="&#x134;" horiz-adv-x="566" 
d="M612 773h-114l-67 54l-68 -54h-114l136 113h94zM11 234h110c0 -101 53 -154 128 -154c67 0 123 41 123 158v487h114v-488c0 -157 -87 -250 -237 -250c-151 0 -238 90 -238 247z" />
    <glyph glyph-name="Kcommaaccent" unicode="&#x136;" horiz-adv-x="670" 
d="M194 370l318 355h138l-270 -296l298 -429h-135l-239 346l-110 -121v-225h-114v725h114v-355zM307 -36h98v-98l-44 -90h-57l39 96h-36v92z" />
    <glyph glyph-name="Lacute" unicode="&#x139;" horiz-adv-x="568" 
d="M181 773h-97l108 113h141zM194 97h374v-97h-488v725h114v-628z" />
    <glyph glyph-name="Lcaron" unicode="&#x13d;" horiz-adv-x="568" 
d="M194 97h374v-97h-488v725h114v-628zM355 555h-67l30 170h107z" />
    <glyph glyph-name="Lcommaaccent" unicode="&#x13b;" horiz-adv-x="568" 
d="M194 97h374v-97h-488v725h114v-628zM276 -36h98v-98l-44 -90h-57l39 96h-36v92z" />
    <glyph glyph-name="Ldot" unicode="&#x13f;" horiz-adv-x="568" 
d="M194 97h374v-97h-488v725h114v-628zM473 473v-103h-106v103h106z" />
    <glyph glyph-name="Lslash" unicode="&#x141;" horiz-adv-x="579" 
d="M204 430l182 122v-101l-182 -122v-232h375v-97h-489v253l-90 -60v101l90 60v371h114v-295z" />
    <glyph glyph-name="Eng" unicode="&#x14a;" horiz-adv-x="751" 
d="M192 599v-599h-112v725h161l318 -523v523h112v-737c0 -142 -46 -169 -171 -169h-48v95h24c69 0 81 11 81 78v10z" />
    <glyph glyph-name="Nacute" unicode="&#x143;" horiz-adv-x="751" 
d="M423 773h-97l108 113h141zM512 0l-320 600v-600h-112v725h159l320 -599v599h112v-725h-159z" />
    <glyph glyph-name="Ncaron" unicode="&#x147;" horiz-adv-x="751" 
d="M213 886h114l67 -54l69 54h113l-136 -113h-94zM512 0l-320 600v-600h-112v725h159l320 -599v599h112v-725h-159z" />
    <glyph glyph-name="Ncommaaccent" unicode="&#x145;" horiz-adv-x="751" 
d="M512 0l-320 600v-600h-112v725h159l320 -599v599h112v-725h-159zM328 -36h98v-98l-44 -90h-57l39 96h-36v92z" />
    <glyph glyph-name="OE" unicode="&#x152;" horiz-adv-x="1134" 
d="M621 88c-52 -65 -130 -101 -231 -101c-210 0 -342 155 -342 377c0 221 138 374 343 374c101 0 178 -35 230 -99v86h481v-97h-388v-207h365v-96h-365v-228h388v-97h-481v88zM391 643c-127 0 -226 -97 -226 -279c0 -183 99 -282 226 -282s226 99 226 282
c0 182 -99 279 -226 279z" />
    <glyph glyph-name="Obreve" unicode="&#x14e;" horiz-adv-x="781" 
d="M552 886c-8 -73 -60 -118 -162 -118c-100 0 -151 45 -160 118h83c5 -37 30 -55 78 -55c47 0 72 19 78 55h83zM391 -13c-211 0 -343 155 -343 376s132 375 343 375c210 0 342 -154 342 -375s-132 -376 -342 -376zM391 82c126 0 225 99 225 281s-99 280 -225 280
c-127 0 -226 -98 -226 -280s99 -281 226 -281z" />
    <glyph glyph-name="Ohungarumlaut" unicode="&#x150;" horiz-adv-x="781" 
d="M352 773h-97l108 113h141zM525 773h-96l107 113h141zM391 -13c-211 0 -343 155 -343 376s132 375 343 375c210 0 342 -154 342 -375s-132 -376 -342 -376zM391 82c126 0 225 99 225 281s-99 280 -225 280c-127 0 -226 -98 -226 -280s99 -281 226 -281z" />
    <glyph glyph-name="Omacron" unicode="&#x14c;" horiz-adv-x="781" 
d="M239 789v80h304v-80h-304zM391 -13c-211 0 -343 155 -343 376s132 375 343 375c210 0 342 -154 342 -375s-132 -376 -342 -376zM391 82c126 0 225 99 225 281s-99 280 -225 280c-127 0 -226 -98 -226 -280s99 -281 226 -281z" />
    <glyph glyph-name="uni1ECC" unicode="&#x1ecc;" horiz-adv-x="781" 
d="M391 -13c-211 0 -343 155 -343 376s132 375 343 375c210 0 342 -154 342 -375s-132 -376 -342 -376zM391 82c126 0 225 99 225 281s-99 280 -225 280c-127 0 -226 -98 -226 -280s99 -281 226 -281zM440 -71v-104h-98v104h98z" />
    <glyph glyph-name="Racute" unicode="&#x154;" horiz-adv-x="679" 
d="M365 773h-97l108 113h141zM366 306c-15 -1 -31 -1 -47 -1h-125v-305h-114v725h230c195 0 312 -41 312 -209c0 -104 -50 -163 -140 -191l167 -325h-128zM194 631v-233h131c107 0 180 16 180 116c0 104 -79 117 -182 117h-129z" />
    <glyph glyph-name="Rcaron" unicode="&#x158;" horiz-adv-x="679" 
d="M160 886h114l67 -54l69 54h113l-136 -113h-94zM366 306c-15 -1 -31 -1 -47 -1h-125v-305h-114v725h230c195 0 312 -41 312 -209c0 -104 -50 -163 -140 -191l167 -325h-128zM194 631v-233h131c107 0 180 16 180 116c0 104 -79 117 -182 117h-129z" />
    <glyph glyph-name="Rcommaaccent" unicode="&#x156;" horiz-adv-x="679" 
d="M366 306c-15 -1 -31 -1 -47 -1h-125v-305h-114v725h230c195 0 312 -41 312 -209c0 -104 -50 -163 -140 -191l167 -325h-128zM194 631v-233h131c107 0 180 16 180 116c0 104 -79 117 -182 117h-129zM294 -36h98v-98l-44 -90h-57l39 96h-36v92z" />
    <glyph glyph-name="Sacute" unicode="&#x15a;" horiz-adv-x="644" 
d="M369 773h-97l108 113h141zM255 336c-103 21 -201 79 -201 201c0 137 143 201 265 201c133 0 248 -61 276 -207h-110c-23 86 -102 112 -171 112c-53 0 -144 -25 -144 -101c0 -60 48 -91 110 -104l86 -18c116 -24 243 -68 243 -214c0 -144 -138 -219 -279 -219
c-168 0 -281 93 -298 245h112c21 -99 88 -150 190 -150c94 0 160 45 160 115c0 75 -72 105 -150 121z" />
    <glyph glyph-name="Scaron" unicode="&#x160;" horiz-adv-x="644" 
d="M148 886h114l67 -54l69 54h113l-136 -113h-94zM255 336c-103 21 -201 79 -201 201c0 137 143 201 265 201c133 0 248 -61 276 -207h-110c-23 86 -102 112 -171 112c-53 0 -144 -25 -144 -101c0 -60 48 -91 110 -104l86 -18c116 -24 243 -68 243 -214
c0 -144 -138 -219 -279 -219c-168 0 -281 93 -298 245h112c21 -99 88 -150 190 -150c94 0 160 45 160 115c0 75 -72 105 -150 121z" />
    <glyph glyph-name="Scedilla" unicode="&#x15e;" horiz-adv-x="644" 
d="M247 -135c17 -8 39 -14 58 -14c29 0 60 8 60 31c0 20 -19 30 -43 30c-11 0 -28 -2 -38 -9l-30 17l42 69c-149 11 -248 101 -264 243h112c21 -99 88 -150 190 -150c94 0 160 45 160 115c0 75 -72 105 -150 121l-89 18c-103 21 -201 79 -201 201c0 137 143 201 265 201
c133 0 248 -61 276 -207h-110c-23 86 -102 112 -171 112c-53 0 -144 -25 -144 -101c0 -60 48 -91 110 -104l86 -18c116 -24 243 -68 243 -214c0 -138 -127 -212 -261 -218l-22 -36c11 2 21 3 32 3c47 0 77 -27 77 -68c0 -53 -57 -82 -110 -82c-28 0 -61 3 -94 19z" />
    <glyph glyph-name="Scircumflex" unicode="&#x15c;" horiz-adv-x="644" 
d="M511 773h-114l-67 54l-68 -54h-114l136 113h94zM255 336c-103 21 -201 79 -201 201c0 137 143 201 265 201c133 0 248 -61 276 -207h-110c-23 86 -102 112 -171 112c-53 0 -144 -25 -144 -101c0 -60 48 -91 110 -104l86 -18c116 -24 243 -68 243 -214
c0 -144 -138 -219 -279 -219c-168 0 -281 93 -298 245h112c21 -99 88 -150 190 -150c94 0 160 45 160 115c0 75 -72 105 -150 121z" />
    <glyph glyph-name="Scommaaccent" unicode="&#x218;" horiz-adv-x="644" 
d="M255 336c-103 21 -201 79 -201 201c0 137 143 201 265 201c133 0 248 -61 276 -207h-110c-23 86 -102 112 -171 112c-53 0 -144 -25 -144 -101c0 -60 48 -91 110 -104l86 -18c116 -24 243 -68 243 -214c0 -144 -138 -219 -279 -219c-168 0 -281 93 -298 245h112
c21 -99 88 -150 190 -150c94 0 160 45 160 115c0 75 -72 105 -150 121zM273 -36h98v-98l-44 -90h-57l39 96h-36v92z" />
    <glyph glyph-name="Tbar" unicode="&#x166;" horiz-adv-x="583" 
d="M235 319h-158v97h158v212h-233v97h579v-97h-232v-212h155v-97h-155v-319h-114v319z" />
    <glyph glyph-name="Tcaron" unicode="&#x164;" horiz-adv-x="583" 
d="M109 886h114l67 -54l69 54h113l-136 -113h-94zM235 628h-233v97h579v-97h-232v-628h-114v628z" />
    <glyph glyph-name="uni0162" unicode="&#x162;" horiz-adv-x="583" 
d="M235 628h-233v97h579v-97h-232v-628h-114v628zM243 -36h98v-98l-44 -90h-57l39 96h-36v92z" />
    <glyph glyph-name="uni021A" unicode="&#x21a;" horiz-adv-x="583" 
d="M235 628h-233v97h579v-97h-232v-628h-114v628zM243 -36h98v-98l-44 -90h-57l39 96h-36v92z" />
    <glyph glyph-name="Ubreve" unicode="&#x16c;" horiz-adv-x="724" 
d="M523 886c-8 -73 -60 -118 -162 -118c-100 0 -151 45 -160 118h83c5 -37 30 -55 78 -55c47 0 72 19 78 55h83zM183 725v-435c0 -137 43 -207 179 -207s180 77 180 215v427h114v-421c0 -220 -83 -317 -294 -317c-205 0 -293 82 -293 311v427h114z" />
    <glyph glyph-name="Uhungarumlaut" unicode="&#x170;" horiz-adv-x="724" 
d="M319 773h-97l108 113h141zM492 773h-96l107 113h141zM183 725v-435c0 -137 43 -207 179 -207s180 77 180 215v427h114v-421c0 -220 -83 -317 -294 -317c-205 0 -293 82 -293 311v427h114z" />
    <glyph glyph-name="Umacron" unicode="&#x16a;" horiz-adv-x="724" 
d="M210 789v80h304v-80h-304zM183 725v-435c0 -137 43 -207 179 -207s180 77 180 215v427h114v-421c0 -220 -83 -317 -294 -317c-205 0 -293 82 -293 311v427h114z" />
    <glyph glyph-name="Uogonek" unicode="&#x172;" horiz-adv-x="724" 
d="M183 725v-435c0 -137 43 -207 179 -207s180 77 180 215v427h114v-421c0 -201 -69 -300 -242 -315c-40 -22 -68 -45 -68 -68c0 -30 22 -40 46 -40c15 0 32 4 43 8v-67c-18 -6 -41 -10 -66 -10c-52 0 -117 22 -117 93c0 32 16 61 51 85c-163 15 -234 102 -234 308v427h114z
" />
    <glyph glyph-name="Uring" unicode="&#x16e;" horiz-adv-x="724" 
d="M453 850c0 -49 -40 -85 -91 -85c-50 0 -90 36 -90 85c0 50 41 85 90 85c50 0 91 -35 91 -85zM319 850c0 -25 21 -42 43 -42c23 0 43 17 43 42s-20 43 -43 43c-22 0 -43 -18 -43 -43zM183 725v-435c0 -137 43 -207 179 -207s180 77 180 215v427h114v-421
c0 -220 -83 -317 -294 -317c-205 0 -293 82 -293 311v427h114z" />
    <glyph glyph-name="Utilde" unicode="&#x168;" horiz-adv-x="724" 
d="M485 885h77c-15 -90 -73 -113 -122 -113c-61 0 -91 44 -132 44c-27 0 -43 -14 -46 -42h-78c14 86 69 113 121 113c62 0 87 -44 131 -44c27 0 44 14 49 42zM183 725v-435c0 -137 43 -207 179 -207s180 77 180 215v427h114v-421c0 -220 -83 -317 -294 -317
c-205 0 -293 82 -293 311v427h114z" />
    <glyph glyph-name="uni1EE4" unicode="&#x1ee4;" horiz-adv-x="724" 
d="M183 725v-435c0 -137 43 -207 179 -207s180 77 180 215v427h114v-421c0 -220 -83 -317 -294 -317c-205 0 -293 82 -293 311v427h114zM411 -71v-104h-98v104h98z" />
    <glyph glyph-name="Wacute" unicode="&#x1e82;" horiz-adv-x="910" 
d="M503 773h-97l108 113h141zM656 139l122 586h120l-175 -725h-137l-131 577l-129 -577h-137l-178 725h125l128 -586l125 586h133z" />
    <glyph glyph-name="Wcircumflex" unicode="&#x174;" horiz-adv-x="910" 
d="M636 773h-114l-67 54l-68 -54h-114l136 113h94zM656 139l122 586h120l-175 -725h-137l-131 577l-129 -577h-137l-178 725h125l128 -586l125 586h133z" />
    <glyph glyph-name="Wdieresis" unicode="&#x1e84;" horiz-adv-x="910" 
d="M388 881v-103h-98v103h98zM621 881v-103h-99v103h99zM656 139l122 586h120l-175 -725h-137l-131 577l-129 -577h-137l-178 725h125l128 -586l125 586h133z" />
    <glyph glyph-name="Wgrave" unicode="&#x1e80;" horiz-adv-x="910" 
d="M255 886h140l109 -113h-93zM656 139l122 586h120l-175 -725h-137l-131 577l-129 -577h-137l-178 725h125l128 -586l125 586h133z" />
    <glyph glyph-name="Ycircumflex" unicode="&#x176;" horiz-adv-x="633" 
d="M497 773h-114l-67 54l-68 -54h-114l136 113h94zM125 725l190 -340l194 340h126l-266 -444v-281h-114v283l-257 442h127z" />
    <glyph glyph-name="Ydieresis" unicode="&#x178;" horiz-adv-x="633" 
d="M249 881v-103h-98v103h98zM482 881v-103h-99v103h99zM125 725l190 -340l194 340h126l-266 -444v-281h-114v283l-257 442h127z" />
    <glyph glyph-name="Ygrave" unicode="&#x1ef2;" horiz-adv-x="633" 
d="M136 886h140l109 -113h-93zM125 725l190 -340l194 340h126l-266 -444v-281h-114v283l-257 442h127z" />
    <glyph glyph-name="uni0232" unicode="&#x232;" horiz-adv-x="633" 
d="M164 789v80h304v-80h-304zM125 725l190 -340l194 340h126l-266 -444v-281h-114v283l-257 442h127z" />
    <glyph glyph-name="Zacute" unicode="&#x179;" horiz-adv-x="630" 
d="M367 773h-97l108 113h141zM588 630l-416 -531h430v-99h-567v95l417 531h-385v99h521v-95z" />
    <glyph glyph-name="Zcaron" unicode="&#x17d;" horiz-adv-x="630" 
d="M151 886h114l67 -54l69 54h113l-136 -113h-94zM588 630l-416 -531h430v-99h-567v95l417 531h-385v99h521v-95z" />
    <glyph glyph-name="Zdotaccent" unicode="&#x17b;" horiz-adv-x="630" 
d="M378 882v-103h-106v103h106zM588 630l-416 -531h430v-99h-567v95l417 531h-385v99h521v-95z" />
    <glyph glyph-name="uni018F" unicode="&#x18f;" horiz-adv-x="778" 
d="M69 521c43 150 175 217 320 217c205 0 340 -143 340 -374c0 -233 -136 -377 -341 -377c-240 0 -356 191 -336 430h558c-11 148 -107 226 -220 226c-103 0 -177 -49 -204 -122h-117zM610 320h-440c4 -156 100 -238 219 -238c118 0 210 80 221 238z" />
    <glyph glyph-name="abreve" unicode="&#x103;" horiz-adv-x="564" 
d="M287 604c-111 0 -154 56 -160 121h79c4 -34 27 -58 82 -58s80 24 84 58h78c-7 -65 -49 -121 -163 -121zM38 145c0 131 154 166 363 188v11c0 95 -50 127 -116 127c-72 0 -113 -37 -117 -103h-105c9 114 103 183 226 183c139 0 219 -67 217 -228c0 -13 -2 -106 -2 -129
c0 -80 5 -146 15 -194h-100c-4 21 -7 37 -9 71c-32 -54 -93 -84 -180 -84c-109 0 -192 60 -192 158zM406 256c-167 -16 -255 -39 -255 -109c0 -49 39 -80 102 -80c86 0 153 43 153 150v39z" />
    <glyph glyph-name="amacron" unicode="&#x101;" horiz-adv-x="564" 
d="M137 632v81h304v-81h-304zM38 145c0 131 154 166 363 188v11c0 95 -50 127 -116 127c-72 0 -113 -37 -117 -103h-105c9 114 103 183 226 183c139 0 219 -67 217 -228c0 -13 -2 -106 -2 -129c0 -80 5 -146 15 -194h-100c-4 21 -7 37 -9 71c-32 -54 -93 -84 -180 -84
c-109 0 -192 60 -192 158zM406 256c-167 -16 -255 -39 -255 -109c0 -49 39 -80 102 -80c86 0 153 43 153 150v39z" />
    <glyph glyph-name="aogonek" unicode="&#x105;" horiz-adv-x="564" 
d="M38 145c0 131 154 166 363 188v11c0 95 -50 127 -116 127c-72 0 -113 -37 -117 -103h-105c9 114 103 183 226 183c139 0 219 -67 217 -228c0 -13 -2 -106 -2 -129c0 -80 5 -146 15 -194c-56 -25 -88 -51 -88 -81c0 -29 24 -38 50 -38c16 0 30 4 42 7v-67
c-18 -5 -38 -9 -64 -9c-59 0 -122 22 -122 91c0 40 26 71 82 97c-4 21 -7 37 -9 71c-32 -54 -93 -84 -180 -84c-109 0 -192 60 -192 158zM406 256c-167 -16 -255 -39 -255 -109c0 -49 39 -80 102 -80c86 0 153 43 153 150v39z" />
    <glyph glyph-name="cacute" unicode="&#x107;" horiz-adv-x="559" 
d="M321 609h-83l91 116h128zM526 356h-104c-11 61 -66 103 -134 103c-75 0 -144 -59 -144 -190c0 -133 70 -193 144 -193c66 0 124 39 138 103h105c-21 -113 -126 -192 -245 -192c-155 0 -253 119 -253 281c0 160 101 280 260 280c123 0 217 -87 233 -192z" />
    <glyph glyph-name="ccaron" unicode="&#x10d;" horiz-adv-x="559" 
d="M103 725h103l78 -51l80 51h102l-137 -116h-92zM526 356h-104c-11 61 -66 103 -134 103c-75 0 -144 -59 -144 -190c0 -133 70 -193 144 -193c66 0 124 39 138 103h105c-21 -113 -126 -192 -245 -192c-155 0 -253 119 -253 281c0 160 101 280 260 280
c123 0 217 -87 233 -192z" />
    <glyph glyph-name="ccircumflex" unicode="&#x109;" horiz-adv-x="559" 
d="M471 609h-102l-79 51l-80 -51h-102l137 116h92zM526 356h-104c-11 61 -66 103 -134 103c-75 0 -144 -59 -144 -190c0 -133 70 -193 144 -193c66 0 124 39 138 103h105c-21 -113 -126 -192 -245 -192c-155 0 -253 119 -253 281c0 160 101 280 260 280
c123 0 217 -87 233 -192z" />
    <glyph glyph-name="cdotaccent" unicode="&#x10b;" horiz-adv-x="559" 
d="M334 725v-105h-98v105h98zM526 356h-104c-11 61 -66 103 -134 103c-75 0 -144 -59 -144 -190c0 -133 70 -193 144 -193c66 0 124 39 138 103h105c-21 -113 -126 -192 -245 -192c-155 0 -253 119 -253 281c0 160 101 280 260 280c123 0 217 -87 233 -192z" />
    <glyph glyph-name="dcaron" unicode="&#x10f;" horiz-adv-x="692" 
d="M433 725h104v-725h-104v76c-33 -55 -89 -89 -168 -89c-125 0 -232 105 -232 281c0 175 107 280 232 280c79 0 135 -34 168 -89v266zM642 555h-67l30 170h107zM289 461c-86 0 -145 -72 -145 -193s59 -194 145 -194c80 0 148 61 148 194s-68 193 -148 193z" />
    <glyph glyph-name="dcroat" unicode="&#x111;" horiz-adv-x="607" 
d="M433 577h-130v77h130v71h104v-71h71v-77h-71v-577h-104v76c-33 -55 -89 -89 -168 -89c-125 0 -232 105 -232 281c0 175 107 280 232 280c79 0 135 -34 168 -89v118zM289 461c-86 0 -145 -72 -145 -193s59 -194 145 -194c80 0 148 61 148 194s-68 193 -148 193z" />
    <glyph glyph-name="ebreve" unicode="&#x115;" horiz-adv-x="583" 
d="M287 604c-111 0 -154 56 -160 121h79c4 -34 27 -58 82 -58s80 24 84 58h78c-7 -65 -49 -121 -163 -121zM438 158h105c-25 -89 -105 -171 -242 -171c-174 0 -268 127 -268 283c0 167 112 278 265 278c166 0 263 -136 252 -311h-410c10 -99 73 -161 157 -161
c75 0 119 31 141 82zM142 319h300c-3 80 -59 144 -145 144c-81 0 -141 -42 -155 -144z" />
    <glyph glyph-name="ecaron" unicode="&#x11b;" horiz-adv-x="582" 
d="M107 725h103l78 -51l80 51h102l-137 -116h-92zM438 158h105c-25 -89 -105 -171 -242 -171c-174 0 -268 127 -268 283c0 167 112 278 265 278c166 0 263 -136 252 -311h-410c10 -99 73 -161 157 -161c75 0 119 31 141 82zM142 319h300c-3 80 -59 144 -145 144
c-81 0 -141 -42 -155 -144z" />
    <glyph glyph-name="emacron" unicode="&#x113;" horiz-adv-x="582" 
d="M140 632v81h304v-81h-304zM438 158h105c-25 -89 -105 -171 -242 -171c-174 0 -268 127 -268 283c0 167 112 278 265 278c166 0 263 -136 252 -311h-410c10 -99 73 -161 157 -161c75 0 119 31 141 82zM142 319h300c-3 80 -59 144 -145 144c-81 0 -141 -42 -155 -144z" />
    <glyph glyph-name="eogonek" unicode="&#x119;" horiz-adv-x="582" 
d="M371 -188c-59 0 -122 22 -122 94c0 26 16 55 40 81c-167 7 -256 130 -256 283c0 167 112 278 265 278c166 0 263 -136 252 -311h-410c11 -99 73 -161 157 -161c75 0 119 31 141 82h105c-16 -56 -54 -110 -114 -142c-47 -29 -86 -66 -86 -94c0 -32 23 -41 50 -41
c18 0 30 4 42 7v-67c-18 -5 -38 -9 -64 -9zM142 319h300c-3 80 -59 144 -145 144c-80 0 -140 -42 -155 -144z" />
    <glyph glyph-name="edotaccent" unicode="&#x117;" horiz-adv-x="582" 
d="M338 725v-105h-98v105h98zM438 158h105c-25 -89 -105 -171 -242 -171c-174 0 -268 127 -268 283c0 167 112 278 265 278c166 0 263 -136 252 -311h-410c10 -99 73 -161 157 -161c75 0 119 31 141 82zM142 319h300c-3 80 -59 144 -145 144c-81 0 -141 -42 -155 -144z" />
    <glyph glyph-name="gbreve" unicode="&#x11f;" horiz-adv-x="601" 
d="M286 604c-111 0 -154 56 -160 121h79c4 -34 27 -58 82 -58s80 24 84 58h78c-7 -65 -49 -121 -163 -121zM428 538h104v-475c0 -99 -21 -152 -58 -189c-41 -43 -106 -65 -188 -65c-120 0 -208 52 -225 165h107c11 -49 42 -78 120 -78c51 0 86 14 108 39c21 23 32 51 32 106
v57c-33 -55 -87 -89 -166 -89c-125 0 -229 99 -229 270c0 170 104 269 229 269c79 0 133 -34 166 -89v79zM286 462c-86 0 -142 -68 -142 -183c0 -117 56 -185 142 -185c80 0 146 56 146 185c0 128 -66 183 -146 183z" />
    <glyph glyph-name="gcircumflex" unicode="&#x11d;" horiz-adv-x="601" 
d="M478 609h-102l-79 51l-80 -51h-102l137 116h92zM428 538h104v-475c0 -99 -21 -152 -58 -189c-41 -43 -106 -65 -188 -65c-120 0 -208 52 -225 165h107c11 -49 42 -78 120 -78c51 0 86 14 108 39c21 23 32 51 32 106v57c-33 -55 -87 -89 -166 -89c-125 0 -229 99 -229 270
c0 170 104 269 229 269c79 0 133 -34 166 -89v79zM286 462c-86 0 -142 -68 -142 -183c0 -117 56 -185 142 -185c80 0 146 56 146 185c0 128 -66 183 -146 183z" />
    <glyph glyph-name="gcommaaccent" unicode="&#x123;" horiz-adv-x="601" 
d="M332 602h-97v99l44 89h57l-39 -95h35v-93zM428 538h104v-475c0 -99 -21 -152 -58 -189c-41 -43 -106 -65 -188 -65c-120 0 -208 52 -225 165h107c11 -49 42 -78 120 -78c51 0 86 14 108 39c21 23 32 51 32 106v57c-33 -55 -87 -89 -166 -89c-125 0 -229 99 -229 270
c0 170 104 269 229 269c79 0 133 -34 166 -89v79zM286 462c-86 0 -142 -68 -142 -183c0 -117 56 -185 142 -185c80 0 146 56 146 185c0 128 -66 183 -146 183z" />
    <glyph glyph-name="gdotaccent" unicode="&#x121;" horiz-adv-x="601" 
d="M338 725v-105h-98v105h98zM428 538h104v-475c0 -99 -21 -152 -58 -189c-41 -43 -106 -65 -188 -65c-120 0 -208 52 -225 165h107c11 -49 42 -78 120 -78c51 0 86 14 108 39c21 23 32 51 32 106v57c-33 -55 -87 -89 -166 -89c-125 0 -229 99 -229 270
c0 170 104 269 229 269c79 0 133 -34 166 -89v79zM286 462c-86 0 -142 -68 -142 -183c0 -117 56 -185 142 -185c80 0 146 56 146 185c0 128 -66 183 -146 183z" />
    <glyph glyph-name="hbar" unicode="&#x127;" horiz-adv-x="589" 
d="M180 654h128v-77h-128v-117c31 53 85 88 169 88c130 0 180 -84 180 -209v-339h-104v311c0 78 -13 150 -111 150c-90 0 -134 -65 -134 -172v-289h-104v577h-81v77h81v71h104v-71z" />
    <glyph glyph-name="hcircumflex" unicode="&#x125;" horiz-adv-x="583" 
d="M303 773h-114l-67 54l-68 -54h-114l136 113h94zM174 460c31 53 85 88 169 88c130 0 180 -84 180 -209v-339h-104v311c0 78 -13 150 -111 150c-90 0 -134 -65 -134 -172v-289h-104v725h104v-265z" />
    <glyph glyph-name="dotlessi" unicode="&#x131;" horiz-adv-x="244" 
d="M174 538v-538h-104v538h104z" />
    <glyph glyph-name="ibreve" unicode="&#x12d;" horiz-adv-x="244" 
d="M120 604c-111 0 -154 56 -160 121h79c4 -34 27 -58 82 -58s80 24 84 58h78c-7 -65 -49 -121 -163 -121zM174 538v-538h-104v538h104z" />
    <glyph glyph-name="imacron" unicode="&#x12b;" horiz-adv-x="244" 
d="M-31 632v81h304v-81h-304zM174 538v-538h-104v538h104z" />
    <glyph glyph-name="iogonek" unicode="&#x12f;" horiz-adv-x="244" 
d="M174 725v-115h-104v115h104zM70 538h104v-538c-56 -25 -92 -51 -92 -81c0 -29 24 -38 50 -38c16 0 30 4 42 7v-67c-18 -5 -38 -9 -64 -9c-59 0 -122 22 -122 91c0 40 26 71 82 97v538z" />
    <glyph glyph-name="itilde" unicode="&#x129;" horiz-adv-x="244" 
d="M234 730h77c-14 -93 -72 -120 -122 -120c-61 0 -91 47 -133 47c-27 0 -42 -16 -46 -44h-78c14 89 69 119 122 119c62 0 86 -47 131 -47c27 0 44 15 49 45zM174 538v-538h-104v538h104z" />
    <glyph glyph-name="uni1ECB" unicode="&#x1ecb;" horiz-adv-x="244" 
d="M174 725v-115h-104v115h104zM174 538v-538h-104v538h104zM171 -71v-104h-98v104h98z" />
    <glyph glyph-name="uni0237" unicode="&#x237;" horiz-adv-x="244" 
d="M70 538h104v-556c0 -123 -28 -157 -141 -157h-43v84h24c48 0 56 13 56 70v559z" />
    <glyph glyph-name="jcircumflex" unicode="&#x135;" horiz-adv-x="244" 
d="M303 609h-102l-79 51l-80 -51h-102l137 116h92zM70 538h104v-556c0 -123 -28 -157 -141 -157h-43v84h24c48 0 56 13 56 70v559z" />
    <glyph glyph-name="kcommaaccent" unicode="&#x137;" horiz-adv-x="519" 
d="M174 725v-417l214 230h127l-209 -222l224 -316h-124l-171 241l-61 -65v-176h-104v725h104zM236 -36h98v-98l-44 -90h-57l39 96h-36v92z" />
    <glyph glyph-name="lacute" unicode="&#x13a;" horiz-adv-x="243" 
d="M170 773h-97l108 113h141zM174 0h-104v725h104v-725z" />
    <glyph glyph-name="lcaron" unicode="&#x13e;" horiz-adv-x="332" 
d="M174 0h-104v725h104v-725zM282 555h-67l30 170h107z" />
    <glyph glyph-name="lcommaaccent" unicode="&#x13c;" horiz-adv-x="244" 
d="M174 0h-104v725h104v-725zM74 -36h98v-98l-44 -90h-57l39 96h-36v92z" />
    <glyph glyph-name="ldot" unicode="&#x140;" horiz-adv-x="341" 
d="M174 0h-104v725h104v-725zM342 464v-105h-98v105h98z" />
    <glyph glyph-name="lslash" unicode="&#x142;" horiz-adv-x="290" 
d="M197 462l73 48v-87l-73 -48v-375h-105v308l-72 -46v86l72 47v330h105v-263z" />
    <glyph glyph-name="eng" unicode="&#x14b;" horiz-adv-x="583" 
d="M418 311c0 78 -12 149 -110 149c-90 0 -134 -64 -134 -171v-289h-104v538h104v-78c31 53 85 88 169 88c130 0 180 -84 180 -209v-362c0 -123 -34 -152 -145 -152h-47v87h26c52 0 61 14 61 70v329z" />
    <glyph glyph-name="nacute" unicode="&#x144;" horiz-adv-x="583" 
d="M337 609h-83l91 116h128zM174 460c31 53 85 88 169 88c130 0 180 -84 180 -209v-339h-104v311c0 78 -13 150 -111 150c-90 0 -134 -65 -134 -172v-289h-104v538h104v-78z" />
    <glyph glyph-name="ncaron" unicode="&#x148;" horiz-adv-x="583" 
d="M124 725h103l78 -51l80 51h102l-137 -116h-92zM174 460c31 53 85 88 169 88c130 0 180 -84 180 -209v-339h-104v311c0 78 -13 150 -111 150c-90 0 -134 -65 -134 -172v-289h-104v538h104v-78z" />
    <glyph glyph-name="ncommaaccent" unicode="&#x146;" horiz-adv-x="583" 
d="M174 460c31 53 85 88 169 88c130 0 180 -84 180 -209v-339h-104v311c0 78 -13 150 -111 150c-90 0 -134 -65 -134 -172v-289h-104v538h104v-78zM244 -36h98v-98l-44 -90h-57l39 96h-36v92z" />
    <glyph glyph-name="oe" unicode="&#x153;" horiz-adv-x="998" 
d="M717 -13c-98 0 -170 40 -215 103c-49 -70 -128 -103 -207 -103c-127 0 -261 86 -261 280c0 195 134 281 261 281c79 0 158 -32 207 -103c47 65 123 103 212 103c166 0 263 -136 252 -311h-410c11 -99 73 -161 157 -161c75 0 119 31 141 82h105
c-25 -89 -105 -171 -242 -171zM558 319h300c-3 80 -59 144 -145 144c-80 0 -140 -42 -155 -144zM295 75c79 0 152 61 152 192c0 134 -73 193 -152 193c-78 0 -151 -57 -151 -193c0 -133 73 -192 151 -192z" />
    <glyph glyph-name="obreve" unicode="&#x14f;" horiz-adv-x="591" 
d="M291 604c-111 0 -154 56 -160 121h79c4 -34 27 -58 82 -58s80 24 84 58h78c-7 -65 -49 -121 -163 -121zM557 267c0 -194 -134 -280 -262 -280c-127 0 -261 86 -261 280c0 195 134 281 261 281c128 0 262 -86 262 -281zM295 75c79 0 152 61 152 192
c0 134 -73 193 -152 193c-78 0 -151 -57 -151 -193c0 -133 73 -192 151 -192z" />
    <glyph glyph-name="ohungarumlaut" unicode="&#x151;" horiz-adv-x="591" 
d="M250 609h-84l91 116h128zM418 609h-83l91 116h128zM557 267c0 -194 -134 -280 -262 -280c-127 0 -261 86 -261 280c0 195 134 281 261 281c128 0 262 -86 262 -281zM295 75c79 0 152 61 152 192c0 134 -73 193 -152 193c-78 0 -151 -57 -151 -193
c0 -133 73 -192 151 -192z" />
    <glyph glyph-name="omacron" unicode="&#x14d;" horiz-adv-x="591" 
d="M141 632v81h304v-81h-304zM557 267c0 -194 -134 -280 -262 -280c-127 0 -261 86 -261 280c0 195 134 281 261 281c128 0 262 -86 262 -281zM295 75c79 0 152 61 152 192c0 134 -73 193 -152 193c-78 0 -151 -57 -151 -193c0 -133 73 -192 151 -192z" />
    <glyph glyph-name="uni1ECD" unicode="&#x1ecd;" horiz-adv-x="591" 
d="M557 267c0 -194 -134 -280 -262 -280c-127 0 -261 86 -261 280c0 195 134 281 261 281c128 0 262 -86 262 -281zM295 75c79 0 152 61 152 192c0 134 -73 193 -152 193c-78 0 -151 -57 -151 -193c0 -133 73 -192 151 -192zM342 -71v-104h-98v104h98z" />
    <glyph glyph-name="racute" unicode="&#x155;" horiz-adv-x="362" 
d="M251 609h-83l91 116h128zM350 431c-19 2 -37 3 -54 3c-80 0 -122 -39 -122 -152v-282h-104v538h102v-95c28 61 82 96 149 97c9 0 20 0 29 -1v-108z" />
    <glyph glyph-name="rcaron" unicode="&#x159;" horiz-adv-x="362" 
d="M28 725h103l78 -51l80 51h102l-137 -116h-92zM350 431c-19 2 -37 3 -54 3c-80 0 -122 -39 -122 -152v-282h-104v538h102v-95c28 61 82 96 149 97c9 0 20 0 29 -1v-108z" />
    <glyph glyph-name="rcommaaccent" unicode="&#x157;" horiz-adv-x="362" 
d="M350 431c-19 2 -37 3 -54 3c-80 0 -122 -39 -122 -152v-282h-104v538h102v-95c28 61 82 96 149 97c9 0 20 0 29 -1v-108zM72 -36h98v-98l-44 -90h-57l39 96h-36v92z" />
    <glyph glyph-name="sacute" unicode="&#x15b;" horiz-adv-x="525" 
d="M301 609h-83l91 116h128zM376 388c-15 55 -61 77 -122 77c-51 0 -106 -21 -106 -65c0 -40 26 -57 75 -67l77 -15c102 -20 191 -55 191 -160c0 -109 -102 -171 -226 -171c-136 0 -219 79 -232 180h106c14 -61 54 -97 129 -97c67 0 119 28 119 76c0 50 -47 70 -103 81
l-81 16c-81 16 -157 52 -157 153c0 95 100 153 218 153c108 0 195 -57 215 -161h-103z" />
    <glyph glyph-name="scaron" unicode="&#x161;" horiz-adv-x="525" 
d="M84 725h103l78 -51l80 51h102l-137 -116h-92zM376 388c-15 55 -61 77 -122 77c-51 0 -106 -21 -106 -65c0 -40 26 -57 75 -67l77 -15c102 -20 191 -55 191 -160c0 -109 -102 -171 -226 -171c-136 0 -219 79 -232 180h106c14 -61 54 -97 129 -97c67 0 119 28 119 76
c0 50 -47 70 -103 81l-81 16c-81 16 -157 52 -157 153c0 95 100 153 218 153c108 0 195 -57 215 -161h-103z" />
    <glyph glyph-name="scedilla" unicode="&#x15f;" horiz-adv-x="525" 
d="M173 -135c17 -8 39 -14 58 -14c29 0 60 8 60 31c0 20 -19 30 -43 30c-11 0 -28 -2 -38 -9l-30 17l43 70c-111 14 -179 87 -190 177h106c14 -61 54 -97 129 -97c67 0 119 28 119 76c0 50 -47 70 -103 81l-81 16c-81 16 -157 52 -157 153c0 95 100 153 218 153
c108 0 195 -57 215 -161h-103c-15 55 -61 77 -122 77c-51 0 -106 -21 -106 -65c0 -40 26 -57 75 -67l77 -15c102 -20 191 -55 191 -160c0 -107 -97 -168 -217 -171l-22 -35c11 2 21 3 32 3c47 0 77 -27 77 -68c0 -53 -57 -82 -110 -82c-28 0 -61 3 -94 19z" />
    <glyph glyph-name="scircumflex" unicode="&#x15d;" horiz-adv-x="525" 
d="M450 609h-102l-79 51l-80 -51h-102l137 116h92zM376 388c-15 55 -61 77 -122 77c-51 0 -106 -21 -106 -65c0 -40 26 -57 75 -67l77 -15c102 -20 191 -55 191 -160c0 -109 -102 -171 -226 -171c-136 0 -219 79 -232 180h106c14 -61 54 -97 129 -97c67 0 119 28 119 76
c0 50 -47 70 -103 81l-81 16c-81 16 -157 52 -157 153c0 95 100 153 218 153c108 0 195 -57 215 -161h-103z" />
    <glyph glyph-name="scommaaccent" unicode="&#x219;" horiz-adv-x="525" 
d="M376 388c-15 55 -61 77 -122 77c-51 0 -106 -21 -106 -65c0 -40 26 -57 75 -67l77 -15c102 -20 191 -55 191 -160c0 -109 -102 -171 -226 -171c-136 0 -219 79 -232 180h106c14 -61 54 -97 129 -97c67 0 119 28 119 76c0 50 -47 70 -103 81l-81 16
c-81 16 -157 52 -157 153c0 95 100 153 218 153c108 0 195 -57 215 -161h-103zM212 -36h98v-98l-44 -90h-57l39 96h-36v92z" />
    <glyph glyph-name="tbar" unicode="&#x167;" horiz-adv-x="343" 
d="M100 676h104v-138h105v-79h-105v-82h105v-82h-105v-143c0 -55 9 -69 60 -69h45v-83h-77c-109 0 -132 27 -132 138v157h-83v82h83v82h-83v79h83v138z" />
    <glyph glyph-name="tcaron" unicode="&#x165;" horiz-adv-x="378" 
d="M328 575h-67l30 150h107zM91 676h104v-138h106v-79h-106v-307c0 -55 9 -69 61 -69h44v-83h-76c-109 0 -133 27 -133 138v321h-82v79h82v138z" />
    <glyph glyph-name="uni0163" unicode="&#x163;" horiz-adv-x="332" 
d="M91 676h104v-138h106v-79h-106v-307c0 -55 9 -69 61 -69h44v-83h-76c-109 0 -133 27 -133 138v321h-82v79h82v138zM108 -36h98v-98l-44 -90h-57l39 96h-36v92z" />
    <glyph glyph-name="uni021B" unicode="&#x21b;" horiz-adv-x="332" 
d="M91 676h104v-138h106v-79h-106v-307c0 -55 9 -69 61 -69h44v-83h-76c-109 0 -133 27 -133 138v321h-82v79h82v138zM108 -36h98v-98l-44 -90h-57l39 96h-36v92z" />
    <glyph glyph-name="ubreve" unicode="&#x16d;" horiz-adv-x="576" 
d="M285 604c-111 0 -154 56 -160 121h79c4 -34 27 -58 82 -58s80 24 84 58h78c-7 -65 -49 -121 -163 -121zM402 76c-31 -54 -83 -89 -164 -89c-127 0 -176 79 -176 209v342h104v-314c0 -78 13 -149 107 -149c87 0 130 65 130 171v292h104v-538h-105v76z" />
    <glyph glyph-name="uhungarumlaut" unicode="&#x171;" horiz-adv-x="576" 
d="M244 609h-84l91 116h128zM412 609h-83l91 116h128zM402 76c-31 -54 -83 -89 -164 -89c-127 0 -176 79 -176 209v342h104v-314c0 -78 13 -149 107 -149c87 0 130 65 130 171v292h104v-538h-105v76z" />
    <glyph glyph-name="umacron" unicode="&#x16b;" horiz-adv-x="576" 
d="M134 632v81h304v-81h-304zM402 76c-31 -54 -83 -89 -164 -89c-127 0 -176 79 -176 209v342h104v-314c0 -78 13 -149 107 -149c87 0 130 65 130 171v292h104v-538h-105v76z" />
    <glyph glyph-name="uogonek" unicode="&#x173;" horiz-adv-x="576" 
d="M402 76c-31 -54 -83 -89 -164 -89c-127 0 -176 79 -176 209v342h104v-314c0 -78 13 -149 107 -149c87 0 130 65 130 171v292h104v-538c-56 -25 -93 -51 -93 -81c0 -29 24 -38 50 -38c16 0 30 4 42 7v-67c-18 -5 -38 -9 -64 -9c-59 0 -122 22 -122 91c0 40 26 71 82 97v76
z" />
    <glyph glyph-name="uring" unicode="&#x16f;" horiz-adv-x="576" 
d="M378 688c0 -50 -40 -86 -92 -86c-51 0 -91 36 -91 86s41 86 91 86c51 0 92 -36 92 -86zM244 688c0 -24 20 -41 42 -41c23 0 43 17 43 41c0 25 -20 43 -43 43c-22 0 -42 -18 -42 -43zM402 76c-31 -54 -83 -89 -164 -89c-127 0 -176 79 -176 209v342h104v-314
c0 -78 13 -149 107 -149c87 0 130 65 130 171v292h104v-538h-105v76z" />
    <glyph glyph-name="utilde" unicode="&#x169;" horiz-adv-x="576" 
d="M405 730h77c-14 -93 -72 -120 -122 -120c-61 0 -91 47 -133 47c-27 0 -42 -16 -46 -44h-78c14 89 69 119 122 119c62 0 86 -47 131 -47c27 0 44 15 49 45zM402 76c-31 -54 -83 -89 -164 -89c-127 0 -176 79 -176 209v342h104v-314c0 -78 13 -149 107 -149
c87 0 130 65 130 171v292h104v-538h-105v76z" />
    <glyph glyph-name="uni1EE5" unicode="&#x1ee5;" horiz-adv-x="576" 
d="M402 76c-31 -54 -83 -89 -164 -89c-127 0 -176 79 -176 209v342h104v-314c0 -78 13 -149 107 -149c87 0 130 65 130 171v292h104v-538h-105v76zM336 -71v-104h-98v104h98z" />
    <glyph glyph-name="wacute" unicode="&#x1e83;" horiz-adv-x="727" 
d="M400 609h-83l91 116h128zM309 538h108l100 -390l92 390h113l-150 -538h-97l-113 416l-110 -416h-98l-149 538h113l91 -390z" />
    <glyph glyph-name="wcircumflex" unicode="&#x175;" horiz-adv-x="727" 
d="M540 609h-102l-79 51l-80 -51h-102l137 116h92zM309 538h108l100 -390l92 390h113l-150 -538h-97l-113 416l-110 -416h-98l-149 538h113l91 -390z" />
    <glyph glyph-name="wdieresis" unicode="&#x1e85;" horiz-adv-x="727" 
d="M194 725h98v-105h-98v105zM525 725v-105h-99v105h99zM309 538h108l100 -390l92 390h113l-150 -538h-97l-113 416l-110 -416h-98l-149 538h113l91 -390z" />
    <glyph glyph-name="wgrave" unicode="&#x1e81;" horiz-adv-x="727" 
d="M181 725h128l92 -116h-84zM309 538h108l100 -390l92 390h113l-150 -538h-97l-113 416l-110 -416h-98l-149 538h113l91 -390z" />
    <glyph glyph-name="ycircumflex" unicode="&#x177;" horiz-adv-x="480" 
d="M421 609h-102l-79 51l-80 -51h-102l137 116h92zM43 -175v83h41c56 0 80 4 106 81l4 12l-194 537h115l130 -401l127 401h108l-190 -550c-44 -127 -76 -163 -197 -163h-50z" />
    <glyph glyph-name="ygrave" unicode="&#x1ef3;" horiz-adv-x="480" 
d="M78 725h128l92 -116h-84zM43 -175v83h41c56 0 80 4 106 81l4 12l-194 537h115l130 -401l127 401h108l-190 -550c-44 -127 -76 -163 -197 -163h-50z" />
    <glyph glyph-name="uni0233" unicode="&#x233;" horiz-adv-x="480" 
d="M88 632v81h304v-81h-304zM43 -175v83h41c56 0 80 4 106 81l4 12l-194 537h115l130 -401l127 401h108l-190 -550c-44 -127 -76 -163 -197 -163h-50z" />
    <glyph glyph-name="zacute" unicode="&#x17a;" horiz-adv-x="491" 
d="M287 609h-83l91 116h128zM30 85l300 368h-280v85h406v-85l-300 -368h306v-85h-432v85z" />
    <glyph glyph-name="zcaron" unicode="&#x17e;" horiz-adv-x="491" 
d="M79 725h103l78 -51l80 51h102l-137 -116h-92zM30 85l300 368h-280v85h406v-85l-300 -368h306v-85h-432v85z" />
    <glyph glyph-name="zdotaccent" unicode="&#x17c;" horiz-adv-x="491" 
d="M308 725v-105h-98v105h98zM30 85l300 368h-280v85h406v-85l-300 -368h306v-85h-432v85z" />
    <glyph glyph-name="uni0259" unicode="&#x259;" horiz-adv-x="582" 
d="M145 377h-105c25 89 105 171 242 171c174 0 268 -127 268 -283c0 -167 -112 -278 -265 -278c-166 0 -263 136 -252 311h410c-10 99 -73 161 -157 161c-75 0 -119 -31 -141 -82zM441 216h-300c3 -80 59 -144 145 -144c81 0 141 42 155 144z" />
    <glyph glyph-name="uni0410" unicode="&#x410;" horiz-adv-x="668" 
d="M269 725h126l273 -725h-124l-57 159h-315l-56 -159h-116zM206 255h246l-124 346z" />
    <glyph glyph-name="uni0411" unicode="&#x411;" horiz-adv-x="658" 
d="M199 442h161c163 0 263 -61 263 -216c0 -161 -105 -226 -268 -226h-270v725h491v-97h-377v-186zM357 94c96 0 150 47 150 130c0 92 -55 124 -153 124h-155v-254h158z" />
    <glyph glyph-name="uni0412" unicode="&#x412;" horiz-adv-x="675" 
d="M85 725h267c133 0 257 -35 257 -182c0 -68 -33 -130 -80 -157c65 -29 109 -79 109 -172c0 -154 -118 -214 -265 -214h-288v725zM199 418h167c78 0 128 33 128 111c0 69 -52 102 -128 102h-167v-213zM199 94h177c97 0 145 43 145 120c0 80 -48 116 -151 116h-171v-236z
" />
    <glyph glyph-name="uni0413" unicode="&#x413;" horiz-adv-x="562" 
d="M562 628h-363v-628h-114v725h477v-97z" />
    <glyph glyph-name="uni0414" unicode="&#x414;" horiz-adv-x="763" 
d="M733 -150h-104v150h-500v-150h-104v247h14c101 0 121 157 126 382l6 246h470v-628h92v-247zM527 628h-248l-5 -200c-5 -167 -23 -268 -88 -331h341v531z" />
    <glyph glyph-name="uni0415" unicode="&#x415;" horiz-adv-x="619" 
d="M85 725h502v-97h-388v-207h366v-96h-366v-228h388v-97h-502v725z" />
    <glyph glyph-name="uni0401" unicode="&#x401;" horiz-adv-x="619" 
d="M269 870v-103h-98v103h98zM502 870v-103h-99v103h99zM85 725h502v-97h-388v-207h366v-96h-366v-228h388v-97h-502v725z" />
    <glyph glyph-name="uni0416" unicode="&#x416;" horiz-adv-x="1006" 
d="M446 326h-75l-223 -326h-133l258 381l-244 344h132l208 -302h77v302h114v-302h76l209 302h130l-242 -345l258 -380h-132l-222 326h-77v-326h-114v326z" />
    <glyph glyph-name="uni0417" unicode="&#x417;" horiz-adv-x="632" 
d="M590 207c0 -152 -123 -219 -267 -219c-175 0 -267 89 -291 227h109c16 -87 80 -133 185 -133c94 0 147 49 147 128c0 75 -47 117 -151 117h-90v94h83c82 0 140 38 140 109c0 75 -49 113 -133 113c-88 0 -165 -48 -173 -141h-110c17 141 119 236 277 236
c144 0 254 -72 254 -195c0 -74 -39 -126 -108 -160c76 -23 128 -76 128 -176z" />
    <glyph glyph-name="uni0418" unicode="&#x418;" horiz-adv-x="767" 
d="M85 0v725h112v-558l373 558h112v-725h-112v558l-373 -558h-112z" />
    <glyph glyph-name="uni0419" unicode="&#x419;" horiz-adv-x="767" 
d="M574 886c-8 -73 -68 -121 -180 -121c-110 0 -169 48 -178 121h83c5 -37 38 -58 96 -58c57 0 90 22 96 58h83zM85 0v725h112v-558l373 558h112v-725h-112v558l-373 -558h-112z" />
    <glyph glyph-name="uni041A" unicode="&#x41a;" 
d="M282 326h-83v-326h-114v725h114v-303h83l235 303h136l-277 -344l287 -381h-136z" />
    <glyph glyph-name="uni041B" unicode="&#x41b;" horiz-adv-x="724" 
d="M525 0v628h-245l-7 -160c-12 -281 -57 -468 -209 -468h-35v102h14c95 0 113 177 123 402l9 221h464v-725h-114z" />
    <glyph glyph-name="uni041C" unicode="&#x41c;" horiz-adv-x="898" 
d="M390 0l-193 610v-610h-112v725h183l181 -592l181 592h183v-725h-112v610l-193 -610h-118z" />
    <glyph glyph-name="uni041D" unicode="&#x41d;" horiz-adv-x="762" 
d="M677 725v-725h-114v325h-364v-325h-114v725h114v-304h364v304h114z" />
    <glyph glyph-name="uni041E" unicode="&#x41e;" horiz-adv-x="781" 
d="M391 -13c-211 0 -343 155 -343 376s132 375 343 375c210 0 342 -154 342 -375s-132 -376 -342 -376zM391 82c126 0 225 99 225 281s-99 280 -225 280c-127 0 -226 -98 -226 -280s99 -281 226 -281z" />
    <glyph glyph-name="uni041F" unicode="&#x41f;" horiz-adv-x="744" 
d="M545 0v628h-346v-628h-114v725h574v-725h-114z" />
    <glyph glyph-name="uni0420" unicode="&#x420;" horiz-adv-x="634" 
d="M313 725c168 0 304 -33 304 -223c0 -182 -129 -221 -304 -221h-119v-281h-114v725h233zM194 631v-254h126c101 0 179 12 179 124c0 118 -84 130 -182 130h-123z" />
    <glyph glyph-name="uni0421" unicode="&#x421;" horiz-adv-x="726" 
d="M693 236c-31 -161 -152 -249 -313 -249c-210 0 -332 154 -332 377c0 227 131 374 339 374c155 0 273 -90 303 -249h-110c-22 94 -92 154 -198 154c-122 0 -217 -97 -217 -279c0 -179 92 -282 218 -282c107 0 178 58 200 154h110z" />
    <glyph glyph-name="uni0422" unicode="&#x422;" horiz-adv-x="583" 
d="M235 628h-233v97h579v-97h-232v-628h-114v628z" />
    <glyph glyph-name="uni0423" unicode="&#x423;" horiz-adv-x="656" 
d="M113 -14v97h70c37 0 64 10 85 45l10 17l-268 580h122l203 -464l187 464h125l-263 -601c-38 -85 -99 -138 -193 -138h-78z" />
    <glyph glyph-name="uni0424" unicode="&#x424;" horiz-adv-x="857" 
d="M486 675c201 -10 321 -134 321 -312c0 -171 -120 -294 -321 -304v-86h-114v86c-201 9 -322 134 -322 309c0 174 121 297 322 307v90h114v-90zM372 582c-120 -9 -205 -84 -205 -217c0 -129 85 -204 205 -213v430zM486 152c118 9 204 84 204 213c0 133 -86 207 -204 217
v-430z" />
    <glyph glyph-name="uni0425" unicode="&#x425;" horiz-adv-x="659" 
d="M263 372l-250 353h136l182 -258l186 258h129l-250 -348l268 -377h-136l-201 282l-203 -282h-129z" />
    <glyph glyph-name="uni0426" unicode="&#x426;" horiz-adv-x="767" 
d="M737 -150h-102v150h-550v725h114v-628h332v628h114v-629h92v-246z" />
    <glyph glyph-name="uni0427" unicode="&#x427;" horiz-adv-x="692" 
d="M607 0h-114v280c-59 -13 -128 -23 -187 -23c-163 0 -247 75 -247 224v244h114v-215c0 -118 55 -155 169 -155c44 0 102 6 151 17v353h114v-725z" />
    <glyph glyph-name="uni0428" unicode="&#x428;" horiz-adv-x="1010" 
d="M85 0v725h114v-628h249v628h114v-628h249v628h114v-725h-840z" />
    <glyph glyph-name="uni0429" unicode="&#x429;" horiz-adv-x="1047" 
d="M1017 -150h-104v150h-828v725h114v-628h249v628h114v-628h249v628h114v-626h92v-249z" />
    <glyph glyph-name="uni042A" unicode="&#x42a;" horiz-adv-x="751" 
d="M410 462c182 0 311 -43 311 -231c0 -186 -129 -231 -311 -231h-205v628h-203v97h317v-263h91zM417 96c105 0 188 22 188 135c0 115 -83 135 -188 135h-98v-270h98z" />
    <glyph glyph-name="uni042B" unicode="&#x42b;" horiz-adv-x="887" 
d="M85 0v725h114v-263h82c180 0 310 -43 310 -231c0 -186 -130 -231 -310 -231h-196zM688 0v725h114v-725h-114zM199 97h86c105 0 190 21 190 134c0 114 -85 134 -190 134h-86v-268z" />
    <glyph glyph-name="uni042C" unicode="&#x42c;" horiz-adv-x="648" 
d="M85 725h114v-263h108c181 0 311 -43 311 -231c0 -186 -130 -231 -311 -231h-222v725zM311 97c106 0 191 21 191 134c0 116 -85 135 -191 135h-112v-269h112z" />
    <glyph glyph-name="uni042D" unicode="&#x42d;" horiz-adv-x="746" 
d="M353 82c125 0 216 90 227 239h-331v96h330c-15 140 -105 226 -225 226c-101 0 -177 -50 -201 -154h-113c29 148 140 249 309 249c219 0 349 -152 349 -375c0 -224 -127 -376 -344 -376c-173 0 -289 100 -317 249h112c23 -105 101 -154 204 -154z" />
    <glyph glyph-name="uni042E" unicode="&#x42e;" horiz-adv-x="1050" 
d="M668 738c210 0 322 -154 322 -375s-112 -376 -322 -376c-199 0 -310 137 -322 338h-147v-325h-114v725h114v-303h149c18 189 128 316 320 316zM668 82c126 0 205 99 205 281s-79 280 -205 280c-127 0 -206 -98 -206 -280s79 -281 206 -281z" />
    <glyph glyph-name="uni042F" unicode="&#x42f;" horiz-adv-x="693" 
d="M42 0l195 298c-90 35 -148 96 -148 202c0 171 132 225 313 225h206v-725h-114v268h-94c-13 0 -38 0 -50 1l-174 -269h-134zM394 364h100v264h-100c-112 0 -189 -24 -189 -131c0 -103 81 -133 189 -133z" />
    <glyph glyph-name="uni0402" unicode="&#x402;" horiz-adv-x="799" 
d="M343 0h-114v628h-216v97h587v-97h-257v-207c55 13 116 24 176 24c147 0 225 -82 225 -221c0 -178 -116 -235 -235 -235c-32 0 -61 4 -92 10l11 94c24 -5 54 -8 77 -8c74 1 125 40 125 135c0 93 -50 131 -133 131c-57 0 -103 -10 -154 -25v-326z" />
    <glyph glyph-name="uni0403" unicode="&#x403;" horiz-adv-x="562" 
d="M352 773h-97l108 113h141zM562 628h-363v-628h-114v725h477v-97z" />
    <glyph glyph-name="uni0404" unicode="&#x404;" horiz-adv-x="746" 
d="M707 236c-17 -152 -142 -249 -315 -249c-217 0 -344 152 -344 376c0 223 130 375 349 375c169 0 289 -102 307 -249h-112c-15 103 -99 154 -200 154c-120 0 -211 -86 -226 -226h332v-96h-333c11 -149 104 -239 228 -239c104 0 189 46 203 154h111z" />
    <glyph glyph-name="uni0405" unicode="&#x405;" horiz-adv-x="644" 
d="M255 336c-103 21 -201 79 -201 201c0 137 143 201 265 201c133 0 248 -61 276 -207h-110c-23 86 -102 112 -171 112c-53 0 -144 -25 -144 -101c0 -60 48 -91 110 -104l86 -18c116 -24 243 -68 243 -214c0 -144 -138 -219 -279 -219c-168 0 -281 93 -298 245h112
c21 -99 88 -150 190 -150c94 0 160 45 160 115c0 75 -72 105 -150 121z" />
    <glyph glyph-name="uni0406" unicode="&#x406;" horiz-adv-x="279" 
d="M194 0h-114v725h114v-725z" />
    <glyph glyph-name="uni0407" unicode="&#x407;" horiz-adv-x="274" 
d="M70 870v-103h-98v103h98zM303 870v-103h-99v103h99zM194 0h-114v725h114v-725z" />
    <glyph glyph-name="uni0408" unicode="&#x408;" horiz-adv-x="566" 
d="M11 234h110c0 -101 53 -154 128 -154c67 0 123 41 123 158v487h114v-488c0 -157 -87 -250 -237 -250c-151 0 -238 90 -238 247z" />
    <glyph glyph-name="uni0409" unicode="&#x409;" horiz-adv-x="1038" 
d="M698 462c180 0 310 -43 310 -231c0 -186 -130 -231 -310 -231h-183v628h-235l-7 -160c-12 -281 -57 -468 -209 -468h-35v102h14c95 0 113 177 123 402l9 221h454v-263h69zM702 97c105 0 190 21 190 134c0 114 -85 134 -190 134h-73v-268h73z" />
    <glyph glyph-name="uni040A" unicode="&#x40a;" horiz-adv-x="1070" 
d="M85 0v725h114v-301h348v301h114v-263h69c180 0 310 -43 310 -231c0 -186 -130 -231 -310 -231h-183v327h-348v-327h-114zM661 97h73c105 0 190 21 190 134c0 114 -85 134 -190 134h-73v-268z" />
    <glyph glyph-name="uni040B" unicode="&#x40b;" horiz-adv-x="798" 
d="M743 227v-227h-114v192c0 124 -44 155 -145 155c-52 0 -95 -9 -141 -20v-327h-114v628h-216v97h587v-97h-257v-209c63 16 115 26 176 26c154 0 224 -70 224 -218z" />
    <glyph glyph-name="uni040C" unicode="&#x40c;" 
d="M358 773h-97l108 113h141zM282 326h-83v-326h-114v725h114v-303h83l235 303h136l-277 -344l287 -381h-136z" />
    <glyph glyph-name="uni040E" unicode="&#x40e;" horiz-adv-x="656" 
d="M518 886c-8 -73 -68 -121 -180 -121c-110 0 -169 48 -178 121h83c5 -37 38 -58 96 -58c57 0 90 22 96 58h83zM113 -14v97h70c37 0 64 10 85 45l10 17l-268 580h122l203 -464l187 464h125l-263 -601c-38 -85 -99 -138 -193 -138h-78z" />
    <glyph glyph-name="uni040F" unicode="&#x40f;" horiz-adv-x="730" 
d="M415 -150h-98v150h-232v725h114v-628h332v628h114v-725h-230v-150z" />
    <glyph glyph-name="uni0490" unicode="&#x490;" horiz-adv-x="562" 
d="M199 628v-628h-114v725h371v150h106v-247h-363z" />
    <glyph glyph-name="uni0462" unicode="&#x462;" horiz-adv-x="690" 
d="M350 438c181 0 310 -43 310 -216c0 -177 -129 -222 -310 -222h-199v541h-149v96h149v88h114v-88h210v-96h-210v-103h85zM356 97c110 0 188 23 188 125c0 101 -78 119 -188 119h-92v-244h92z" />
    <glyph glyph-name="uni0472" unicode="&#x472;" horiz-adv-x="781" 
d="M391 -13c-211 0 -343 155 -343 376s132 375 343 375c210 0 342 -154 342 -375s-132 -376 -342 -376zM169 423h443c-19 143 -110 220 -221 220c-112 0 -203 -77 -222 -220zM615 327h-449c13 -159 107 -245 225 -245c117 0 211 86 224 245z" />
    <glyph glyph-name="uni0474" unicode="&#x474;" horiz-adv-x="709" 
d="M261 0l-256 725h122l199 -591l141 418c38 117 94 173 196 173h36v-97h-16c-62 0 -85 -28 -110 -99l-189 -529h-123z" />
    <glyph glyph-name="uni0492" unicode="&#x492;" horiz-adv-x="555" 
d="M218 431h180v-96h-180v-335h-114v335h-90v96h90v294h477v-97h-363v-197z" />
    <glyph glyph-name="uni0496" unicode="&#x496;" horiz-adv-x="1027" 
d="M910 -150v150h-52l-222 326h-77v-326h-113v326h-75l-223 -326h-133l258 381l-244 344h132l208 -303h77v303h113v-303h76l209 303h130l-242 -345l191 -282h89v-248h-102z" />
    <glyph glyph-name="uni049A" unicode="&#x49a;" horiz-adv-x="694" 
d="M577 -150v150h-50l-245 326h-83v-326h-114v725h114v-303h83l235 303h136l-277 -344l214 -283h89v-248h-102z" />
    <glyph glyph-name="uni04A2" unicode="&#x4a2;" horiz-adv-x="794" 
d="M677 98h92v-248h-102v150h-104v325h-364v-325h-114v725h114v-304h364v304h114v-627z" />
    <glyph glyph-name="uni04AE" unicode="&#x4ae;" horiz-adv-x="633" 
d="M125 725l190 -340l194 340h126l-266 -444v-281h-114v283l-257 442h127z" />
    <glyph glyph-name="uni04B0" unicode="&#x4b0;" horiz-adv-x="641" 
d="M376 292h142v-96h-149v-196h-114v196h-140v96h135l-252 433h127l190 -340l194 340h126z" />
    <glyph glyph-name="uni04B2" unicode="&#x4b2;" horiz-adv-x="727" 
d="M610 -150v150h-52l-206 282l-207 -282h-130l273 372l-255 353h135l188 -259l190 259h131l-256 -349l202 -278h89v-248h-102z" />
    <glyph glyph-name="uni04B6" unicode="&#x4b6;" horiz-adv-x="724" 
d="M597 -150v150h-104v280c-60 -13 -131 -23 -190 -23c-162 0 -244 76 -244 224v244h114v-215c0 -118 54 -157 168 -156c44 0 102 6 152 17v354h114v-624h92v-251h-102z" />
    <glyph glyph-name="uni04BA" unicode="&#x4ba;" horiz-adv-x="689" 
d="M634 244v-244h-114v215c0 119 -53 159 -170 157c-45 0 -101 -6 -151 -17v-355h-114v725h114v-280c60 13 128 22 187 23c165 2 248 -75 248 -224z" />
    <glyph glyph-name="uni04C0" unicode="&#x4c0;" horiz-adv-x="284" 
d="M199 0h-114v725h114v-725z" />
    <glyph glyph-name="uni04D8" unicode="&#x4d8;" horiz-adv-x="778" 
d="M69 521c43 150 175 217 320 217c205 0 340 -143 340 -374c0 -233 -136 -377 -341 -377c-240 0 -356 191 -336 430h558c-11 148 -107 226 -220 226c-103 0 -177 -49 -204 -122h-117zM610 320h-440c4 -156 100 -238 219 -238c118 0 210 80 221 238z" />
    <glyph glyph-name="uni04E2" unicode="&#x4e2;" horiz-adv-x="767" 
d="M249 789v80h304v-80h-304zM85 0v725h112v-558l373 558h112v-725h-112v558l-373 -558h-112z" />
    <glyph glyph-name="uni04E8" unicode="&#x4e8;" horiz-adv-x="781" 
d="M391 -13c-211 0 -343 155 -343 376s132 375 343 375c210 0 342 -154 342 -375s-132 -376 -342 -376zM169 423h443c-19 143 -110 220 -221 220c-112 0 -203 -77 -222 -220zM615 327h-449c13 -159 107 -245 225 -245c117 0 211 86 224 245z" />
    <glyph glyph-name="uni04EE" unicode="&#x4ee;" horiz-adv-x="656" 
d="M198 788v80h304v-80h-304zM113 -14v97h70c37 0 64 10 85 45l10 17l-268 580h122l203 -464l187 464h125l-263 -601c-38 -85 -99 -138 -193 -138h-78z" />
    <glyph glyph-name="uni0430" unicode="&#x430;" horiz-adv-x="564" 
d="M38 145c0 131 154 166 363 188v11c0 95 -50 127 -116 127c-72 0 -113 -37 -117 -103h-105c9 114 103 183 226 183c139 0 219 -67 217 -228c0 -13 -2 -106 -2 -129c0 -80 5 -146 15 -194h-100c-4 21 -7 37 -9 71c-32 -54 -93 -84 -180 -84c-109 0 -192 60 -192 158z
M406 256c-167 -16 -255 -39 -255 -109c0 -49 39 -80 102 -80c86 0 153 43 153 150v39z" />
    <glyph glyph-name="uni0431" unicode="&#x431;" horiz-adv-x="589" 
d="M553 252c0 -173 -116 -265 -250 -265c-140 0 -256 99 -256 300v55c2 194 80 319 284 356l182 32v-90l-177 -34c-114 -22 -185 -71 -200 -204c37 70 109 105 186 105c124 0 231 -86 231 -255zM444 250c0 113 -61 170 -139 170c-79 0 -149 -54 -149 -169
c0 -110 62 -177 148 -177c83 0 140 64 140 176z" />
    <glyph glyph-name="uni0432" unicode="&#x432;" horiz-adv-x="574" 
d="M318 538c110 0 199 -28 199 -138c0 -55 -26 -95 -73 -116c54 -16 95 -54 95 -125c0 -114 -88 -159 -206 -159h-258v538h243zM310 315c62 0 101 17 101 72s-40 68 -103 68h-129v-140h131zM179 83h139c75 0 114 23 114 78c0 56 -39 75 -116 75h-137v-153z" />
    <glyph glyph-name="uni0433" unicode="&#x433;" horiz-adv-x="440" 
d="M179 455v-455h-104v538h354v-83h-250z" />
    <glyph glyph-name="uni0434" unicode="&#x434;" horiz-adv-x="629" 
d="M599 -128h-98v128h-383v-128h-98v211h26c55 0 81 80 89 283l7 172h380v-455h77v-211zM418 455h-179l-7 -120c-7 -124 -24 -208 -66 -252h252v372z" />
    <glyph glyph-name="uni0435" unicode="&#x435;" horiz-adv-x="583" 
d="M438 158h105c-25 -89 -105 -171 -242 -171c-174 0 -268 127 -268 283c0 167 112 278 265 278c166 0 263 -136 252 -311h-410c10 -99 73 -161 157 -161c75 0 119 31 141 82zM142 319h300c-3 80 -59 144 -145 144c-81 0 -141 -42 -155 -144z" />
    <glyph glyph-name="uni0451" unicode="&#x451;" horiz-adv-x="583" 
d="M132 725h98v-105h-98v105zM463 725v-105h-99v105h99zM438 158h105c-25 -89 -105 -171 -242 -171c-174 0 -268 127 -268 283c0 167 112 278 265 278c166 0 263 -136 252 -311h-410c10 -99 73 -161 157 -161c75 0 119 31 141 82zM142 319h300c-3 80 -59 144 -145 144
c-81 0 -141 -42 -155 -144z" />
    <glyph glyph-name="uni0436" unicode="&#x436;" horiz-adv-x="822" 
d="M11 0l198 282l-181 256h119l146 -218h66v218h104v-218h65l147 218h120l-181 -254l197 -284h-123l-160 237h-65v-237h-104v237h-63l-160 -237h-125z" />
    <glyph glyph-name="uni0437" unicode="&#x437;" horiz-adv-x="517" 
d="M482 155c0 -107 -92 -168 -219 -168c-116 0 -227 53 -236 180h104c2 -63 51 -96 127 -96c75 0 120 28 120 79c0 59 -40 83 -111 83h-87v83h81c59 0 103 25 103 77c0 50 -41 73 -103 73c-60 0 -119 -28 -120 -96h-104c8 120 105 180 225 180c129 0 207 -70 207 -151
c0 -53 -37 -93 -85 -116c57 -17 98 -56 98 -128z" />
    <glyph glyph-name="uni0438" unicode="&#x438;" horiz-adv-x="618" 
d="M75 0v538h102v-389l263 389h102v-538h-102v388l-263 -388h-102z" />
    <glyph glyph-name="uni0439" unicode="&#x439;" horiz-adv-x="617" 
d="M315 604c-111 0 -154 56 -160 121h79c4 -34 27 -58 82 -58s80 24 84 58h78c-7 -65 -49 -121 -163 -121zM75 0v538h102v-389l263 389h102v-538h-102v388l-263 -388h-102z" />
    <glyph glyph-name="uni043A" unicode="&#x43a;" horiz-adv-x="558" 
d="M242 237h-63v-237h-104v538h104v-218h66l164 218h121l-203 -257l221 -281h-125z" />
    <glyph glyph-name="uni043B" unicode="&#x43b;" horiz-adv-x="588" 
d="M513 0h-104v455h-167l-5 -101c-11 -226 -58 -354 -198 -354h-19v83h11c64 0 96 81 106 287l8 168h368v-538z" />
    <glyph glyph-name="uni043C" unicode="&#x43c;" horiz-adv-x="764" 
d="M689 0h-100v429l-168 -429h-78l-168 425v-425h-100v538h155l155 -400l149 400h155v-538z" />
    <glyph glyph-name="uni043D" unicode="&#x43d;" horiz-adv-x="620" 
d="M441 0v234h-262v-234h-104v538h104v-221h262v221h104v-538h-104z" />
    <glyph glyph-name="uni043E" unicode="&#x43e;" horiz-adv-x="591" 
d="M557 267c0 -194 -134 -280 -262 -280c-127 0 -261 86 -261 280c0 195 134 281 261 281c128 0 262 -86 262 -281zM295 75c79 0 152 61 152 192c0 134 -73 193 -152 193c-78 0 -151 -57 -151 -193c0 -133 73 -192 151 -192z" />
    <glyph glyph-name="uni043F" unicode="&#x43f;" horiz-adv-x="614" 
d="M539 0h-104v455h-256v-455h-104v538h464v-538z" />
    <glyph glyph-name="uni0440" unicode="&#x440;" horiz-adv-x="607" 
d="M174 538v-79c33 55 89 89 168 89c125 0 232 -105 232 -280c0 -176 -107 -281 -232 -281c-79 0 -135 34 -168 89v-251h-104v713h104zM318 74c86 0 145 73 145 194s-59 193 -145 193c-80 0 -148 -60 -148 -193s68 -194 148 -194z" />
    <glyph glyph-name="uni0441" unicode="&#x441;" horiz-adv-x="559" 
d="M526 356h-104c-11 61 -66 103 -134 103c-75 0 -144 -59 -144 -190c0 -133 70 -193 144 -193c66 0 124 39 138 103h105c-21 -113 -126 -192 -245 -192c-155 0 -253 119 -253 281c0 160 101 280 260 280c123 0 217 -87 233 -192z" />
    <glyph glyph-name="uni0442" unicode="&#x442;" horiz-adv-x="513" 
d="M309 455v-455h-104v455h-190v83h483v-83h-189z" />
    <glyph glyph-name="uni0443" unicode="&#x443;" horiz-adv-x="480" 
d="M43 -175v83h41c56 0 80 4 106 81l4 12l-194 537h115l130 -401l127 401h108l-190 -550c-44 -127 -76 -163 -197 -163h-50z" />
    <glyph glyph-name="uni0444" unicode="&#x444;" horiz-adv-x="702" 
d="M399 537c132 -1 269 -87 269 -271c0 -191 -138 -271 -269 -271v-170h-100v170c-132 0 -265 81 -265 272c0 184 133 270 265 270v188h100v-188zM299 451c-76 0 -161 -58 -161 -188c0 -128 84 -182 161 -182v370zM399 81c76 0 161 53 161 181c0 130 -84 188 -161 189v-370z
" />
    <glyph glyph-name="uni0445" unicode="&#x445;" horiz-adv-x="527" 
d="M322 281l199 -281h-124l-137 194l-137 -194h-117l197 275l-185 263h123l124 -176l126 176h115z" />
    <glyph glyph-name="uni0446" unicode="&#x446;" horiz-adv-x="630" 
d="M600 83v-211h-98v128h-427v538h104v-455h240v455h104v-455h77z" />
    <glyph glyph-name="uni0447" unicode="&#x447;" horiz-adv-x="556" 
d="M377 0v213c-60 -14 -107 -21 -156 -21c-112 0 -174 52 -174 168v178h104v-158c0 -74 36 -101 110 -101c34 0 70 6 116 17v242h104v-538h-104z" />
    <glyph glyph-name="uni0448" unicode="&#x448;" horiz-adv-x="836" 
d="M761 0h-686v538h104v-455h187v455h104v-455h187v455h104v-538z" />
    <glyph glyph-name="uni0449" unicode="&#x449;" horiz-adv-x="868" 
d="M838 -128h-98v128h-665v538h104v-455h187v455h104v-455h187v455h104v-455h77v-211z" />
    <glyph glyph-name="uni044A" unicode="&#x44a;" horiz-adv-x="595" 
d="M359 352c144 0 206 -56 206 -172c0 -135 -77 -180 -204 -180h-201v455h-145v83h249v-186h95zM348 83c76 0 114 28 114 97c0 68 -38 89 -116 89h-82v-186h84z" />
    <glyph glyph-name="uni044B" unicode="&#x44b;" horiz-adv-x="744" 
d="M275 352c142 0 206 -66 206 -172c0 -135 -87 -180 -215 -180h-191v538h104v-186h96zM565 0v538h104v-538h-104zM263 83c76 0 114 29 114 97c0 66 -38 89 -115 89h-83v-186h84z" />
    <glyph glyph-name="uni044C" unicode="&#x44c;" horiz-adv-x="537" 
d="M301 352c142 0 206 -66 206 -172c0 -135 -87 -180 -215 -180h-217v538h104v-186h122zM289 83c76 0 114 29 114 97c0 66 -38 89 -115 89h-109v-186h110z" />
    <glyph glyph-name="uni044D" unicode="&#x44d;" horiz-adv-x="571" 
d="M275 76c74 0 144 48 154 153h-221v83h222c-11 97 -76 147 -156 147c-70 0 -122 -35 -139 -106h-102c25 134 129 195 245 195c159 0 259 -110 259 -279c0 -168 -91 -282 -257 -282c-114 0 -222 60 -252 196h102c15 -61 64 -107 145 -107z" />
    <glyph glyph-name="uni044E" unicode="&#x44e;" horiz-adv-x="811" 
d="M525 548c123 0 252 -86 252 -281c0 -194 -129 -280 -252 -280c-113 0 -231 76 -245 247h-101v-234h-104v538h104v-221h103c20 160 134 231 243 231zM525 75c74 0 142 61 142 192c0 134 -68 193 -142 193c-70 0 -136 -57 -136 -193c0 -133 66 -192 136 -192z" />
    <glyph glyph-name="uni044F" unicode="&#x44f;" horiz-adv-x="555" 
d="M15 0l151 214c-62 23 -107 73 -107 154c0 110 75 170 203 170h218v-538h-104v186h-107l-130 -186h-124zM272 269h104v186h-106c-64 0 -107 -34 -107 -94c0 -68 47 -92 109 -92z" />
    <glyph glyph-name="uni0452" unicode="&#x452;" horiz-adv-x="602" 
d="M368 -175v83h14c62 0 71 18 71 79v192c0 83 -12 154 -105 154c-90 0 -137 -73 -137 -187v-146h-104v495h-92v83h92v147h104v-147h182v-83h-182v-177c26 55 87 100 172 100c128 0 174 -81 174 -212v-231c0 -118 -37 -150 -147 -150h-42z" />
    <glyph glyph-name="uni0453" unicode="&#x453;" horiz-adv-x="440" 
d="M306 609h-83l91 116h128zM179 455v-455h-104v538h354v-83h-250z" />
    <glyph glyph-name="uni0454" unicode="&#x454;" horiz-adv-x="569" 
d="M436 179h105c-22 -113 -127 -192 -251 -192c-155 0 -257 119 -257 281c0 160 105 280 264 280c128 0 222 -87 239 -192h-104c-12 61 -67 103 -140 103c-69 0 -134 -46 -148 -147h219v-83h-220c14 -105 80 -153 149 -153c71 0 129 39 144 103z" />
    <glyph glyph-name="uni0455" unicode="&#x455;" horiz-adv-x="525" 
d="M376 388c-15 55 -61 77 -122 77c-51 0 -106 -21 -106 -65c0 -40 26 -57 75 -67l77 -15c102 -20 191 -55 191 -160c0 -109 -102 -171 -226 -171c-136 0 -219 79 -232 180h106c14 -61 54 -97 129 -97c67 0 119 28 119 76c0 50 -47 70 -103 81l-81 16
c-81 16 -157 52 -157 153c0 95 100 153 218 153c108 0 195 -57 215 -161h-103z" />
    <glyph glyph-name="uni0456" unicode="&#x456;" horiz-adv-x="244" 
d="M179 725v-115h-104v115h104zM174 538v-538h-104v538h104z" />
    <glyph glyph-name="uni0457" unicode="&#x457;" horiz-adv-x="254" 
d="M-38 725h98v-105h-98v105zM293 725v-105h-99v105h99zM179 538v-538h-104v538h104z" />
    <glyph glyph-name="uni0458" unicode="&#x458;" horiz-adv-x="244" 
d="M179 725v-115h-104v115h104zM70 538h104v-556c0 -123 -28 -157 -141 -157h-43v84h24c48 0 56 13 56 70v559z" />
    <glyph glyph-name="uni0459" unicode="&#x459;" horiz-adv-x="845" 
d="M609 352c142 0 206 -66 206 -172c0 -135 -87 -180 -215 -180h-191v455h-167l-5 -101c-11 -226 -58 -354 -198 -354h-19v83h11c64 0 96 81 106 287l8 168h368v-186h96zM597 83c76 0 114 29 114 97c0 66 -38 89 -115 89h-83v-186h84z" />
    <glyph glyph-name="uni045A" unicode="&#x45a;" horiz-adv-x="862" 
d="M75 0v538h104v-223h247v223h104v-186h96c142 0 206 -66 206 -172c0 -135 -87 -180 -215 -180h-191v232h-247v-232h-104zM530 83h84c76 0 114 29 114 97c0 66 -38 89 -115 89h-83v-186z" />
    <glyph glyph-name="uni045B" unicode="&#x45b;" horiz-adv-x="603" 
d="M108 0v495h-93v83h93v147h104v-147h182v-83h-182v-177c26 55 85 100 173 100c128 0 173 -81 173 -212v-206h-104v179c0 83 -11 154 -104 154c-92 0 -138 -73 -138 -187v-146h-104z" />
    <glyph glyph-name="uni045C" unicode="&#x45c;" horiz-adv-x="558" 
d="M311 609h-83l91 116h128zM242 237h-63v-237h-104v538h104v-218h66l164 218h121l-203 -257l221 -281h-125z" />
    <glyph glyph-name="uni045E" unicode="&#x45e;" horiz-adv-x="480" 
d="M249 604c-111 0 -154 56 -160 121h79c4 -34 27 -58 82 -58s80 24 84 58h78c-7 -65 -49 -121 -163 -121zM43 -175v83h41c56 0 80 4 106 81l4 12l-194 537h115l130 -401l127 401h108l-190 -550c-44 -127 -76 -163 -197 -163h-50z" />
    <glyph glyph-name="uni045F" unicode="&#x45f;" horiz-adv-x="598" 
d="M348 0v-128h-98v128h-175v538h104v-455h240v455h104v-538h-175z" />
    <glyph glyph-name="uni0491" unicode="&#x491;" horiz-adv-x="440" 
d="M179 455v-455h-104v538h256v124h98v-207h-250z" />
    <glyph glyph-name="uni0463" unicode="&#x463;" horiz-adv-x="573" 
d="M120 0v479h-105v83h105v163h104v-163h159v-83h-159v-120h113c141 0 206 -54 206 -175c0 -134 -77 -184 -204 -184h-219zM224 83h102c75 0 114 30 114 100s-41 93 -117 93h-99v-193z" />
    <glyph glyph-name="uni0473" unicode="&#x473;" horiz-adv-x="595" 
d="M297 551c141 0 264 -90 264 -282s-123 -282 -264 -282s-263 90 -263 282s122 282 263 282zM451 312c-11 102 -72 152 -154 152c-80 0 -142 -50 -153 -152h307zM296 74c83 0 145 52 154 155h-307c9 -103 72 -155 153 -155z" />
    <glyph glyph-name="uni0475" unicode="&#x475;" horiz-adv-x="547" 
d="M206 0l-201 538h115l142 -414l94 278c32 99 78 136 174 136h17v-86h-6c-47 0 -68 -16 -95 -88l-136 -364h-104z" />
    <glyph glyph-name="uni0493" unicode="&#x493;" horiz-adv-x="452" 
d="M191 321h151v-83h-151v-238h-104v238h-69v83h69v217h354v-83h-250v-134z" />
    <glyph glyph-name="uni0497" unicode="&#x497;" horiz-adv-x="849" 
d="M842 -128h-98v128h-57l-159 237h-65v-237h-104v237h-63l-160 -237h-125l198 282l-181 256h119l146 -218h66v218h104v-218h65l147 218h120l-181 -254l137 -198h91v-214z" />
    <glyph glyph-name="uni049B" unicode="&#x49b;" horiz-adv-x="575" 
d="M470 -128v128h-46l-181 237h-64v-237h-104v538h104v-218h67l164 218h118l-203 -257l153 -195h90v-214h-98z" />
    <glyph glyph-name="uni04A3" unicode="&#x4a3;" horiz-adv-x="642" 
d="M612 -128h-98v128h-83v234h-252v-234h-104v538h104v-221h252v221h104v-452h77v-214z" />
    <glyph glyph-name="uni04AF" unicode="&#x4af;" horiz-adv-x="517" 
d="M209 -175v159l-209 554h114l149 -435l145 435h109l-204 -550v-163h-104z" />
    <glyph glyph-name="uni04B1" unicode="&#x4b1;" horiz-adv-x="517" 
d="M209 -175v106h-106v83h96l-199 524h114l149 -431l145 431h109l-197 -524h97v-83h-104v-106h-104z" />
    <glyph glyph-name="uni04B3" unicode="&#x4b3;" horiz-adv-x="562" 
d="M457 -128v128h-55l-137 194l-137 -194h-117l197 275l-185 263h123l124 -176l125 176h116l-184 -257l138 -195h90v-214h-98z" />
    <glyph glyph-name="uni04B7" unicode="&#x4b7;" horiz-adv-x="588" 
d="M558 -128h-98v128h-83v213c-59 -14 -106 -21 -156 -21c-112 0 -174 52 -174 168v178h104v-157c0 -74 34 -103 110 -103c34 0 70 7 116 18v242h104v-450h77v-216z" />
    <glyph glyph-name="uni04BB" unicode="&#x4bb;" horiz-adv-x="583" 
d="M174 460c31 53 85 88 169 88c130 0 180 -84 180 -209v-339h-104v311c0 78 -13 150 -111 150c-90 0 -134 -65 -134 -172v-289h-104v725h104v-265z" />
    <glyph glyph-name="uni04CF" unicode="&#x4cf;" horiz-adv-x="244" 
d="M174 0h-104v725h104v-725z" />
    <glyph glyph-name="uni04D9" unicode="&#x4d9;" horiz-adv-x="583" 
d="M285 -13c-167 0 -262 136 -251 311h401c-1 98 -67 163 -152 163c-74 0 -115 -31 -137 -82h-105c25 89 102 171 239 171c174 0 265 -127 265 -285c0 -166 -107 -278 -260 -278zM285 72c80 0 146 49 150 144h-293c2 -80 57 -144 143 -144z" />
    <glyph glyph-name="uni04E3" unicode="&#x4e3;" horiz-adv-x="618" 
d="M168 632v81h304v-81h-304zM75 0v538h102v-389l263 389h102v-538h-102v388l-263 -388h-102z" />
    <glyph glyph-name="uni04E9" unicode="&#x4e9;" horiz-adv-x="595" 
d="M295 548c128 0 262 -86 262 -281c0 -194 -134 -280 -262 -280c-127 0 -261 86 -261 280c0 195 134 281 261 281zM295 460c-68 0 -135 -43 -150 -143h301c-16 99 -83 143 -151 143zM295 75c72 0 142 51 153 159h-305c11 -110 81 -159 152 -159z" />
    <glyph glyph-name="uni04EF" unicode="&#x4ef;" horiz-adv-x="480" 
d="M89 632v81h304v-81h-304zM43 -175v83h41c56 0 80 4 106 81l4 12l-194 537h115l130 -401l127 401h108l-190 -550c-44 -127 -76 -163 -197 -163h-50z" />
    <glyph glyph-name="uni0414.loclBGR" horiz-adv-x="748" 
d="M734 -151h-97v151h-526v-151h-97v247h73l227 629h118l230 -629h72v-247zM372 600l-172 -504h349z" />
    <glyph glyph-name="uni041B.loclBGR" horiz-adv-x="663" 
d="M5 0l266 725h119l268 -725h-121l-208 595l-205 -595h-119z" />
    <glyph glyph-name="uni0432.loclBGR" horiz-adv-x="562" 
d="M527 209c0 -145 -89 -221 -242 -221c-127 0 -210 55 -210 197v345c0 149 87 202 205 202c110 0 199 -59 199 -177c0 -64 -27 -110 -79 -142c78 -29 127 -95 127 -204zM179 541v-99h91c72 0 100 42 100 108c0 63 -26 97 -92 97c-62 0 -99 -43 -99 -106zM419 214
c0 91 -44 145 -118 145h-122v-176c0 -72 40 -110 115 -110c84 0 125 47 125 141z" />
    <glyph glyph-name="uni0433.loclBGR" horiz-adv-x="511" 
d="M40 389c19 108 105 160 221 160c120 0 197 -58 197 -151c0 -91 -46 -130 -155 -158l-55 -14c-82 -21 -105 -42 -105 -84c0 -45 40 -71 117 -71c69 0 105 32 122 95h102c-18 -116 -96 -179 -228 -179c-126 0 -219 48 -219 156c0 97 62 132 182 164l61 17
c67 19 75 42 75 77c0 37 -30 64 -92 64c-56 0 -108 -18 -123 -76h-100z" />
    <glyph glyph-name="uni0434.loclBGR" horiz-adv-x="601" 
d="M428 538h104v-475c0 -99 -21 -152 -58 -189c-41 -43 -106 -65 -188 -65c-120 0 -208 52 -225 165h107c11 -49 42 -78 120 -78c51 0 86 14 108 39c21 23 32 51 32 106v57c-33 -55 -87 -89 -166 -89c-125 0 -229 99 -229 270c0 170 104 269 229 269c79 0 133 -34 166 -89
v79zM286 462c-86 0 -142 -68 -142 -183c0 -117 56 -185 142 -185c80 0 146 56 146 185c0 128 -66 183 -146 183z" />
    <glyph glyph-name="uni0436.loclBGR" horiz-adv-x="821" 
d="M11 0l198 282l-181 256h120l146 -218h65v405h104v-405h65l147 218h120l-181 -254l197 -284h-125l-160 237h-63v-237h-104v237h-63l-160 -237h-125z" />
    <glyph glyph-name="uni0437.loclBGR" horiz-adv-x="497" 
d="M464 32c0 -142 -107 -209 -217 -209c-117 0 -205 55 -225 182h101c11 -65 57 -97 124 -97c63 0 116 43 115 124c0 75 -45 128 -122 128h-76v83h65c61 0 114 44 114 115c0 68 -34 108 -96 108c-58 0 -100 -41 -114 -103h-100c20 123 107 188 217 188
c117 0 191 -62 192 -184c0 -73 -39 -130 -99 -159c73 -22 121 -83 121 -176z" />
    <glyph glyph-name="uni0438.loclBGR" horiz-adv-x="576" 
d="M402 76c-31 -54 -83 -89 -164 -89c-127 0 -176 79 -176 209v342h104v-314c0 -78 13 -149 107 -149c87 0 130 65 130 171v292h104v-538h-105v76z" />
    <glyph glyph-name="uni0439.loclBGR" horiz-adv-x="576" 
d="M281 604c-111 0 -154 56 -160 121h79c4 -34 27 -58 82 -58s80 24 84 58h78c-7 -65 -49 -121 -163 -121zM402 76c-31 -54 -83 -89 -164 -89c-127 0 -176 79 -176 209v342h104v-314c0 -78 13 -149 107 -149c87 0 130 65 130 171v292h104v-538h-105v76z" />
    <glyph glyph-name="uni043A.loclBGR" horiz-adv-x="558" 
d="M242 237h-63v-237h-104v725h104v-405h66l164 218h121l-203 -257l221 -281h-125z" />
    <glyph glyph-name="uni043B.loclBGR" horiz-adv-x="514" 
d="M254 412l-141 -412h-108l198 538h105l202 -538h-115z" />
    <glyph glyph-name="uni043F.loclBGR" horiz-adv-x="583" 
d="M174 460c31 53 85 88 169 88c130 0 180 -84 180 -209v-339h-104v311c0 78 -13 150 -111 150c-90 0 -134 -65 -134 -172v-289h-104v538h104v-78z" />
    <glyph glyph-name="uni0442.loclBGR" horiz-adv-x="903" 
d="M174 0h-104v538h104v-78c31 53 82 88 159 88c83 0 132 -35 156 -95c45 67 108 95 178 95c126 0 175 -84 175 -209v-339h-104v311c0 78 -12 150 -106 150c-82 0 -124 -65 -124 -172v-289h-104v311c0 78 -12 150 -106 150c-83 0 -124 -65 -124 -172v-289z" />
    <glyph glyph-name="uni0446.loclBGR" horiz-adv-x="623" 
d="M510 -128v128c-48 0 -89 24 -100 78c-32 -57 -84 -91 -165 -91c-127 0 -176 84 -176 209v342h104v-314c0 -78 12 -149 107 -149c87 0 129 65 129 171v292h104v-392c0 -51 18 -68 73 -68h22v-206h-98z" />
    <glyph glyph-name="uni0448.loclBGR" horiz-adv-x="916" 
d="M737 538h104v-538h-104v78c-31 -53 -82 -88 -159 -88c-83 0 -132 35 -156 95c-45 -67 -108 -95 -178 -95c-126 0 -175 84 -175 209v339h104v-311c0 -78 12 -150 106 -150c82 0 124 65 124 172v289h104v-311c0 -78 12 -150 106 -150c83 0 124 65 124 172v289z" />
    <glyph glyph-name="uni0449.loclBGR" horiz-adv-x="951" 
d="M838 -128v128c-57 0 -90 26 -99 80c-30 -54 -85 -90 -161 -90c-82 0 -131 35 -156 95c-44 -67 -107 -95 -178 -95c-126 0 -175 84 -175 209v339h104v-311c0 -78 12 -150 106 -150c83 0 124 65 124 172v289h104v-311c0 -78 12 -150 106 -150c83 0 124 65 124 172v289h104
v-399c0 -44 20 -61 71 -62h24v-205h-98z" />
    <glyph glyph-name="uni044E.loclBGR" horiz-adv-x="811" 
d="M525 548c123 0 252 -86 252 -281c0 -194 -129 -280 -252 -280c-113 0 -231 76 -245 247h-101v-234h-104v728h104v-411h103c20 160 134 231 243 231zM525 75c74 0 142 61 142 192c0 134 -68 193 -142 193c-70 0 -136 -57 -136 -193c0 -133 66 -192 136 -192z" />
    <glyph glyph-name="uni044C.loclBGR" horiz-adv-x="524" 
d="M288 352c143 0 206 -60 206 -178c0 -128 -78 -186 -216 -186c-130 0 -209 52 -209 193v357h104v-186h115zM386 171c0 78 -33 98 -109 98h-104v-88c0 -81 30 -107 112 -107c70 0 101 36 101 97z" />
    <glyph glyph-name="uni044A.loclBGR" horiz-adv-x="589" 
d="M159 167v288h-144v83h248v-186h80c150 0 216 -60 216 -178c0 -128 -69 -186 -206 -186c-118 0 -194 48 -194 179zM456 171c0 78 -41 98 -124 98h-69v-88c0 -80 30 -107 97 -107c70 0 96 35 96 97z" />
    <glyph glyph-name="uni0431.loclSRB" horiz-adv-x="576" 
d="M157 474c-55 24 -86 67 -86 124c0 74 55 127 169 127c179 0 213 0 252 9v-88c-33 -8 -82 -8 -240 -8c-53 0 -85 -11 -85 -53c0 -30 19 -77 113 -78h10c138 0 252 -80 252 -255c0 -176 -113 -265 -252 -265c-135 0 -245 87 -245 265c0 114 49 188 112 222zM290 75
c83 0 142 61 142 177c0 109 -62 168 -142 168c-72 0 -136 -58 -135 -173c0 -109 57 -172 135 -172z" />
    <glyph glyph-name="uniF6D4" unicode="&#xf6d4;" horiz-adv-x="412" 
d="M205 604c-111 0 -154 56 -160 121h79c4 -34 27 -58 82 -58s80 24 84 58h78c-7 -65 -49 -121 -163 -121z" />
    <glyph glyph-name="uniF6D1" unicode="&#xf6d1;" horiz-adv-x="472" 
d="M417 886c-8 -73 -68 -121 -180 -121c-110 0 -169 48 -178 121h83c5 -37 38 -58 96 -58c57 0 90 22 96 58h83z" />
    <glyph glyph-name="uni20BD" unicode="&#x20bd;" horiz-adv-x="634" 
d="M222 203h226v-77h-226v-126h-114v126h-88v77h88v76h-88v96h88v350h203c181 0 309 -44 309 -223c0 -171 -128 -223 -309 -223h-89v-76zM316 375c104 0 188 21 188 127s-84 126 -188 126h-94v-253h94z" />
    <glyph glyph-name="uni20B4" unicode="&#x20b4;" horiz-adv-x="644" 
d="M22 385v76h382c27 18 42 46 42 83c0 70 -54 99 -123 99s-128 -24 -139 -87h-113c17 111 115 182 250 182c128 0 236 -67 236 -186c0 -30 -10 -67 -28 -91h65v-76h-572zM321 -13c-153 0 -252 72 -252 193c0 34 6 67 18 86h-65v76h572v-76h-388c-17 -17 -25 -49 -25 -79
c0 -57 48 -104 136 -104c85 0 145 34 153 114h115c-5 -123 -108 -210 -264 -210z" />
    <glyph glyph-name="pi" unicode="&#x3c0;" horiz-adv-x="655" 
d="M109 0v442h-77v96h586v-96h-79v-288c0 -54 5 -67 55 -67h28v-87h-46c-109 0 -137 24 -137 143v299h-228v-442h-102z" />
    <glyph glyph-name="uni00B5" unicode="&#xb5;" horiz-adv-x="578" 
d="M68 -13v551h101v-305c0 -108 34 -158 113 -158c82 0 126 66 126 170v293h101v-538h-101v70c-29 -51 -74 -81 -123 -81c-54 0 -92 24 -116 61v-56c0 -82 -4 -126 -13 -169h-99c9 43 11 88 11 162z" />
    <glyph glyph-name="ellipsis" unicode="&#x2026;" horiz-adv-x="729" 
d="M59 0v125h125v-125h-125zM302 0v125h125v-125h-125zM545 0v125h125v-125h-125z" />
    <glyph glyph-name="endash" unicode="&#x2013;" horiz-adv-x="510" 
d="M35 224v96h440v-96h-440z" />
    <glyph glyph-name="emdash" unicode="&#x2014;" horiz-adv-x="724" 
d="M32 224v96h660v-96h-660z" />
    <glyph glyph-name="guilsinglleft" unicode="&#x2039;" horiz-adv-x="304" 
d="M13 273l159 228h106l-143 -228l143 -229h-106z" />
    <glyph glyph-name="guilsinglright" unicode="&#x203a;" horiz-adv-x="304" 
d="M132 44h-105l143 229l-143 228h105l159 -228z" />
    <glyph glyph-name="quoteleft" unicode="&#x2018;" horiz-adv-x="242" 
d="M184 452h-125v134l65 139h64l-58 -148h54v-125z" />
    <glyph glyph-name="quoteright" unicode="&#x2019;" horiz-adv-x="243" 
d="M59 725h125v-134l-65 -139h-65l60 148h-55v125z" />
    <glyph glyph-name="quotedblleft" unicode="&#x201c;" horiz-adv-x="419" 
d="M184 452h-125v134l65 139h64l-58 -148h54v-125zM360 452h-125v134l65 139h64l-58 -148h54v-125z" />
    <glyph glyph-name="quotedblright" unicode="&#x201d;" horiz-adv-x="419" 
d="M59 725h125v-134l-65 -139h-65l60 148h-55v125zM235 725h125v-134l-65 -139h-65l60 148h-55v125z" />
    <glyph glyph-name="quotesinglbase" unicode="&#x201a;" horiz-adv-x="242" 
d="M59 125h125v-134l-65 -139h-65l60 148h-55v125z" />
    <glyph glyph-name="quotedblbase" unicode="&#x201e;" horiz-adv-x="424" 
d="M59 125h125v-134l-65 -139h-65l60 148h-55v125zM235 125h125v-134l-65 -139h-65l60 148h-55v125z" />
    <glyph glyph-name="bullet" unicode="&#x2022;" horiz-adv-x="447" 
d="M219 456c105 0 184 -79 184 -177c0 -104 -79 -183 -184 -183c-96 0 -176 79 -176 183c0 98 80 177 176 177z" />
    <glyph glyph-name="dagger" unicode="&#x2020;" horiz-adv-x="575" 
d="M237 0v416h-208v97h208v212h101v-212h207v-97h-207v-416h-101z" />
    <glyph glyph-name="daggerdbl" unicode="&#x2021;" horiz-adv-x="575" 
d="M545 286v-96h-207v-190h-101v190h-208v96h208v152h-208v96h208v191h101v-191h207v-96h-207v-152h207z" />
    <glyph glyph-name="perthousand" unicode="&#x2030;" horiz-adv-x="1417" 
d="M35 521c0 126 56 211 166 211c111 0 168 -85 168 -211c0 -125 -57 -211 -168 -211c-110 0 -166 86 -166 211zM201 0l500 725h113l-500 -725h-113zM287 521c0 100 -31 152 -86 152c-53 0 -84 -52 -84 -152c0 -99 31 -152 84 -152c55 0 86 53 86 152zM649 204
c0 126 56 211 167 211s167 -85 167 -211c0 -125 -56 -211 -167 -211s-167 86 -167 211zM1050 204c0 126 56 211 166 211c111 0 168 -85 168 -211c0 -125 -57 -211 -168 -211c-110 0 -166 86 -166 211zM901 204c0 100 -31 152 -85 152s-85 -52 -85 -152
c0 -99 31 -152 85 -152s85 53 85 152zM1302 204c0 100 -31 152 -86 152c-53 0 -84 -52 -84 -152c0 -99 31 -152 84 -152c55 0 86 53 86 152z" />
    <glyph glyph-name="uni2113" unicode="&#x2113;" horiz-adv-x="465" 
d="M115 198l-72 -55l-46 69l118 90v242c0 125 51 194 166 194c92 0 147 -62 147 -156c0 -126 -76 -205 -195 -295l-13 -10v-109c0 -74 29 -93 71 -93c37 0 69 17 96 40l42 -69c-33 -30 -87 -59 -153 -59c-113 0 -161 53 -161 184v27zM220 382l7 6c69 52 102 113 102 192
c0 53 -21 76 -53 76c-41 0 -56 -24 -56 -96v-178z" />
    <glyph glyph-name="uni2116" unicode="&#x2116;" horiz-adv-x="1079" 
d="M879 371c-100 0 -165 68 -165 185c0 119 73 182 165 182s164 -59 164 -182c0 -117 -64 -185 -164 -185zM512 0l-320 600v-600h-112v725h159l320 -599v599h112v-725h-159zM879 660c-49 0 -70 -40 -70 -104c0 -62 20 -106 70 -106c46 0 69 44 69 106c0 64 -24 104 -69 104z
M720 235v96h318v-96h-318z" />
    <glyph glyph-name="uni2117" unicode="&#x2117;" horiz-adv-x="825" 
d="M413 738c207 0 374 -153 374 -377c0 -222 -167 -374 -374 -374c-208 0 -375 152 -375 374c0 224 167 377 375 377zM413 56c171 0 298 124 298 305c0 184 -127 307 -298 307c-168 0 -298 -123 -298 -307c0 -181 130 -305 298 -305zM365 325v-149h-89v399h133
c114 0 187 -22 187 -126c0 -77 -61 -124 -175 -124h-56zM426 504h-61v-110h65c54 0 77 19 77 54c0 40 -32 56 -81 56z" />
    <glyph glyph-name="trademark" unicode="&#x2122;" horiz-adv-x="884" 
d="M134 650h-127v75h344v-75h-127v-324h-90v324zM575 326l-103 289v-289h-90v399h142l95 -287l95 287h137v-399h-90v290l-101 -290h-85z" />
    <glyph glyph-name="lozenge" unicode="&#x25ca;" horiz-adv-x="528" 
d="M267 765l253 -425l-253 -427l-259 427zM122 340l146 -247l146 247l-146 246z" />
    <glyph glyph-name="estimated" unicode="&#x212e;" horiz-adv-x="580" 
d="M538 150c-32 -91 -110 -163 -241 -163c-177 0 -270 125 -270 281c0 164 104 280 265 280c168 0 258 -129 260 -279h-410v-193c31 -32 96 -55 163 -55c94 0 161 49 193 129h40zM142 302h294v158c-29 30 -81 54 -145 54c-62 0 -117 -19 -149 -52v-160z" />
    <glyph glyph-name="minus" unicode="&#x2212;" 
d="M610 316v-96h-541v96h541z" />
    <glyph glyph-name="lessequal" unicode="&#x2264;" 
d="M598 220v-104l-519 169v88l519 173v-106l-382 -111zM77 96h525v-96h-525v96z" />
    <glyph glyph-name="greaterequal" unicode="&#x2265;" 
d="M80 440v106l520 -173v-88l-520 -169v104l383 109zM77 0v96h525v-96h-525z" />
    <glyph glyph-name="notequal" unicode="&#x2260;" 
d="M88 121v96h168l57 108h-225v97h277l76 144l83 -42l-55 -102h122v-97h-174l-57 -108h231v-96h-283l-84 -159l-82 40l63 119h-117z" />
    <glyph glyph-name="approxequal" unicode="&#x2248;" 
d="M515 456h91c-5 -96 -60 -160 -156 -160c-81 0 -152 68 -220 68c-37 0 -64 -22 -67 -68h-91c5 94 60 160 156 160c94 0 160 -69 220 -69c37 0 64 22 67 69zM515 263h91c-5 -96 -60 -160 -156 -160c-81 0 -152 69 -220 69c-37 0 -64 -22 -67 -69h-91c5 96 60 160 156 160
c94 0 160 -69 220 -69c37 0 64 22 67 69z" />
    <glyph glyph-name="partialdiff" unicode="&#x2202;" horiz-adv-x="583" 
d="M34 254c0 166 101 264 235 264c69 0 123 -30 156 -75l1 1c-30 115 -137 201 -272 206v89c237 -8 389 -192 389 -420c0 -215 -96 -332 -259 -332c-153 0 -250 103 -250 267zM284 430c-89 0 -141 -67 -141 -177c0 -112 51 -178 141 -178c83 0 147 57 147 178
c0 122 -65 177 -147 177z" />
    <glyph glyph-name="product" unicode="&#x220f;" horiz-adv-x="677" 
d="M70 -175v900h537v-900h-101v804h-336v-804h-100z" />
    <glyph glyph-name="radical" unicode="&#x221a;" horiz-adv-x="528" 
d="M157 281l135 -308l133 752h103l-168 -900h-100l-152 325l-66 -32l-42 88z" />
    <glyph glyph-name="summation" unicode="&#x2211;" horiz-adv-x="591" 
d="M300 274l-270 365v86h532v-96h-406l266 -355l-267 -353h407v-96h-533v86z" />
    <glyph glyph-name="integral" unicode="&#x222b;" horiz-adv-x="329" 
d="M112 457c0 218 68 280 157 280c48 0 93 -23 93 -72c0 -32 -20 -55 -53 -55c-29 0 -51 19 -51 51c0 9 1 19 3 25c-43 -2 -49 -58 -49 -124c0 -44 5 -91 5 -190v-284c0 -210 -63 -270 -155 -270c-48 0 -94 21 -94 71c0 31 21 55 53 55c29 0 51 -20 51 -51
c0 -9 -1 -18 -4 -26c44 2 47 59 47 125c0 37 -3 98 -3 177v288z" />
    <glyph glyph-name="infinity" unicode="&#x221e;" horiz-adv-x="784" 
d="M751 254c0 -98 -71 -167 -177 -167c-77 0 -133 44 -181 98c-49 -53 -107 -97 -184 -97c-106 0 -177 69 -177 166s73 166 182 166c76 0 133 -42 179 -92c51 58 103 92 179 92c105 0 179 -69 179 -166zM334 255c-35 41 -70 73 -119 73c-48 0 -85 -29 -85 -74
c0 -40 35 -74 82 -74c46 0 80 24 122 75zM452 255c34 -42 71 -75 120 -75c46 0 81 32 81 74c0 41 -34 74 -86 74c-47 0 -83 -35 -115 -73z" />
    <glyph glyph-name="uni0394" unicode="&#x394;" horiz-adv-x="696" 
d="M349 730l351 -730h-704zM349 513l-202 -419h402z" />
    <glyph glyph-name="uni03A9" unicode="&#x3a9;" horiz-adv-x="794" 
d="M751 422c0 -124 -81 -238 -197 -276v-50h196v-96h-298v206c118 18 192 112 192 220c0 131 -101 225 -247 225c-145 0 -247 -94 -247 -225c0 -108 75 -202 192 -220v-206h-298v96h196v50c-116 38 -197 152 -197 276c0 204 171 316 354 316s354 -112 354 -316z" />
    <glyph glyph-name="Euro" unicode="&#x20ac;" horiz-adv-x="716" 
d="M209 254c24 -115 90 -183 195 -183c92 0 168 44 185 159h103c-19 -153 -137 -243 -286 -243c-164 0 -271 100 -304 267h-116l46 69h62c-1 13 -1 28 -1 43c0 12 0 24 1 36h-108l46 68h70c32 168 146 268 307 268c148 0 262 -94 280 -243h-103c-16 112 -88 160 -182 160
c-103 0 -172 -66 -196 -185h279l-46 -68h-242c-1 -12 -1 -24 -1 -36c0 -15 0 -30 1 -43h206l-46 -69h-150z" />
    <glyph glyph-name="fi" unicode="&#xfb01;" horiz-adv-x="561" 
d="M89 574c0 119 35 151 161 151h47v-83h-40c-53 0 -64 -11 -64 -67v-37h104v-79h-104v-459h-104v459h-75v79h75v36zM492 725v-115h-104v115h104zM492 538v-538h-104v538h104z" />
    <glyph glyph-name="fl" unicode="&#xfb02;" horiz-adv-x="561" 
d="M89 574c0 119 35 151 161 151h47v-83h-40c-53 0 -64 -11 -64 -67v-37h104v-79h-104v-459h-104v459h-75v79h75v36zM492 0h-104v725h104v-725z" />
    <glyph glyph-name="dot" horiz-adv-x="244" 
d="M174 725v-115h-104v115h104z" />
    <glyph glyph-name="breve" unicode="&#x2d8;" horiz-adv-x="367" 
d="M182 604c-111 0 -154 56 -160 121h79c4 -34 27 -58 82 -58s80 24 84 58h78c-7 -65 -49 -121 -163 -121z" />
    <glyph glyph-name="caron" unicode="&#x2c7;" horiz-adv-x="407" 
d="M22 725h103l78 -51l80 51h102l-137 -116h-92z" />
    <glyph glyph-name="circumflex" unicode="&#x2c6;" horiz-adv-x="407" 
d="M385 609h-102l-79 51l-80 -51h-102l137 116h92z" />
    <glyph glyph-name="dotaccent" unicode="&#x2d9;" horiz-adv-x="142" 
d="M120 725v-105h-98v105h98z" />
    <glyph glyph-name="dotaccent.low" horiz-adv-x="142" 
d="M120 -71v-104h-98v104h98z" />
    <glyph glyph-name="hungarumlaut" unicode="&#x2dd;" horiz-adv-x="432" 
d="M106 609h-84l91 116h128zM274 609h-83l91 116h128z" />
    <glyph glyph-name="ogonek" unicode="&#x2db;" horiz-adv-x="240" 
d="M209 0c-56 -25 -93 -51 -93 -81c0 -29 24 -38 50 -38c16 0 30 4 42 7v-67c-18 -5 -38 -9 -64 -9c-59 0 -122 22 -122 91c0 40 26 71 82 97h105z" />
    <glyph glyph-name="ring" unicode="&#x2da;" horiz-adv-x="227" 
d="M205 688c0 -50 -40 -86 -92 -86c-51 0 -91 36 -91 86s41 86 91 86c51 0 92 -36 92 -86zM71 688c0 -24 20 -41 42 -41c23 0 43 17 43 41c0 25 -20 43 -43 43c-22 0 -42 -18 -42 -43z" />
    <glyph glyph-name="tilde" unicode="&#x2dc;" horiz-adv-x="423" 
d="M324 730h77c-14 -93 -72 -120 -122 -120c-61 0 -91 47 -133 47c-27 0 -42 -16 -46 -44h-78c14 89 69 119 122 119c62 0 86 -47 131 -47c27 0 44 15 49 45z" />
    <glyph glyph-name="uni032C" unicode="&#x32c;" horiz-adv-x="0" 
d="M-385 0h107l74 -65l76 65h106l-148 -138h-70z" />
    <glyph glyph-name="caron.slovak" horiz-adv-x="181" 
d="M89 555h-67l30 170h107z" />
    <glyph glyph-name="uni0326" unicode="&#x326;" horiz-adv-x="0" 
d="M-120 -36h98v-98l-44 -90h-57l39 96h-36v92z" />
    <glyph glyph-name="zero.slashed" horiz-adv-x="659" 
d="M44 363c0 226 92 375 285 375c194 0 285 -149 285 -375c0 -227 -91 -376 -285 -376c-193 0 -285 149 -285 376zM154 334l341 139c-21 120 -80 182 -166 182c-109 0 -175 -100 -175 -292v-29zM504 363c0 9 0 17 -1 25l-340 -138c22 -119 81 -179 166 -179
c110 0 175 99 175 292z" />
    <glyph glyph-name="one.pof" horiz-adv-x="340" 
d="M155 0v491h-155v75c100 3 149 14 184 87h76v-653h-105z" />
    <glyph glyph-name="two.pof" horiz-adv-x="553" 
d="M509 487c0 -139 -155 -257 -340 -393h356v-94h-498v90c231 167 372 276 372 387c0 63 -45 100 -117 100c-67 0 -134 -34 -135 -138h-105c-2 135 97 225 244 225c127 0 223 -64 223 -177z" />
    <glyph glyph-name="three.pof" horiz-adv-x="566" 
d="M414 183c0 84 -81 112 -186 112h-21v90h18c110 0 172 32 172 100c0 61 -56 91 -123 91c-85 0 -133 -41 -143 -106h-103c13 116 106 194 250 194c116 0 228 -48 228 -170c0 -67 -41 -121 -105 -148c90 -30 122 -94 122 -161c0 -132 -121 -197 -253 -197
c-158 0 -239 94 -251 202h104c10 -64 59 -114 148 -114c83 0 143 38 143 107z" />
    <glyph glyph-name="four.pof" horiz-adv-x="577" 
d="M570 155h-121v-155h-105v155h-338v92l340 405h103v-401h121v-96zM122 251h222v260z" />
    <glyph glyph-name="five.pof" horiz-adv-x="573" 
d="M426 214c0 97 -73 138 -144 138c-64 0 -111 -31 -126 -63l-100 6l45 357h407v-95h-322l-21 -159c33 27 86 42 144 42c118 0 226 -78 226 -226c0 -147 -117 -226 -252 -226c-157 0 -235 98 -248 200h104c12 -64 56 -112 145 -112c79 0 142 47 142 138z" />
    <glyph glyph-name="six.pof" horiz-adv-x="588" 
d="M152 359c30 42 87 76 169 76c127 0 225 -89 225 -223c0 -129 -99 -224 -247 -224c-175 0 -255 126 -255 318c0 186 73 358 272 358c141 0 207 -88 218 -174h-108c-9 56 -55 86 -120 86c-97 0 -152 -82 -154 -217zM298 76c82 0 139 53 139 134c0 80 -56 136 -138 136
s-139 -55 -139 -136c0 -82 55 -134 138 -134z" />
    <glyph glyph-name="seven.pof" horiz-adv-x="469" 
d="M4 652h485v-93c-173 -151 -271 -315 -286 -559h-120c13 236 127 417 290 557h-369v95z" />
    <glyph glyph-name="eight.pof" horiz-adv-x="597" 
d="M531 495c0 -55 -25 -113 -90 -147c85 -39 111 -102 111 -163c0 -127 -111 -197 -254 -197s-254 70 -254 197c0 61 27 124 110 163c-62 33 -89 91 -89 147c0 96 90 169 233 169s233 -73 233 -169zM298 576c-77 0 -129 -35 -129 -93c0 -57 52 -99 129 -99
c78 0 129 42 129 99c0 58 -51 93 -129 93zM154 188c0 -68 55 -112 144 -112c88 0 145 44 145 112c0 69 -57 114 -145 114c-89 0 -144 -45 -144 -114z" />
    <glyph glyph-name="nine.pof" horiz-adv-x="583" 
d="M433 292c-31 -42 -86 -75 -169 -75c-127 0 -226 87 -226 222c0 127 97 225 245 225c179 0 256 -126 256 -318c0 -187 -70 -358 -269 -358c-141 0 -208 88 -220 174h108c9 -57 55 -87 118 -87c98 0 155 83 157 217zM286 576c-83 0 -139 -53 -139 -135
c0 -79 56 -135 138 -135s139 55 139 135c0 82 -56 135 -138 135z" />
    <glyph glyph-name="zero.pof" horiz-adv-x="625" 
d="M42 328c0 205 87 336 270 336s272 -131 272 -336c0 -204 -89 -340 -272 -340s-270 136 -270 340zM474 328c0 169 -61 248 -162 248c-100 0 -161 -79 -161 -248s61 -252 161 -252c101 0 162 83 162 252z" />
    <glyph glyph-name="zero.slashed.pof" horiz-adv-x="625" 
d="M42 328c0 205 87 336 270 336s272 -131 272 -336c0 -204 -89 -340 -272 -340s-270 136 -270 340zM151 307l313 127c-22 97 -75 142 -152 142c-100 0 -161 -79 -161 -248v-21zM474 328c0 7 0 14 -1 21l-312 -127c21 -98 74 -146 151 -146c101 0 162 83 162 252z" />
    <glyph glyph-name="one.tlf" 
d="M569 92v-92h-461v92h187v457h-186v72c109 3 178 15 216 94h74v-623h170z" />
    <glyph glyph-name="two.tlf" 
d="M582 547c0 -159 -160 -304 -371 -453h390v-94h-525v90c249 189 397 321 397 446c0 73 -49 119 -127 119c-74 0 -145 -42 -146 -159h-106c-2 145 99 242 255 242c134 0 233 -68 233 -191z" />
    <glyph glyph-name="three.tlf" 
d="M495 203c0 99 -84 132 -196 132h-25v91h21c120 0 181 36 181 116c0 76 -61 113 -134 113c-92 0 -143 -56 -153 -140h-104c11 133 105 223 262 223c123 0 238 -52 238 -187c0 -73 -42 -135 -113 -166c98 -33 132 -105 132 -180c0 -147 -125 -218 -267 -218
c-169 0 -253 108 -262 232h104c11 -84 61 -148 160 -148c90 0 156 48 156 132z" />
    <glyph glyph-name="four.tlf" 
d="M636 175h-130v-175h-105v175h-359v92l359 458h105v-456h130v-94zM157 269h244v317z" />
    <glyph glyph-name="five.tlf" 
d="M491 236c0 114 -79 165 -155 165c-71 0 -120 -39 -136 -78l-101 6l48 396h424v-95h-339l-24 -194c37 33 91 50 153 50c126 0 239 -87 239 -249c0 -164 -124 -250 -263 -250c-168 0 -249 108 -261 229h104c12 -88 60 -145 158 -145c84 0 153 60 153 165z" />
    <glyph glyph-name="six.tlf" 
d="M182 390c33 52 93 93 183 93c134 0 237 -99 237 -247c0 -140 -104 -249 -259 -249c-184 0 -268 134 -268 352c0 207 75 399 286 399c146 0 216 -93 228 -188h-109c-10 68 -60 105 -129 105c-106 0 -165 -106 -169 -265zM342 71c88 0 151 64 151 161
c0 98 -62 164 -150 164c-89 0 -151 -66 -151 -164s61 -161 150 -161z" />
    <glyph glyph-name="seven.tlf" 
d="M83 725h511v-95c-181 -159 -287 -361 -303 -630h-122c14 258 135 475 310 630h-396v95z" />
    <glyph glyph-name="eight.tlf" 
d="M583 553c0 -61 -27 -128 -96 -167c90 -40 118 -114 118 -181c0 -140 -116 -218 -267 -218s-267 78 -267 218c0 67 29 141 119 181c-68 38 -96 106 -96 167c0 107 94 185 244 185s245 -78 245 -185zM338 655c-84 0 -141 -45 -141 -115c0 -71 57 -122 141 -122
c85 0 141 51 141 122c0 70 -56 115 -141 115zM181 207c0 -84 61 -136 157 -136s158 52 158 136c0 83 -62 138 -158 138s-157 -55 -157 -138z" />
    <glyph glyph-name="nine.tlf" 
d="M495 335c-33 -52 -94 -93 -183 -93c-134 0 -237 99 -237 248c0 139 104 248 259 248c184 0 268 -134 268 -352c0 -207 -76 -399 -286 -399c-146 0 -216 93 -228 188h109c10 -68 59 -104 129 -104c105 0 165 105 169 264zM335 655c-89 0 -151 -64 -151 -162
s62 -164 150 -164s150 66 150 164s-60 162 -149 162z" />
    <glyph glyph-name="zero.tlf" 
d="M53 363c0 226 92 375 285 375c194 0 285 -149 285 -375c0 -227 -91 -376 -285 -376c-193 0 -285 149 -285 376zM513 363c0 192 -65 292 -175 292c-109 0 -175 -100 -175 -292c0 -193 66 -292 175 -292c110 0 175 99 175 292z" />
    <glyph glyph-name="zero.slashed.tlf" 
d="M54 363c0 226 91 375 284 375c194 0 286 -149 286 -375c0 -227 -92 -376 -286 -376c-193 0 -284 149 -284 376zM164 334l341 139c-22 120 -80 182 -167 182c-109 0 -174 -100 -174 -292v-29zM514 363c0 9 -1 17 -1 25l-340 -138c21 -119 80 -179 165 -179
c110 0 176 99 176 292z" />
    <glyph glyph-name="one.case" horiz-adv-x="370" 
d="M169 0v550h-163v80c106 3 157 15 195 95h82v-725h-114z" />
    <glyph glyph-name="two.case" horiz-adv-x="586" 
d="M538 541c0 -153 -163 -292 -359 -443h376v-98h-528v97c243 187 392 312 392 433c0 69 -48 113 -122 113c-70 0 -139 -42 -140 -155h-115c-2 146 99 250 260 250c135 0 236 -69 236 -197z" />
    <glyph glyph-name="three.case" horiz-adv-x="602" 
d="M442 204c0 93 -87 127 -196 127h-23v98h19c116 0 181 36 181 112c0 68 -60 102 -129 102c-88 0 -143 -54 -152 -125h-113c16 133 114 220 270 220c124 0 243 -54 243 -189c0 -71 -43 -132 -110 -162c93 -34 128 -106 128 -180c0 -146 -127 -220 -271 -220
c-166 0 -254 107 -266 232h112c12 -73 61 -136 156 -136c86 0 151 45 151 121z" />
    <glyph glyph-name="four.case" horiz-adv-x="628" 
d="M613 181h-127v-181h-115v181h-358v95l360 449h113v-444h127v-100zM138 281h233v291z" />
    <glyph glyph-name="five.case" horiz-adv-x="612" 
d="M450 238c0 106 -75 156 -149 156c-69 0 -117 -36 -133 -71l-108 6l48 396h432v-98h-339l-23 -184c35 29 88 46 151 46c125 0 241 -88 241 -250c0 -163 -126 -252 -268 -252c-168 0 -251 110 -264 231h111c14 -75 59 -135 154 -135c83 0 147 55 147 155z" />
    <glyph glyph-name="six.case" horiz-adv-x="623" 
d="M160 398c33 47 93 83 179 83c134 0 239 -98 239 -246c0 -141 -105 -248 -262 -248c-186 0 -272 143 -272 354c0 205 79 397 289 397c151 0 221 -99 232 -192h-116c-10 62 -59 97 -125 97c-102 0 -161 -96 -164 -245zM315 83c85 0 145 60 145 149c0 90 -59 152 -144 152
c-86 0 -145 -62 -145 -152c0 -89 58 -149 144 -149z" />
    <glyph glyph-name="seven.case" horiz-adv-x="511" 
d="M4 725h517v-98c-192 -167 -286 -360 -303 -627h-129c13 257 134 472 312 627h-397v98z" />
    <glyph glyph-name="eight.case" horiz-adv-x="633" 
d="M564 552c0 -60 -27 -126 -93 -164c87 -42 115 -114 115 -181c0 -138 -118 -220 -270 -220c-153 0 -269 82 -269 220c0 67 28 139 116 181c-65 36 -93 103 -93 163c0 106 94 187 246 187s248 -81 248 -186zM316 643c-81 0 -134 -42 -134 -104c0 -64 53 -112 134 -112
c82 0 135 48 135 112c0 62 -53 104 -135 104zM166 210c0 -75 58 -127 150 -127c93 0 152 52 152 127c0 76 -59 128 -152 128c-92 0 -150 -52 -150 -128z" />
    <glyph glyph-name="nine.case" horiz-adv-x="617" 
d="M457 326c-33 -46 -92 -81 -177 -81c-136 0 -242 97 -242 245c0 139 103 248 261 248c191 0 273 -141 273 -351c0 -205 -75 -400 -287 -400c-149 0 -222 98 -233 191h116c10 -61 58 -95 126 -95c101 0 160 95 163 243zM302 643c-86 0 -145 -60 -145 -150
c0 -89 59 -152 144 -152c86 0 146 63 146 152c0 90 -58 150 -145 150z" />
    <glyph glyph-name="zero.case" horiz-adv-x="665" 
d="M44 365c0 224 95 373 288 373c194 0 288 -149 288 -373c0 -223 -94 -378 -288 -378c-193 0 -288 155 -288 378zM502 365c0 185 -65 278 -170 278c-103 0 -168 -93 -168 -278c0 -184 65 -282 168 -282c105 0 170 98 170 282z" />
    <glyph glyph-name="zero.slashed.case" horiz-adv-x="665" 
d="M44 365c0 224 95 373 288 373c194 0 288 -149 288 -373c0 -223 -94 -378 -288 -378c-193 0 -288 155 -288 378zM164 337l329 133c-21 115 -79 173 -161 173c-103 0 -168 -93 -168 -278v-28zM502 365v21l-329 -134c22 -111 79 -169 159 -169c105 0 170 98 170 282z" />
    <glyph glyph-name="uni21B2" unicode="&#x21b2;" horiz-adv-x="800" 
d="M321 580l64 -66l-199 -197h467v408h96v-505h-562l198 -196l-64 -66l-310 311z" />
    <glyph glyph-name="uni21B3" unicode="&#x21b3;" horiz-adv-x="800" 
d="M789 269l-310 -311l-64 66l198 196h-562v505h96v-408h467l-199 197l64 66z" />
    <glyph glyph-name="uni21B0" unicode="&#x21b0;" horiz-adv-x="800" 
d="M321 580l64 -67l-199 -196h563v-492h-97v395h-465l198 -197l-64 -65l-310 311z" />
    <glyph glyph-name="uni21B1" unicode="&#x21b1;" horiz-adv-x="800" 
d="M789 269l-310 -311l-64 65l198 197h-465v-395h-97v492h563l-199 196l64 67z" />
    <glyph glyph-name="arrowleft" unicode="&#x2190;" horiz-adv-x="800" 
d="M324 580l63 -67l-199 -196h574v-97h-573l198 -197l-63 -65l-310 311z" />
    <glyph glyph-name="arrowup" unicode="&#x2191;" horiz-adv-x="800" 
d="M711 433l-65 -64l-198 199v-568h-97v568l-198 -199l-64 64l311 310z" />
    <glyph glyph-name="arrowright" unicode="&#x2192;" horiz-adv-x="800" 
d="M785 269l-309 -311l-64 66l197 196h-572v97h574l-199 197l64 66z" />
    <glyph glyph-name="arrowdown" unicode="&#x2193;" horiz-adv-x="800" 
d="M400 -19l-311 311l65 63l197 -198v568h97v-568l199 198l64 -63z" />
    <glyph glyph-name="uni2196" unicode="&#x2196;" horiz-adv-x="800" 
d="M566 538v-90h-280l404 -406l-68 -67l-406 403v-279h-89v439h439z" />
    <glyph glyph-name="uni2197" unicode="&#x2197;" horiz-adv-x="800" 
d="M673 538v-439h-90v280l-405 -404l-68 67l404 406h-280v90h439z" />
    <glyph glyph-name="uni2198" unicode="&#x2198;" horiz-adv-x="800" 
d="M669 0h-439v90h280l-404 405l67 68l406 -404v280h90v-439z" />
    <glyph glyph-name="uni2199" unicode="&#x2199;" horiz-adv-x="800" 
d="M131 439h91v-279l405 403l67 -68l-404 -406h280v-89h-439v439z" />
    <glyph glyph-name="uni219E" unicode="&#x219e;" horiz-adv-x="800" 
d="M331 580l64 -67l-199 -196h144l262 263l64 -66l-199 -197h302v-97h-301l198 -196l-64 -66l-261 262h-144l198 -197l-64 -65l-310 311z" />
    <glyph glyph-name="uni219F" unicode="&#x219f;" horiz-adv-x="800" 
d="M711 433l-65 -64l-198 199v-142l263 -263l-64 -63l-199 199v-299h-97v298l-197 -198l-65 63l262 262v143l-198 -199l-64 64l311 310z" />
    <glyph glyph-name="uni21A0" unicode="&#x21a0;" horiz-adv-x="800" 
d="M784 269l-309 -311l-64 66l197 196h-144l-261 -262l-64 65l198 197h-301v97h302l-199 196l64 67l263 -263h144l-199 197l64 66z" />
    <glyph glyph-name="uni21A1" unicode="&#x21a1;" horiz-adv-x="800" 
d="M400 -19l-311 311l65 63l197 -198v142l-262 262l64 64l198 -199v299h97v-299l198 199l65 -64l-263 -262v-142l199 198l64 -63z" />
    <glyph glyph-name="uni21A2" unicode="&#x21a2;" horiz-adv-x="800" 
d="M321 580l64 -66l-199 -197h272l262 263l63 -66l-246 -245l246 -245l-63 -66l-262 262h-272l199 -196l-64 -66l-311 311z" />
    <glyph glyph-name="uni21A3" unicode="&#x21a3;" horiz-adv-x="800" 
d="M794 269l-310 -311l-64 66l198 196h-272l-261 -262l-64 66l246 245l-246 245l64 66l262 -263h272l-199 197l64 66z" />
    <glyph glyph-name="uni21A4" unicode="&#x21a4;" horiz-adv-x="800" 
d="M759 0h-99v220h-474l198 -197l-64 -65l-310 311l310 311l64 -67l-198 -196h474v221h99v-538z" />
    <glyph glyph-name="uni21A5" unicode="&#x21a5;" horiz-adv-x="800" 
d="M711 433l-67 -64l-196 199v-470h221v-98h-538v98h220v469l-196 -198l-66 64l311 310z" />
    <glyph glyph-name="uni21A6" unicode="&#x21a6;" horiz-adv-x="800" 
d="M41 533h100v-216h474l-199 197l64 66l310 -311l-310 -311l-64 66l198 196h-473v-220h-100v533z" />
    <glyph glyph-name="uni21A7" unicode="&#x21a7;" horiz-adv-x="800" 
d="M400 -18l-311 310l66 64l196 -198v470h-220v97h538v-97h-221v-470l197 198l66 -64z" />
    <glyph glyph-name="filledbox" unicode="&#x25a0;" horiz-adv-x="624" 
d="M43 538h538v-538h-538v538z" />
    <glyph glyph-name="uni25A1" unicode="&#x25a1;" horiz-adv-x="624" 
d="M43 538h538v-538h-538v538zM140 97h344v344h-344v-344z" />
    <glyph glyph-name="uni25CF" unicode="&#x25cf;" horiz-adv-x="602" 
d="M18 268c0 155 120 282 283 282s283 -127 283 -282c0 -154 -120 -281 -283 -281s-283 127 -283 281z" />
    <glyph glyph-name="uni2153" unicode="&#x2153;" horiz-adv-x="816" 
d="M102 317v297h-90v56c61 2 90 11 109 55h61v-408h-80zM36 0l500 725h113l-500 -725h-113zM706 116c0 45 -38 63 -95 63h-24v64h20c59 0 90 20 90 59c0 36 -32 54 -65 54c-44 0 -72 -24 -78 -70h-77c7 83 70 129 160 129c69 0 141 -32 141 -109c0 -40 -26 -73 -57 -90
c43 -18 66 -58 66 -99c0 -84 -74 -124 -158 -124c-90 0 -150 55 -157 136h77c7 -44 35 -77 82 -77c43 0 75 24 75 64z" />
    <glyph glyph-name="uni2154" unicode="&#x2154;" horiz-adv-x="931" 
d="M318 622c0 -82 -75 -157 -200 -238h206v-67h-303v65c126 98 215 168 215 235c0 37 -25 56 -60 56c-36 0 -70 -21 -69 -84h-79c-2 87 59 143 151 143c80 0 139 -40 139 -110zM151 0l500 725h113l-500 -725h-113zM821 116c0 45 -38 63 -95 63h-24v64h20c59 0 90 20 90 59
c0 36 -32 54 -65 54c-44 0 -72 -24 -78 -70h-77c7 83 70 129 160 129c69 0 141 -32 141 -109c0 -40 -26 -73 -57 -90c43 -18 66 -58 66 -99c0 -84 -74 -124 -158 -124c-90 0 -150 55 -157 136h77c7 -44 35 -77 82 -77c43 0 75 24 75 64z" />
    <glyph glyph-name="uni2155" unicode="&#x2155;" horiz-adv-x="819" 
d="M102 317v297h-90v56c61 2 90 11 109 55h61v-408h-80zM36 0l500 725h113l-500 -725h-113zM708 132c0 56 -38 83 -76 83c-35 0 -61 -17 -71 -41l-73 4l28 230h256v-67h-190l-12 -90c19 14 47 23 82 23c71 0 138 -47 138 -141c0 -91 -72 -140 -158 -140
c-91 0 -148 58 -154 135h76c5 -46 32 -76 79 -76c43 0 75 30 75 80z" />
    <glyph glyph-name="uni2159" unicode="&#x2159;" horiz-adv-x="817" 
d="M102 317v297h-90v56c61 2 90 11 109 55h61v-408h-80zM36 0l500 725h113l-500 -725h-113zM560 234c18 22 49 38 91 38c75 0 139 -54 139 -140c0 -84 -64 -139 -154 -139c-110 0 -158 85 -158 200c0 119 45 222 167 222c90 0 133 -57 138 -114h-80c-3 39 -30 55 -63 55
c-49 0 -81 -46 -80 -122zM636 52c43 0 73 30 73 80c0 49 -30 80 -73 80c-42 0 -73 -30 -73 -80s30 -80 73 -80z" />
    <glyph glyph-name="oneeighth" unicode="&#x215b;" horiz-adv-x="827" 
d="M102 317v297h-90v56c61 2 90 11 109 55h61v-408h-80zM36 0l500 725h113l-500 -725h-113zM784 309c0 -38 -16 -69 -49 -91c46 -26 61 -62 61 -101c0 -81 -69 -124 -158 -124c-88 0 -157 43 -157 124c0 39 16 76 61 101c-32 20 -49 53 -49 91c0 62 57 106 145 106
c89 0 146 -44 146 -106zM638 356c-41 0 -67 -22 -67 -56c0 -35 26 -58 67 -58c42 0 67 23 67 58c0 34 -25 56 -67 56zM563 121c0 -41 29 -69 75 -69c47 0 76 28 76 69s-29 67 -76 67c-46 0 -75 -26 -75 -67z" />
    <glyph glyph-name="uni2156" unicode="&#x2156;" horiz-adv-x="933" 
d="M318 622c0 -82 -75 -157 -200 -238h206v-67h-303v65c126 98 215 168 215 235c0 37 -25 56 -60 56c-36 0 -70 -21 -69 -84h-79c-2 87 59 143 151 143c80 0 139 -40 139 -110zM151 0l500 725h113l-500 -725h-113zM823 132c0 56 -38 83 -76 83c-35 0 -61 -17 -71 -41l-73 4
l28 230h256v-67h-190l-12 -90c19 14 47 23 82 23c71 0 138 -47 138 -141c0 -91 -72 -140 -158 -140c-91 0 -148 58 -154 135h76c5 -46 32 -76 79 -76c43 0 75 30 75 80z" />
    <glyph glyph-name="uni2157" unicode="&#x2157;" horiz-adv-x="949" 
d="M257 433c0 45 -38 63 -95 63h-24v64h20c59 0 90 20 90 59c0 36 -32 54 -65 54c-44 0 -72 -24 -78 -70h-77c7 83 70 129 160 129c69 0 141 -32 141 -109c0 -40 -26 -73 -57 -90c43 -18 66 -58 66 -99c0 -84 -74 -124 -158 -124c-90 0 -150 55 -157 136h77
c7 -44 35 -77 82 -77c43 0 75 24 75 64zM166 0l500 725h113l-500 -725h-113zM838 132c0 56 -38 83 -76 83c-35 0 -61 -17 -71 -41l-73 4l28 230h256v-67h-190l-12 -90c19 14 47 23 82 23c71 0 138 -47 138 -141c0 -91 -72 -140 -158 -140c-91 0 -148 58 -154 135h76
c5 -46 32 -76 79 -76c43 0 75 30 75 80z" />
    <glyph glyph-name="threeeighths" unicode="&#x215c;" horiz-adv-x="958" 
d="M257 433c0 45 -38 63 -95 63h-24v64h20c59 0 90 20 90 59c0 36 -32 54 -65 54c-44 0 -72 -24 -78 -70h-77c7 83 70 129 160 129c69 0 141 -32 141 -109c0 -40 -26 -73 -57 -90c43 -18 66 -58 66 -99c0 -84 -74 -124 -158 -124c-90 0 -150 55 -157 136h77
c7 -44 35 -77 82 -77c43 0 75 24 75 64zM166 0l500 725h113l-500 -725h-113zM914 309c0 -38 -16 -69 -49 -91c46 -26 61 -62 61 -101c0 -81 -69 -124 -158 -124c-88 0 -157 43 -157 124c0 39 16 76 61 101c-32 20 -49 53 -49 91c0 62 57 106 145 106c89 0 146 -44 146 -106z
M768 356c-41 0 -67 -22 -67 -56c0 -35 26 -58 67 -58c42 0 67 23 67 58c0 34 -25 56 -67 56zM693 121c0 -41 29 -69 75 -69c47 0 76 28 76 69s-29 67 -76 67c-46 0 -75 -26 -75 -67z" />
    <glyph glyph-name="uni2158" unicode="&#x2158;" horiz-adv-x="962" 
d="M363 410h-66v-93h-80v93h-201v62l203 253h78v-248h66v-67zM179 0l500 725h113l-500 -725h-113zM103 477h114v145zM851 132c0 56 -38 83 -76 83c-35 0 -61 -17 -71 -41l-73 4l28 230h256v-67h-190l-12 -90c19 14 47 23 82 23c71 0 138 -47 138 -141
c0 -91 -72 -140 -158 -140c-91 0 -148 58 -154 135h76c5 -46 32 -76 79 -76c43 0 75 30 75 80z" />
    <glyph glyph-name="uni215A" unicode="&#x215a;" horiz-adv-x="950" 
d="M259 449c0 56 -38 83 -76 83c-35 0 -61 -17 -71 -41l-73 4l28 230h256v-67h-190l-12 -90c19 14 47 23 82 23c71 0 138 -47 138 -141c0 -91 -72 -140 -158 -140c-91 0 -148 58 -154 135h76c5 -46 32 -76 79 -76c43 0 75 30 75 80zM170 0l500 725h113l-500 -725h-113z
M694 234c18 22 49 38 91 38c75 0 139 -54 139 -140c0 -84 -64 -139 -154 -139c-110 0 -158 85 -158 200c0 119 45 222 167 222c90 0 133 -57 138 -114h-80c-3 39 -30 55 -63 55c-49 0 -81 -46 -80 -122zM770 52c43 0 73 30 73 80c0 49 -30 80 -73 80c-42 0 -73 -30 -73 -80
s30 -80 73 -80z" />
    <glyph glyph-name="fiveeighths" unicode="&#x215d;" horiz-adv-x="960" 
d="M259 449c0 56 -38 83 -76 83c-35 0 -61 -17 -71 -41l-73 4l28 230h256v-67h-190l-12 -90c19 14 47 23 82 23c71 0 138 -47 138 -141c0 -91 -72 -140 -158 -140c-91 0 -148 58 -154 135h76c5 -46 32 -76 79 -76c43 0 75 30 75 80zM170 0l500 725h113l-500 -725h-113z
M918 309c0 -38 -16 -69 -49 -91c46 -26 61 -62 61 -101c0 -81 -69 -124 -158 -124c-88 0 -157 43 -157 124c0 39 16 76 61 101c-32 20 -49 53 -49 91c0 62 57 106 145 106c89 0 146 -44 146 -106zM772 356c-41 0 -67 -22 -67 -56c0 -35 26 -58 67 -58c42 0 67 23 67 58
c0 34 -25 56 -67 56zM697 121c0 -41 29 -69 75 -69c47 0 76 28 76 69s-29 67 -76 67c-46 0 -75 -26 -75 -67z" />
    <glyph glyph-name="seveneighths" unicode="&#x215e;" horiz-adv-x="904" 
d="M11 725h301v-67c-108 -103 -160 -191 -167 -341h-87c4 144 77 258 172 341h-219v67zM113 0l500 725h113l-500 -725h-113zM861 309c0 -38 -16 -69 -49 -91c46 -26 61 -62 61 -101c0 -81 -69 -124 -158 -124c-88 0 -157 43 -157 124c0 39 16 76 61 101
c-32 20 -49 53 -49 91c0 62 57 106 145 106c89 0 146 -44 146 -106zM715 356c-41 0 -67 -22 -67 -56c0 -35 26 -58 67 -58c42 0 67 23 67 58c0 34 -25 56 -67 56zM640 121c0 -41 29 -69 75 -69c47 0 76 28 76 69s-29 67 -76 67c-46 0 -75 -26 -75 -67z" />
    <glyph glyph-name="uni215F" unicode="&#x215f;" horiz-adv-x="449" 
d="M102 317v297h-90v56c61 2 90 11 109 55h61v-408h-80zM36 0l500 725h113l-500 -725h-113z" />
    <glyph glyph-name="fraction" unicode="&#x2044;" horiz-adv-x="213" 
d="M-200 0l500 725h113l-500 -725h-113z" />
    <glyph glyph-name="a.superior" horiz-adv-x="348" 
d="M28 519c0 78 90 99 201 108v11c0 43 -24 56 -59 56c-30 0 -55 -15 -58 -49h-75c4 60 56 106 139 106c77 0 133 -31 132 -130c0 -13 -1 -55 -1 -80c0 -45 2 -80 6 -103h-75c0 13 -1 26 -1 40c-20 -34 -61 -47 -101 -47c-64 0 -108 35 -108 88zM230 575
c-84 -9 -120 -19 -120 -52c0 -22 20 -35 45 -35c51 0 75 29 75 76v11z" />
    <glyph glyph-name="b.superior" horiz-adv-x="374" 
d="M126 702c19 30 53 46 89 46c76 0 132 -62 132 -158c0 -97 -56 -159 -132 -159c-35 0 -70 15 -89 46v-39h-79v408h79v-144zM264 590c0 59 -28 95 -69 95c-42 0 -72 -31 -72 -95c0 -65 30 -97 72 -97c41 0 69 37 69 97z" />
    <glyph glyph-name="c.superior" horiz-adv-x="344" 
d="M318 635h-75c-6 31 -30 50 -64 50c-39 0 -71 -28 -71 -96c0 -67 32 -95 71 -95c30 0 57 13 66 51h76c-18 -82 -82 -114 -145 -114c-94 0 -149 67 -149 158c0 93 58 159 150 159c65 0 127 -34 141 -113z" />
    <glyph glyph-name="d.superior" horiz-adv-x="374" 
d="M248 438v39c-19 -31 -54 -46 -89 -46c-75 0 -131 62 -131 159c0 96 55 158 131 158c36 0 71 -16 89 -46v144h80v-408h-80zM251 590c0 64 -31 95 -72 95s-69 -36 -69 -95c0 -60 28 -97 69 -97s72 32 72 97z" />
    <glyph glyph-name="e.superior" horiz-adv-x="355" 
d="M27 592c0 91 63 156 153 156c96 0 153 -74 148 -180h-221c2 -44 34 -74 74 -74c32 0 55 11 68 36h76c-18 -54 -65 -99 -141 -99c-100 0 -157 71 -157 161zM107 621h141c-2 46 -34 68 -69 68c-32 0 -68 -21 -72 -68z" />
    <glyph glyph-name="f.superior" horiz-adv-x="212" 
d="M56 758c0 74 33 88 110 88h32v-58h-19c-35 0 -43 -4 -43 -33v-14h62v-56h-62v-247h-80v247h-42v56h42v17z" />
    <glyph glyph-name="g.superior" horiz-adv-x="372" 
d="M328 741v-271c0 -48 -14 -85 -40 -108s-64 -33 -110 -33c-73 0 -128 32 -138 97h76c7 -27 27 -38 63 -38c27 0 45 8 56 21c10 12 13 30 13 45v38c-18 -32 -53 -46 -89 -46c-76 0 -132 58 -132 151s56 151 132 151c37 0 72 -16 89 -46v39h80zM179 686
c-41 0 -69 -33 -69 -89s28 -89 69 -89c42 0 72 28 72 89s-30 89 -72 89z" />
    <glyph glyph-name="h.superior" horiz-adv-x="362" 
d="M126 700c16 30 50 48 90 48c75 0 104 -47 104 -122v-188h-79v169c0 40 -5 77 -52 77c-48 0 -63 -36 -63 -88v-158h-79v408h79v-146z" />
    <glyph glyph-name="i.superior" horiz-adv-x="172" 
d="M126 846v-71h-79v71h79zM126 741v-303h-79v303h79z" />
    <glyph glyph-name="j.superior" horiz-adv-x="173" 
d="M126 846v-71h-80v71h80zM46 741h80v-303c0 -81 -24 -99 -97 -99h-24v60h11c28 0 30 8 30 38v304z" />
    <glyph glyph-name="k.superior" horiz-adv-x="343" 
d="M126 846v-222l107 117h94l-109 -116l117 -187h-93l-78 129l-38 -40v-89h-79v408h79z" />
    <glyph glyph-name="l.superior" horiz-adv-x="172" 
d="M126 438h-79v408h79v-408z" />
    <glyph glyph-name="m.superior" horiz-adv-x="544" 
d="M47 741h78v-35c18 27 47 42 87 42c51 0 74 -22 88 -48c24 32 55 48 101 48c38 0 65 -12 81 -35c15 -18 21 -45 21 -86v-189h-79v171c0 27 -2 45 -10 57c-8 11 -20 17 -40 17c-48 0 -59 -36 -59 -86v-159h-80v171c0 28 -2 46 -11 57c-7 11 -19 17 -39 17
c-47 0 -59 -36 -59 -86v-159h-79v303z" />
    <glyph glyph-name="n.superior" horiz-adv-x="362" 
d="M126 700c16 30 50 48 90 48c75 0 104 -47 104 -122v-188h-79v169c0 40 -5 77 -52 77c-48 0 -63 -36 -63 -88v-158h-79v303h79v-41z" />
    <glyph glyph-name="o.superior" horiz-adv-x="359" 
d="M28 589c0 109 73 159 152 159c80 0 153 -50 153 -159s-73 -158 -153 -158c-79 0 -152 49 -152 158zM180 493c43 0 72 31 72 96c0 66 -29 97 -72 97c-41 0 -71 -32 -71 -97c0 -64 29 -96 71 -96z" />
    <glyph glyph-name="p.superior" horiz-adv-x="374" 
d="M47 339v402h79v-39c19 30 53 46 89 46c76 0 132 -62 132 -158c0 -97 -56 -159 -132 -159c-35 0 -70 15 -89 46v-138h-79zM264 590c0 59 -28 95 -69 95c-42 0 -72 -31 -72 -95c0 -65 30 -97 72 -97c41 0 69 37 69 97z" />
    <glyph glyph-name="q.superior" horiz-adv-x="373" 
d="M247 741h80v-402h-80v138c-18 -31 -53 -46 -88 -46c-76 0 -132 62 -132 159c0 96 56 158 132 158c36 0 70 -16 88 -46v39zM179 685c-42 0 -69 -36 -69 -95c0 -60 27 -97 69 -97c41 0 72 32 72 97c0 64 -31 95 -72 95z" />
    <glyph glyph-name="r.superior" horiz-adv-x="234" 
d="M222 662c-10 2 -20 2 -30 2c-42 0 -66 -14 -66 -69v-157h-79v303h77v-55c17 34 44 55 82 55c5 0 11 0 16 -1v-78z" />
    <glyph glyph-name="s.superior" horiz-adv-x="324" 
d="M26 534h75c5 -29 28 -45 67 -45c35 0 57 12 57 33c0 20 -18 29 -50 36l-47 10c-58 10 -96 35 -96 91c0 55 60 89 129 89c63 0 124 -27 136 -94h-73c-7 25 -32 36 -67 36c-31 0 -51 -11 -51 -27c0 -17 12 -28 41 -34l45 -9c66 -14 110 -32 110 -90c0 -65 -62 -99 -137 -99
c-77 0 -132 38 -139 103z" />
    <glyph glyph-name="t.superior" horiz-adv-x="225" 
d="M57 822h80v-81h63v-56h-63v-152c0 -30 9 -37 38 -37h25v-58h-57c-69 0 -86 18 -86 82v165h-45v56h45v81z" />
    <glyph glyph-name="u.superior" horiz-adv-x="360" 
d="M234 478c-18 -30 -48 -48 -88 -48c-38 0 -64 12 -81 34c-15 20 -22 48 -22 88v189h79v-172c0 -24 2 -42 9 -55s20 -21 41 -21c48 0 62 37 62 89v159h80v-303h-80v40z" />
    <glyph glyph-name="v.superior" horiz-adv-x="321" 
d="M164 527l65 214h81l-107 -303h-82l-109 303h86z" />
    <glyph glyph-name="w.superior" horiz-adv-x="441" 
d="M179 741h83l45 -210l39 210h84l-74 -303h-83l-52 221l-52 -221h-83l-74 303h83l40 -210z" />
    <glyph glyph-name="x.superior" horiz-adv-x="335" 
d="M212 595l112 -157h-92l-66 94l-69 -94h-85l112 153l-106 150h91l61 -87l64 87h85z" />
    <glyph glyph-name="y.superior" horiz-adv-x="315" 
d="M37 339v60h25c31 0 41 1 52 33l4 8l-112 301h87l63 -206l65 206h83l-110 -298c-32 -83 -53 -104 -126 -104h-31z" />
    <glyph glyph-name="z.superior" horiz-adv-x="307" 
d="M19 499l158 181h-147v61h248v-61l-159 -181h164v-61h-264v61z" />
    <glyph glyph-name="four.superior" horiz-adv-x="379" 
d="M363 531h-66v-93h-80v93h-201v62l203 253h78v-248h66v-67zM103 598h114v145z" />
    <glyph glyph-name="five.superior" horiz-adv-x="370" 
d="M259 570c0 56 -38 83 -76 83c-35 0 -61 -17 -71 -41l-73 4l28 230h256v-67h-190l-12 -90c19 14 47 23 82 23c71 0 138 -47 138 -141c0 -91 -72 -140 -158 -140c-91 0 -148 58 -154 135h76c5 -46 32 -76 79 -76c43 0 75 30 75 80z" />
    <glyph glyph-name="six.superior" horiz-adv-x="367" 
d="M111 672c18 22 49 38 91 38c75 0 139 -54 139 -140c0 -84 -64 -139 -154 -139c-110 0 -158 85 -158 200c0 119 45 222 167 222c90 0 133 -57 138 -114h-80c-3 39 -30 55 -63 55c-49 0 -81 -46 -80 -122zM187 490c43 0 73 30 73 80c0 49 -30 80 -73 80
c-42 0 -73 -30 -73 -80s30 -80 73 -80z" />
    <glyph glyph-name="seven.superior" horiz-adv-x="313" 
d="M11 846h301v-67c-108 -103 -160 -191 -167 -341h-87c4 144 77 258 172 341h-219v67z" />
    <glyph glyph-name="eight.superior" horiz-adv-x="378" 
d="M335 747c0 -38 -16 -69 -49 -91c46 -26 61 -62 61 -101c0 -81 -69 -124 -158 -124c-88 0 -157 43 -157 124c0 39 16 76 61 101c-32 20 -49 53 -49 91c0 62 57 106 145 106c89 0 146 -44 146 -106zM189 794c-41 0 -67 -22 -67 -56c0 -35 26 -58 67 -58c42 0 67 23 67 58
c0 34 -25 56 -67 56zM114 559c0 -41 29 -69 75 -69c47 0 76 28 76 69s-29 67 -76 67c-46 0 -75 -26 -75 -67z" />
    <glyph glyph-name="nine.superior" horiz-adv-x="364" 
d="M256 612c-19 -22 -50 -38 -93 -38c-75 0 -137 54 -137 140c0 84 63 139 153 139c110 0 158 -85 158 -201c0 -118 -46 -221 -168 -221c-89 0 -132 57 -136 113h78c4 -38 31 -54 63 -54c50 0 82 47 82 122zM179 794c-42 0 -72 -30 -72 -80c0 -49 30 -80 72 -80
c41 0 73 30 73 80s-31 80 -73 80z" />
    <glyph glyph-name="zero.superior" horiz-adv-x="401" 
d="M35 642c0 126 56 211 166 211c111 0 168 -85 168 -211c0 -125 -57 -211 -168 -211c-110 0 -166 86 -166 211zM287 642c0 100 -31 152 -86 152c-53 0 -84 -52 -84 -152c0 -99 31 -152 84 -152c55 0 86 53 86 152z" />
    <glyph glyph-name="zero.slashed.superior" horiz-adv-x="401" 
d="M35 642c0 126 56 211 166 211c111 0 168 -85 168 -211c0 -125 -57 -211 -168 -211c-110 0 -166 86 -166 211zM117 632l165 73c-11 58 -39 89 -81 89c-53 0 -84 -52 -84 -152v-10zM287 642v7l-165 -71c11 -58 39 -88 79 -88c55 0 86 53 86 152z" />
    <glyph glyph-name="period.superior" horiz-adv-x="164" 
d="M38 438v87h88v-87h-88z" />
    <glyph glyph-name="hyphen.superior" horiz-adv-x="234" 
d="M22 554v69h189v-69h-189z" />
    <glyph glyph-name="comma.superior" horiz-adv-x="175" 
d="M42 525h90v-93l-48 -87h-47l43 93h-38v87z" />
    <glyph glyph-name="equal.superior" horiz-adv-x="369" 
d="M40 611v69h289v-69h-289zM40 495v69h289v-69h-289z" />
    <glyph glyph-name="plus.superior" horiz-adv-x="375" 
d="M151 438v116h-121v69h121v116h73v-116h121v-69h-121v-116h-73z" />
    <glyph glyph-name="minus.superior" horiz-adv-x="368" 
d="M339 623v-69h-309v69h309z" />
    <glyph glyph-name="parenleft.superior" horiz-adv-x="180" 
d="M102 846h74c-38 -62 -71 -154 -71 -255s33 -193 71 -256h-74c-33 50 -78 145 -78 256s45 206 78 255z" />
    <glyph glyph-name="parenright.superior" horiz-adv-x="180" 
d="M77 335h-74c38 63 70 155 70 256s-32 193 -70 255h74c34 -49 78 -144 78 -255s-44 -206 -78 -256z" />
    <glyph glyph-name="a.inferior" horiz-adv-x="348" 
d="M28 -48c0 78 90 99 201 108v11c0 43 -24 56 -59 56c-30 0 -55 -15 -58 -49h-75c4 60 56 106 139 106c77 0 133 -31 132 -130c0 -13 -1 -55 -1 -80c0 -45 2 -80 6 -103h-75c0 13 -1 26 -1 40c-20 -34 -61 -47 -101 -47c-64 0 -108 35 -108 88zM230 8
c-84 -9 -120 -19 -120 -52c0 -22 20 -35 45 -35c51 0 75 29 75 76v11z" />
    <glyph glyph-name="b.inferior" horiz-adv-x="374" 
d="M126 135c19 30 53 46 89 46c76 0 132 -62 132 -158c0 -97 -56 -159 -132 -159c-35 0 -70 15 -89 46v-39h-79v408h79v-144zM264 23c0 59 -28 95 -69 95c-42 0 -72 -31 -72 -95c0 -65 30 -97 72 -97c41 0 69 37 69 97z" />
    <glyph glyph-name="c.inferior" horiz-adv-x="344" 
d="M318 68h-75c-6 31 -30 50 -64 50c-39 0 -71 -28 -71 -96c0 -67 32 -95 71 -95c30 0 57 13 66 51h76c-18 -82 -82 -114 -145 -114c-94 0 -149 67 -149 158c0 93 58 159 150 159c65 0 127 -34 141 -113z" />
    <glyph glyph-name="d.inferior" horiz-adv-x="374" 
d="M248 -129v39c-19 -31 -54 -46 -89 -46c-75 0 -131 62 -131 159c0 96 55 158 131 158c36 0 71 -16 89 -46v144h80v-408h-80zM251 23c0 64 -31 95 -72 95s-69 -36 -69 -95c0 -60 28 -97 69 -97s72 32 72 97z" />
    <glyph glyph-name="e.inferior" horiz-adv-x="355" 
d="M27 25c0 91 63 156 153 156c96 0 153 -74 148 -180h-221c2 -44 34 -74 74 -74c32 0 55 11 68 36h76c-18 -54 -65 -99 -141 -99c-100 0 -157 71 -157 161zM107 54h141c-2 46 -34 68 -69 68c-32 0 -68 -21 -72 -68z" />
    <glyph glyph-name="f.inferior" horiz-adv-x="212" 
d="M56 191c0 74 33 88 110 88h32v-58h-19c-35 0 -43 -4 -43 -33v-14h62v-56h-62v-247h-80v247h-42v56h42v17z" />
    <glyph glyph-name="g.inferior" horiz-adv-x="372" 
d="M328 174v-271c0 -48 -14 -85 -40 -108s-64 -33 -110 -33c-73 0 -128 32 -138 97h76c7 -27 27 -38 63 -38c27 0 45 8 56 21c10 12 13 30 13 45v38c-18 -32 -53 -46 -89 -46c-76 0 -132 58 -132 151s56 151 132 151c37 0 72 -16 89 -46v39h80zM179 119
c-41 0 -69 -33 -69 -89s28 -89 69 -89c42 0 72 28 72 89s-30 89 -72 89z" />
    <glyph glyph-name="h.inferior" horiz-adv-x="362" 
d="M126 133c16 30 50 48 90 48c75 0 104 -47 104 -122v-188h-79v169c0 40 -5 77 -52 77c-48 0 -63 -36 -63 -88v-158h-79v408h79v-146z" />
    <glyph glyph-name="i.inferior" horiz-adv-x="172" 
d="M126 279v-71h-79v71h79zM126 174v-303h-79v303h79z" />
    <glyph glyph-name="j.inferior" horiz-adv-x="173" 
d="M126 279v-71h-80v71h80zM46 174h80v-303c0 -81 -24 -99 -97 -99h-24v60h11c28 0 30 8 30 38v304z" />
    <glyph glyph-name="k.inferior" horiz-adv-x="343" 
d="M126 279v-222l107 117h94l-109 -116l117 -187h-93l-78 129l-38 -40v-89h-79v408h79z" />
    <glyph glyph-name="l.inferior" horiz-adv-x="172" 
d="M126 -129h-79v408h79v-408z" />
    <glyph glyph-name="m.inferior" horiz-adv-x="544" 
d="M47 174h78v-35c18 27 47 42 87 42c51 0 74 -22 88 -48c24 32 55 48 101 48c38 0 65 -12 81 -35c15 -18 21 -45 21 -86v-189h-79v171c0 27 -2 45 -10 57c-8 11 -20 17 -40 17c-48 0 -59 -36 -59 -86v-159h-80v171c0 28 -2 46 -11 57c-7 11 -19 17 -39 17
c-47 0 -59 -36 -59 -86v-159h-79v303z" />
    <glyph glyph-name="n.inferior" horiz-adv-x="362" 
d="M126 133c16 30 50 48 90 48c75 0 104 -47 104 -122v-188h-79v169c0 40 -5 77 -52 77c-48 0 -63 -36 -63 -88v-158h-79v303h79v-41z" />
    <glyph glyph-name="o.inferior" horiz-adv-x="359" 
d="M28 22c0 109 73 159 152 159c80 0 153 -50 153 -159s-73 -158 -153 -158c-79 0 -152 49 -152 158zM180 -74c43 0 72 31 72 96c0 66 -29 97 -72 97c-41 0 -71 -32 -71 -97c0 -64 29 -96 71 -96z" />
    <glyph glyph-name="p.inferior" horiz-adv-x="374" 
d="M47 -228v402h79v-39c19 30 53 46 89 46c76 0 132 -62 132 -158c0 -97 -56 -159 -132 -159c-35 0 -70 15 -89 46v-138h-79zM264 23c0 59 -28 95 -69 95c-42 0 -72 -31 -72 -95c0 -65 30 -97 72 -97c41 0 69 37 69 97z" />
    <glyph glyph-name="q.inferior" horiz-adv-x="373" 
d="M247 174h80v-402h-80v138c-18 -31 -53 -46 -88 -46c-76 0 -132 62 -132 159c0 96 56 158 132 158c36 0 70 -16 88 -46v39zM179 118c-42 0 -69 -36 -69 -95c0 -60 27 -97 69 -97c41 0 72 32 72 97c0 64 -31 95 -72 95z" />
    <glyph glyph-name="r.inferior" horiz-adv-x="234" 
d="M222 95c-10 2 -20 2 -30 2c-42 0 -66 -14 -66 -69v-157h-79v303h77v-55c17 34 44 55 82 55c5 0 11 0 16 -1v-78z" />
    <glyph glyph-name="s.inferior" horiz-adv-x="324" 
d="M26 -33h75c5 -29 28 -45 67 -45c35 0 57 12 57 33c0 20 -18 29 -50 36l-47 10c-58 10 -96 35 -96 91c0 55 60 89 129 89c63 0 124 -27 136 -94h-73c-7 25 -32 36 -67 36c-31 0 -51 -11 -51 -27c0 -17 12 -28 41 -34l45 -9c66 -14 110 -32 110 -90c0 -65 -62 -99 -137 -99
c-77 0 -132 38 -139 103z" />
    <glyph glyph-name="t.inferior" horiz-adv-x="225" 
d="M57 255h80v-81h63v-56h-63v-152c0 -30 9 -37 38 -37h25v-58h-57c-69 0 -86 18 -86 82v165h-45v56h45v81z" />
    <glyph glyph-name="u.inferior" horiz-adv-x="360" 
d="M234 -89c-18 -30 -48 -48 -88 -48c-38 0 -64 12 -81 34c-15 20 -22 48 -22 88v189h79v-172c0 -24 2 -42 9 -55s20 -21 41 -21c48 0 62 37 62 89v159h80v-303h-80v40z" />
    <glyph glyph-name="v.inferior" horiz-adv-x="321" 
d="M164 -40l65 214h81l-107 -303h-82l-109 303h86z" />
    <glyph glyph-name="w.inferior" horiz-adv-x="441" 
d="M179 174h83l45 -210l39 210h84l-74 -303h-83l-52 221l-52 -221h-83l-74 303h83l40 -210z" />
    <glyph glyph-name="x.inferior" horiz-adv-x="335" 
d="M212 28l112 -157h-92l-66 94l-69 -94h-85l112 153l-106 150h91l61 -87l64 87h85z" />
    <glyph glyph-name="y.inferior" horiz-adv-x="315" 
d="M37 -228v60h25c31 0 41 1 52 33l4 8l-112 301h87l63 -206l65 206h83l-110 -298c-32 -83 -53 -104 -126 -104h-31z" />
    <glyph glyph-name="z.inferior" horiz-adv-x="307" 
d="M19 -68l158 181h-147v61h248v-61l-159 -181h164v-61h-264v61z" />
    <glyph glyph-name="one.inferior" horiz-adv-x="236" 
d="M102 -129v297h-90v56c61 2 90 11 109 55h61v-408h-80z" />
    <glyph glyph-name="two.inferior" horiz-adv-x="351" 
d="M318 176c0 -82 -75 -157 -200 -238h206v-67h-303v65c126 98 215 168 215 235c0 37 -25 56 -60 56c-36 0 -70 -21 -69 -84h-79c-2 87 59 143 151 143c80 0 139 -40 139 -110z" />
    <glyph glyph-name="three.inferior" horiz-adv-x="366" 
d="M257 -13c0 45 -38 63 -95 63h-24v64h20c59 0 90 20 90 59c0 36 -32 54 -65 54c-44 0 -72 -24 -78 -70h-77c7 83 70 129 160 129c69 0 141 -32 141 -109c0 -40 -26 -73 -57 -90c43 -18 66 -58 66 -99c0 -84 -74 -124 -158 -124c-90 0 -150 55 -157 136h77
c7 -44 35 -77 82 -77c43 0 75 24 75 64z" />
    <glyph glyph-name="four.inferior" horiz-adv-x="379" 
d="M363 -36h-66v-93h-80v93h-201v62l203 253h78v-248h66v-67zM103 31h114v145z" />
    <glyph glyph-name="five.inferior" horiz-adv-x="370" 
d="M259 3c0 56 -38 83 -76 83c-35 0 -61 -17 -71 -41l-73 4l28 230h256v-67h-190l-12 -90c19 14 47 23 82 23c71 0 138 -47 138 -141c0 -91 -72 -140 -158 -140c-91 0 -148 58 -154 135h76c5 -46 32 -76 79 -76c43 0 75 30 75 80z" />
    <glyph glyph-name="six.inferior" horiz-adv-x="367" 
d="M111 105c18 22 49 38 91 38c75 0 139 -54 139 -140c0 -84 -64 -139 -154 -139c-110 0 -158 85 -158 200c0 119 45 222 167 222c90 0 133 -57 138 -114h-80c-3 39 -30 55 -63 55c-49 0 -81 -46 -80 -122zM187 -77c43 0 73 30 73 80c0 49 -30 80 -73 80
c-42 0 -73 -30 -73 -80s30 -80 73 -80z" />
    <glyph glyph-name="seven.inferior" horiz-adv-x="313" 
d="M11 279h301v-67c-108 -103 -160 -191 -167 -341h-87c4 144 77 258 172 341h-219v67z" />
    <glyph glyph-name="eight.inferior" horiz-adv-x="378" 
d="M335 180c0 -38 -16 -69 -49 -91c46 -26 61 -62 61 -101c0 -81 -69 -124 -158 -124c-88 0 -157 43 -157 124c0 39 16 76 61 101c-32 20 -49 53 -49 91c0 62 57 106 145 106c89 0 146 -44 146 -106zM189 227c-41 0 -67 -22 -67 -56c0 -35 26 -58 67 -58c42 0 67 23 67 58
c0 34 -25 56 -67 56zM114 -8c0 -41 29 -69 75 -69c47 0 76 28 76 69s-29 67 -76 67c-46 0 -75 -26 -75 -67z" />
    <glyph glyph-name="nine.inferior" horiz-adv-x="364" 
d="M256 45c-19 -22 -50 -38 -93 -38c-75 0 -137 54 -137 140c0 84 63 139 153 139c110 0 158 -85 158 -201c0 -118 -46 -221 -168 -221c-89 0 -132 57 -136 113h78c4 -38 31 -54 63 -54c50 0 82 47 82 122zM179 227c-42 0 -72 -30 -72 -80c0 -49 30 -80 72 -80
c41 0 73 30 73 80s-31 80 -73 80z" />
    <glyph glyph-name="zero.inferior" horiz-adv-x="401" 
d="M35 75c0 126 56 211 166 211c111 0 168 -85 168 -211c0 -125 -57 -211 -168 -211c-110 0 -166 86 -166 211zM287 75c0 100 -31 152 -86 152c-53 0 -84 -52 -84 -152c0 -99 31 -152 84 -152c55 0 86 53 86 152z" />
    <glyph glyph-name="zero.slashed.inferior" horiz-adv-x="401" 
d="M35 75c0 126 56 211 166 211c111 0 168 -85 168 -211c0 -125 -57 -211 -168 -211c-110 0 -166 86 -166 211zM117 65l165 73c-11 58 -39 89 -81 89c-53 0 -84 -52 -84 -152v-10zM287 75v7l-165 -71c11 -58 39 -88 79 -88c55 0 86 53 86 152z" />
    <glyph glyph-name="period.inferior" horiz-adv-x="164" 
d="M38 -129v87h88v-87h-88z" />
    <glyph glyph-name="hyphen.inferior" horiz-adv-x="234" 
d="M22 -13v69h189v-69h-189z" />
    <glyph glyph-name="comma.inferior" horiz-adv-x="175" 
d="M42 -42h90v-93l-48 -87h-47l43 93h-38v87z" />
    <glyph glyph-name="equal.inferior" horiz-adv-x="369" 
d="M40 44v69h289v-69h-289zM40 -72v69h289v-69h-289z" />
    <glyph glyph-name="plus.inferior" horiz-adv-x="375" 
d="M151 -129v116h-121v69h121v116h73v-116h121v-69h-121v-116h-73z" />
    <glyph glyph-name="minus.inferior" horiz-adv-x="368" 
d="M339 56v-69h-309v69h309z" />
    <glyph glyph-name="parenleft.inferior" horiz-adv-x="180" 
d="M102 279h74c-38 -62 -71 -154 -71 -255s33 -193 71 -256h-74c-33 50 -78 145 -78 256s45 206 78 255z" />
    <glyph glyph-name="parenright.inferior" horiz-adv-x="180" 
d="M77 -232h-74c38 63 70 155 70 256s-32 193 -70 255h74c34 -49 78 -144 78 -255s-44 -206 -78 -256z" />
    <glyph glyph-name="one.numerator" horiz-adv-x="236" 
d="M102 317v297h-90v56c61 2 90 11 109 55h61v-408h-80z" />
    <glyph glyph-name="two.numerator" horiz-adv-x="351" 
d="M318 622c0 -82 -75 -157 -200 -238h206v-67h-303v65c126 98 215 168 215 235c0 37 -25 56 -60 56c-36 0 -70 -21 -69 -84h-79c-2 87 59 143 151 143c80 0 139 -40 139 -110z" />
    <glyph glyph-name="three.numerator" horiz-adv-x="366" 
d="M257 433c0 45 -38 63 -95 63h-24v64h20c59 0 90 20 90 59c0 36 -32 54 -65 54c-44 0 -72 -24 -78 -70h-77c7 83 70 129 160 129c69 0 141 -32 141 -109c0 -40 -26 -73 -57 -90c43 -18 66 -58 66 -99c0 -84 -74 -124 -158 -124c-90 0 -150 55 -157 136h77
c7 -44 35 -77 82 -77c43 0 75 24 75 64z" />
    <glyph glyph-name="four.numerator" horiz-adv-x="379" 
d="M363 410h-66v-93h-80v93h-201v62l203 253h78v-248h66v-67zM103 477h114v145z" />
    <glyph glyph-name="five.numerator" horiz-adv-x="370" 
d="M259 449c0 56 -38 83 -76 83c-35 0 -61 -17 -71 -41l-73 4l28 230h256v-67h-190l-12 -90c19 14 47 23 82 23c71 0 138 -47 138 -141c0 -91 -72 -140 -158 -140c-91 0 -148 58 -154 135h76c5 -46 32 -76 79 -76c43 0 75 30 75 80z" />
    <glyph glyph-name="six.numerator" horiz-adv-x="367" 
d="M111 551c18 22 49 38 91 38c75 0 139 -54 139 -140c0 -84 -64 -139 -154 -139c-110 0 -158 85 -158 200c0 119 45 222 167 222c90 0 133 -57 138 -114h-80c-3 39 -30 55 -63 55c-49 0 -81 -46 -80 -122zM187 369c43 0 73 30 73 80c0 49 -30 80 -73 80
c-42 0 -73 -30 -73 -80s30 -80 73 -80z" />
    <glyph glyph-name="seven.numerator" horiz-adv-x="313" 
d="M11 725h301v-67c-108 -103 -160 -191 -167 -341h-87c4 144 77 258 172 341h-219v67z" />
    <glyph glyph-name="eight.numerator" horiz-adv-x="378" 
d="M335 626c0 -38 -16 -69 -49 -91c46 -26 61 -62 61 -101c0 -81 -69 -124 -158 -124c-88 0 -157 43 -157 124c0 39 16 76 61 101c-32 20 -49 53 -49 91c0 62 57 106 145 106c89 0 146 -44 146 -106zM189 673c-41 0 -67 -22 -67 -56c0 -35 26 -58 67 -58c42 0 67 23 67 58
c0 34 -25 56 -67 56zM114 438c0 -41 29 -69 75 -69c47 0 76 28 76 69s-29 67 -76 67c-46 0 -75 -26 -75 -67z" />
    <glyph glyph-name="nine.numerator" horiz-adv-x="364" 
d="M256 491c-19 -22 -50 -38 -93 -38c-75 0 -137 54 -137 140c0 84 63 139 153 139c110 0 158 -85 158 -201c0 -118 -46 -221 -168 -221c-89 0 -132 57 -136 113h78c4 -38 31 -54 63 -54c50 0 82 47 82 122zM179 673c-42 0 -72 -30 -72 -80c0 -49 30 -80 72 -80
c41 0 73 30 73 80s-31 80 -73 80z" />
    <glyph glyph-name="zero.numerator" horiz-adv-x="401" 
d="M35 521c0 126 56 211 166 211c111 0 168 -85 168 -211c0 -125 -57 -211 -168 -211c-110 0 -166 86 -166 211zM287 521c0 100 -31 152 -86 152c-53 0 -84 -52 -84 -152c0 -99 31 -152 84 -152c55 0 86 53 86 152z" />
    <glyph glyph-name="zero.slashed.numerator" horiz-adv-x="401" 
d="M35 521c0 126 56 211 166 211c111 0 168 -85 168 -211c0 -125 -57 -211 -168 -211c-110 0 -166 86 -166 211zM117 511l165 73c-11 58 -39 89 -81 89c-53 0 -84 -52 -84 -152v-10zM287 521v7l-165 -71c11 -58 39 -88 79 -88c55 0 86 53 86 152z" />
    <glyph glyph-name="one.denominator" horiz-adv-x="236" 
d="M102 0v297h-90v56c61 2 90 11 109 55h61v-408h-80z" />
    <glyph glyph-name="two.denominator" horiz-adv-x="351" 
d="M318 305c0 -82 -75 -157 -200 -238h206v-67h-303v65c126 98 215 168 215 235c0 37 -25 56 -60 56c-36 0 -70 -21 -69 -84h-79c-2 87 59 143 151 143c80 0 139 -40 139 -110z" />
    <glyph glyph-name="three.denominator" horiz-adv-x="366" 
d="M257 116c0 45 -38 63 -95 63h-24v64h20c59 0 90 20 90 59c0 36 -32 54 -65 54c-44 0 -72 -24 -78 -70h-77c7 83 70 129 160 129c69 0 141 -32 141 -109c0 -40 -26 -73 -57 -90c43 -18 66 -58 66 -99c0 -84 -74 -124 -158 -124c-90 0 -150 55 -157 136h77
c7 -44 35 -77 82 -77c43 0 75 24 75 64z" />
    <glyph glyph-name="four.denominator" horiz-adv-x="379" 
d="M363 93h-66v-93h-80v93h-201v62l203 253h78v-248h66v-67zM103 160h114v145z" />
    <glyph glyph-name="five.denominator" horiz-adv-x="370" 
d="M259 132c0 56 -38 83 -76 83c-35 0 -61 -17 -71 -41l-73 4l28 230h256v-67h-190l-12 -90c19 14 47 23 82 23c71 0 138 -47 138 -141c0 -91 -72 -140 -158 -140c-91 0 -148 58 -154 135h76c5 -46 32 -76 79 -76c43 0 75 30 75 80z" />
    <glyph glyph-name="six.denominator" horiz-adv-x="367" 
d="M111 234c18 22 49 38 91 38c75 0 139 -54 139 -140c0 -84 -64 -139 -154 -139c-110 0 -158 85 -158 200c0 119 45 222 167 222c90 0 133 -57 138 -114h-80c-3 39 -30 55 -63 55c-49 0 -81 -46 -80 -122zM187 52c43 0 73 30 73 80c0 49 -30 80 -73 80
c-42 0 -73 -30 -73 -80s30 -80 73 -80z" />
    <glyph glyph-name="seven.denominator" horiz-adv-x="313" 
d="M11 408h301v-67c-108 -103 -160 -191 -167 -341h-87c4 144 77 258 172 341h-219v67z" />
    <glyph glyph-name="eight.denominator" horiz-adv-x="378" 
d="M335 309c0 -38 -16 -69 -49 -91c46 -26 61 -62 61 -101c0 -81 -69 -124 -158 -124c-88 0 -157 43 -157 124c0 39 16 76 61 101c-32 20 -49 53 -49 91c0 62 57 106 145 106c89 0 146 -44 146 -106zM189 356c-41 0 -67 -22 -67 -56c0 -35 26 -58 67 -58c42 0 67 23 67 58
c0 34 -25 56 -67 56zM114 121c0 -41 29 -69 75 -69c47 0 76 28 76 69s-29 67 -76 67c-46 0 -75 -26 -75 -67z" />
    <glyph glyph-name="nine.denominator" horiz-adv-x="364" 
d="M256 174c-19 -22 -50 -38 -93 -38c-75 0 -137 54 -137 140c0 84 63 139 153 139c110 0 158 -85 158 -201c0 -118 -46 -221 -168 -221c-89 0 -132 57 -136 113h78c4 -38 31 -54 63 -54c50 0 82 47 82 122zM179 356c-42 0 -72 -30 -72 -80c0 -49 30 -80 72 -80
c41 0 73 30 73 80s-31 80 -73 80z" />
    <glyph glyph-name="zero.denominator" horiz-adv-x="401" 
d="M35 204c0 126 56 211 166 211c111 0 168 -85 168 -211c0 -125 -57 -211 -168 -211c-110 0 -166 86 -166 211zM287 204c0 100 -31 152 -86 152c-53 0 -84 -52 -84 -152c0 -99 31 -152 84 -152c55 0 86 53 86 152z" />
    <glyph glyph-name="zero.slashed.denominator" horiz-adv-x="401" 
d="M35 204c0 126 56 211 166 211c111 0 168 -85 168 -211c0 -125 -57 -211 -168 -211c-110 0 -166 86 -166 211zM117 194l165 73c-11 58 -39 89 -81 89c-53 0 -84 -52 -84 -152v-10zM287 204v7l-165 -71c11 -58 39 -88 79 -88c55 0 86 53 86 152z" />
    <glyph glyph-name="ampersand.case" horiz-adv-x="713" 
d="M28 200c0 110 78 182 179 218c-47 55 -78 107 -78 165c0 95 86 156 200 156c90 0 191 -41 191 -158c0 -88 -60 -151 -144 -188l129 -139c17 43 27 91 31 143h111c-7 -77 -30 -154 -68 -221l164 -176h-150l-82 88c-61 -61 -142 -101 -240 -101c-147 0 -243 93 -243 213z
M317 457l1 -2c64 27 100 72 100 123c0 54 -39 77 -87 77c-47 0 -88 -22 -88 -67c0 -44 36 -92 74 -131zM448 156l-182 197c-79 -29 -125 -76 -125 -148c0 -80 59 -128 140 -128c65 0 123 29 167 79z" />
    <glyph glyph-name="hyphen.case" horiz-adv-x="413" 
d="M45 319v96h322v-96h-322z" />
    <glyph glyph-name="endash.case" horiz-adv-x="510" 
d="M35 319v96h440v-96h-440z" />
    <glyph glyph-name="emdash.case" horiz-adv-x="724" 
d="M32 319v96h660v-96h-660z" />
    <glyph glyph-name="question.case" horiz-adv-x="532" 
d="M521 561c0 -94 -76 -160 -142 -201c-61 -39 -84 -58 -84 -118v-31h-115v34c0 88 42 131 121 180c55 34 103 70 103 128c0 59 -55 89 -131 89c-107 0 -149 -58 -151 -130h-111c1 137 112 226 265 226c125 0 245 -54 245 -177zM176 0v125h125v-125h-125z" />
    <glyph glyph-name="questiondown.case" horiz-adv-x="532" 
d="M232 600v125h125v-125h-125zM12 165c0 93 77 148 141 189c62 39 84 58 84 118v31h116v-34c0 -88 -42 -130 -121 -180c-55 -34 -103 -59 -103 -117s55 -89 130 -89c107 0 150 62 152 132l110 -1c0 -136 -111 -227 -264 -227c-126 0 -245 54 -245 178z" />
    <glyph glyph-name="exclam.case" horiz-adv-x="266" 
d="M100 212l-29 304v209h124v-209l-28 -304h-67zM71 0v125h125v-125h-125z" />
    <glyph glyph-name="exclamdown.case" horiz-adv-x="266" 
d="M71 600v125h125v-125h-125zM166 502l29 -303v-199h-124v199l28 303h67z" />
    <glyph glyph-name="guilsinglleft.case" horiz-adv-x="304" 
d="M13 368l159 228h106l-143 -228l143 -229h-106z" />
    <glyph glyph-name="guilsinglright.case" horiz-adv-x="304" 
d="M132 139h-105l143 229l-143 228h105l159 -228z" />
    <glyph glyph-name="guillemotleft.case" horiz-adv-x="528" 
d="M13 368l159 228h106l-143 -228l143 -229h-106zM237 368l159 228h106l-143 -228l143 -229h-106z" />
    <glyph glyph-name="guillemotright.case" horiz-adv-x="528" 
d="M132 139h-105l143 229l-143 228h105l159 -228zM356 139h-105l143 229l-143 228h105l159 -228z" />
    <glyph glyph-name="parenleft.case" horiz-adv-x="251" 
d="M139 725h109c-66 -107 -103 -226 -103 -361c0 -137 37 -256 103 -364h-109c-55 87 -111 209 -111 364s56 274 111 361z" />
    <glyph glyph-name="parenright.case" horiz-adv-x="251" 
d="M112 0h-108c66 108 102 227 102 364c0 135 -36 254 -102 361h108c56 -87 111 -206 111 -361s-55 -277 -111 -364z" />
    <glyph glyph-name="bracketleft.case" horiz-adv-x="334" 
d="M314 725v-84h-131v-557h131v-84h-234v725h234z" />
    <glyph glyph-name="bracketright.case" horiz-adv-x="334" 
d="M254 725v-725h-234v84h130v557h-130v84h234z" />
    <glyph glyph-name="braceleft.case" horiz-adv-x="309" 
d="M84 156v62c0 62 -9 103 -76 103v84c67 0 76 41 76 103v62c0 119 35 155 161 155h44v-87h-32c-53 0 -66 -15 -66 -70v-68c0 -92 -29 -122 -81 -136v-2c52 -14 81 -45 81 -137v-68c0 -55 13 -70 66 -70h32v-87h-44c-126 0 -161 37 -161 156z" />
    <glyph glyph-name="braceright.case" horiz-adv-x="309" 
d="M20 87h32c53 0 66 15 66 70v68c0 92 29 123 81 137v2c-52 14 -81 44 -81 136v68c0 55 -13 70 -66 70h-32v87h44c126 0 161 -36 161 -155v-62c0 -62 9 -103 76 -103v-84c-67 0 -76 -41 -76 -103v-62c0 -119 -35 -156 -161 -156h-44v87z" />
    <glyph glyph-name="bar.case" horiz-adv-x="252" 
d="M172 725v-725h-92v725h92z" />
    <glyph glyph-name="brokenbar.case" horiz-adv-x="231" 
d="M162 725v-260h-92v260h92zM162 260v-260h-92v260h92z" />
    <glyph glyph-name="periodcentered.case" horiz-adv-x="243" 
d="M59 301v125h125v-125h-125z" />
    <glyph glyph-name="bullet.case" horiz-adv-x="447" 
d="M219 551c105 0 184 -79 184 -177c0 -104 -79 -183 -184 -183c-96 0 -176 79 -176 183c0 98 80 177 176 177z" />
    <glyph glyph-name="plus.case" 
d="M290 95v220h-224v96h224v218h100v-218h223v-96h-223v-220h-100z" />
    <glyph glyph-name="minus.case" 
d="M610 411v-96h-541v96h541z" />
    <glyph glyph-name="divide.case" 
d="M278 593h125v-122h-125v122zM77 308v96h525v-96h-525zM278 246h125v-122h-125v122z" />
    <glyph glyph-name="multiply.case" 
d="M506 125l-170 170l-165 -165l-67 66l165 166l-165 165l69 69l165 -164l166 164l66 -66l-165 -166l169 -170z" />
    <glyph glyph-name="equal.case" 
d="M88 420v97h503v-97h-503zM88 216v96h503v-96h-503z" />
    <glyph glyph-name="plusminus.case" 
d="M288 626h102v-146h215v-97h-215v-148h-102v148h-215v97h215v146zM73 95v96h532v-96h-532z" />
    <glyph glyph-name="less.case" 
d="M591 632v-109l-388 -160l388 -159v-108l-513 222v89z" />
    <glyph glyph-name="greater.case" 
d="M601 318l-514 -222v108l389 159l-389 160v109l514 -225v-89z" />
    <glyph glyph-name="lessequal.case" 
d="M598 315v-104l-519 169v88l519 173v-106l-382 -111zM77 191h525v-96h-525v96z" />
    <glyph glyph-name="greaterequal.case" 
d="M80 535v106l520 -173v-88l-520 -169v104l383 109zM77 95v96h525v-96h-525z" />
    <glyph glyph-name="notequal.case" 
d="M88 216v96h168l57 108h-225v97h277l76 144l83 -42l-55 -102h122v-97h-174l-57 -108h231v-96h-283l-84 -159l-82 40l63 119h-117z" />
    <glyph glyph-name="acute.case" horiz-adv-x="293" 
d="M119 773h-97l108 113h141z" />
    <glyph glyph-name="breve.case" horiz-adv-x="366" 
d="M344 886c-8 -73 -60 -118 -162 -118c-100 0 -151 45 -160 118h83c5 -37 30 -55 78 -55c47 0 72 19 78 55h83z" />
    <glyph glyph-name="caron.case" horiz-adv-x="407" 
d="M22 886h114l67 -54l69 54h113l-136 -113h-94z" />
    <glyph glyph-name="cedilla.case" horiz-adv-x="248" 
d="M38 -135c17 -8 39 -14 58 -14c29 0 60 8 60 31c0 20 -19 30 -43 30c-11 0 -28 -2 -38 -9l-30 17l51 83h53l-32 -51c11 2 21 3 32 3c47 0 77 -27 77 -68c0 -53 -57 -82 -110 -82c-28 0 -61 3 -94 19z" />
    <glyph glyph-name="circumflex.case" horiz-adv-x="407" 
d="M385 773h-114l-67 54l-68 -54h-114l136 113h94z" />
    <glyph glyph-name="dieresis.case" horiz-adv-x="375" 
d="M120 881v-103h-98v103h98zM353 881v-103h-99v103h99z" />
    <glyph glyph-name="dotaccent.case" horiz-adv-x="150" 
d="M128 882v-103h-106v103h106z" />
    <glyph glyph-name="grave.case" horiz-adv-x="293" 
d="M22 886h140l109 -113h-93z" />
    <glyph glyph-name="hungarumlaut.case" horiz-adv-x="466" 
d="M119 773h-97l108 113h141zM292 773h-96l107 113h141z" />
    <glyph glyph-name="macron.case" horiz-adv-x="348" 
d="M22 789v80h304v-80h-304z" />
    <glyph glyph-name="ogonek.case" horiz-adv-x="227" 
d="M205 0c-51 -25 -89 -52 -89 -79c0 -30 22 -40 46 -40c15 0 32 4 43 8v-67c-18 -6 -41 -10 -66 -10c-52 0 -117 22 -117 93c0 37 21 69 69 95h114z" />
    <glyph glyph-name="ring.case" horiz-adv-x="225" 
d="M203 850c0 -49 -40 -85 -91 -85c-50 0 -90 36 -90 85c0 50 41 85 90 85c50 0 91 -35 91 -85zM69 850c0 -25 21 -42 43 -42c23 0 43 17 43 42s-20 43 -43 43c-22 0 -43 -18 -43 -43z" />
    <glyph glyph-name="tilde.case" horiz-adv-x="422" 
d="M323 885h77c-15 -90 -73 -113 -122 -113c-61 0 -91 44 -132 44c-27 0 -43 -14 -46 -42h-78c14 86 69 113 121 113c62 0 87 -44 131 -44c27 0 44 14 49 42z" />
    <glyph glyph-name="a.ss01" horiz-adv-x="606" 
d="M432 538h104v-538h-104v76c-33 -55 -89 -89 -168 -89c-125 0 -231 105 -231 281c0 175 106 280 231 280c79 0 135 -34 168 -89v79zM288 461c-86 0 -145 -72 -145 -193s59 -194 145 -194c80 0 148 61 148 194s-68 193 -148 193z" />
    <glyph glyph-name="aacute.ss01" horiz-adv-x="606" 
d="M325 609h-83l91 116h128zM432 538h104v-538h-104v76c-33 -55 -89 -89 -168 -89c-125 0 -231 105 -231 281c0 175 106 280 231 280c79 0 135 -34 168 -89v79zM288 461c-86 0 -145 -72 -145 -193s59 -194 145 -194c80 0 148 61 148 194s-68 193 -148 193z" />
    <glyph glyph-name="abreve.ss01" horiz-adv-x="606" 
d="M289 604c-111 0 -154 56 -160 121h79c4 -34 27 -58 82 -58s80 24 84 58h78c-7 -65 -49 -121 -163 -121zM432 538h104v-538h-104v76c-33 -55 -89 -89 -168 -89c-125 0 -231 105 -231 281c0 175 106 280 231 280c79 0 135 -34 168 -89v79zM288 461
c-86 0 -145 -72 -145 -193s59 -194 145 -194c80 0 148 61 148 194s-68 193 -148 193z" />
    <glyph glyph-name="acircumflex.ss01" horiz-adv-x="606" 
d="M475 609h-102l-79 51l-80 -51h-102l137 116h92zM432 538h104v-538h-104v76c-33 -55 -89 -89 -168 -89c-125 0 -231 105 -231 281c0 175 106 280 231 280c79 0 135 -34 168 -89v79zM288 461c-86 0 -145 -72 -145 -193s59 -194 145 -194c80 0 148 61 148 194
s-68 193 -148 193z" />
    <glyph glyph-name="adieresis.ss01" horiz-adv-x="606" 
d="M134 725h98v-105h-98v105zM465 725v-105h-99v105h99zM432 538h104v-538h-104v76c-33 -55 -89 -89 -168 -89c-125 0 -231 105 -231 281c0 175 106 280 231 280c79 0 135 -34 168 -89v79zM288 461c-86 0 -145 -72 -145 -193s59 -194 145 -194c80 0 148 61 148 194
s-68 193 -148 193z" />
    <glyph glyph-name="agrave.ss01" horiz-adv-x="606" 
d="M111 725h128l92 -116h-84zM432 538h104v-538h-104v76c-33 -55 -89 -89 -168 -89c-125 0 -231 105 -231 281c0 175 106 280 231 280c79 0 135 -34 168 -89v79zM288 461c-86 0 -145 -72 -145 -193s59 -194 145 -194c80 0 148 61 148 194s-68 193 -148 193z" />
    <glyph glyph-name="amacron.ss01" horiz-adv-x="606" 
d="M142 632v81h304v-81h-304zM432 538h104v-538h-104v76c-33 -55 -89 -89 -168 -89c-125 0 -231 105 -231 281c0 175 106 280 231 280c79 0 135 -34 168 -89v79zM288 461c-86 0 -145 -72 -145 -193s59 -194 145 -194c80 0 148 61 148 194s-68 193 -148 193z" />
    <glyph glyph-name="aogonek.ss01" horiz-adv-x="606" 
d="M432 538h104v-538c-55 -25 -92 -51 -92 -81c0 -29 26 -38 53 -38c18 0 35 4 48 7v-67c-18 -5 -44 -9 -70 -9c-60 0 -125 22 -125 91c0 40 26 71 82 97v76c-33 -55 -89 -89 -168 -89c-125 0 -231 105 -231 281c0 175 106 280 231 280c79 0 135 -34 168 -89v79zM288 461
c-86 0 -145 -72 -145 -193s59 -194 145 -194c80 0 148 61 148 194s-68 193 -148 193z" />
    <glyph glyph-name="aring.ss01" horiz-adv-x="606" 
d="M380 688c0 -50 -40 -86 -92 -86c-51 0 -91 36 -91 86s41 86 91 86c51 0 92 -36 92 -86zM246 688c0 -24 20 -41 42 -41c23 0 43 17 43 41c0 25 -20 43 -43 43c-22 0 -42 -18 -42 -43zM432 538h104v-538h-104v76c-33 -55 -89 -89 -168 -89c-125 0 -231 105 -231 281
c0 175 106 280 231 280c79 0 135 -34 168 -89v79zM288 461c-86 0 -145 -72 -145 -193s59 -194 145 -194c80 0 148 61 148 194s-68 193 -148 193z" />
    <glyph glyph-name="atilde.ss01" horiz-adv-x="606" 
d="M412 730h77c-14 -93 -72 -120 -122 -120c-61 0 -91 47 -133 47c-27 0 -42 -16 -46 -44h-78c14 89 69 119 122 119c62 0 86 -47 131 -47c27 0 44 15 49 45zM432 538h104v-538h-104v76c-33 -55 -89 -89 -168 -89c-125 0 -231 105 -231 281c0 175 106 280 231 280
c79 0 135 -34 168 -89v79zM288 461c-86 0 -145 -72 -145 -193s59 -194 145 -194c80 0 148 61 148 194s-68 193 -148 193z" />
    <glyph glyph-name="l.ss02" horiz-adv-x="270" 
d="M67 725h104v-571c0 -55 7 -68 58 -68h20v-86h-51c-109 0 -131 27 -131 138v587z" />
    <glyph glyph-name="lacute.ss02" horiz-adv-x="270" 
d="M170 773h-97l108 113h141zM67 725h104v-571c0 -55 7 -68 58 -68h20v-86h-51c-109 0 -131 27 -131 138v587z" />
    <glyph glyph-name="lcaron.ss02" horiz-adv-x="331" 
d="M69 725h104v-571c0 -55 7 -68 58 -68h20v-86h-51c-109 0 -131 27 -131 138v587zM281 555h-67l30 170h107z" />
    <glyph glyph-name="lcommaaccent.ss02" horiz-adv-x="270" 
d="M67 725h104v-571c0 -55 7 -68 58 -68h20v-86h-51c-109 0 -131 27 -131 138v587zM108 -36h98v-98l-44 -90h-57l39 96h-36v92z" />
    <glyph glyph-name="ldot.ss02" horiz-adv-x="339" 
d="M67 725h104v-571c0 -55 7 -68 58 -68h20v-86h-51c-109 0 -131 27 -131 138v587zM339 464v-105h-98v105h98z" />
    <glyph glyph-name="lslash.ss02" horiz-adv-x="305" 
d="M18 348l74 48v329h104v-262l71 47v-87l-71 -47v-222c0 -55 7 -68 58 -68h20v-86h-51c-109 0 -131 27 -131 138v171l-74 -47v86z" />
    <glyph glyph-name="fl.ss02" horiz-adv-x="573" 
d="M89 574c0 119 35 151 161 151h47v-83h-40c-53 0 -64 -11 -64 -67v-37h104v-79h-104v-459h-104v459h-75v79h75v36zM385 725h104v-571c0 -55 7 -68 58 -68h20v-86h-51c-109 0 -131 27 -131 138v587z" />
    <glyph glyph-name="germandbls.ss03" horiz-adv-x="639" 
d="M70 -175v660c0 94 21 148 56 184c48 51 121 68 203 68c131 0 231 -62 231 -175c0 -74 -36 -125 -100 -153c80 -22 143 -80 143 -195c0 -162 -124 -227 -266 -227c-37 0 -75 4 -111 11l19 94c27 -9 63 -15 94 -15c81 0 154 37 154 136c0 106 -80 141 -196 141h-7v91h5
c103 0 160 37 160 108c0 62 -50 102 -128 102c-51 0 -96 -11 -123 -46c-18 -23 -30 -59 -30 -123v-661h-104z" />
    <glyph glyph-name="uni0430.ss01" horiz-adv-x="606" 
d="M432 538h104v-538h-104v76c-33 -55 -89 -89 -168 -89c-125 0 -231 105 -231 281c0 175 106 280 231 280c79 0 135 -34 168 -89v79zM288 461c-86 0 -145 -72 -145 -193s59 -194 145 -194c80 0 148 61 148 194s-68 193 -148 193z" />
    <glyph glyph-name="circle" unicode="&#x25cb;" horiz-adv-x="602" 
d="M584 268c0 -154 -120 -281 -283 -281s-283 127 -283 281c0 155 120 282 283 282s283 -127 283 -282zM116 268c0 -103 75 -186 185 -186c109 0 185 83 185 186c0 104 -76 187 -185 187c-110 0 -185 -83 -185 -187z" />
    </font>
</defs>
</svg>
