<svg width="722" height="261" viewBox="0 0 722 261" fill="none" xmlns="http://www.w3.org/2000/svg">
<path d="M48.8523 99.7062V158.075" stroke="#737373" stroke-width="0.7" stroke-miterlimit="10" stroke-linecap="round" stroke-linejoin="round"/>
<path d="M56.7401 94.4477V176.48" stroke="#737373" stroke-width="0.7" stroke-miterlimit="10" stroke-linecap="round" stroke-linejoin="round"/>
<path d="M57.6368 96.5607V176.36" stroke="#737373" stroke-width="0.7" stroke-miterlimit="10" stroke-linecap="round" stroke-linejoin="round"/>
<path d="M66.2053 94.4477V176.48" stroke="#737373" stroke-width="0.7" stroke-miterlimit="10" stroke-linecap="round" stroke-linejoin="round"/>
<path d="M65.4165 96.5509V176.48" stroke="#737373" stroke-width="0.7" stroke-miterlimit="10" stroke-linecap="round" stroke-linejoin="round"/>
<path d="M53.3219 99.7062V158.075" stroke="#737373" stroke-width="0.7" stroke-miterlimit="10" stroke-linecap="round" stroke-linejoin="round"/>
<path d="M30.4475 132.309C30.4475 133.098 30.9734 133.624 31.7621 133.624" stroke="#737373" stroke-width="0.7" stroke-miterlimit="10" stroke-linecap="round" stroke-linejoin="round"/>
<path d="M37.8094 124.158V144.666" stroke="#737373" stroke-width="0.7" stroke-miterlimit="10" stroke-linecap="round" stroke-linejoin="round"/>
<path d="M33.6025 107.594V133.624" stroke="#737373" stroke-width="0.7" stroke-miterlimit="10" stroke-linecap="round" stroke-linejoin="round"/>
<path d="M32.8138 107.594V133.624" stroke="#737373" stroke-width="0.7" stroke-miterlimit="10" stroke-linecap="round" stroke-linejoin="round"/>
<path d="M82.5066 133.624C83.2954 133.624 83.8212 133.098 83.8212 132.309" stroke="#737373" stroke-width="0.7" stroke-miterlimit="10" stroke-linecap="round" stroke-linejoin="round"/>
<path d="M79.8774 69.7328V133.623" stroke="#737373" stroke-width="0.7" stroke-miterlimit="10" stroke-linecap="round" stroke-linejoin="round"/>
<path d="M80.6661 69.7328V133.623" stroke="#737373" stroke-width="0.7" stroke-miterlimit="10" stroke-linecap="round" stroke-linejoin="round"/>
<path d="M77.511 124.158V144.666" stroke="#737373" stroke-width="0.7" stroke-miterlimit="10" stroke-linecap="round" stroke-linejoin="round"/>
<path d="M61.4727 65V234.586" stroke="#737373" stroke-width="0.7" stroke-miterlimit="10" stroke-linecap="round" stroke-linejoin="round" stroke-dasharray="5.3 5.3"/>
<path d="M66.2053 153.343H65.6795M42.805 226.173C42.805 225.647 42.2792 225.121 42.0162 225.121C41.4904 225.121 40.9645 225.647 40.9645 226.173C40.9645 226.699 41.4904 226.962 42.0162 226.962C42.5421 226.962 42.805 226.699 42.805 226.173ZM62.2614 239.319C62.2614 238.793 61.7356 238.267 61.4727 238.267C60.9468 238.267 60.421 238.793 60.421 239.319C60.421 239.845 60.9468 240.371 61.4727 240.371C61.9985 240.108 62.2614 239.845 62.2614 239.319ZM52.5332 239.319C52.5332 238.793 52.0074 238.267 51.4815 238.267C50.9557 238.267 50.4298 238.793 50.4298 239.319C50.4298 239.845 50.9557 240.371 51.4815 240.371C52.2703 240.108 52.5332 239.845 52.5332 239.319ZM3.1034 196.725C3.1034 200.406 6.25849 203.561 9.93944 203.561L3.1034 196.725ZM1 197.251C1 201.721 4.68094 205.402 9.15066 205.402L1 197.251ZM9.15066 205.665H15.4609H9.15066ZM15.4609 205.665H15.9867H15.4609ZM9.93944 203.561H23.8744H9.93944ZM23.8744 205.665H15.7238H23.8744ZM1 146.507V197.251V146.507ZM3.1034 147.295V196.462V147.295ZM43.5938 190.152V236.69V190.152ZM38.5982 186.734V239.845V186.734ZM40.7016 186.734V240.108V186.734ZM39.387 185.945V241.16V185.945ZM83.5583 184.105H39.387H83.5583ZM83.5583 185.945H39.387H83.5583ZM78.0369 176.48H44.9084H78.0369ZM78.0369 182.527H44.9084H78.0369ZM81.9808 186.734H40.7016H81.9808ZM79.3515 190.152H43.5938H79.3515ZM90.1314 241.16H32.8139H90.1314ZM79.3515 236.953H43.5938H79.3515ZM81.9808 240.371H40.7016H81.9808Z" stroke="#737373" stroke-width="0.7" stroke-miterlimit="10" stroke-linecap="round" stroke-linejoin="round"/>
<path d="M36.2318 223.544H38.5981" stroke="#737373" stroke-width="0.7" stroke-miterlimit="10" stroke-linecap="round" stroke-linejoin="round"/>
<path d="M38.5981 219.337H36.2318" stroke="#737373" stroke-width="0.7" stroke-miterlimit="10" stroke-linecap="round" stroke-linejoin="round"/>
<path d="M36.2318 219.337V223.544" stroke="#737373" stroke-width="0.7" stroke-miterlimit="10" stroke-linecap="round" stroke-linejoin="round"/>
<path d="M38.5981 225.384C38.0722 225.384 37.5464 225.647 37.5464 226.173C37.5464 226.699 37.8093 227.225 38.3352 227.225C38.3352 227.225 38.5981 227.225 38.861 227.225" stroke="#737373" stroke-width="0.7" stroke-miterlimit="10" stroke-linecap="round" stroke-linejoin="round"/>
<path d="M34.6543 223.544H35.4431" stroke="#737373" stroke-width="0.7" stroke-miterlimit="10" stroke-linecap="round" stroke-linejoin="round"/>
<path d="M34.6543 219.337H35.4431" stroke="#737373" stroke-width="0.7" stroke-miterlimit="10" stroke-linecap="round" stroke-linejoin="round"/>
<path d="M35.443 219.337V223.544" stroke="#737373" stroke-width="0.7" stroke-miterlimit="10" stroke-linecap="round" stroke-linejoin="round"/>
<path d="M34.6543 219.337V223.544" stroke="#737373" stroke-width="0.7" stroke-miterlimit="10" stroke-linecap="round" stroke-linejoin="round"/>
<path d="M35.443 222.755H36.2318" stroke="#737373" stroke-width="0.7" stroke-miterlimit="10" stroke-linecap="round" stroke-linejoin="round"/>
<path d="M36.2318 220.389H35.443" stroke="#737373" stroke-width="0.7" stroke-miterlimit="10" stroke-linecap="round" stroke-linejoin="round"/>
<path d="M76.1964 77.0945H39.9128M39.9128 77.6204H76.4594M56.74 94.4476H66.2053M75.1447 73.9395H59.3693M55.9512 90.2408H76.4594M55.9512 90.7666H75.6706M75.1447 84.9823H59.1063M59.3693 69.9956H74.356M60.158 74.2024H74.356M59.8951 85.5081H74.356M78.0369 176.48V182.264M75.4077 182.527L75.6706 184.105M83.5583 185.945V184.105V241.16L84.3471 239.845M83.5583 185.682L84.3471 186.734V239.845M66.2053 144.666H77.5111M66.2053 143.614H77.5111M74.093 144.666V146.507H66.2053M80.6662 133.623C80.6662 133.623 80.6662 133.886 80.4032 133.886C80.1403 133.886 79.8774 133.886 79.8774 133.623H80.6662ZM80.6662 133.623H82.5066M90.1314 243H75.9335V241.16M84.3471 239.845C84.873 239.845 85.3988 239.582 85.3988 239.056C85.3988 238.53 85.1359 238.004 84.61 238.004C84.61 238.004 84.3471 238.004 84.0842 238.004L84.3471 239.845ZM79.3515 190.152V236.69M81.9808 186.734V240.108M48.8523 158.075H53.322M38.5982 186.734C38.0724 186.734 37.5465 186.997 37.5465 187.523C37.5465 188.049 37.8094 188.575 38.3353 188.575C38.3353 188.575 38.5982 188.575 38.8611 188.575L38.5982 186.734ZM38.5982 186.734L39.387 185.682M39.387 185.945V184.105M44.9084 176.48V182.264M47.5377 182.527L47.2747 184.105M59.8951 172.536V176.48M63.0502 172.536V176.48M58.0546 152.554H64.8907M58.0546 152.554C57.7917 152.554 57.5288 152.817 57.2659 153.08L58.0546 152.554ZM56.74 153.343H57.2659M57.6368 172.536H65.4165M53.322 154.394H56.74M53.322 157.549H56.74M48.8523 141.248H53.322M24.9261 137.83C24.4003 137.83 23.6115 137.83 23.3486 137.83M24.9261 137.83H23.3486M24.9261 137.83V140.985M23.3486 137.83C24.4003 137.83 26.5037 137.83 27.5554 137.567C29.1329 137.304 31.4993 136.778 32.8139 136.253C33.6027 135.99 34.6544 136.516 35.1802 137.304M23.3486 137.83L35.1802 137.304M23.3486 137.83V140.985M35.1802 137.304V141.511M24.9261 140.985C24.4003 140.985 23.6115 140.985 23.3486 140.985M24.9261 140.985H23.3486M23.3486 140.985C24.4003 140.985 26.5037 140.985 27.5554 141.248C29.1329 141.511 31.4993 142.037 32.8139 142.563C33.6027 142.826 34.6544 142.3 35.1802 141.511M23.3486 140.985L35.1802 141.511M48.8523 144.666H37.8094M48.8523 143.614H37.8094M23.8744 137.83V140.985M32.8139 137.567V140.722M29.3959 138.882V140.196M35.969 137.304V141.511M36.4948 137.304V141.511M37.8094 137.304H34.9173M32.8139 133.623H32.0251M32.8139 133.623C32.8139 133.886 33.0768 133.886 33.3397 133.886C33.6027 133.886 33.6027 133.623 33.6027 133.623H32.8139ZM34.9173 141.511H37.8094M44.6455 144.666V146.507H48.8523M9.93944 140.459C6.25849 140.459 3.1034 143.614 3.1034 147.295L9.93944 140.459ZM9.93944 140.459H23.3486M9.15066 138.356C4.68094 138.356 1 142.037 1 146.507L9.15066 138.356ZM9.15066 138.356H23.3486M32.8139 241.16V243H47.0118V241.16M38.5982 239.845L39.387 241.16M35.7061 206.716C35.1802 207.505 34.1285 208.031 33.3397 207.768C32.0251 207.242 29.6588 206.716 28.0812 206.453C27.0295 206.191 24.9261 206.191 23.8744 206.191M35.7061 206.716L23.8744 206.191M35.7061 206.716H38.5982M35.7061 206.716V202.51M23.8744 206.191C24.1374 206.191 24.9261 206.191 25.452 206.191M23.8744 206.191H25.452M23.8744 206.191V203.035M35.7061 202.51C35.1802 201.721 34.1285 201.195 33.3397 201.458C32.0251 201.984 29.6588 202.51 28.0812 202.773C27.0295 203.035 24.9261 203.035 23.8744 203.035M35.7061 202.51L23.8744 203.035M23.8744 203.035C24.1374 203.035 24.9261 203.035 25.452 203.035M23.8744 203.035H25.452M25.452 203.035V206.191M35.4431 202.51H38.3353M29.9217 205.139V203.824M24.4003 206.191V203.035M33.3397 206.453V203.298M36.4948 206.716V202.51M36.7578 206.716V202.51M71.9897 187.786C71.9897 187.26 71.4638 186.734 71.2009 186.734C70.675 186.734 70.1492 187.26 70.1492 187.786C70.1492 188.312 70.675 188.838 71.2009 188.838C71.7267 188.575 71.9897 188.312 71.9897 187.786ZM81.9808 187.786C81.9808 187.26 81.4549 186.734 80.9291 186.734C80.4032 186.734 79.8774 187.26 79.8774 187.786C79.8774 188.312 80.4032 188.838 80.9291 188.838C81.4549 188.575 81.9808 188.312 81.9808 187.786ZM84.3471 188.575C84.873 188.575 85.3988 188.312 85.3988 187.786C85.3988 187.26 85.1359 186.734 84.61 186.734C84.61 186.734 84.3471 186.734 84.0842 186.734L84.3471 188.575ZM71.9897 239.319C71.9897 238.793 71.4638 238.267 71.2009 238.267C70.675 238.267 70.1492 238.793 70.1492 239.319C70.1492 239.845 70.675 240.371 71.2009 240.371C71.7267 240.108 71.9897 239.845 71.9897 239.319ZM81.9808 239.056C81.9808 238.53 81.4549 238.004 80.9291 238.004C80.4032 238.004 79.8774 238.53 79.8774 239.056C79.8774 239.582 80.4032 240.108 80.9291 240.108C81.4549 239.845 81.9808 239.582 81.9808 239.056ZM81.9808 200.669C81.9808 200.143 81.4549 199.617 80.9291 199.617C80.4032 199.617 79.8774 200.143 79.8774 200.669C79.8774 201.195 80.4032 201.458 80.9291 201.458C81.4549 201.458 81.9808 200.932 81.9808 200.669ZM84.3471 201.458C84.873 201.458 85.3988 201.195 85.3988 200.669C85.3988 200.143 85.1359 199.617 84.61 199.617C84.61 199.617 84.3471 199.617 84.0842 199.617L84.3471 201.458ZM81.9808 213.289C81.9808 212.764 81.4549 212.238 80.9291 212.238C80.4032 212.238 79.8774 212.764 79.8774 213.289C79.8774 213.815 80.4032 214.341 80.9291 214.341C81.4549 214.341 81.9808 213.815 81.9808 213.289ZM84.3471 214.341C84.873 214.341 85.3988 214.078 85.3988 213.552C85.3988 213.027 85.1359 212.501 84.61 212.501C84.61 212.501 84.3471 212.501 84.0842 212.501L84.3471 214.341ZM81.9808 226.173C81.9808 225.647 81.4549 225.384 80.9291 225.384C80.4032 225.384 79.8774 225.91 79.8774 226.173C79.8774 226.436 80.4032 227.225 80.9291 227.225C81.4549 226.962 81.9808 226.699 81.9808 226.173ZM84.3471 226.962C84.873 226.962 85.3988 226.699 85.3988 226.173C85.3988 225.647 85.1359 225.121 84.61 225.121C84.61 225.121 84.3471 225.121 84.0842 225.121L84.3471 226.962ZM42.805 187.786C42.805 187.26 42.2792 186.734 41.7533 186.734C41.2275 186.734 40.7016 187.26 40.7016 187.786C40.7016 188.312 41.2275 188.838 41.7533 188.838C42.5421 188.575 42.805 188.312 42.805 187.786ZM62.2614 187.786C62.2614 187.26 61.7356 186.734 61.4727 186.734C60.9468 186.734 60.6839 187.26 60.6839 187.786C60.6839 188.312 61.2097 188.838 61.4727 188.838C61.9985 188.575 62.2614 188.312 62.2614 187.786ZM52.5332 187.786C52.5332 187.26 52.0074 186.734 51.4815 186.734C50.9557 186.734 50.4298 187.26 50.4298 187.786C50.4298 188.312 50.9557 188.838 51.4815 188.838C52.2703 188.575 52.5332 188.312 52.5332 187.786ZM65.4165 153.343C65.4165 153.08 65.1536 152.817 64.6278 152.817L65.4165 153.343ZM38.5982 238.004C38.0724 238.004 37.5465 238.267 37.5465 238.793C37.5465 239.319 37.8094 239.845 38.3353 239.845C38.3353 239.845 38.5982 239.845 38.8611 239.845L38.5982 238.004ZM42.805 239.056C42.805 238.53 42.2792 238.004 41.7533 238.004C41.2275 238.004 40.7016 238.53 40.7016 239.056C40.7016 239.582 41.2275 240.108 41.7533 240.108C42.5421 240.108 42.805 239.582 42.805 239.056ZM38.5982 199.617C38.0724 199.617 37.5465 199.88 37.5465 200.406C37.5465 200.932 37.8094 201.458 38.3353 201.458C38.3353 201.458 38.5982 201.458 38.8611 201.458L38.5982 199.617ZM42.805 200.669C42.805 200.143 42.2792 199.617 41.7533 199.617C41.2275 199.617 40.7016 200.143 40.7016 200.669C40.7016 201.195 41.2275 201.458 41.7533 201.458C42.5421 201.458 42.805 200.932 42.805 200.669ZM38.5982 212.501C38.0724 212.501 37.5465 212.764 37.5465 213.289C37.5465 213.815 37.8094 214.341 38.3353 214.341C38.3353 214.341 38.5982 214.341 38.8611 214.341L38.5982 212.501ZM42.805 213.289C42.805 212.764 42.2792 212.238 41.7533 212.238C41.2275 212.238 40.7016 212.764 40.7016 213.289C40.7016 213.815 41.2275 214.341 41.7533 214.341C42.5421 214.341 42.805 213.815 42.805 213.289Z" stroke="#737373" stroke-width="0.7" stroke-miterlimit="10" stroke-linecap="round" stroke-linejoin="round"/>
<path d="M14.4091 101.809H90.3943" stroke="#737373" stroke-width="0.7" stroke-miterlimit="10" stroke-linecap="round" stroke-linejoin="round" stroke-dasharray="5.16 5.16"/>
<path d="M75.1448 69.7328C75.1448 69.4698 75.1448 69.4698 75.1448 69.7328C75.6706 69.2069 76.1965 69.4698 76.4594 69.7328" stroke="#737373" stroke-width="0.7" stroke-miterlimit="10" stroke-linecap="round" stroke-linejoin="round"/>
<path d="M75.1448 73.6767C75.4077 73.4138 75.9335 73.4138 76.1965 73.6767" stroke="#737373" stroke-width="0.7" stroke-miterlimit="10" stroke-linecap="round" stroke-linejoin="round"/>
<path d="M74.3558 69.9957C74.6188 69.9957 74.8817 69.7328 75.1446 69.7328" stroke="#737373" stroke-width="0.7" stroke-miterlimit="10" stroke-linecap="round" stroke-linejoin="round"/>
<path d="M74.3558 74.2024C74.6188 74.2024 75.1446 73.9395 75.1446 73.6766" stroke="#737373" stroke-width="0.7" stroke-miterlimit="10" stroke-linecap="round" stroke-linejoin="round"/>
<path d="M84.0842 71.0474C84.0842 70.2586 83.5583 69.7328 82.7695 69.7328" stroke="#737373" stroke-width="0.7" stroke-miterlimit="10" stroke-linecap="round" stroke-linejoin="round"/>
<path d="M80.6662 69.7329C80.6662 69.47 80.4033 69.47 80.1404 69.47C79.8774 69.47 79.8774 69.7329 79.8774 69.7329" stroke="#737373" stroke-width="0.7" stroke-miterlimit="10" stroke-linecap="round" stroke-linejoin="round"/>
<path d="M80.6661 69.7328H82.5066" stroke="#737373" stroke-width="0.7" stroke-miterlimit="10" stroke-linecap="round" stroke-linejoin="round"/>
<path d="M79.8774 71.8363H76.1964" stroke="#737373" stroke-width="0.7" stroke-miterlimit="10" stroke-linecap="round" stroke-linejoin="round"/>
<path d="M84.0841 71.5731H85.1358" stroke="#737373" stroke-width="0.7" stroke-miterlimit="10" stroke-linecap="round" stroke-linejoin="round"/>
<path d="M85.1359 71.5731V72.3619" stroke="#737373" stroke-width="0.7" stroke-miterlimit="10" stroke-linecap="round" stroke-linejoin="round"/>
<path d="M85.1358 72.362H84.0841" stroke="#737373" stroke-width="0.7" stroke-miterlimit="10" stroke-linecap="round" stroke-linejoin="round"/>
<path d="M84.0841 117.322V117.585" stroke="#737373" stroke-width="0.7" stroke-miterlimit="10" stroke-linecap="round" stroke-linejoin="round"/>
<path d="M84.0841 119.162V118.9" stroke="#737373" stroke-width="0.7" stroke-miterlimit="10" stroke-linecap="round" stroke-linejoin="round"/>
<path d="M84.0842 117.059C84.0842 117.059 84.0842 116.796 84.0842 117.059C84.3471 116.27 84.873 115.745 85.6618 116.007C85.6618 116.007 85.9247 116.007 85.9247 116.27C86.1876 116.533 86.4505 117.059 85.9247 117.585C85.3988 117.848 84.3471 118.111 83.8213 117.585" stroke="#737373" stroke-width="0.7" stroke-miterlimit="10" stroke-linecap="round" stroke-linejoin="round"/>
<path d="M84.0841 117.059C84.0841 117.059 84.0841 117.322 84.0841 117.585" stroke="#737373" stroke-width="0.7" stroke-miterlimit="10" stroke-linecap="round" stroke-linejoin="round"/>
<path d="M84.0842 119.426C84.0842 120.214 84.873 120.74 85.6618 120.477C86.1876 120.214 86.4505 119.951 86.1876 119.426C86.1876 119.426 86.1876 119.163 85.9247 119.163C85.3988 118.9 84.3471 118.637 83.8213 119.163" stroke="#737373" stroke-width="0.7" stroke-miterlimit="10" stroke-linecap="round" stroke-linejoin="round"/>
<path d="M84.0841 119.425C84.0841 119.425 84.0841 119.162 84.0841 118.9" stroke="#737373" stroke-width="0.7" stroke-miterlimit="10" stroke-linecap="round" stroke-linejoin="round"/>
<path d="M84.0842 100.495C84.3471 99.706 84.873 99.1801 85.6618 99.4431C85.6618 99.4431 85.9247 99.4431 85.9247 99.706C86.1876 99.9689 86.4505 100.495 85.9247 101.021C85.3988 101.284 84.3471 101.546 83.8213 101.021" stroke="#737373" stroke-width="0.7" stroke-miterlimit="10" stroke-linecap="round" stroke-linejoin="round"/>
<path d="M84.0841 100.495C84.0841 100.495 84.0841 100.758 84.0841 101.021" stroke="#737373" stroke-width="0.7" stroke-miterlimit="10" stroke-linecap="round" stroke-linejoin="round"/>
<path d="M84.0842 102.861C84.0842 103.65 84.873 104.176 85.6618 103.913C86.1876 103.65 86.4505 103.387 86.1876 102.861C86.1876 102.861 86.1876 102.598 85.9247 102.598C85.3988 102.335 84.3471 102.072 83.8213 102.598" stroke="#737373" stroke-width="0.7" stroke-miterlimit="10" stroke-linecap="round" stroke-linejoin="round"/>
<path d="M84.0841 102.861C84.0841 102.861 84.0841 102.598 84.0841 102.335" stroke="#737373" stroke-width="0.7" stroke-miterlimit="10" stroke-linecap="round" stroke-linejoin="round"/>
<path d="M75.1446 84.7193L74.8817 84.9823C74.8817 84.9823 74.6188 85.2452 74.3558 85.2452" stroke="#737373" stroke-width="0.7" stroke-miterlimit="10" stroke-linecap="round" stroke-linejoin="round"/>
<path d="M84.0842 83.9307C84.3471 83.142 84.873 82.6161 85.6618 82.879C85.6618 82.879 85.9247 82.879 85.9247 83.1419C86.1876 83.4049 86.4505 83.9307 85.9247 84.4566C85.3988 84.7195 84.3471 84.9824 83.8213 84.4566" stroke="#737373" stroke-width="0.7" stroke-miterlimit="10" stroke-linecap="round" stroke-linejoin="round"/>
<path d="M75.9335 84.7193C76.1964 84.7193 76.1964 84.9823 76.1964 85.2452" stroke="#737373" stroke-width="0.7" stroke-miterlimit="10" stroke-linecap="round" stroke-linejoin="round"/>
<path d="M75.1448 84.7194C75.4077 84.4565 75.6706 84.4565 75.9336 84.7194" stroke="#737373" stroke-width="0.7" stroke-miterlimit="10" stroke-linecap="round" stroke-linejoin="round"/>
<path d="M84.0841 83.9308C84.0841 83.9308 84.0841 84.1937 84.0841 84.4567" stroke="#737373" stroke-width="0.7" stroke-miterlimit="10" stroke-linecap="round" stroke-linejoin="round"/>
<path d="M84.0841 84.4565V84.7194" stroke="#737373" stroke-width="0.7" stroke-miterlimit="10" stroke-linecap="round" stroke-linejoin="round"/>
<path d="M84.0841 86.034V85.7711" stroke="#737373" stroke-width="0.7" stroke-miterlimit="10" stroke-linecap="round" stroke-linejoin="round"/>
<path d="M84.0842 86.56C84.0842 87.3488 84.873 87.8746 85.6618 87.6117C86.1876 87.3488 86.4505 87.0858 86.1876 86.56C86.1876 86.56 86.1876 86.2971 85.9247 86.2971C85.3988 86.0342 84.3471 85.7712 83.8213 86.2971" stroke="#737373" stroke-width="0.7" stroke-miterlimit="10" stroke-linecap="round" stroke-linejoin="round"/>
<path d="M84.0841 86.5598C84.0841 86.5598 84.0841 86.2968 84.0841 86.0339" stroke="#737373" stroke-width="0.7" stroke-miterlimit="10" stroke-linecap="round" stroke-linejoin="round"/>
<path d="M84.8728 87.6118V99.4434" stroke="#737373" stroke-width="0.7" stroke-miterlimit="10" stroke-linecap="round" stroke-linejoin="round"/>
<path d="M77.5111 124.158H66.2053" stroke="#737373" stroke-width="0.7" stroke-miterlimit="10" stroke-linecap="round" stroke-linejoin="round"/>
<path d="M84.8728 103.913V116.008" stroke="#737373" stroke-width="0.7" stroke-miterlimit="10" stroke-linecap="round" stroke-linejoin="round"/>
<path d="M85.9245 117.322C85.3987 117.585 85.3987 118.374 85.9245 118.637" stroke="#737373" stroke-width="0.7" stroke-miterlimit="10" stroke-linecap="round" stroke-linejoin="round"/>
<path d="M85.9245 101.021C85.3987 101.284 85.3987 102.073 85.9245 102.336" stroke="#737373" stroke-width="0.7" stroke-miterlimit="10" stroke-linecap="round" stroke-linejoin="round"/>
<path d="M77.511 131.257H79.8773" stroke="#737373" stroke-width="0.7" stroke-miterlimit="10" stroke-linecap="round" stroke-linejoin="round"/>
<path d="M84.0841 128.102C84.347 128.102 84.8729 127.839 84.8729 127.313" stroke="#737373" stroke-width="0.7" stroke-miterlimit="10" stroke-linecap="round" stroke-linejoin="round"/>
<path d="M84.8728 120.477V127.313" stroke="#737373" stroke-width="0.7" stroke-miterlimit="10" stroke-linecap="round" stroke-linejoin="round"/>
<path d="M84.8728 76.0431V82.8791" stroke="#737373" stroke-width="0.7" stroke-miterlimit="10" stroke-linecap="round" stroke-linejoin="round"/>
<path d="M84.8729 76.0429C84.8729 75.78 84.61 75.2541 84.0841 75.2541" stroke="#737373" stroke-width="0.7" stroke-miterlimit="10" stroke-linecap="round" stroke-linejoin="round"/>
<path d="M76.1964 89.978V85.2454" stroke="#737373" stroke-width="0.7" stroke-miterlimit="10" stroke-linecap="round" stroke-linejoin="round"/>
<path d="M75.6705 90.7666C75.9335 90.7666 76.4593 90.5037 76.4593 89.9779" stroke="#737373" stroke-width="0.7" stroke-miterlimit="10" stroke-linecap="round" stroke-linejoin="round"/>
<path d="M85.9245 84.4565C85.3987 84.7194 85.3987 85.5082 85.9245 85.7711" stroke="#737373" stroke-width="0.7" stroke-miterlimit="10" stroke-linecap="round" stroke-linejoin="round"/>
<path d="M76.1964 69.7328V77.6205" stroke="#737373" stroke-width="0.7" stroke-miterlimit="10" stroke-linecap="round" stroke-linejoin="round"/>
<path d="M84.0841 71.0474V132.309" stroke="#737373" stroke-width="0.7" stroke-miterlimit="10" stroke-linecap="round" stroke-linejoin="round"/>
<path d="M41.7533 69.9956H57.2659" stroke="#737373" stroke-width="0.7" stroke-miterlimit="10" stroke-linecap="round" stroke-linejoin="round"/>
<path d="M41.7533 74.2024H56.4771" stroke="#737373" stroke-width="0.7" stroke-miterlimit="10" stroke-linecap="round" stroke-linejoin="round"/>
<path d="M57.2659 73.9395H40.9646" stroke="#737373" stroke-width="0.7" stroke-miterlimit="10" stroke-linecap="round" stroke-linejoin="round"/>
<path d="M40.9645 69.7327C40.7016 69.4698 40.1758 69.2068 39.9128 69.4698C39.9128 69.4698 39.9128 69.4698 39.9128 69.7327" stroke="#737373" stroke-width="0.7" stroke-miterlimit="10" stroke-linecap="round" stroke-linejoin="round"/>
<path d="M40.9645 73.6767C40.7016 73.4138 40.1758 73.4138 39.9128 73.6767" stroke="#737373" stroke-width="0.7" stroke-miterlimit="10" stroke-linecap="round" stroke-linejoin="round"/>
<path d="M39.9127 71.8363H33.6025" stroke="#737373" stroke-width="0.7" stroke-miterlimit="10" stroke-linecap="round" stroke-linejoin="round"/>
<path d="M32.8138 69.7328H32.025" stroke="#737373" stroke-width="0.7" stroke-miterlimit="10" stroke-linecap="round" stroke-linejoin="round"/>
<path d="M33.6026 69.7329C33.6026 69.47 33.3397 69.47 33.0768 69.47C32.8138 69.47 32.8138 69.7329 32.8138 69.7329" stroke="#737373" stroke-width="0.7" stroke-miterlimit="10" stroke-linecap="round" stroke-linejoin="round"/>
<path d="M30.4476 71.5731H29.1329" stroke="#737373" stroke-width="0.7" stroke-miterlimit="10" stroke-linecap="round" stroke-linejoin="round"/>
<path d="M29.1329 72.362H30.4476" stroke="#737373" stroke-width="0.7" stroke-miterlimit="10" stroke-linecap="round" stroke-linejoin="round"/>
<path d="M29.1329 71.5731V72.3619" stroke="#737373" stroke-width="0.7" stroke-miterlimit="10" stroke-linecap="round" stroke-linejoin="round"/>
<path d="M32.0251 69.7328C31.2363 69.7328 30.7104 70.2586 30.7104 71.0474" stroke="#737373" stroke-width="0.7" stroke-miterlimit="10" stroke-linecap="round" stroke-linejoin="round"/>
<path d="M40.9646 69.7328C41.2275 69.9957 41.4904 69.9957 41.7534 69.9957" stroke="#737373" stroke-width="0.7" stroke-miterlimit="10" stroke-linecap="round" stroke-linejoin="round"/>
<path d="M40.9646 73.6766C41.2275 73.9395 41.4904 74.2024 41.7534 74.2024" stroke="#737373" stroke-width="0.7" stroke-miterlimit="10" stroke-linecap="round" stroke-linejoin="round"/>
<path d="M58.3175 69.47C58.5804 69.47 59.1063 69.7329 59.3692 69.7329" stroke="#737373" stroke-width="0.7" stroke-miterlimit="10" stroke-linecap="round" stroke-linejoin="round"/>
<path d="M57.2657 69.9958C57.5287 69.7329 58.0545 69.47 58.3174 69.47" stroke="#737373" stroke-width="0.7" stroke-miterlimit="10" stroke-linecap="round" stroke-linejoin="round"/>
<path d="M58.3175 73.4138C58.5804 73.4138 59.1063 73.6767 59.3692 73.6767" stroke="#737373" stroke-width="0.7" stroke-miterlimit="10" stroke-linecap="round" stroke-linejoin="round"/>
<path d="M56.2142 74.2026C56.4772 74.2026 57.003 73.9397 57.2659 73.6767C57.5289 73.4138 57.7918 73.4138 58.0547 73.4138" stroke="#737373" stroke-width="0.7" stroke-miterlimit="10" stroke-linecap="round" stroke-linejoin="round"/>
<path d="M59.1063 69.7328C59.1063 69.9957 59.3692 69.9957 59.1063 69.7328" stroke="#737373" stroke-width="0.7" stroke-miterlimit="10" stroke-linecap="round" stroke-linejoin="round"/>
<path d="M59.1063 73.6766C59.3692 73.9395 59.8951 74.2024 60.158 74.2024" stroke="#737373" stroke-width="0.7" stroke-miterlimit="10" stroke-linecap="round" stroke-linejoin="round"/>
<path d="M48.8523 99.7062H53.322" stroke="#737373" stroke-width="0.7" stroke-miterlimit="10" stroke-linecap="round" stroke-linejoin="round"/>
<path d="M39.9128 90.2411H54.6366" stroke="#737373" stroke-width="0.7" stroke-miterlimit="10" stroke-linecap="round" stroke-linejoin="round"/>
<path d="M40.4387 90.7667H54.6367" stroke="#737373" stroke-width="0.7" stroke-miterlimit="10" stroke-linecap="round" stroke-linejoin="round"/>
<path d="M41.7533 85.5083H56.4771" stroke="#737373" stroke-width="0.7" stroke-miterlimit="10" stroke-linecap="round" stroke-linejoin="round"/>
<path d="M57.5289 84.9826H40.9646" stroke="#737373" stroke-width="0.7" stroke-miterlimit="10" stroke-linecap="round" stroke-linejoin="round"/>
<path d="M30.4475 117.322V117.585" stroke="#737373" stroke-width="0.7" stroke-miterlimit="10" stroke-linecap="round" stroke-linejoin="round"/>
<path d="M30.4475 119.162V118.9" stroke="#737373" stroke-width="0.7" stroke-miterlimit="10" stroke-linecap="round" stroke-linejoin="round"/>
<path d="M30.4475 119.425C30.4475 119.425 30.4475 119.162 30.4475 118.9" stroke="#737373" stroke-width="0.7" stroke-miterlimit="10" stroke-linecap="round" stroke-linejoin="round"/>
<path d="M30.4475 119.425C30.1846 120.214 29.6588 120.74 28.87 120.477C28.87 120.477 28.6071 120.477 28.6071 120.214C28.3441 119.951 28.0812 119.425 28.6071 118.9C29.1329 118.637 30.1846 118.374 30.7105 118.9" stroke="#737373" stroke-width="0.7" stroke-miterlimit="10" stroke-linecap="round" stroke-linejoin="round"/>
<path d="M30.4475 117.059C30.4475 117.059 30.4475 117.322 30.4475 117.585" stroke="#737373" stroke-width="0.7" stroke-miterlimit="10" stroke-linecap="round" stroke-linejoin="round"/>
<path d="M30.4475 117.059C30.4475 116.27 29.6587 115.745 28.87 116.007C28.3441 116.27 28.0812 116.533 28.3441 117.059C28.3441 117.059 28.3441 117.322 28.607 117.322C29.1329 117.585 30.1846 117.848 30.7104 117.322" stroke="#737373" stroke-width="0.7" stroke-miterlimit="10" stroke-linecap="round" stroke-linejoin="round"/>
<path d="M30.4475 119.162V118.9" stroke="#737373" stroke-width="0.7" stroke-miterlimit="10" stroke-linecap="round" stroke-linejoin="round"/>
<path d="M30.4475 117.322V117.585" stroke="#737373" stroke-width="0.7" stroke-miterlimit="10" stroke-linecap="round" stroke-linejoin="round"/>
<path d="M29.9216 99.706C29.6587 99.4431 29.1329 99.1802 28.607 99.1802C28.0812 99.4431 27.8182 99.706 28.0812 100.232C28.0812 100.232 28.0812 100.495 28.3441 100.495C28.8699 100.758 29.6587 101.021 29.9216 100.758" stroke="#737373" stroke-width="0.7" stroke-miterlimit="10" stroke-linecap="round" stroke-linejoin="round"/>
<path d="M29.9217 103.65C29.6587 103.913 29.1329 104.176 28.607 104.176C28.607 104.176 28.3441 104.176 28.3441 103.913C28.0812 103.65 27.8183 103.124 28.3441 102.598C28.87 102.335 29.6587 102.072 29.9217 102.335" stroke="#737373" stroke-width="0.7" stroke-miterlimit="10" stroke-linecap="round" stroke-linejoin="round"/>
<path d="M40.9644 84.9823C40.7015 84.7193 40.4386 84.7193 40.1757 84.7193" stroke="#737373" stroke-width="0.7" stroke-miterlimit="10" stroke-linecap="round" stroke-linejoin="round"/>
<path d="M30.4475 83.9307C30.4475 83.142 29.6587 82.6161 28.87 82.879C28.3441 83.1419 28.0812 83.4049 28.3441 83.9307C28.3441 83.9307 28.3441 84.1936 28.607 84.1936C29.1329 84.4566 30.1846 84.7195 30.7104 84.1936" stroke="#737373" stroke-width="0.7" stroke-miterlimit="10" stroke-linecap="round" stroke-linejoin="round"/>
<path d="M30.4475 83.9308C30.4475 83.9308 30.4475 84.1937 30.4475 84.4567" stroke="#737373" stroke-width="0.7" stroke-miterlimit="10" stroke-linecap="round" stroke-linejoin="round"/>
<path d="M30.4475 86.034V85.7711" stroke="#737373" stroke-width="0.7" stroke-miterlimit="10" stroke-linecap="round" stroke-linejoin="round"/>
<path d="M30.4475 84.4565V84.7194" stroke="#737373" stroke-width="0.7" stroke-miterlimit="10" stroke-linecap="round" stroke-linejoin="round"/>
<path d="M30.4475 86.2969C30.1846 87.0857 29.6588 87.6115 28.87 87.3486C28.87 87.3486 28.6071 87.3486 28.6071 87.0857C28.3441 86.8227 28.0812 86.2969 28.6071 85.771C29.1329 85.5081 30.1846 85.2452 30.7105 85.771" stroke="#737373" stroke-width="0.7" stroke-miterlimit="10" stroke-linecap="round" stroke-linejoin="round"/>
<path d="M30.4475 86.2969C30.4475 86.2969 30.4475 86.034 30.4475 85.7711" stroke="#737373" stroke-width="0.7" stroke-miterlimit="10" stroke-linecap="round" stroke-linejoin="round"/>
<path d="M30.4475 86.034V85.7711" stroke="#737373" stroke-width="0.7" stroke-miterlimit="10" stroke-linecap="round" stroke-linejoin="round"/>
<path d="M30.4475 84.1936V84.4566" stroke="#737373" stroke-width="0.7" stroke-miterlimit="10" stroke-linecap="round" stroke-linejoin="round"/>
<path d="M30.4475 86.034V85.7711" stroke="#737373" stroke-width="0.7" stroke-miterlimit="10" stroke-linecap="round" stroke-linejoin="round"/>
<path d="M30.4475 84.1936V84.4566" stroke="#737373" stroke-width="0.7" stroke-miterlimit="10" stroke-linecap="round" stroke-linejoin="round"/>
<path d="M40.1758 84.7193C39.9128 84.7193 39.9128 84.9823 39.9128 84.9823" stroke="#737373" stroke-width="0.7" stroke-miterlimit="10" stroke-linecap="round" stroke-linejoin="round"/>
<path d="M24.4001 81.3015V122.055" stroke="#737373" stroke-width="0.7" stroke-miterlimit="10" stroke-linecap="round" stroke-linejoin="round"/>
<path d="M37.8094 124.158H48.8523" stroke="#737373" stroke-width="0.7" stroke-miterlimit="10" stroke-linecap="round" stroke-linejoin="round"/>
<path d="M24.4002 100.495H19.6676" stroke="#737373" stroke-width="0.7" stroke-miterlimit="10" stroke-linecap="round" stroke-linejoin="round"/>
<path d="M24.4002 103.124H19.6676" stroke="#737373" stroke-width="0.7" stroke-miterlimit="10" stroke-linecap="round" stroke-linejoin="round"/>
<path d="M19.6676 100.495V103.124" stroke="#737373" stroke-width="0.7" stroke-miterlimit="10" stroke-linecap="round" stroke-linejoin="round"/>
<path d="M37.2835 95.2366C37.0205 94.7107 36.4947 94.4478 35.9688 94.7107C35.7059 94.7107 35.443 94.9736 35.443 95.2366" stroke="#737373" stroke-width="0.7" stroke-miterlimit="10" stroke-linecap="round" stroke-linejoin="round"/>
<path d="M35.443 108.383C35.7059 108.908 36.2318 109.171 36.7576 108.908C37.0205 108.908 37.2835 108.645 37.2835 108.383" stroke="#737373" stroke-width="0.7" stroke-miterlimit="10" stroke-linecap="round" stroke-linejoin="round"/>
<path d="M38.0724 95.2363H34.3915" stroke="#737373" stroke-width="0.7" stroke-miterlimit="10" stroke-linecap="round" stroke-linejoin="round"/>
<path d="M34.3915 93.9217H38.0724" stroke="#737373" stroke-width="0.7" stroke-miterlimit="10" stroke-linecap="round" stroke-linejoin="round"/>
<path d="M38.5982 96.0252H32.288" stroke="#737373" stroke-width="0.7" stroke-miterlimit="10" stroke-linecap="round" stroke-linejoin="round"/>
<path d="M38.5982 96.8142H32.288" stroke="#737373" stroke-width="0.7" stroke-miterlimit="10" stroke-linecap="round" stroke-linejoin="round"/>
<path d="M38.0724 108.12H34.3915" stroke="#737373" stroke-width="0.7" stroke-miterlimit="10" stroke-linecap="round" stroke-linejoin="round"/>
<path d="M34.3915 109.434H38.0724" stroke="#737373" stroke-width="0.7" stroke-miterlimit="10" stroke-linecap="round" stroke-linejoin="round"/>
<path d="M38.5982 107.594H32.288" stroke="#737373" stroke-width="0.7" stroke-miterlimit="10" stroke-linecap="round" stroke-linejoin="round"/>
<path d="M38.5982 106.542H32.288" stroke="#737373" stroke-width="0.7" stroke-miterlimit="10" stroke-linecap="round" stroke-linejoin="round"/>
<path d="M28.6071 118.9C29.1329 118.637 29.1329 117.848 28.6071 117.585" stroke="#737373" stroke-width="0.7" stroke-miterlimit="10" stroke-linecap="round" stroke-linejoin="round"/>
<path d="M34.3915 95.4995V96.0253" stroke="#737373" stroke-width="0.7" stroke-miterlimit="10" stroke-linecap="round" stroke-linejoin="round"/>
<path d="M34.3915 95.4992V93.9217" stroke="#737373" stroke-width="0.7" stroke-miterlimit="10" stroke-linecap="round" stroke-linejoin="round"/>
<path d="M32.288 96.8142C31.4992 96.8142 30.9734 97.34 30.9734 98.1288" stroke="#737373" stroke-width="0.7" stroke-miterlimit="10" stroke-linecap="round" stroke-linejoin="round"/>
<path d="M32.2881 96.0252C30.9735 96.0252 29.9218 97.0769 29.9218 98.3915" stroke="#737373" stroke-width="0.7" stroke-miterlimit="10" stroke-linecap="round" stroke-linejoin="round"/>
<path d="M34.3915 107.857V109.434" stroke="#737373" stroke-width="0.7" stroke-miterlimit="10" stroke-linecap="round" stroke-linejoin="round"/>
<path d="M34.3915 107.594V108.12" stroke="#737373" stroke-width="0.7" stroke-miterlimit="10" stroke-linecap="round" stroke-linejoin="round"/>
<path d="M33.6025 106.016V106.542" stroke="#737373" stroke-width="0.7" stroke-miterlimit="10" stroke-linecap="round" stroke-linejoin="round"/>
<path d="M29.9218 105.228C29.9218 106.542 30.9735 107.594 32.2881 107.594" stroke="#737373" stroke-width="0.7" stroke-miterlimit="10" stroke-linecap="round" stroke-linejoin="round"/>
<path d="M30.9734 105.228C30.9734 106.016 31.4992 106.542 32.288 106.542" stroke="#737373" stroke-width="0.7" stroke-miterlimit="10" stroke-linecap="round" stroke-linejoin="round"/>
<path d="M32.8138 106.016V106.542" stroke="#737373" stroke-width="0.7" stroke-miterlimit="10" stroke-linecap="round" stroke-linejoin="round"/>
<path d="M34.9171 96.8142V106.542" stroke="#737373" stroke-width="0.7" stroke-miterlimit="10" stroke-linecap="round" stroke-linejoin="round"/>
<path d="M33.6025 96.8142V106.542" stroke="#737373" stroke-width="0.7" stroke-miterlimit="10" stroke-linecap="round" stroke-linejoin="round"/>
<path d="M29.9218 98.1287V105.228" stroke="#737373" stroke-width="0.7" stroke-miterlimit="10" stroke-linecap="round" stroke-linejoin="round"/>
<path d="M30.9734 98.1287V105.228" stroke="#737373" stroke-width="0.7" stroke-miterlimit="10" stroke-linecap="round" stroke-linejoin="round"/>
<path d="M32.8138 96.8142V106.542" stroke="#737373" stroke-width="0.7" stroke-miterlimit="10" stroke-linecap="round" stroke-linejoin="round"/>
<path d="M28.6071 102.336C29.1329 102.073 29.1329 101.284 28.6071 101.021" stroke="#737373" stroke-width="0.7" stroke-miterlimit="10" stroke-linecap="round" stroke-linejoin="round"/>
<path d="M37.5464 96.8142V106.542" stroke="#737373" stroke-width="0.7" stroke-miterlimit="10" stroke-linecap="round" stroke-linejoin="round"/>
<path d="M38.0723 95.4995V96.0253" stroke="#737373" stroke-width="0.7" stroke-miterlimit="10" stroke-linecap="round" stroke-linejoin="round"/>
<path d="M38.0723 93.9217V95.4992" stroke="#737373" stroke-width="0.7" stroke-miterlimit="10" stroke-linecap="round" stroke-linejoin="round"/>
<path d="M38.5981 96.0252V96.814" stroke="#737373" stroke-width="0.7" stroke-miterlimit="10" stroke-linecap="round" stroke-linejoin="round"/>
<path d="M38.5981 106.542V107.594" stroke="#737373" stroke-width="0.7" stroke-miterlimit="10" stroke-linecap="round" stroke-linejoin="round"/>
<path d="M38.0723 109.434V107.857" stroke="#737373" stroke-width="0.7" stroke-miterlimit="10" stroke-linecap="round" stroke-linejoin="round"/>
<path d="M38.0723 107.594V108.12" stroke="#737373" stroke-width="0.7" stroke-miterlimit="10" stroke-linecap="round" stroke-linejoin="round"/>
<path d="M33.6025 131.257H37.8093" stroke="#737373" stroke-width="0.7" stroke-miterlimit="10" stroke-linecap="round" stroke-linejoin="round"/>
<path d="M24.4001 122.055C24.4001 125.21 27.0294 127.839 30.1845 127.839H30.4474" stroke="#737373" stroke-width="0.7" stroke-miterlimit="10" stroke-linecap="round" stroke-linejoin="round"/>
<path d="M28.6071 86.034C29.1329 85.771 29.1329 84.9823 28.6071 84.7193" stroke="#737373" stroke-width="0.7" stroke-miterlimit="10" stroke-linecap="round" stroke-linejoin="round"/>
<path d="M39.6499 85.2454V89.978" stroke="#737373" stroke-width="0.7" stroke-miterlimit="10" stroke-linecap="round" stroke-linejoin="round"/>
<path d="M39.6499 89.9779C39.6499 90.5037 39.9128 90.7666 40.4387 90.7666" stroke="#737373" stroke-width="0.7" stroke-miterlimit="10" stroke-linecap="round" stroke-linejoin="round"/>
<path d="M40.7015 77.0948V77.3577" stroke="#737373" stroke-width="0.7" stroke-miterlimit="10" stroke-linecap="round" stroke-linejoin="round"/>
<path d="M40.9646 84.9826C40.9646 85.2455 41.4904 85.5084 41.7534 85.5084" stroke="#737373" stroke-width="0.7" stroke-miterlimit="10" stroke-linecap="round" stroke-linejoin="round"/>
<path d="M30.4475 106.542V132.309" stroke="#737373" stroke-width="0.7" stroke-miterlimit="10" stroke-linecap="round" stroke-linejoin="round"/>
<path d="M58.3175 84.7193C58.5804 84.7193 59.1063 84.9823 59.3692 84.9823" stroke="#737373" stroke-width="0.7" stroke-miterlimit="10" stroke-linecap="round" stroke-linejoin="round"/>
<path d="M56.2142 85.5081C56.4772 85.5081 57.003 85.2452 57.2659 84.9823C57.5289 84.7193 57.7918 84.7193 58.0547 84.7193" stroke="#737373" stroke-width="0.7" stroke-miterlimit="10" stroke-linecap="round" stroke-linejoin="round"/>
<path d="M60.684 88.4003V92.6071" stroke="#737373" stroke-width="0.7" stroke-miterlimit="10" stroke-linecap="round" stroke-linejoin="round"/>
<path d="M61.9985 88.4003V92.6071" stroke="#737373" stroke-width="0.7" stroke-miterlimit="10" stroke-linecap="round" stroke-linejoin="round"/>
<path d="M57.6368 96.5509H65.4165" stroke="#737373" stroke-width="0.7" stroke-miterlimit="10" stroke-linecap="round" stroke-linejoin="round"/>
<path d="M61.4727 93.3958C61.7356 93.3958 62.2614 92.87 61.9985 92.6071" stroke="#737373" stroke-width="0.7" stroke-miterlimit="10" stroke-linecap="round" stroke-linejoin="round"/>
<path d="M60.684 92.6071C60.684 92.87 60.9469 93.3958 61.2098 93.3958" stroke="#737373" stroke-width="0.7" stroke-miterlimit="10" stroke-linecap="round" stroke-linejoin="round"/>
<path d="M64.1019 94.4475C63.839 93.6588 62.7873 92.87 61.9985 92.6071" stroke="#737373" stroke-width="0.7" stroke-miterlimit="10" stroke-linecap="round" stroke-linejoin="round"/>
<path d="M62.5243 101.81C62.5243 101.284 61.9985 100.758 61.4726 100.758C60.9468 100.758 60.4209 101.284 60.4209 101.81C60.4209 102.336 60.9468 102.861 61.4726 102.861C61.9985 102.861 62.5243 102.336 62.5243 101.81Z" stroke="#737373" stroke-width="0.7" stroke-miterlimit="10" stroke-linecap="round" stroke-linejoin="round"/>
<path d="M60.6838 92.6071C59.8951 92.87 58.8434 93.6588 58.5804 94.4475" stroke="#737373" stroke-width="0.7" stroke-miterlimit="10" stroke-linecap="round" stroke-linejoin="round"/>
<path d="M63.5761 101.81C63.5761 100.758 62.7873 99.7062 61.4727 99.7062C60.421 99.7062 59.3693 100.495 59.3693 101.81C59.3693 102.861 60.158 103.913 61.4727 103.913C62.5244 103.65 63.5761 102.861 63.5761 101.81Z" stroke="#737373" stroke-width="0.7" stroke-miterlimit="10" stroke-linecap="round" stroke-linejoin="round"/>
<path d="M52.2704 101.809C52.2704 101.021 51.7445 100.495 50.9557 100.495C50.167 100.495 49.6411 101.021 49.6411 101.809C49.6411 102.598 50.167 103.124 50.9557 103.124C51.7445 103.124 52.2704 102.598 52.2704 101.809Z" stroke="#737373" stroke-width="0.7" stroke-miterlimit="10" stroke-linecap="round" stroke-linejoin="round"/>
<path d="M52.0073 101.81C52.0073 101.284 51.4815 100.758 50.9556 100.758C50.4298 100.758 49.9039 101.284 49.9039 101.81C49.9039 102.336 50.4298 102.861 50.9556 102.861C51.4815 102.861 52.0073 102.336 52.0073 101.81Z" stroke="#737373" stroke-width="0.7" stroke-miterlimit="10" stroke-linecap="round" stroke-linejoin="round"/>
<path d="M53.3219 124.158H56.7399" stroke="#737373" stroke-width="0.7" stroke-miterlimit="10" stroke-linecap="round" stroke-linejoin="round"/>
<path d="M54.6365 90.2411H55.9511" stroke="#737373" stroke-width="0.7" stroke-miterlimit="10" stroke-linecap="round" stroke-linejoin="round"/>
<path d="M54.6365 90.7667H55.9511" stroke="#737373" stroke-width="0.7" stroke-miterlimit="10" stroke-linecap="round" stroke-linejoin="round"/>
<path d="M61.4725 87.6118C61.2096 87.6118 60.6837 88.1377 60.9467 88.4006" stroke="#737373" stroke-width="0.7" stroke-miterlimit="10" stroke-linecap="round" stroke-linejoin="round"/>
<path d="M61.9985 88.4006C61.9985 88.1377 61.7356 87.6118 61.4727 87.6118" stroke="#737373" stroke-width="0.7" stroke-miterlimit="10" stroke-linecap="round" stroke-linejoin="round"/>
<path d="M59.1063 84.9826C59.3692 85.2455 59.8951 85.5084 60.158 85.5084" stroke="#737373" stroke-width="0.7" stroke-miterlimit="10" stroke-linecap="round" stroke-linejoin="round"/>
<path d="M30.4475 71.0474V96.814" stroke="#737373" stroke-width="0.7" stroke-miterlimit="10" stroke-linecap="round" stroke-linejoin="round"/>
<path d="M33.6025 69.7328V96.0252" stroke="#737373" stroke-width="0.7" stroke-miterlimit="10" stroke-linecap="round" stroke-linejoin="round"/>
<path d="M32.8138 69.7328V96.0252" stroke="#737373" stroke-width="0.7" stroke-miterlimit="10" stroke-linecap="round" stroke-linejoin="round"/>
<path d="M30.4474 75.5172C27.2923 75.2543 24.6631 77.8835 24.4001 81.0386V81.3015" stroke="#737373" stroke-width="0.7" stroke-miterlimit="10" stroke-linecap="round" stroke-linejoin="round"/>
<path d="M39.9128 69.7328V77.6205" stroke="#737373" stroke-width="0.7" stroke-miterlimit="10" stroke-linecap="round" stroke-linejoin="round"/>
<line x1="112" y1="102.65" x2="702" y2="102.65" stroke="#CECECE" stroke-width="0.7"/>
<line x1="112.839" y1="86.6589" x2="702.388" y2="49.6507" stroke="#CECECE" stroke-width="0.7"/>
<line y1="-0.35" x2="590.709" y2="-0.35" transform="matrix(0.998036 0.0626504 0.0626504 -0.998036 112.861 117.992)" stroke="#CECECE" stroke-width="0.7"/>
<path d="M150.365 138.135H151.548V139.02H150.365V141H149.275V139.02H145.39V138.381L149.21 132.469H150.365V138.135ZM146.621 138.135H149.275V133.951L149.146 134.186L146.621 138.135ZM159.066 141H157.976V133.775L155.791 134.578V133.594L158.896 132.428H159.066V141ZM167.832 141H162.242V140.221L165.195 136.939C165.632 136.443 165.933 136.041 166.097 135.732C166.265 135.42 166.349 135.098 166.349 134.766C166.349 134.32 166.214 133.955 165.945 133.67C165.675 133.385 165.316 133.242 164.867 133.242C164.328 133.242 163.908 133.396 163.607 133.705C163.31 134.01 163.162 134.436 163.162 134.982H162.078C162.078 134.197 162.33 133.562 162.833 133.078C163.341 132.594 164.019 132.352 164.867 132.352C165.66 132.352 166.287 132.561 166.748 132.979C167.208 133.393 167.439 133.945 167.439 134.637C167.439 135.477 166.904 136.477 165.833 137.637L163.548 140.115H167.832V141ZM169.478 136.723L169.912 132.469H174.283V133.471H170.832L170.574 135.797C170.992 135.551 171.466 135.428 171.998 135.428C172.775 135.428 173.392 135.686 173.849 136.201C174.306 136.713 174.535 137.406 174.535 138.281C174.535 139.16 174.296 139.854 173.82 140.361C173.347 140.865 172.685 141.117 171.833 141.117C171.08 141.117 170.464 140.908 169.988 140.49C169.511 140.072 169.24 139.494 169.173 138.756H170.199C170.265 139.244 170.439 139.613 170.72 139.863C171.001 140.109 171.373 140.232 171.833 140.232C172.337 140.232 172.732 140.061 173.017 139.717C173.306 139.373 173.451 138.898 173.451 138.293C173.451 137.723 173.294 137.266 172.982 136.922C172.673 136.574 172.261 136.4 171.746 136.4C171.273 136.4 170.902 136.504 170.632 136.711L170.345 136.945L169.478 136.723ZM184.003 134.66V141H182.914V135.557H180.757L180.628 137.93C180.558 139.02 180.375 139.799 180.078 140.268C179.785 140.736 179.318 140.98 178.677 141H178.244V140.045L178.554 140.021C178.906 139.982 179.158 139.779 179.31 139.412C179.462 139.045 179.56 138.365 179.603 137.373L179.72 134.66H184.003ZM187.718 138.299H186.927V141H185.837V134.66H186.927V137.344H187.636L189.769 134.66H191.082L188.574 137.707L191.292 141H189.916L187.718 138.299Z" fill="black"/>
<g clip-path="url(#clip0)">
<path d="M162.717 63.0781L159.184 71H158.047L161.568 63.3594H156.951V62.4688H162.717V63.0781Z" fill="black"/>
<path d="M169.971 69.5645L172.127 64.6602H173.48V71H172.396V66.3887L170.346 71H169.596L167.504 66.2891V71H166.42V64.6602H167.826L169.971 69.5645ZM174.939 67.7715C174.939 67.1504 175.061 66.5918 175.303 66.0957C175.549 65.5996 175.889 65.2168 176.322 64.9473C176.76 64.6777 177.258 64.543 177.816 64.543C178.68 64.543 179.377 64.8418 179.908 65.4395C180.443 66.0371 180.711 66.832 180.711 67.8242V67.9004C180.711 68.5176 180.592 69.0723 180.354 69.5645C180.119 70.0527 179.781 70.4336 179.34 70.707C178.902 70.9805 178.398 71.1172 177.828 71.1172C176.969 71.1172 176.271 70.8184 175.736 70.2207C175.205 69.623 174.939 68.832 174.939 67.8477V67.7715ZM176.029 67.9004C176.029 68.6035 176.191 69.168 176.516 69.5938C176.844 70.0195 177.281 70.2324 177.828 70.2324C178.379 70.2324 178.816 70.0176 179.141 69.5879C179.465 69.1543 179.627 68.5488 179.627 67.7715C179.627 67.0762 179.461 66.5137 179.129 66.084C178.801 65.6504 178.363 65.4336 177.816 65.4336C177.281 65.4336 176.85 65.6465 176.521 66.0723C176.193 66.498 176.029 67.1074 176.029 67.9004Z" fill="black"/>
<path d="M181 65L175 70.5" stroke="black" stroke-linecap="round"/>
</g>
<path d="M172.114 102.393C172.114 108.005 171.631 113.071 170.857 116.722C170.469 118.551 170.013 119.998 169.523 120.976C169.277 121.465 169.035 121.812 168.81 122.029C168.586 122.245 168.412 122.304 168.284 122.304C168.157 122.304 167.983 122.245 167.759 122.029C167.533 121.812 167.292 121.465 167.046 120.976C166.556 119.998 166.1 118.551 165.712 116.722C164.938 113.071 164.455 108.005 164.455 102.393C164.455 96.7802 164.938 91.7138 165.712 88.0634C166.1 86.2341 166.556 84.787 167.046 83.8095C167.292 83.3199 167.533 82.9735 167.759 82.7558C167.983 82.5401 168.157 82.4813 168.284 82.4813C168.412 82.4813 168.586 82.5401 168.81 82.7558C169.035 82.9735 169.277 83.3199 169.523 83.8095C170.013 84.787 170.469 86.2341 170.857 88.0634C171.631 91.7138 172.114 96.7802 172.114 102.393Z" stroke="#CAEE45"/>
<line x1="168.241" y1="95.6771" x2="168.241" y2="108.323" stroke="#CECECE" stroke-width="0.7" stroke-linecap="round"/>
<path d="M223.368 148.5H222.278V141.275L220.092 142.078V141.094L223.198 139.928H223.368V148.5ZM230.797 139.963V140.883H230.598C229.754 140.898 229.082 141.148 228.582 141.633C228.082 142.117 227.793 142.799 227.715 143.678C228.164 143.162 228.778 142.904 229.555 142.904C230.297 142.904 230.889 143.166 231.33 143.689C231.776 144.213 231.998 144.889 231.998 145.717C231.998 146.596 231.758 147.299 231.278 147.826C230.801 148.354 230.161 148.617 229.356 148.617C228.539 148.617 227.877 148.305 227.37 147.68C226.862 147.051 226.608 146.242 226.608 145.254V144.838C226.608 143.268 226.942 142.068 227.61 141.24C228.282 140.408 229.28 139.982 230.604 139.963H230.797ZM229.373 143.807C229.002 143.807 228.661 143.918 228.348 144.141C228.036 144.363 227.819 144.643 227.698 144.979V145.377C227.698 146.08 227.856 146.646 228.172 147.076C228.489 147.506 228.883 147.721 229.356 147.721C229.844 147.721 230.227 147.541 230.504 147.182C230.786 146.822 230.926 146.352 230.926 145.77C230.926 145.184 230.784 144.711 230.498 144.352C230.217 143.988 229.842 143.807 229.373 143.807ZM233.78 144.223L234.213 139.969H238.584V140.971H235.133L234.875 143.297C235.293 143.051 235.768 142.928 236.299 142.928C237.077 142.928 237.694 143.186 238.151 143.701C238.608 144.213 238.836 144.906 238.836 145.781C238.836 146.66 238.598 147.354 238.121 147.861C237.649 148.365 236.987 148.617 236.135 148.617C235.381 148.617 234.766 148.408 234.289 147.99C233.813 147.572 233.541 146.994 233.475 146.256H234.5C234.567 146.744 234.741 147.113 235.022 147.363C235.303 147.609 235.674 147.732 236.135 147.732C236.639 147.732 237.034 147.561 237.319 147.217C237.608 146.873 237.752 146.398 237.752 145.793C237.752 145.223 237.596 144.766 237.284 144.422C236.975 144.074 236.563 143.9 236.047 143.9C235.575 143.9 235.203 144.004 234.934 144.211L234.647 144.445L233.78 144.223ZM248.305 142.16V148.5H247.215V143.057H245.059L244.93 145.43C244.86 146.52 244.676 147.299 244.379 147.768C244.086 148.236 243.62 148.48 242.979 148.5H242.545V147.545L242.856 147.521C243.207 147.482 243.459 147.279 243.612 146.912C243.764 146.545 243.862 145.865 243.905 144.873L244.022 142.16H248.305ZM252.02 145.799H251.229V148.5H250.139V142.16H251.229V144.844H251.938L254.071 142.16H255.383L252.875 145.207L255.594 148.5H254.217L252.02 145.799Z" fill="black"/>
<path d="M224.285 58.707H225.1C225.611 58.6992 226.014 58.5645 226.307 58.3027C226.6 58.041 226.746 57.6875 226.746 57.2422C226.746 56.2422 226.248 55.7422 225.252 55.7422C224.783 55.7422 224.408 55.877 224.127 56.1465C223.85 56.4121 223.711 56.7656 223.711 57.207H222.627C222.627 56.5312 222.873 55.9707 223.365 55.5254C223.861 55.0762 224.49 54.8516 225.252 54.8516C226.057 54.8516 226.688 55.0645 227.145 55.4902C227.602 55.916 227.83 56.5078 227.83 57.2656C227.83 57.6367 227.709 57.9961 227.467 58.3438C227.229 58.6914 226.902 58.9512 226.488 59.123C226.957 59.2715 227.318 59.5176 227.572 59.8613C227.83 60.2051 227.959 60.625 227.959 61.1211C227.959 61.8867 227.709 62.4941 227.209 62.9434C226.709 63.3926 226.059 63.6172 225.258 63.6172C224.457 63.6172 223.805 63.4004 223.301 62.9668C222.801 62.5332 222.551 61.9609 222.551 61.25H223.641C223.641 61.6992 223.787 62.0586 224.08 62.3281C224.373 62.5977 224.766 62.7324 225.258 62.7324C225.781 62.7324 226.182 62.5957 226.459 62.3223C226.736 62.0488 226.875 61.6562 226.875 61.1445C226.875 60.6484 226.723 60.2676 226.418 60.002C226.113 59.7363 225.674 59.5996 225.1 59.5918H224.285V58.707ZM229.945 59.2227L230.379 54.9688H234.75V55.9707H231.299L231.041 58.2969C231.459 58.0508 231.934 57.9277 232.465 57.9277C233.242 57.9277 233.859 58.1855 234.316 58.7012C234.773 59.2129 235.002 59.9062 235.002 60.7812C235.002 61.6602 234.764 62.3535 234.287 62.8613C233.814 63.3652 233.152 63.6172 232.301 63.6172C231.547 63.6172 230.932 63.4082 230.455 62.9902C229.979 62.5723 229.707 61.9941 229.641 61.2559H230.666C230.732 61.7441 230.906 62.1133 231.188 62.3633C231.469 62.6094 231.84 62.7324 232.301 62.7324C232.805 62.7324 233.199 62.5605 233.484 62.2168C233.773 61.873 233.918 61.3984 233.918 60.793C233.918 60.2227 233.762 59.7656 233.449 59.4219C233.141 59.0742 232.729 58.9004 232.213 58.9004C231.74 58.9004 231.369 59.0039 231.1 59.2109L230.812 59.4453L229.945 59.2227Z" fill="black"/>
<path d="M242.471 62.0645L244.627 57.1602H245.98V63.5H244.896V58.8887L242.846 63.5H242.096L240.004 58.7891V63.5H238.92V57.1602H240.326L242.471 62.0645ZM247.439 60.2715C247.439 59.6504 247.561 59.0918 247.803 58.5957C248.049 58.0996 248.389 57.7168 248.822 57.4473C249.26 57.1777 249.758 57.043 250.316 57.043C251.18 57.043 251.877 57.3418 252.408 57.9395C252.943 58.5371 253.211 59.332 253.211 60.3242V60.4004C253.211 61.0176 253.092 61.5723 252.854 62.0645C252.619 62.5527 252.281 62.9336 251.84 63.207C251.402 63.4805 250.898 63.6172 250.328 63.6172C249.469 63.6172 248.771 63.3184 248.236 62.7207C247.705 62.123 247.439 61.332 247.439 60.3477V60.2715ZM248.529 60.4004C248.529 61.1035 248.691 61.668 249.016 62.0938C249.344 62.5195 249.781 62.7324 250.328 62.7324C250.879 62.7324 251.316 62.5176 251.641 62.0879C251.965 61.6543 252.127 61.0488 252.127 60.2715C252.127 59.5762 251.961 59.0137 251.629 58.584C251.301 58.1504 250.863 57.9336 250.316 57.9336C249.781 57.9336 249.35 58.1465 249.021 58.5723C248.693 58.998 248.529 59.6074 248.529 60.4004Z" fill="black"/>
<path d="M253.5 57.5L247.5 63" stroke="black" stroke-linecap="round"/>
<path d="M241.971 102.463C241.971 109.081 241.387 115.058 240.45 119.367C239.981 121.525 239.428 123.238 238.831 124.4C238.532 124.981 238.235 125.399 237.951 125.666C237.67 125.93 237.434 126.019 237.239 126.019C237.045 126.019 236.809 125.93 236.528 125.666C236.244 125.399 235.947 124.981 235.648 124.4C235.05 123.238 234.498 121.525 234.029 119.367C233.091 115.058 232.508 109.081 232.508 102.463C232.508 95.8444 233.091 89.8677 234.029 85.5587C234.498 83.4001 235.05 81.6869 235.648 80.5256C235.947 79.9443 236.244 79.5262 236.528 79.2594C236.809 78.9949 237.045 78.9065 237.239 78.9065C237.434 78.9065 237.67 78.9949 237.951 79.2594C238.235 79.5262 238.532 79.9443 238.831 80.5256C239.428 81.6869 239.981 83.4001 240.45 85.5587C241.387 89.8677 241.971 95.8444 241.971 102.463Z" stroke="#CAEE45"/>
<line x1="237.114" y1="94.4855" x2="237.114" y2="109.514" stroke="#CECECE" stroke-width="0.7" stroke-linecap="round"/>
<path d="M309.933 158.5H304.343V157.721L307.296 154.439C307.734 153.943 308.035 153.541 308.199 153.232C308.367 152.92 308.451 152.598 308.451 152.266C308.451 151.82 308.316 151.455 308.046 151.17C307.777 150.885 307.417 150.742 306.968 150.742C306.429 150.742 306.009 150.896 305.708 151.205C305.412 151.51 305.263 151.936 305.263 152.482H304.179C304.179 151.697 304.431 151.062 304.935 150.578C305.443 150.094 306.121 149.852 306.968 149.852C307.761 149.852 308.388 150.061 308.849 150.479C309.31 150.893 309.541 151.445 309.541 152.137C309.541 152.977 309.005 153.977 307.935 155.137L305.65 157.615H309.933V158.5ZM315.335 149.963V150.883H315.136C314.292 150.898 313.621 151.148 313.121 151.633C312.621 152.117 312.332 152.799 312.253 153.678C312.703 153.162 313.316 152.904 314.093 152.904C314.835 152.904 315.427 153.166 315.869 153.689C316.314 154.213 316.537 154.889 316.537 155.717C316.537 156.596 316.296 157.299 315.816 157.826C315.339 158.354 314.699 158.617 313.894 158.617C313.078 158.617 312.416 158.305 311.908 157.68C311.4 157.051 311.146 156.242 311.146 155.254V154.838C311.146 153.268 311.48 152.068 312.148 151.24C312.82 150.408 313.818 149.982 315.142 149.963H315.335ZM313.912 153.807C313.541 153.807 313.199 153.918 312.886 154.141C312.574 154.363 312.357 154.643 312.236 154.979V155.377C312.236 156.08 312.394 156.646 312.71 157.076C313.027 157.506 313.421 157.721 313.894 157.721C314.382 157.721 314.765 157.541 315.042 157.182C315.324 156.822 315.464 156.352 315.464 155.77C315.464 155.184 315.322 154.711 315.037 154.352C314.755 153.988 314.38 153.807 313.912 153.807ZM317.896 160.199L317.281 159.777C317.648 159.266 317.839 158.738 317.855 158.195V157.217H318.916V158.066C318.916 158.461 318.818 158.855 318.623 159.25C318.431 159.645 318.189 159.961 317.896 160.199ZM324.751 155.635H325.935V156.52H324.751V158.5H323.662V156.52H319.777V155.881L323.597 149.969H324.751V155.635ZM321.007 155.635H323.662V151.451L323.533 151.686L321.007 155.635ZM335.199 152.16V158.5H334.109V153.057H331.953L331.824 155.43C331.753 156.52 331.57 157.299 331.273 157.768C330.98 158.236 330.513 158.48 329.873 158.5H329.439V157.545L329.75 157.521C330.101 157.482 330.353 157.279 330.505 156.912C330.658 156.545 330.755 155.865 330.798 154.873L330.916 152.16H335.199ZM338.914 155.799H338.123V158.5H337.033V152.16H338.123V154.844H338.832L340.964 152.16H342.277L339.769 155.207L342.488 158.5H341.111L338.914 155.799Z" fill="black"/>
<path d="M313.883 47.1953C313.883 47.6211 313.77 48 313.543 48.332C313.32 48.6641 313.018 48.9238 312.635 49.1113C313.08 49.3027 313.432 49.582 313.689 49.9492C313.951 50.3164 314.082 50.7324 314.082 51.1973C314.082 51.9355 313.832 52.5234 313.332 52.9609C312.836 53.3984 312.182 53.6172 311.369 53.6172C310.549 53.6172 309.891 53.3984 309.395 52.9609C308.902 52.5195 308.656 51.9316 308.656 51.1973C308.656 50.7363 308.781 50.3203 309.031 49.9492C309.285 49.5781 309.635 49.2969 310.08 49.1055C309.701 48.918 309.402 48.6582 309.184 48.3262C308.965 47.9941 308.855 47.6172 308.855 47.1953C308.855 46.4766 309.086 45.9062 309.547 45.4844C310.008 45.0625 310.615 44.8516 311.369 44.8516C312.119 44.8516 312.725 45.0625 313.186 45.4844C313.65 45.9062 313.883 46.4766 313.883 47.1953ZM312.998 51.1738C312.998 50.6973 312.846 50.3086 312.541 50.0078C312.24 49.707 311.846 49.5566 311.357 49.5566C310.869 49.5566 310.477 49.7051 310.18 50.002C309.887 50.2988 309.74 50.6895 309.74 51.1738C309.74 51.6582 309.883 52.0391 310.168 52.3164C310.457 52.5938 310.857 52.7324 311.369 52.7324C311.877 52.7324 312.275 52.5938 312.564 52.3164C312.854 52.0352 312.998 51.6543 312.998 51.1738ZM311.369 45.7422C310.943 45.7422 310.598 45.875 310.332 46.1406C310.07 46.4023 309.939 46.7598 309.939 47.2129C309.939 47.6465 310.068 47.998 310.326 48.2676C310.588 48.5332 310.936 48.666 311.369 48.666C311.803 48.666 312.148 48.5332 312.406 48.2676C312.668 47.998 312.799 47.6465 312.799 47.2129C312.799 46.7793 312.664 46.4258 312.395 46.1523C312.125 45.8789 311.783 45.7422 311.369 45.7422ZM320.955 45.5781L317.422 53.5H316.285L319.807 45.8594H315.189V44.9688H320.955V45.5781Z" fill="black"/>
<path d="M328.471 52.0645L330.627 47.1602H331.98V53.5H330.896V48.8887L328.846 53.5H328.096L326.004 48.7891V53.5H324.92V47.1602H326.326L328.471 52.0645ZM333.439 50.2715C333.439 49.6504 333.561 49.0918 333.803 48.5957C334.049 48.0996 334.389 47.7168 334.822 47.4473C335.26 47.1777 335.758 47.043 336.316 47.043C337.18 47.043 337.877 47.3418 338.408 47.9395C338.943 48.5371 339.211 49.332 339.211 50.3242V50.4004C339.211 51.0176 339.092 51.5723 338.854 52.0645C338.619 52.5527 338.281 52.9336 337.84 53.207C337.402 53.4805 336.898 53.6172 336.328 53.6172C335.469 53.6172 334.771 53.3184 334.236 52.7207C333.705 52.123 333.439 51.332 333.439 50.3477V50.2715ZM334.529 50.4004C334.529 51.1035 334.691 51.668 335.016 52.0938C335.344 52.5195 335.781 52.7324 336.328 52.7324C336.879 52.7324 337.316 52.5176 337.641 52.0879C337.965 51.6543 338.127 51.0488 338.127 50.2715C338.127 49.5762 337.961 49.0137 337.629 48.584C337.301 48.1504 336.863 47.9336 336.316 47.9336C335.781 47.9336 335.35 48.1465 335.021 48.5723C334.693 48.998 334.529 49.6074 334.529 50.4004Z" fill="black"/>
<path d="M339.5 47.5L333.5 53" stroke="black" stroke-linecap="round"/>
<path d="M329.443 102.556C329.443 110.512 328.627 117.698 327.318 122.88C326.662 125.475 325.889 127.54 325.051 128.943C324.193 130.379 323.362 130.972 322.636 130.972C321.911 130.972 321.079 130.379 320.221 128.943C319.383 127.54 318.61 125.475 317.954 122.88C316.645 117.698 315.83 110.512 315.83 102.556C315.83 94.6001 316.645 87.4142 317.954 82.2319C318.61 79.637 319.383 77.5726 320.221 76.169C321.079 74.7333 321.911 74.1402 322.636 74.1402C323.362 74.1402 324.193 74.7333 325.051 76.169C325.889 77.5726 326.662 79.637 327.318 82.2319C328.627 87.4142 329.443 94.6001 329.443 102.556Z" stroke="#CAEE45"/>
<line x1="322.322" y1="92.8967" x2="322.322" y2="111.103" stroke="#CECECE" stroke-width="0.7" stroke-linecap="round"/>
<path d="M402.911 170H401.821V162.775L399.635 163.578V162.594L402.741 161.428H402.911V170ZM411.436 166.361C411.436 167.631 411.219 168.574 410.786 169.191C410.352 169.809 409.674 170.117 408.752 170.117C407.842 170.117 407.168 169.816 406.731 169.215C406.293 168.609 406.067 167.707 406.051 166.508V165.061C406.051 163.807 406.268 162.875 406.702 162.266C407.135 161.656 407.815 161.352 408.741 161.352C409.659 161.352 410.334 161.646 410.768 162.236C411.202 162.822 411.424 163.729 411.436 164.955V166.361ZM410.352 164.879C410.352 163.961 410.223 163.293 409.965 162.875C409.708 162.453 409.299 162.242 408.741 162.242C408.186 162.242 407.782 162.451 407.528 162.869C407.274 163.287 407.143 163.93 407.135 164.797V166.531C407.135 167.453 407.268 168.135 407.534 168.576C407.803 169.014 408.209 169.232 408.752 169.232C409.288 169.232 409.684 169.025 409.942 168.611C410.204 168.197 410.34 167.545 410.352 166.654V164.879ZM412.901 171.699L412.286 171.277C412.653 170.766 412.844 170.238 412.86 169.695V168.717H413.92V169.566C413.92 169.961 413.823 170.355 413.627 170.75C413.436 171.145 413.194 171.461 412.901 171.699ZM416.756 165.207H417.571C418.083 165.199 418.485 165.064 418.778 164.803C419.071 164.541 419.217 164.188 419.217 163.742C419.217 162.742 418.719 162.242 417.723 162.242C417.254 162.242 416.879 162.377 416.598 162.646C416.321 162.912 416.182 163.266 416.182 163.707H415.098C415.098 163.031 415.344 162.471 415.836 162.025C416.333 161.576 416.961 161.352 417.723 161.352C418.528 161.352 419.159 161.564 419.616 161.99C420.073 162.416 420.301 163.008 420.301 163.766C420.301 164.137 420.18 164.496 419.938 164.844C419.7 165.191 419.374 165.451 418.959 165.623C419.428 165.771 419.79 166.018 420.043 166.361C420.301 166.705 420.43 167.125 420.43 167.621C420.43 168.387 420.18 168.994 419.68 169.443C419.18 169.893 418.53 170.117 417.729 170.117C416.928 170.117 416.276 169.9 415.772 169.467C415.272 169.033 415.022 168.461 415.022 167.75H416.112C416.112 168.199 416.258 168.559 416.551 168.828C416.844 169.098 417.237 169.232 417.729 169.232C418.252 169.232 418.653 169.096 418.93 168.822C419.208 168.549 419.346 168.156 419.346 167.645C419.346 167.148 419.194 166.768 418.889 166.502C418.584 166.236 418.145 166.1 417.571 166.092H416.756V165.207ZM425.481 170H424.391V162.775L422.206 163.578V162.594L425.311 161.428H425.481V170ZM436.942 163.66V170H435.852V164.557H433.696L433.567 166.93C433.497 168.02 433.313 168.799 433.016 169.268C432.723 169.736 432.256 169.98 431.616 170H431.182V169.045L431.493 169.021C431.844 168.982 432.096 168.779 432.249 168.412C432.401 168.045 432.499 167.365 432.542 166.373L432.659 163.66H436.942ZM440.657 167.299H439.866V170H438.776V163.66H439.866V166.344H440.575L442.708 163.66H444.02L441.512 166.707L444.231 170H442.854L440.657 167.299Z" fill="black"/>
<g clip-path="url(#clip1)">
<path d="M406.771 42H405.682V34.7754L403.496 35.5781V34.5938L406.602 33.4277H406.771V42ZM414.523 39.1348H415.707V40.0195H414.523V42H413.434V40.0195H409.549V39.3809L413.369 33.4688H414.523V39.1348ZM410.779 39.1348H413.434V34.9512L413.305 35.1855L410.779 39.1348ZM422.035 38.3613C422.035 39.6309 421.818 40.5742 421.385 41.1914C420.951 41.8086 420.273 42.1172 419.352 42.1172C418.441 42.1172 417.768 41.8164 417.33 41.2148C416.893 40.6094 416.666 39.707 416.65 38.5078V37.0605C416.65 35.8066 416.867 34.875 417.301 34.2656C417.734 33.6562 418.414 33.3516 419.34 33.3516C420.258 33.3516 420.934 33.6465 421.367 34.2363C421.801 34.8223 422.023 35.7285 422.035 36.9551V38.3613ZM420.951 36.8789C420.951 35.9609 420.822 35.293 420.564 34.875C420.307 34.4531 419.898 34.2422 419.34 34.2422C418.785 34.2422 418.381 34.4512 418.127 34.8691C417.873 35.2871 417.742 35.9297 417.734 36.7969V38.5312C417.734 39.4531 417.867 40.1348 418.133 40.5762C418.402 41.0137 418.809 41.2324 419.352 41.2324C419.887 41.2324 420.283 41.0254 420.541 40.6113C420.803 40.1973 420.939 39.5449 420.951 38.6543V36.8789Z" fill="black"/>
<path d="M429.971 40.5645L432.127 35.6602H433.48V42H432.396V37.3887L430.346 42H429.596L427.504 37.2891V42H426.42V35.6602H427.826L429.971 40.5645ZM434.939 38.7715C434.939 38.1504 435.061 37.5918 435.303 37.0957C435.549 36.5996 435.889 36.2168 436.322 35.9473C436.76 35.6777 437.258 35.543 437.816 35.543C438.68 35.543 439.377 35.8418 439.908 36.4395C440.443 37.0371 440.711 37.832 440.711 38.8242V38.9004C440.711 39.5176 440.592 40.0723 440.354 40.5645C440.119 41.0527 439.781 41.4336 439.34 41.707C438.902 41.9805 438.398 42.1172 437.828 42.1172C436.969 42.1172 436.271 41.8184 435.736 41.2207C435.205 40.623 434.939 39.832 434.939 38.8477V38.7715ZM436.029 38.9004C436.029 39.6035 436.191 40.168 436.516 40.5938C436.844 41.0195 437.281 41.2324 437.828 41.2324C438.379 41.2324 438.816 41.0176 439.141 40.5879C439.465 40.1543 439.627 39.5488 439.627 38.7715C439.627 38.0762 439.461 37.5137 439.129 37.084C438.801 36.6504 438.363 36.4336 437.816 36.4336C437.281 36.4336 436.85 36.6465 436.521 37.0723C436.193 37.498 436.029 38.1074 436.029 38.9004Z" fill="black"/>
<path d="M441 36L435 41.5" stroke="black" stroke-linecap="round"/>
</g>
<path d="M428.2 102.664C428.2 112.167 427.353 120.755 425.992 126.955C425.31 130.059 424.505 132.537 423.628 134.226C423.189 135.072 422.745 135.695 422.309 136.101C421.875 136.505 421.481 136.668 421.123 136.668C420.764 136.668 420.37 136.505 419.936 136.101C419.5 135.695 419.056 135.072 418.617 134.226C417.74 132.537 416.935 130.059 416.253 126.955C414.892 120.755 414.045 112.167 414.045 102.664C414.045 93.1603 414.892 84.5718 416.253 78.3723C416.935 75.2685 417.74 72.7906 418.617 71.1008C419.056 70.2553 419.5 69.6319 419.936 69.2257C420.37 68.8218 420.764 68.6589 421.123 68.6589C421.481 68.6589 421.875 68.8218 422.309 69.2257C422.745 69.6319 423.189 70.2553 423.628 71.1008C424.505 72.7906 425.31 75.2685 425.992 78.3723C427.353 84.5718 428.2 93.1603 428.2 102.664Z" stroke="#CAEE45"/>
<line x1="420.784" y1="91.0696" x2="420.784" y2="112.93" stroke="#CECECE" stroke-width="0.7" stroke-linecap="round"/>
<path d="M512.451 179.207H513.265C513.777 179.199 514.179 179.064 514.472 178.803C514.765 178.541 514.912 178.188 514.912 177.742C514.912 176.742 514.414 176.242 513.418 176.242C512.949 176.242 512.574 176.377 512.293 176.646C512.015 176.912 511.877 177.266 511.877 177.707H510.793C510.793 177.031 511.039 176.471 511.531 176.025C512.027 175.576 512.656 175.352 513.418 175.352C514.222 175.352 514.853 175.564 515.31 175.99C515.767 176.416 515.996 177.008 515.996 177.766C515.996 178.137 515.875 178.496 515.632 178.844C515.394 179.191 515.068 179.451 514.654 179.623C515.123 179.771 515.484 180.018 515.738 180.361C515.996 180.705 516.125 181.125 516.125 181.621C516.125 182.387 515.875 182.994 515.375 183.443C514.875 183.893 514.224 184.117 513.423 184.117C512.623 184.117 511.97 183.9 511.466 183.467C510.966 183.033 510.716 182.461 510.716 181.75H511.806C511.806 182.199 511.953 182.559 512.246 182.828C512.539 183.098 512.931 183.232 513.423 183.232C513.947 183.232 514.347 183.096 514.625 182.822C514.902 182.549 515.041 182.156 515.041 181.645C515.041 181.148 514.888 180.768 514.584 180.502C514.279 180.236 513.839 180.1 513.265 180.092H512.451V179.207ZM517.689 185.699L517.074 185.277C517.441 184.766 517.632 184.238 517.648 183.695V182.717H518.709V183.566C518.709 183.961 518.611 184.355 518.416 184.75C518.224 185.145 517.982 185.461 517.689 185.699ZM521.545 179.207H522.359C522.871 179.199 523.273 179.064 523.566 178.803C523.859 178.541 524.005 178.188 524.005 177.742C524.005 176.742 523.507 176.242 522.511 176.242C522.043 176.242 521.668 176.377 521.386 176.646C521.109 176.912 520.97 177.266 520.97 177.707H519.886C519.886 177.031 520.132 176.471 520.625 176.025C521.121 175.576 521.75 175.352 522.511 175.352C523.316 175.352 523.947 175.564 524.404 175.99C524.861 176.416 525.089 177.008 525.089 177.766C525.089 178.137 524.968 178.496 524.726 178.844C524.488 179.191 524.162 179.451 523.748 179.623C524.216 179.771 524.578 180.018 524.832 180.361C525.089 180.705 525.218 181.125 525.218 181.621C525.218 182.387 524.968 182.994 524.468 183.443C523.968 183.893 523.318 184.117 522.517 184.117C521.716 184.117 521.064 183.9 520.56 183.467C520.06 183.033 519.81 182.461 519.81 181.75H520.9C520.9 182.199 521.047 182.559 521.339 182.828C521.632 183.098 522.025 183.232 522.517 183.232C523.041 183.232 523.441 183.096 523.718 182.822C523.996 182.549 524.134 182.156 524.134 181.645C524.134 181.148 523.982 180.768 523.677 180.502C523.373 180.236 522.933 180.1 522.359 180.092H521.545V179.207ZM530.961 175.463V176.383H530.761C529.918 176.398 529.246 176.648 528.746 177.133C528.246 177.617 527.957 178.299 527.879 179.178C528.328 178.662 528.941 178.404 529.718 178.404C530.461 178.404 531.052 178.666 531.494 179.189C531.939 179.713 532.162 180.389 532.162 181.217C532.162 182.096 531.922 182.799 531.441 183.326C530.964 183.854 530.324 184.117 529.519 184.117C528.703 184.117 528.041 183.805 527.533 183.18C527.025 182.551 526.771 181.742 526.771 180.754V180.338C526.771 178.768 527.105 177.568 527.773 176.74C528.445 175.908 529.443 175.482 530.767 175.463H530.961ZM529.537 179.307C529.166 179.307 528.824 179.418 528.511 179.641C528.199 179.863 527.982 180.143 527.861 180.479V180.877C527.861 181.58 528.019 182.146 528.336 182.576C528.652 183.006 529.047 183.221 529.519 183.221C530.007 183.221 530.39 183.041 530.668 182.682C530.949 182.322 531.089 181.852 531.089 181.27C531.089 180.684 530.947 180.211 530.662 179.852C530.38 179.488 530.005 179.307 529.537 179.307ZM541.73 177.66V184H540.64V178.557H538.484L538.355 180.93C538.285 182.02 538.101 182.799 537.804 183.268C537.511 183.736 537.045 183.98 536.404 184H535.97V183.045L536.281 183.021C536.632 182.982 536.884 182.779 537.037 182.412C537.189 182.045 537.287 181.365 537.33 180.373L537.447 177.66H541.73ZM545.445 181.299H544.654V184H543.564V177.66H544.654V180.344H545.363L547.496 177.66H548.808L546.3 180.707L549.019 184H547.642L545.445 181.299Z" fill="black"/>
<g clip-path="url(#clip2)">
<path d="M516.799 28H511.209V27.2207L514.162 23.9395C514.6 23.4434 514.9 23.041 515.064 22.7324C515.232 22.4199 515.316 22.0977 515.316 21.7656C515.316 21.3203 515.182 20.9551 514.912 20.6699C514.643 20.3848 514.283 20.2422 513.834 20.2422C513.295 20.2422 512.875 20.3965 512.574 20.7051C512.277 21.0098 512.129 21.4355 512.129 21.9824H511.045C511.045 21.1973 511.297 20.5625 511.801 20.0781C512.309 19.5938 512.986 19.3516 513.834 19.3516C514.627 19.3516 515.254 19.5605 515.715 19.9785C516.176 20.3926 516.406 20.9453 516.406 21.6367C516.406 22.4766 515.871 23.4766 514.801 24.6367L512.516 27.1152H516.799V28ZM522.523 25.1348H523.707V26.0195H522.523V28H521.434V26.0195H517.549V25.3809L521.369 19.4688H522.523V25.1348ZM518.779 25.1348H521.434V20.9512L521.305 21.1855L518.779 25.1348ZM529.262 25.1348H530.445V26.0195H529.262V28H528.172V26.0195H524.287V25.3809L528.107 19.4688H529.262V25.1348ZM525.518 25.1348H528.172V20.9512L528.043 21.1855L525.518 25.1348Z" fill="black"/>
<path d="M537.971 26.5645L540.127 21.6602H541.48V28H540.396V23.3887L538.346 28H537.596L535.504 23.2891V28H534.42V21.6602H535.826L537.971 26.5645ZM542.939 24.7715C542.939 24.1504 543.061 23.5918 543.303 23.0957C543.549 22.5996 543.889 22.2168 544.322 21.9473C544.76 21.6777 545.258 21.543 545.816 21.543C546.68 21.543 547.377 21.8418 547.908 22.4395C548.443 23.0371 548.711 23.832 548.711 24.8242V24.9004C548.711 25.5176 548.592 26.0723 548.354 26.5645C548.119 27.0527 547.781 27.4336 547.34 27.707C546.902 27.9805 546.398 28.1172 545.828 28.1172C544.969 28.1172 544.271 27.8184 543.736 27.2207C543.205 26.623 542.939 25.832 542.939 24.8477V24.7715ZM544.029 24.9004C544.029 25.6035 544.191 26.168 544.516 26.5938C544.844 27.0195 545.281 27.2324 545.828 27.2324C546.379 27.2324 546.816 27.0176 547.141 26.5879C547.465 26.1543 547.627 25.5488 547.627 24.7715C547.627 24.0762 547.461 23.5137 547.129 23.084C546.801 22.6504 546.363 22.4336 545.816 22.4336C545.281 22.4336 544.85 22.6465 544.521 23.0723C544.193 23.498 544.029 24.1074 544.029 24.9004Z" fill="black"/>
<path d="M549 22L543 27.5" stroke="black" stroke-linecap="round"/>
</g>
<path d="M537.571 102.794C537.571 114.177 536.563 124.466 534.941 131.897C534.128 135.617 533.168 138.593 532.118 140.627C531.592 141.645 531.057 142.402 530.527 142.899C529.999 143.393 529.507 143.603 529.051 143.603C528.594 143.603 528.102 143.393 527.575 142.899C527.045 142.402 526.509 141.645 525.984 140.627C524.934 138.593 523.973 135.617 523.161 131.897C521.538 124.466 520.53 114.177 520.53 102.794C520.53 91.4122 521.538 81.1226 523.161 73.6916C523.973 69.9721 524.934 66.9958 525.984 64.9616C526.509 63.9438 527.045 63.1868 527.575 62.6901C528.102 62.1957 528.594 61.986 529.051 61.986C529.507 61.986 529.999 62.1957 530.527 62.6901C531.057 63.1868 531.592 63.9438 532.118 64.9616C533.168 66.9958 534.128 69.9721 534.941 73.6916C536.563 81.1226 537.571 91.4122 537.571 102.794Z" stroke="#CAEE45"/>
<line x1="528.581" y1="88.8453" x2="528.581" y2="115.155" stroke="#CECECE" stroke-width="0.7" stroke-linecap="round"/>
<path d="M640.47 201H639.38V193.775L637.195 194.578V193.594L640.3 192.428H640.47V201ZM643.722 202.699L643.107 202.277C643.474 201.766 643.666 201.238 643.681 200.695V199.717H644.742V200.566C644.742 200.961 644.644 201.355 644.449 201.75C644.257 202.145 644.015 202.461 643.722 202.699ZM650.255 192.463V193.383H650.056C649.213 193.398 648.541 193.648 648.041 194.133C647.541 194.617 647.252 195.299 647.173 196.178C647.623 195.662 648.236 195.404 649.013 195.404C649.755 195.404 650.347 195.666 650.789 196.189C651.234 196.713 651.457 197.389 651.457 198.217C651.457 199.096 651.216 199.799 650.736 200.326C650.259 200.854 649.619 201.117 648.814 201.117C647.998 201.117 647.336 200.805 646.828 200.18C646.32 199.551 646.066 198.742 646.066 197.754V197.338C646.066 195.768 646.4 194.568 647.068 193.74C647.74 192.908 648.738 192.482 650.062 192.463H650.255ZM648.832 196.307C648.461 196.307 648.119 196.418 647.806 196.641C647.494 196.863 647.277 197.143 647.156 197.479V197.877C647.156 198.58 647.314 199.146 647.63 199.576C647.947 200.006 648.341 200.221 648.814 200.221C649.302 200.221 649.685 200.041 649.963 199.682C650.244 199.322 650.384 198.852 650.384 198.27C650.384 197.684 650.242 197.211 649.957 196.852C649.675 196.488 649.3 196.307 648.832 196.307ZM653.238 196.723L653.672 192.469H658.043V193.471H654.591L654.334 195.797C654.752 195.551 655.226 195.428 655.757 195.428C656.535 195.428 657.152 195.686 657.609 196.201C658.066 196.713 658.295 197.406 658.295 198.281C658.295 199.16 658.056 199.854 657.58 200.361C657.107 200.865 656.445 201.117 655.593 201.117C654.839 201.117 654.224 200.908 653.748 200.49C653.271 200.072 653 199.494 652.933 198.756H653.959C654.025 199.244 654.199 199.613 654.48 199.863C654.761 200.109 655.132 200.232 655.593 200.232C656.097 200.232 656.492 200.061 656.777 199.717C657.066 199.373 657.211 198.898 657.211 198.293C657.211 197.723 657.054 197.266 656.742 196.922C656.433 196.574 656.021 196.4 655.505 196.4C655.033 196.4 654.662 196.504 654.392 196.711L654.105 196.945L653.238 196.723ZM667.763 194.66V201H666.673V195.557H664.517L664.388 197.93C664.318 199.02 664.134 199.799 663.838 200.268C663.545 200.736 663.078 200.98 662.437 201H662.004V200.045L662.314 200.021C662.666 199.982 662.918 199.779 663.07 199.412C663.222 199.045 663.32 198.365 663.363 197.373L663.48 194.66H667.763ZM671.478 198.299H670.687V201H669.597V194.66H670.687V197.344H671.396L673.529 194.66H674.841L672.334 197.707L675.052 201H673.675L671.478 198.299Z" fill="black"/>
<g clip-path="url(#clip3)">
<path d="M638.785 6.20703H639.6C640.111 6.19922 640.514 6.06445 640.807 5.80273C641.1 5.54102 641.246 5.1875 641.246 4.74219C641.246 3.74219 640.748 3.24219 639.752 3.24219C639.283 3.24219 638.908 3.37695 638.627 3.64648C638.35 3.91211 638.211 4.26562 638.211 4.70703H637.127C637.127 4.03125 637.373 3.4707 637.865 3.02539C638.361 2.57617 638.99 2.35156 639.752 2.35156C640.557 2.35156 641.188 2.56445 641.645 2.99023C642.102 3.41602 642.33 4.00781 642.33 4.76562C642.33 5.13672 642.209 5.49609 641.967 5.84375C641.729 6.19141 641.402 6.45117 640.988 6.62305C641.457 6.77148 641.818 7.01758 642.072 7.36133C642.33 7.70508 642.459 8.125 642.459 8.62109C642.459 9.38672 642.209 9.99414 641.709 10.4434C641.209 10.8926 640.559 11.1172 639.758 11.1172C638.957 11.1172 638.305 10.9004 637.801 10.4668C637.301 10.0332 637.051 9.46094 637.051 8.75H638.141C638.141 9.19922 638.287 9.55859 638.58 9.82812C638.873 10.0977 639.266 10.2324 639.758 10.2324C640.281 10.2324 640.682 10.0957 640.959 9.82227C641.236 9.54883 641.375 9.15625 641.375 8.64453C641.375 8.14844 641.223 7.76758 640.918 7.50195C640.613 7.23633 640.174 7.09961 639.6 7.0918H638.785V6.20703ZM648.523 8.13477H649.707V9.01953H648.523V11H647.434V9.01953H643.549V8.38086L647.369 2.46875H648.523V8.13477ZM644.779 8.13477H647.434V3.95117L647.305 4.18555L644.779 8.13477ZM654.84 7.25C654.613 7.51953 654.342 7.73633 654.025 7.90039C653.713 8.06445 653.369 8.14648 652.994 8.14648C652.502 8.14648 652.072 8.02539 651.705 7.7832C651.342 7.54102 651.061 7.20117 650.861 6.76367C650.662 6.32227 650.562 5.83594 650.562 5.30469C650.562 4.73438 650.67 4.2207 650.885 3.76367C651.104 3.30664 651.412 2.95703 651.811 2.71484C652.209 2.47266 652.674 2.35156 653.205 2.35156C654.049 2.35156 654.713 2.66797 655.197 3.30078C655.686 3.92969 655.93 4.78906 655.93 5.87891V6.19531C655.93 7.85547 655.602 9.06836 654.945 9.83398C654.289 10.5957 653.299 10.9863 651.975 11.0059H651.764V10.0918H651.992C652.887 10.0762 653.574 9.84375 654.055 9.39453C654.535 8.94141 654.797 8.22656 654.84 7.25ZM653.17 7.25C653.533 7.25 653.867 7.13867 654.172 6.91602C654.48 6.69336 654.705 6.41797 654.846 6.08984V5.65625C654.846 4.94531 654.691 4.36719 654.383 3.92188C654.074 3.47656 653.684 3.25391 653.211 3.25391C652.734 3.25391 652.352 3.4375 652.062 3.80469C651.773 4.16797 651.629 4.64844 651.629 5.24609C651.629 5.82812 651.768 6.30859 652.045 6.6875C652.326 7.0625 652.701 7.25 653.17 7.25Z" fill="black"/>
<path d="M663.971 9.56445L666.127 4.66016H667.48V11H666.396V6.38867L664.346 11H663.596L661.504 6.28906V11H660.42V4.66016H661.826L663.971 9.56445ZM668.939 7.77148C668.939 7.15039 669.061 6.5918 669.303 6.0957C669.549 5.59961 669.889 5.2168 670.322 4.94727C670.76 4.67773 671.258 4.54297 671.816 4.54297C672.68 4.54297 673.377 4.8418 673.908 5.43945C674.443 6.03711 674.711 6.83203 674.711 7.82422V7.90039C674.711 8.51758 674.592 9.07227 674.354 9.56445C674.119 10.0527 673.781 10.4336 673.34 10.707C672.902 10.9805 672.398 11.1172 671.828 11.1172C670.969 11.1172 670.271 10.8184 669.736 10.2207C669.205 9.62305 668.939 8.83203 668.939 7.84766V7.77148ZM670.029 7.90039C670.029 8.60352 670.191 9.16797 670.516 9.59375C670.844 10.0195 671.281 10.2324 671.828 10.2324C672.379 10.2324 672.816 10.0176 673.141 9.58789C673.465 9.1543 673.627 8.54883 673.627 7.77148C673.627 7.07617 673.461 6.51367 673.129 6.08398C672.801 5.65039 672.363 5.43359 671.816 5.43359C671.281 5.43359 670.85 5.64648 670.521 6.07227C670.193 6.49805 670.029 7.10742 670.029 7.90039Z" fill="black"/>
<path d="M675 5L669 10.5" stroke="black" stroke-linecap="round"/>
</g>
<path d="M665.285 102.953C665.285 116.617 664.076 128.972 662.126 137.898C661.151 142.365 659.996 145.946 658.73 148.399C658.097 149.625 657.448 150.545 656.8 151.151C656.155 151.756 655.542 152.023 654.961 152.023C654.38 152.023 653.766 151.756 653.121 151.151C652.474 150.545 651.825 149.625 651.192 148.399C649.926 145.946 648.771 142.365 647.795 137.898C645.846 128.972 644.636 116.617 644.636 102.953C644.636 89.2897 645.846 76.9346 647.795 68.0086C648.771 63.5415 649.926 59.9603 651.192 57.508C651.825 56.2812 652.474 55.3619 653.121 54.7551C653.766 54.1507 654.38 53.8832 654.961 53.8832C655.542 53.8832 656.155 54.1507 656.8 54.7551C657.448 55.3619 658.097 56.2812 658.73 57.508C659.996 59.9603 661.151 63.5415 662.126 68.0086C664.076 76.9346 665.285 89.2897 665.285 102.953Z" stroke="#CAEE45"/>
<line x1="654.327" y1="86.1444" x2="654.327" y2="117.856" stroke="#CECECE" stroke-width="0.7" stroke-linecap="round"/>
<path d="M113.5 243.65L700 243.65" stroke="#CED2BA" stroke-width="0.7"/>
<line x1="0.35" y1="-0.35" x2="4.65" y2="-0.35" transform="matrix(-1.23266e-06 1 -1 -1.55005e-09 168 241)" stroke="#666666" stroke-width="0.7" stroke-linecap="round"/>
<line x1="0.35" y1="-0.35" x2="4.65" y2="-0.35" transform="matrix(-1.23266e-06 1 -1 -1.55005e-09 230 241)" stroke="#666666" stroke-width="0.7" stroke-linecap="round"/>
<line x1="0.35" y1="-0.35" x2="4.65" y2="-0.35" transform="matrix(-1.23266e-06 1 -1 -1.55005e-09 315 241)" stroke="#666666" stroke-width="0.7" stroke-linecap="round"/>
<line x1="0.35" y1="-0.35" x2="4.65" y2="-0.35" transform="matrix(-1.23266e-06 1 -1 -1.55005e-09 414 241)" stroke="#666666" stroke-width="0.7" stroke-linecap="round"/>
<line x1="0.35" y1="-0.35" x2="4.65" y2="-0.35" transform="matrix(-1.23266e-06 1 -1 -1.55005e-09 521 241)" stroke="#666666" stroke-width="0.7" stroke-linecap="round"/>
<line x1="0.35" y1="-0.35" x2="4.65" y2="-0.35" transform="matrix(-1.23266e-06 1 -1 -1.55005e-09 646 241)" stroke="#666666" stroke-width="0.7" stroke-linecap="round"/>
<path d="M161.249 258H156.591V257.351L159.052 254.616C159.416 254.203 159.667 253.868 159.804 253.61C159.944 253.35 160.014 253.081 160.014 252.805C160.014 252.434 159.901 252.129 159.677 251.892C159.452 251.654 159.153 251.535 158.778 251.535C158.329 251.535 157.979 251.664 157.729 251.921C157.481 252.175 157.357 252.53 157.357 252.985H156.454C156.454 252.331 156.664 251.802 157.084 251.398C157.507 250.995 158.072 250.793 158.778 250.793C159.439 250.793 159.962 250.967 160.346 251.315C160.73 251.66 160.922 252.121 160.922 252.697C160.922 253.397 160.476 254.23 159.584 255.197L157.68 257.263H161.249V258ZM166.664 254.968C166.664 256.026 166.483 256.812 166.122 257.326C165.761 257.84 165.196 258.098 164.428 258.098C163.669 258.098 163.108 257.847 162.743 257.346C162.379 256.841 162.19 256.089 162.177 255.09V253.884C162.177 252.839 162.357 252.062 162.719 251.555C163.08 251.047 163.646 250.793 164.418 250.793C165.183 250.793 165.746 251.039 166.107 251.53C166.469 252.019 166.654 252.774 166.664 253.796V254.968ZM165.761 253.732C165.761 252.967 165.653 252.411 165.438 252.062C165.224 251.711 164.883 251.535 164.418 251.535C163.956 251.535 163.619 251.709 163.407 252.058C163.196 252.406 163.087 252.941 163.08 253.664V255.109C163.08 255.878 163.191 256.446 163.412 256.813C163.637 257.178 163.975 257.36 164.428 257.36C164.874 257.36 165.204 257.188 165.419 256.843C165.637 256.498 165.751 255.954 165.761 255.212V253.732ZM172.279 254.968C172.279 256.026 172.099 256.812 171.737 257.326C171.376 257.84 170.811 258.098 170.043 258.098C169.285 258.098 168.723 257.847 168.358 257.346C167.994 256.841 167.805 256.089 167.792 255.09V253.884C167.792 252.839 167.973 252.062 168.334 251.555C168.695 251.047 169.262 250.793 170.033 250.793C170.798 250.793 171.361 251.039 171.723 251.53C172.084 252.019 172.27 252.774 172.279 253.796V254.968ZM171.376 253.732C171.376 252.967 171.269 252.411 171.054 252.062C170.839 251.711 170.499 251.535 170.033 251.535C169.571 251.535 169.234 251.709 169.022 252.058C168.811 252.406 168.702 252.941 168.695 253.664V255.109C168.695 255.878 168.806 256.446 169.027 256.813C169.252 257.178 169.59 257.36 170.043 257.36C170.489 257.36 170.819 257.188 171.034 256.843C171.252 256.498 171.366 255.954 171.376 255.212V253.732ZM179.052 256.804L180.849 252.717H181.977V258H181.073V254.157L179.364 258H178.739L176.996 254.074V258H176.093V252.717H177.265L179.052 256.804Z" fill="#666666"/>
<path d="M217.56 258H216.651V251.979L214.83 252.648V251.828L217.418 250.856H217.56V258ZM227.145 254.968C227.145 256.026 226.964 256.812 226.603 257.326C226.241 257.84 225.676 258.098 224.908 258.098C224.15 258.098 223.588 257.847 223.224 257.346C222.859 256.841 222.67 256.089 222.657 255.09V253.884C222.657 252.839 222.838 252.062 223.199 251.555C223.561 251.047 224.127 250.793 224.898 250.793C225.663 250.793 226.227 251.039 226.588 251.53C226.949 252.019 227.135 252.774 227.145 253.796V254.968ZM226.241 253.732C226.241 252.967 226.134 252.411 225.919 252.062C225.704 251.711 225.364 251.535 224.898 251.535C224.436 251.535 224.099 251.709 223.888 252.058C223.676 252.406 223.567 252.941 223.561 253.664V255.109C223.561 255.878 223.671 256.446 223.893 256.813C224.117 257.178 224.456 257.36 224.908 257.36C225.354 257.36 225.685 257.188 225.899 256.843C226.118 256.498 226.231 255.954 226.241 255.212V253.732ZM232.76 254.968C232.76 256.026 232.579 256.812 232.218 257.326C231.856 257.84 231.292 258.098 230.523 258.098C229.765 258.098 229.203 257.847 228.839 257.346C228.474 256.841 228.285 256.089 228.272 255.09V253.884C228.272 252.839 228.453 252.062 228.814 251.555C229.176 251.047 229.742 250.793 230.514 250.793C231.279 250.793 231.842 251.039 232.203 251.53C232.564 252.019 232.75 252.774 232.76 253.796V254.968ZM231.856 253.732C231.856 252.967 231.749 252.411 231.534 252.062C231.319 251.711 230.979 251.535 230.514 251.535C230.051 251.535 229.715 251.709 229.503 252.058C229.291 252.406 229.182 252.941 229.176 253.664V255.109C229.176 255.878 229.286 256.446 229.508 256.813C229.732 257.178 230.071 257.36 230.523 257.36C230.969 257.36 231.3 257.188 231.515 256.843C231.733 256.498 231.847 255.954 231.856 255.212V253.732ZM238.375 254.968C238.375 256.026 238.194 256.812 237.833 257.326C237.472 257.84 236.907 258.098 236.139 258.098C235.38 258.098 234.819 257.847 234.454 257.346C234.09 256.841 233.901 256.089 233.888 255.09V253.884C233.888 252.839 234.068 252.062 234.43 251.555C234.791 251.047 235.357 250.793 236.129 250.793C236.894 250.793 237.457 251.039 237.818 251.53C238.18 252.019 238.365 252.774 238.375 253.796V254.968ZM237.472 253.732C237.472 252.967 237.364 252.411 237.149 252.062C236.935 251.711 236.594 251.535 236.129 251.535C235.667 251.535 235.33 251.709 235.118 252.058C234.907 252.406 234.798 252.941 234.791 253.664V255.109C234.791 255.878 234.902 256.446 235.123 256.813C235.348 257.178 235.686 257.36 236.139 257.36C236.585 257.36 236.915 257.188 237.13 256.843C237.348 256.498 237.462 255.954 237.472 255.212V253.732ZM245.147 256.804L246.944 252.717H248.072V258H247.169V254.157L245.46 258H244.835L243.092 254.074V258H242.188V252.717H243.36L245.147 256.804Z" fill="#666666"/>
<path d="M303.249 258H298.591V257.351L301.052 254.616C301.416 254.203 301.667 253.868 301.804 253.61C301.944 253.35 302.014 253.081 302.014 252.805C302.014 252.434 301.901 252.129 301.677 251.892C301.452 251.654 301.153 251.535 300.778 251.535C300.329 251.535 299.979 251.664 299.729 251.921C299.481 252.175 299.357 252.53 299.357 252.985H298.454C298.454 252.331 298.664 251.802 299.084 251.398C299.507 250.995 300.072 250.793 300.778 250.793C301.439 250.793 301.962 250.967 302.346 251.315C302.73 251.66 302.922 252.121 302.922 252.697C302.922 253.397 302.476 254.23 301.584 255.197L299.68 257.263H303.249V258ZM307.102 254.436L307.463 250.891H311.105V251.726H308.229L308.015 253.664C308.363 253.459 308.758 253.356 309.201 253.356C309.849 253.356 310.363 253.571 310.744 254.001C311.125 254.427 311.315 255.005 311.315 255.734C311.315 256.467 311.117 257.045 310.72 257.468C310.326 257.888 309.774 258.098 309.064 258.098C308.436 258.098 307.924 257.924 307.526 257.575C307.129 257.227 306.903 256.745 306.848 256.13H307.702C307.757 256.537 307.902 256.844 308.137 257.053C308.371 257.258 308.68 257.36 309.064 257.36C309.484 257.36 309.813 257.217 310.051 256.931C310.292 256.644 310.412 256.249 310.412 255.744C310.412 255.269 310.282 254.888 310.021 254.602C309.764 254.312 309.421 254.167 308.991 254.167C308.597 254.167 308.288 254.253 308.063 254.426L307.824 254.621L307.102 254.436ZM316.76 254.968C316.76 256.026 316.579 256.812 316.218 257.326C315.856 257.84 315.292 258.098 314.523 258.098C313.765 258.098 313.203 257.847 312.839 257.346C312.474 256.841 312.285 256.089 312.272 255.09V253.884C312.272 252.839 312.453 252.062 312.814 251.555C313.176 251.047 313.742 250.793 314.514 250.793C315.279 250.793 315.842 251.039 316.203 251.53C316.564 252.019 316.75 252.774 316.76 253.796V254.968ZM315.856 253.732C315.856 252.967 315.749 252.411 315.534 252.062C315.319 251.711 314.979 251.535 314.514 251.535C314.051 251.535 313.715 251.709 313.503 252.058C313.291 252.406 313.182 252.941 313.176 253.664V255.109C313.176 255.878 313.286 256.446 313.508 256.813C313.732 257.178 314.071 257.36 314.523 257.36C314.969 257.36 315.3 257.188 315.515 256.843C315.733 256.498 315.847 255.954 315.856 255.212V253.732ZM322.375 254.968C322.375 256.026 322.194 256.812 321.833 257.326C321.472 257.84 320.907 258.098 320.139 258.098C319.38 258.098 318.819 257.847 318.454 257.346C318.09 256.841 317.901 256.089 317.888 255.09V253.884C317.888 252.839 318.068 252.062 318.43 251.555C318.791 251.047 319.357 250.793 320.129 250.793C320.894 250.793 321.457 251.039 321.818 251.53C322.18 252.019 322.365 252.774 322.375 253.796V254.968ZM321.472 253.732C321.472 252.967 321.364 252.411 321.149 252.062C320.935 251.711 320.594 251.535 320.129 251.535C319.667 251.535 319.33 251.709 319.118 252.058C318.907 252.406 318.798 252.941 318.791 253.664V255.109C318.791 255.878 318.902 256.446 319.123 256.813C319.348 257.178 319.686 257.36 320.139 257.36C320.585 257.36 320.915 257.188 321.13 256.843C321.348 256.498 321.462 255.954 321.472 255.212V253.732ZM329.147 256.804L330.944 252.717H332.072V258H331.169V254.157L329.46 258H328.835L327.092 254.074V258H326.188V252.717H327.36L329.147 256.804Z" fill="#666666"/>
<path d="M403.404 255.612H404.391V256.35H403.404V258H402.496V256.35H399.259V255.817L402.442 250.891H403.404V255.612ZM400.284 255.612H402.496V252.126L402.389 252.321L400.284 255.612ZM412.145 254.968C412.145 256.026 411.964 256.812 411.603 257.326C411.241 257.84 410.676 258.098 409.908 258.098C409.15 258.098 408.588 257.847 408.224 257.346C407.859 256.841 407.67 256.089 407.657 255.09V253.884C407.657 252.839 407.838 252.062 408.199 251.555C408.561 251.047 409.127 250.793 409.898 250.793C410.663 250.793 411.227 251.039 411.588 251.53C411.949 252.019 412.135 252.774 412.145 253.796V254.968ZM411.241 253.732C411.241 252.967 411.134 252.411 410.919 252.062C410.704 251.711 410.364 251.535 409.898 251.535C409.436 251.535 409.099 251.709 408.888 252.058C408.676 252.406 408.567 252.941 408.561 253.664V255.109C408.561 255.878 408.671 256.446 408.893 256.813C409.117 257.178 409.456 257.36 409.908 257.36C410.354 257.36 410.685 257.188 410.899 256.843C411.118 256.498 411.231 255.954 411.241 255.212V253.732ZM417.76 254.968C417.76 256.026 417.579 256.812 417.218 257.326C416.856 257.84 416.292 258.098 415.523 258.098C414.765 258.098 414.203 257.847 413.839 257.346C413.474 256.841 413.285 256.089 413.272 255.09V253.884C413.272 252.839 413.453 252.062 413.814 251.555C414.176 251.047 414.742 250.793 415.514 250.793C416.279 250.793 416.842 251.039 417.203 251.53C417.564 252.019 417.75 252.774 417.76 253.796V254.968ZM416.856 253.732C416.856 252.967 416.749 252.411 416.534 252.062C416.319 251.711 415.979 251.535 415.514 251.535C415.051 251.535 414.715 251.709 414.503 252.058C414.291 252.406 414.182 252.941 414.176 253.664V255.109C414.176 255.878 414.286 256.446 414.508 256.813C414.732 257.178 415.071 257.36 415.523 257.36C415.969 257.36 416.3 257.188 416.515 256.843C416.733 256.498 416.847 255.954 416.856 255.212V253.732ZM423.375 254.968C423.375 256.026 423.194 256.812 422.833 257.326C422.472 257.84 421.907 258.098 421.139 258.098C420.38 258.098 419.819 257.847 419.454 257.346C419.09 256.841 418.901 256.089 418.888 255.09V253.884C418.888 252.839 419.068 252.062 419.43 251.555C419.791 251.047 420.357 250.793 421.129 250.793C421.894 250.793 422.457 251.039 422.818 251.53C423.18 252.019 423.365 252.774 423.375 253.796V254.968ZM422.472 253.732C422.472 252.967 422.364 252.411 422.149 252.062C421.935 251.711 421.594 251.535 421.129 251.535C420.667 251.535 420.33 251.709 420.118 252.058C419.907 252.406 419.798 252.941 419.791 253.664V255.109C419.791 255.878 419.902 256.446 420.123 256.813C420.348 257.178 420.686 257.36 421.139 257.36C421.585 257.36 421.915 257.188 422.13 256.843C422.348 256.498 422.462 255.954 422.472 255.212V253.732ZM430.147 256.804L431.944 252.717H433.072V258H432.169V254.157L430.46 258H429.835L428.092 254.074V258H427.188V252.717H428.36L430.147 256.804Z" fill="#666666"/>
<path d="M510.181 251.398L507.236 258H506.289L509.224 251.633H505.376V250.891H510.181V251.398ZM518.145 254.968C518.145 256.026 517.964 256.812 517.603 257.326C517.241 257.84 516.676 258.098 515.908 258.098C515.15 258.098 514.588 257.847 514.224 257.346C513.859 256.841 513.67 256.089 513.657 255.09V253.884C513.657 252.839 513.838 252.062 514.199 251.555C514.561 251.047 515.127 250.793 515.898 250.793C516.663 250.793 517.227 251.039 517.588 251.53C517.949 252.019 518.135 252.774 518.145 253.796V254.968ZM517.241 253.732C517.241 252.967 517.134 252.411 516.919 252.062C516.704 251.711 516.364 251.535 515.898 251.535C515.436 251.535 515.099 251.709 514.888 252.058C514.676 252.406 514.567 252.941 514.561 253.664V255.109C514.561 255.878 514.671 256.446 514.893 256.813C515.117 257.178 515.456 257.36 515.908 257.36C516.354 257.36 516.685 257.188 516.899 256.843C517.118 256.498 517.231 255.954 517.241 255.212V253.732ZM523.76 254.968C523.76 256.026 523.579 256.812 523.218 257.326C522.856 257.84 522.292 258.098 521.523 258.098C520.765 258.098 520.203 257.847 519.839 257.346C519.474 256.841 519.285 256.089 519.272 255.09V253.884C519.272 252.839 519.453 252.062 519.814 251.555C520.176 251.047 520.742 250.793 521.514 250.793C522.279 250.793 522.842 251.039 523.203 251.53C523.564 252.019 523.75 252.774 523.76 253.796V254.968ZM522.856 253.732C522.856 252.967 522.749 252.411 522.534 252.062C522.319 251.711 521.979 251.535 521.514 251.535C521.051 251.535 520.715 251.709 520.503 252.058C520.291 252.406 520.182 252.941 520.176 253.664V255.109C520.176 255.878 520.286 256.446 520.508 256.813C520.732 257.178 521.071 257.36 521.523 257.36C521.969 257.36 522.3 257.188 522.515 256.843C522.733 256.498 522.847 255.954 522.856 255.212V253.732ZM529.375 254.968C529.375 256.026 529.194 256.812 528.833 257.326C528.472 257.84 527.907 258.098 527.139 258.098C526.38 258.098 525.819 257.847 525.454 257.346C525.09 256.841 524.901 256.089 524.888 255.09V253.884C524.888 252.839 525.068 252.062 525.43 251.555C525.791 251.047 526.357 250.793 527.129 250.793C527.894 250.793 528.457 251.039 528.818 251.53C529.18 252.019 529.365 252.774 529.375 253.796V254.968ZM528.472 253.732C528.472 252.967 528.364 252.411 528.149 252.062C527.935 251.711 527.594 251.535 527.129 251.535C526.667 251.535 526.33 251.709 526.118 252.058C525.907 252.406 525.798 252.941 525.791 253.664V255.109C525.791 255.878 525.902 256.446 526.123 256.813C526.348 257.178 526.686 257.36 527.139 257.36C527.585 257.36 527.915 257.188 528.13 256.843C528.348 256.498 528.462 255.954 528.472 255.212V253.732ZM536.147 256.804L537.944 252.717H539.072V258H538.169V254.157L536.46 258H535.835L534.092 254.074V258H533.188V252.717H534.36L536.147 256.804Z" fill="#666666"/>
<path d="M630.56 258H629.651V251.979L627.83 252.648V251.828L630.418 250.856H630.56V258ZM637.664 254.968C637.664 256.026 637.483 256.812 637.122 257.326C636.761 257.84 636.196 258.098 635.428 258.098C634.669 258.098 634.108 257.847 633.743 257.346C633.379 256.841 633.19 256.089 633.177 255.09V253.884C633.177 252.839 633.357 252.062 633.719 251.555C634.08 251.047 634.646 250.793 635.418 250.793C636.183 250.793 636.746 251.039 637.107 251.53C637.469 252.019 637.654 252.774 637.664 253.796V254.968ZM636.761 253.732C636.761 252.967 636.653 252.411 636.438 252.062C636.224 251.711 635.883 251.535 635.418 251.535C634.956 251.535 634.619 251.709 634.407 252.058C634.196 252.406 634.087 252.941 634.08 253.664V255.109C634.08 255.878 634.191 256.446 634.412 256.813C634.637 257.178 634.975 257.36 635.428 257.36C635.874 257.36 636.204 257.188 636.419 256.843C636.637 256.498 636.751 255.954 636.761 255.212V253.732ZM645.76 254.968C645.76 256.026 645.579 256.812 645.218 257.326C644.856 257.84 644.292 258.098 643.523 258.098C642.765 258.098 642.203 257.847 641.839 257.346C641.474 256.841 641.285 256.089 641.272 255.09V253.884C641.272 252.839 641.453 252.062 641.814 251.555C642.176 251.047 642.742 250.793 643.514 250.793C644.279 250.793 644.842 251.039 645.203 251.53C645.564 252.019 645.75 252.774 645.76 253.796V254.968ZM644.856 253.732C644.856 252.967 644.749 252.411 644.534 252.062C644.319 251.711 643.979 251.535 643.514 251.535C643.051 251.535 642.714 251.709 642.503 252.058C642.291 252.406 642.182 252.941 642.176 253.664V255.109C642.176 255.878 642.286 256.446 642.508 256.813C642.732 257.178 643.071 257.36 643.523 257.36C643.969 257.36 644.3 257.188 644.515 256.843C644.733 256.498 644.847 255.954 644.856 255.212V253.732ZM651.375 254.968C651.375 256.026 651.194 256.812 650.833 257.326C650.472 257.84 649.907 258.098 649.139 258.098C648.38 258.098 647.819 257.847 647.454 257.346C647.089 256.841 646.901 256.089 646.888 255.09V253.884C646.888 252.839 647.068 252.062 647.43 251.555C647.791 251.047 648.357 250.793 649.129 250.793C649.894 250.793 650.457 251.039 650.818 251.53C651.18 252.019 651.365 252.774 651.375 253.796V254.968ZM650.472 253.732C650.472 252.967 650.364 252.411 650.149 252.062C649.935 251.711 649.594 251.535 649.129 251.535C648.667 251.535 648.33 251.709 648.118 252.058C647.907 252.406 647.797 252.941 647.791 253.664V255.109C647.791 255.878 647.902 256.446 648.123 256.813C648.348 257.178 648.686 257.36 649.139 257.36C649.585 257.36 649.915 257.188 650.13 256.843C650.348 256.498 650.462 255.954 650.472 255.212V253.732ZM656.99 254.968C656.99 256.026 656.81 256.812 656.448 257.326C656.087 257.84 655.522 258.098 654.754 258.098C653.995 258.098 653.434 257.847 653.069 257.346C652.705 256.841 652.516 256.089 652.503 255.09V253.884C652.503 252.839 652.684 252.062 653.045 251.555C653.406 251.047 653.973 250.793 654.744 250.793C655.509 250.793 656.072 251.039 656.434 251.53C656.795 252.019 656.98 252.774 656.99 253.796V254.968ZM656.087 253.732C656.087 252.967 655.979 252.411 655.765 252.062C655.55 251.711 655.21 251.535 654.744 251.535C654.282 251.535 653.945 251.709 653.733 252.058C653.522 252.406 653.413 252.941 653.406 253.664V255.109C653.406 255.878 653.517 256.446 653.738 256.813C653.963 257.178 654.301 257.36 654.754 257.36C655.2 257.36 655.53 257.188 655.745 256.843C655.963 256.498 656.077 255.954 656.087 255.212V253.732ZM663.763 256.804L665.56 252.717H666.687V258H665.784V254.157L664.075 258H663.45L661.707 254.074V258H660.804V252.717H661.976L663.763 256.804Z" fill="#666666"/>
<defs>
<clipPath id="clip0">
<rect x="156.5" y="60" width="25" height="14" fill="white"/>
</clipPath>
<clipPath id="clip1">
<rect x="402.5" y="31" width="39" height="14" fill="white"/>
</clipPath>
<clipPath id="clip2">
<rect x="510.5" y="17" width="39" height="14" fill="white"/>
</clipPath>
<clipPath id="clip3">
<rect x="636.5" width="39" height="14" fill="white"/>
</clipPath>
</defs>
</svg>
